<svg width="336" height="252" viewBox="0 0 336 252" fill="none" xmlns="http://www.w3.org/2000/svg">
<g clip-path="url(#clip0_534_4450)">
<g opacity="0.2">
<path d="M312.965 146.504H39.5601V148.107H312.965V146.504Z" fill="white"/>
<path d="M312.965 139.739H39.5601V141.341H312.965V139.739Z" fill="white"/>
<path d="M312.965 133.018H39.5601V134.62H312.965V133.018Z" fill="white"/>
<path d="M312.965 126.252H39.5601V127.854H312.965V126.252Z" fill="white"/>
<path d="M312.965 119.531H39.5601V121.133H312.965V119.531Z" fill="white"/>
<path d="M312.965 112.765H39.5601V114.368H312.965V112.765Z" fill="white"/>
<path d="M312.965 106.044H39.5601V107.647H312.965V106.044Z" fill="white"/>
</g>
<path d="M305.674 166.247C327.41 144.394 327.41 108.964 305.674 87.1108C283.938 65.258 248.697 65.258 226.961 87.1108C205.225 108.964 205.225 144.394 226.961 166.247C248.697 188.1 283.938 188.1 305.674 166.247Z" fill="#0E5215"/>
<path d="M266.14 72.5879C276.768 72.5879 287.156 75.7562 295.993 81.6922C304.829 87.6283 311.716 96.0653 315.783 105.937C319.85 115.808 320.914 126.67 318.841 137.149C316.767 147.628 311.65 157.254 304.135 164.809C296.621 172.364 287.046 177.509 276.623 179.594C266.2 181.678 255.396 180.608 245.578 176.52C235.759 172.431 227.367 165.507 221.463 156.623C215.559 147.739 212.407 137.294 212.407 126.61C212.407 112.282 218.069 98.5417 228.145 88.4106C238.222 78.2795 251.89 72.5879 266.14 72.5879ZM266.14 70.7422C255.14 70.7777 244.397 74.0898 235.267 80.2602C226.138 86.4305 219.032 95.1823 214.847 105.41C210.661 115.638 209.585 126.884 211.753 137.727C213.92 148.57 219.235 158.523 227.026 166.331C234.817 174.139 244.735 179.451 255.527 181.595C266.318 183.74 277.5 182.621 287.66 178.381C297.82 174.14 306.502 166.968 312.61 157.77C318.718 148.571 321.978 137.76 321.978 126.7C321.984 119.335 320.542 112.041 317.736 105.237C314.93 98.4335 310.814 92.2544 305.626 87.0547C300.437 81.855 294.278 77.7372 287.502 74.9377C280.726 72.1383 273.466 70.7125 266.14 70.7422Z" fill="#2D8A01"/>
<path d="M301.589 162.141C321.069 142.556 321.069 110.802 301.589 91.2173C282.109 71.6323 250.526 71.6323 231.045 91.2173C211.565 110.802 211.565 142.556 231.045 162.141C250.526 181.726 282.109 181.726 301.589 162.141Z" stroke="#4DCA2E" stroke-width="0.338" stroke-miterlimit="10"/>
<path d="M266.32 169.287C289.714 169.287 308.679 150.22 308.679 126.7C308.679 103.18 289.714 84.1128 266.32 84.1128C242.925 84.1128 223.96 103.18 223.96 126.7C223.96 150.22 242.925 169.287 266.32 169.287Z" stroke="#4DCA2E" stroke-width="0.150222" stroke-miterlimit="10"/>
<path d="M311.769 132.327C311.986 130.46 312.09 128.58 312.082 126.7H318.037C318.052 128.821 317.932 130.941 317.679 133.048L311.769 132.327Z" fill="#0F7B29"/>
<path d="M311.366 134.848L311.5 134.083L317.411 135.028L317.231 135.929L311.366 134.848Z" fill="#0F7B29"/>
<path d="M310.649 138.27L311.052 136.424L316.918 137.684L316.425 139.755L310.649 138.27Z" fill="#0F7B29"/>
<path d="M304.38 152.315L305.365 150.74L310.47 153.891L309.306 155.647L304.38 152.315Z" fill="#0F7B29"/>
<path d="M302.5 154.927L303.037 154.206L303.574 153.441L308.455 156.907L307.828 157.763L307.201 158.618L302.5 154.927Z" fill="#0F7B29"/>
<path d="M310.022 140.475C310.009 140.281 310.009 140.085 310.022 139.89L315.709 141.601C315.689 141.825 315.689 142.051 315.709 142.276L310.022 140.475Z" fill="#0F7B29"/>
<path d="M294.037 163.345L294.664 162.85L298.335 167.577L297.619 168.117L294.037 163.345Z" fill="#0F7B29"/>
<path d="M291.171 165.371L291.977 164.876L292.738 164.29L296.186 169.197L295.29 169.828L294.395 170.368L291.171 165.371Z" fill="#0F7B29"/>
<path d="M289.201 166.586L289.738 166.271L292.783 171.403L292.201 171.763L289.201 166.586Z" fill="#0F7B29"/>
<path d="M306.171 149.344C307.483 147.029 308.591 144.604 309.485 142.096L315.082 144.122C314.064 146.949 312.821 149.689 311.366 152.315L306.171 149.344Z" fill="#0F7B29"/>
<path d="M295.828 161.904C297.858 160.185 299.732 158.287 301.425 156.232L305.903 160.104C303.981 162.396 301.869 164.519 299.589 166.451L295.828 161.904Z" fill="#0F7B29"/>
<path d="M284.051 169.107C285.767 168.357 287.441 167.516 289.066 166.586L292.066 171.763C290.226 172.816 288.327 173.763 286.38 174.599L284.051 169.107Z" fill="#0F7B29"/>
<path d="M281.812 170.008C282.073 169.938 282.327 169.847 282.574 169.738L284.678 175.32L283.827 175.635L281.812 170.008Z" fill="#0F7B29"/>
<path d="M278.499 171.088L280.29 170.548L282.126 176.22C281.454 176.49 280.783 176.625 280.111 176.85L278.499 171.088Z" fill="#0F7B29"/>
<path d="M263.275 172.619C263.886 172.665 264.499 172.665 265.11 172.619V178.606H263.006L263.275 172.619Z" fill="#0F7B29"/>
<path d="M260.051 172.303H261.931L261.349 178.246H259.245L260.051 172.303Z" fill="#0F7B29"/>
<path d="M276.26 171.628L276.887 171.493L278.23 177.346L277.559 177.481L276.26 171.628Z" fill="#0F7B29"/>
<path d="M248.588 169.152L249.349 169.467L247.11 175.004L246.304 174.689L248.588 169.152Z" fill="#0F7B29"/>
<path d="M245.453 167.667L247.11 168.522L244.647 173.924L242.722 173.024L245.453 167.667Z" fill="#0F7B29"/>
<path d="M243.393 166.586L243.976 166.901L241.065 172.123L240.438 171.763L243.393 166.586Z" fill="#0F7B29"/>
<path d="M266.722 172.709C269.365 172.694 272.001 172.453 274.603 171.989L275.678 177.841C272.725 178.4 269.727 178.686 266.722 178.696V172.709Z" fill="#0F7B29"/>
<path d="M250.737 170.008C253.227 170.903 255.788 171.581 258.394 172.033L257.185 177.931C254.241 177.43 251.348 176.662 248.543 175.635L250.737 170.008Z" fill="#0F7B29"/>
<path d="M238.737 163.48C240.259 164.56 241.781 165.641 243.214 166.586L240.259 171.763C238.437 170.687 236.674 169.515 234.975 168.252L238.737 163.48Z" fill="#0F7B29"/>
<path d="M236.766 161.859L237.348 162.4L233.587 166.901L232.916 166.316L236.766 161.859Z" fill="#0F7B29"/>
<path d="M234.214 159.518L235.557 160.824L231.527 165.236L230.005 163.795L234.214 159.518Z" fill="#0F7B29"/>
<path d="M225.214 147.003L226.065 148.714L220.826 151.55L219.885 149.659L225.214 147.003Z" fill="#0F7B29"/>
<path d="M223.871 144.077C223.871 144.662 224.408 145.203 224.632 145.788L219.214 148.264C218.945 147.634 218.632 147.003 218.363 146.328L223.871 144.077Z" fill="#0F7B29"/>
<path d="M232.557 157.853L233.005 158.303L228.662 162.4L228.214 161.904L232.557 157.853Z" fill="#0F7B29"/>
<path d="M220.87 132.507L221.005 133.318L215.094 134.173L214.96 133.273L220.87 132.507Z" fill="#0F7B29"/>
<path d="M220.557 129.041L220.691 130.932L214.781 131.427L214.602 129.356L220.557 129.041Z" fill="#0F7B29"/>
<path d="M220.512 126.7V127.33L214.557 127.42V126.7H220.512Z" fill="#0F7B29"/>
<path d="M226.871 150.064C228.165 152.357 229.664 154.527 231.348 156.547L226.871 160.464C224.945 158.163 223.208 155.709 221.676 153.126L226.871 150.064Z" fill="#0F7B29"/>
<path d="M221.363 134.803C221.828 137.424 222.517 140 223.423 142.501L217.825 144.527C216.799 141.705 216.02 138.798 215.497 135.839L221.363 134.803Z" fill="#0F7B29"/>
<path d="M220.87 121.073C220.638 122.939 220.519 124.819 220.512 126.7H214.557C214.579 124.578 214.714 122.46 214.96 120.352L220.87 121.073Z" fill="#0F7B29"/>
<path d="M221.229 118.552L221.094 119.362L215.229 118.417L215.363 117.516L221.229 118.552Z" fill="#0F7B29"/>
<path d="M221.99 115.13L221.542 116.976L215.721 115.715L216.214 113.645L221.99 115.13Z" fill="#0F7B29"/>
<path d="M228.259 101.085L227.229 102.66L222.169 99.5539L223.288 97.7532L228.259 101.085Z" fill="#0F7B29"/>
<path d="M230.139 98.4735L229.557 99.2388L229.02 100.004L224.184 96.4927L224.811 95.6373L225.438 94.782L230.139 98.4735Z" fill="#0F7B29"/>
<path d="M222.617 112.879C222.597 113.089 222.597 113.3 222.617 113.51L216.885 111.799C216.885 111.574 216.885 111.304 216.885 111.124L222.617 112.879Z" fill="#0F7B29"/>
<path d="M238.602 90.0549L237.975 90.5501L234.259 85.8682L234.975 85.283L238.602 90.0549Z" fill="#0F7B29"/>
<path d="M241.423 88.074L240.662 88.5692L239.901 89.1095L236.453 84.2025L237.304 83.6172L238.199 83.032L241.423 88.074Z" fill="#0F7B29"/>
<path d="M243.393 86.8586L242.901 87.1287L239.811 81.9966L240.438 81.6365L243.393 86.8586Z" fill="#0F7B29"/>
<path d="M226.423 104.056C225.126 106.372 224.032 108.797 223.154 111.304L217.512 109.278C218.565 106.443 219.853 103.702 221.363 101.084L226.423 104.056Z" fill="#0F7B29"/>
<path d="M236.811 91.4956C234.771 93.187 232.896 95.0714 231.214 97.1229L226.736 93.2963C228.634 90.9828 230.749 88.8572 233.05 86.9487L236.811 91.4956Z" fill="#0F7B29"/>
<path d="M248.229 84.2928C246.514 85.0425 244.84 85.8841 243.214 86.8138L240.259 81.6367C242.08 80.5752 243.964 79.628 245.901 78.8005L248.229 84.2928Z" fill="#0F7B29"/>
<path d="M250.782 83.3473L250.02 83.6624L247.916 78.0351L248.767 77.72L250.782 83.3473Z" fill="#0F7B29"/>
<path d="M254.095 82.3119C253.513 82.3119 252.886 82.627 252.304 82.8521L250.468 77.1348L252.528 76.5496L254.095 82.3119Z" fill="#0F7B29"/>
<path d="M269.364 80.7812C268.738 80.737 268.11 80.737 267.484 80.7812V74.7937C268.2 74.7488 268.917 74.7488 269.633 74.7937L269.364 80.7812Z" fill="#0F7B29"/>
<path d="M272.544 81.0962H270.708L271.245 75.1538H273.35L272.544 81.0962Z" fill="#0F7B29"/>
<path d="M256.334 81.7716L255.752 81.9066L254.364 76.0993L255.036 75.9192L256.334 81.7716Z" fill="#0F7B29"/>
<path d="M284.007 84.2476L283.29 83.9325L285.484 78.3953L286.335 78.7104L284.007 84.2476Z" fill="#0F7B29"/>
<path d="M287.186 85.7332L285.484 84.8779L287.992 79.4307L289.872 80.376L287.186 85.7332Z" fill="#0F7B29"/>
<path d="M289.201 86.8585L288.663 86.4984L291.574 81.3213L292.201 81.6364L289.201 86.8585Z" fill="#0F7B29"/>
<path d="M265.872 80.6461C263.228 80.6756 260.591 80.9317 257.991 81.4114L256.916 75.514C259.876 75.0018 262.869 74.7159 265.872 74.6587V80.6461Z" fill="#0F7B29"/>
<path d="M281.857 83.3922C279.369 82.491 276.807 81.813 274.2 81.3664L275.096 75.469C278.042 75.958 280.936 76.7267 283.738 77.7649L281.857 83.3922Z" fill="#0F7B29"/>
<path d="M293.858 89.9198C292.38 88.8394 290.813 87.759 289.38 86.8136L292.38 81.6365C294.211 82.6965 295.976 83.8692 297.664 85.1479L293.858 89.9198Z" fill="#0F7B29"/>
<path d="M295.873 91.5406L295.246 91.0004L299.007 86.4985L299.679 87.0838L295.873 91.5406Z" fill="#0F7B29"/>
<path d="M298.425 93.8816L297.082 92.6211L301.067 88.1643L302.589 89.6499L298.425 93.8816Z" fill="#0F7B29"/>
<path d="M307.425 106.397L306.574 104.731L311.769 101.85L312.754 103.741L307.425 106.397Z" fill="#0F7B29"/>
<path d="M308.724 109.323C308.5 108.738 308.231 108.153 307.962 107.612L313.38 105.091C313.702 105.735 313.986 106.396 314.231 107.072L308.724 109.323Z" fill="#0F7B29"/>
<path d="M300.037 95.5471L299.589 95.0969L303.932 91.0002L304.425 91.4954L300.037 95.5471Z" fill="#0F7B29"/>
<path d="M311.724 120.893L311.634 120.082L317.545 119.272L317.634 120.127L311.724 120.893Z" fill="#0F7B29"/>
<path d="M312.037 124.359L311.903 122.513L317.858 121.973L317.993 124.089L312.037 124.359Z" fill="#0F7B29"/>
<path d="M312.082 126.7V126.07L318.037 125.98V126.7H312.082Z" fill="#0F7B29"/>
<path d="M305.768 103.29C304.448 101.029 302.95 98.8761 301.291 96.8529L305.768 92.9363C307.689 95.2308 309.412 97.6857 310.918 100.274L305.768 103.29Z" fill="#0F7B29"/>
<path d="M311.366 118.597C310.915 115.977 310.241 113.401 309.351 110.898L314.948 108.828C315.954 111.668 316.718 114.59 317.231 117.561L311.366 118.597Z" fill="#0F7B29"/>
<path d="M266.319 142.997L241.737 130.121L266.319 87.624L290.902 130.121L266.319 142.997Z" stroke="#4DCA2E" stroke-width="1.50222" stroke-linejoin="round"/>
<path d="M266.319 147.048L241.737 134.173L266.319 166.181L290.902 134.173L266.319 147.048Z" stroke="#4DCA2E" stroke-width="1.50222" stroke-linejoin="round"/>
<path d="M266.319 87.5339V143.042" stroke="#4DCA2E" stroke-width="1.50222" stroke-miterlimit="10"/>
<path d="M241.737 130.121L266.319 117.246L290.902 130.121" stroke="#4DCA2E" stroke-width="1.50222" stroke-miterlimit="10"/>
<path d="M266.319 147.048V166.181" stroke="#4DCA2E" stroke-width="1.50222" stroke-miterlimit="10"/>
<path style="mix-blend-mode:screen" d="M266.14 72.5879C278.568 72.5977 290.609 76.9386 300.211 84.8712C309.813 92.8039 316.384 103.838 318.803 116.094C321.222 128.35 319.341 141.07 313.48 152.088C307.618 163.106 298.139 171.741 286.657 176.521C275.174 181.302 262.398 181.933 250.505 178.307C238.612 174.681 228.336 167.022 221.429 156.635C214.521 146.248 211.409 133.774 212.622 121.339C213.834 108.903 219.297 97.2752 228.08 88.4344C233.063 83.3897 238.994 79.391 245.528 76.6706C252.062 73.9503 259.068 72.5625 266.14 72.5879ZM266.14 70.7422C255.14 70.7777 244.397 74.0898 235.267 80.2602C226.138 86.4305 219.032 95.1823 214.847 105.41C210.661 115.638 209.585 126.884 211.753 137.727C213.92 148.57 219.235 158.523 227.026 166.331C234.817 174.139 244.735 179.451 255.527 181.595C266.318 183.74 277.5 182.621 287.66 178.381C297.82 174.14 306.502 166.968 312.61 157.77C318.718 148.571 321.978 137.76 321.978 126.7C321.984 119.335 320.542 112.041 317.736 105.237C314.93 98.4335 310.814 92.2544 305.626 87.0547C300.437 81.855 294.278 77.7372 287.502 74.9377C280.726 72.1383 273.466 70.7125 266.14 70.7422Z" fill="url(#paint0_linear_534_4450)"/>
<path d="M67.1037 181.847C97.2494 181.847 121.687 157.278 121.687 126.97C121.687 96.6622 97.2494 72.0928 67.1037 72.0928C36.9579 72.0928 12.52 96.6622 12.52 126.97C12.52 157.278 36.9579 181.847 67.1037 181.847Z" fill="#0E5215"/>
<path d="M67.1036 74.9739C77.3344 74.965 87.3379 78.0069 95.8487 83.7149C104.36 89.4229 110.995 97.5405 114.917 107.041C118.838 116.541 119.868 126.997 117.878 137.086C115.888 147.176 110.965 156.445 103.734 163.721C96.5032 170.997 87.288 175.954 77.2545 177.964C67.221 179.974 56.82 178.947 47.3672 175.012C37.9144 171.078 29.8345 164.414 24.1497 155.862C18.4648 147.311 15.4305 137.256 15.4305 126.97C15.4423 113.191 20.8888 99.9795 30.5756 90.2322C40.2623 80.4849 53.3986 74.9977 67.1036 74.9739ZM67.1036 72.0927C56.3023 72.066 45.7359 75.2617 36.7421 81.2755C27.7482 87.2892 20.7311 95.8505 16.5792 105.876C12.4273 115.901 11.3272 126.939 13.4181 137.593C15.5091 148.247 20.697 158.038 28.3253 165.726C35.9536 173.414 45.6792 178.654 56.271 180.783C66.8629 182.911 77.8447 181.832 87.8264 177.683C97.8081 173.533 106.341 166.5 112.345 157.472C118.348 148.445 121.553 137.829 121.553 126.97C121.553 119.76 120.14 112.62 117.394 105.959C114.648 99.298 110.623 93.2464 105.55 88.15C100.477 83.0536 94.4541 79.0123 87.8265 76.2571C81.199 73.5019 74.0963 72.0868 66.9245 72.0927H67.1036Z" fill="#2C8B00"/>
<path d="M67.1037 174.149C93.0206 174.149 114.03 153.027 114.03 126.97C114.03 100.914 93.0206 79.791 67.1037 79.791C41.1868 79.791 20.177 100.914 20.177 126.97C20.177 153.027 41.1868 174.149 67.1037 174.149Z" stroke="#4DCA2E" stroke-width="0.488222" stroke-miterlimit="10"/>
<path d="M113.762 129.851C113.762 128.906 113.762 127.915 113.762 126.97H117.075C117.075 128.005 117.075 128.996 117.075 130.031L113.762 129.851Z" fill="#0F7B29"/>
<path d="M113.672 131.157L113.717 130.752L116.762 130.977L116.717 131.427L113.672 131.157Z" fill="#0F7B29"/>
<path d="M113.493 132.912L113.583 131.967L116.672 132.282L116.538 133.318L113.493 132.912Z" fill="#0F7B29"/>
<path d="M111.836 140.656L112.105 139.71L115.06 140.566L114.792 141.556L111.836 140.656Z" fill="#0F7B29"/>
<path d="M111.344 142.231L111.657 141.286L114.568 142.231L114.254 143.222L111.344 142.231Z" fill="#0F7B29"/>
<path d="M113.359 134.083V133.813L116.404 134.218L116.359 134.578L113.359 134.083Z" fill="#0F7B29"/>
<path d="M109.015 147.858L109.194 147.498L111.971 148.849L111.747 149.254L109.015 147.858Z" fill="#0F7B29"/>
<path d="M108.209 149.434L108.612 148.579L111.344 150.019L110.896 150.92L108.209 149.434Z" fill="#0F7B29"/>
<path d="M107.582 150.47L107.762 150.199L110.448 151.73L110.269 152L107.582 150.47Z" fill="#0F7B29"/>
<path d="M112.329 138.945C112.642 137.594 112.956 136.289 113.18 134.938L116.224 135.478C116.001 136.919 115.642 138.315 115.329 139.71L112.329 138.945Z" fill="#0F7B29"/>
<path d="M109.508 146.778C109.776 146.148 110.09 145.563 110.314 144.932L111.075 143.042L113.941 144.077L113.18 146.103C112.911 146.778 112.597 147.408 112.284 148.084L109.508 146.778Z" fill="#0F7B29"/>
<path d="M106.105 152.9C106.597 152.09 107.135 151.325 107.582 150.469L110.269 152C109.776 152.9 109.194 153.756 108.657 154.611L106.105 152.9Z" fill="#0F7B29"/>
<path d="M105.344 153.981L105.612 153.666L108.12 155.421L107.896 155.782L105.344 153.981Z" fill="#0F7B29"/>
<path d="M104.314 155.422C104.532 155.186 104.727 154.93 104.896 154.656L107.359 156.457C107.359 156.772 106.956 157.042 106.776 157.312L104.314 155.422Z" fill="#0F7B29"/>
<path d="M99.03 161.274L99.7465 160.644L101.896 162.85L101.135 163.525L99.03 161.274Z" fill="#0F7B29"/>
<path d="M97.821 162.4L98.5375 161.769L100.642 164.065L99.836 164.74L97.821 162.4Z" fill="#0F7B29"/>
<path d="M103.597 156.367L103.776 156.097L106.194 158.033L105.97 158.303L103.597 156.367Z" fill="#0F7B29"/>
<path d="M92.9851 166.091H93.3433L95.0896 168.657L94.6866 168.612L92.9851 166.091Z" fill="#0F7B29"/>
<path d="M91.5073 167.081L92.3133 166.541L93.9701 169.152L93.1193 169.692L91.5073 167.081Z" fill="#0F7B29"/>
<path d="M90.4775 167.667L90.791 167.531L92.3134 170.188L92.0447 170.368L90.4775 167.667Z" fill="#0F7B29"/>
<path d="M100.328 160.058L101.717 158.573L103.06 157.042L105.433 159.023L104 160.644L102.523 162.219L100.328 160.058Z" fill="#0F7B29"/>
<path d="M93.9702 165.416C95.0896 164.65 96.1195 163.84 97.1942 162.94L99.1644 165.326C98.045 166.226 96.9255 167.126 95.7613 167.937L93.9702 165.416Z" fill="#0F7B29"/>
<path d="M87.9698 169.017L89.2236 168.387L90.4774 167.667L92.0446 170.323L90.7013 171.088L89.3579 171.808L87.9698 169.017Z" fill="#0F7B29"/>
<path d="M86.8058 169.602L87.164 169.422L88.5073 172.214L88.1043 172.394L86.8058 169.602Z" fill="#0F7B29"/>
<path d="M85.1937 170.323L86.0445 169.918L87.2983 172.754C86.9932 172.908 86.6792 173.043 86.3579 173.159L85.1937 170.323Z" fill="#0F7B29"/>
<path d="M77.7159 172.754L78.6563 172.529L79.4175 175.545L78.3876 175.77L77.7159 172.754Z" fill="#0F7B29"/>
<path d="M76.1039 173.114H77.0442L77.7159 176.13L76.686 176.355L76.1039 173.114Z" fill="#0F7B29"/>
<path d="M84.0742 170.773L84.3877 170.638L85.5071 173.519L85.1937 173.654L84.0742 170.773Z" fill="#0F7B29"/>
<path d="M70.059 173.879L70.5067 173.834L70.6858 176.94H70.2828L70.059 173.879Z" fill="#0F7B29"/>
<path d="M68.3126 173.969L69.2529 173.924L69.3873 177.031H68.4022L68.3126 173.969Z" fill="#0F7B29"/>
<path d="M67.1036 173.969H67.4619V177.076H67.1036V173.969Z" fill="#0F7B29"/>
<path d="M79.4174 172.304L81.3876 171.718L83.2682 171.088L84.3429 173.969L82.2831 174.69L80.2234 175.275L79.4174 172.304Z" fill="#0F7B29"/>
<path d="M71.2679 173.789H73.2829H74.268H75.2531L75.7905 176.806H74.7158H73.6411H71.5366L71.2679 173.789Z" fill="#0F7B29"/>
<path d="M64.2378 173.879H67.1036V176.985H64.0587L64.2378 173.879Z" fill="#0F7B29"/>
<path d="M62.9841 173.789L63.3871 173.834L63.1185 176.895L62.7155 176.85L62.9841 173.789Z" fill="#0F7B29"/>
<path d="M61.1931 173.609L62.1782 173.699L61.8199 176.805L60.8348 176.67L61.1931 173.609Z" fill="#0F7B29"/>
<path d="M53.5361 171.943L54.4316 172.213L53.6256 175.185L52.6405 174.915L53.5361 171.943Z" fill="#0F7B29"/>
<path d="M51.9689 171.448L52.8644 171.763L51.9241 174.69L50.9838 174.374L51.9689 171.448Z" fill="#0F7B29"/>
<path d="M60.0288 173.429L60.3423 173.474L59.8945 176.535L59.5811 176.49L60.0288 173.429Z" fill="#0F7B29"/>
<path d="M46.3717 169.062L46.73 169.287L45.3866 172.033L44.9836 171.853L46.3717 169.062Z" fill="#0F7B29"/>
<path d="M44.7597 168.252L45.6104 168.702L44.2223 171.448L43.3268 170.998L44.7597 168.252Z" fill="#0F7B29"/>
<path d="M43.7746 167.667L44.0433 167.847L42.5208 170.503L42.2074 170.368L43.7746 167.667Z" fill="#0F7B29"/>
<path d="M55.2376 172.439C56.5362 172.754 57.8347 173.069 59.178 173.294L58.6407 176.31C57.2526 176.085 55.8197 175.77 54.4316 175.41L55.2376 172.439Z" fill="#0F7B29"/>
<path d="M47.4016 169.602C48.0285 169.872 48.6553 170.188 49.2822 170.413L51.1629 171.133L50.0882 174.059L48.0732 173.114C47.4016 172.889 46.7747 172.528 46.103 172.258L47.4016 169.602Z" fill="#0F7B29"/>
<path d="M41.3118 166.136C42.1178 166.676 42.9238 167.216 43.7298 167.667L42.2073 170.323C41.3118 169.873 40.461 169.287 39.6102 168.747L41.3118 166.136Z" fill="#0F7B29"/>
<path d="M40.2372 165.416L40.5954 165.686L38.8491 168.207L38.4908 167.937L40.2372 165.416Z" fill="#0F7B29"/>
<path d="M38.8043 164.38L39.5655 164.92L37.7744 167.441L36.9684 166.811L38.8043 164.38Z" fill="#0F7B29"/>
<path d="M32.9833 159.068L33.6549 159.788L31.4608 161.949L30.7444 161.184L32.9833 159.068Z" fill="#0F7B29"/>
<path d="M31.9086 157.853L32.5355 158.573L30.2519 160.644L29.5802 159.878L31.9086 157.853Z" fill="#0F7B29"/>
<path d="M37.9087 163.66L38.1326 163.84L36.2519 166.271L35.9833 166.046L37.9087 163.66Z" fill="#0F7B29"/>
<path d="M28.1921 152.991V153.351L25.6398 155.062C25.5552 154.948 25.4803 154.828 25.4159 154.701L28.1921 152.991Z" fill="#0F7B29"/>
<path d="M27.2517 151.505L27.7443 152.315L25.1472 153.981L24.6099 153.126L27.2517 151.505Z" fill="#0F7B29"/>
<path d="M26.6249 150.47L26.804 150.74L24.1621 152.315L23.983 152L26.6249 150.47Z" fill="#0F7B29"/>
<path d="M34.2371 160.374L35.6699 161.769L37.2371 163.12L35.2669 165.461L33.6102 164.065L32.043 162.534L34.2371 160.374Z" fill="#0F7B29"/>
<path d="M28.8637 153.981C29.625 155.062 30.4757 156.142 31.3265 157.177L28.9533 159.203C28.0577 158.078 27.1622 156.952 26.3562 155.737L28.8637 153.981Z" fill="#0F7B29"/>
<path d="M25.2816 147.948L25.9532 149.209L26.6249 150.47L23.983 152C23.7144 151.55 23.4457 151.145 23.2218 150.695L22.5502 149.299L25.2816 147.948Z" fill="#0F7B29"/>
<path d="M24.7443 146.778L24.8786 147.138L22.1025 148.489L21.9233 148.084L24.7443 146.778Z" fill="#0F7B29"/>
<path d="M23.983 145.113L24.386 146.013L21.565 147.273L21.162 146.328L23.983 145.113Z" fill="#0F7B29"/>
<path d="M21.6098 137.639L21.8337 138.54L18.8336 139.305L18.6097 138.315L21.6098 137.639Z" fill="#0F7B29"/>
<path d="M21.2516 136.019C21.2303 136.334 21.2303 136.649 21.2516 136.964L18.2515 137.594C18.2515 137.279 18.2515 136.919 18.0276 136.604L21.2516 136.019Z" fill="#0F7B29"/>
<path d="M23.58 144.032L23.6695 144.347L20.8038 145.473L20.7142 145.157L23.58 144.032Z" fill="#0F7B29"/>
<path d="M20.4904 129.941V130.347L17.4455 130.572L17.4008 130.166L20.4904 129.941Z" fill="#0F7B29"/>
<path d="M20.4008 128.186L20.4456 129.131L17.3559 129.266L17.3112 128.231L20.4008 128.186Z" fill="#0F7B29"/>
<path d="M20.356 126.97L20.4008 127.285L17.3112 127.33V126.97H20.356Z" fill="#0F7B29"/>
<path d="M22.0128 139.35C22.0128 139.98 22.371 140.656 22.5949 141.286L23.2218 143.222L20.356 144.302L19.6844 142.231C19.4157 141.556 19.2814 140.836 19.0575 140.16L22.0128 139.35Z" fill="#0F7B29"/>
<path d="M20.5799 131.112C20.6102 131.791 20.685 132.468 20.8038 133.138V134.173V135.163L17.8037 135.704V134.623V133.543C17.8037 132.823 17.5798 132.102 17.535 131.382L20.5799 131.112Z" fill="#0F7B29"/>
<path d="M20.4904 124.089C20.4904 125.034 20.4904 126.025 20.4904 126.97H17.4456C17.4456 125.935 17.4456 124.944 17.4456 123.909L20.4904 124.089Z" fill="#0F7B29"/>
<path d="M20.5799 122.783L20.5351 123.188L17.4902 122.963V122.513L20.5799 122.783Z" fill="#0F7B29"/>
<path d="M20.759 121.028L20.6247 121.973L17.5798 121.658L17.7142 120.667L20.759 121.028Z" fill="#0F7B29"/>
<path d="M22.4157 113.33L22.1471 114.23L19.1918 113.375L19.4604 112.429L22.4157 113.33Z" fill="#0F7B29"/>
<path d="M22.9083 111.754L22.5949 112.654L19.6843 111.709L19.9978 110.763L22.9083 111.754Z" fill="#0F7B29"/>
<path d="M20.8934 119.857L20.8486 120.172L17.8485 119.722L17.8933 119.407L20.8934 119.857Z" fill="#0F7B29"/>
<path d="M25.2367 106.082L25.0576 106.442L22.2814 105.091L22.5053 104.731L25.2367 106.082Z" fill="#0F7B29"/>
<path d="M26.0427 104.506L25.5949 105.361L22.8635 103.966L23.3561 103.02L26.0427 104.506Z" fill="#0F7B29"/>
<path d="M26.6249 103.471L26.4906 103.741L23.804 102.255L23.9831 101.94L26.6249 103.471Z" fill="#0F7B29"/>
<path d="M21.9232 114.995C21.5542 116.311 21.27 117.649 21.0725 119.002L18.0276 118.462C18.0276 117.021 18.5649 115.626 18.9231 114.23L21.9232 114.995Z" fill="#0F7B29"/>
<path d="M24.7442 107.162C24.4756 107.792 24.1621 108.377 23.8934 109.008L23.177 110.899L20.2665 110.088L21.0725 108.062C21.3411 107.387 21.6546 106.757 21.9232 106.082L24.7442 107.162Z" fill="#0F7B29"/>
<path d="M28.1473 101.084C27.61 101.895 27.1175 102.66 26.6249 103.515L23.983 101.985C24.4756 101.084 25.0129 100.229 25.595 99.3738L28.1473 101.084Z" fill="#0F7B29"/>
<path d="M28.8637 99.9591L28.6399 100.319L26.1323 98.5185L26.3562 98.2034L28.8637 99.9591Z" fill="#0F7B29"/>
<path d="M29.9383 98.5186C29.7197 98.7538 29.5248 99.0102 29.3562 99.2839L26.8486 97.4831L27.5203 96.5828L29.9383 98.5186Z" fill="#0F7B29"/>
<path d="M35.1773 92.6662L34.5056 93.3415L32.3563 91.1356L33.0728 90.4153L35.1773 92.6662Z" fill="#0F7B29"/>
<path d="M36.4311 91.5856L35.6699 92.1708L33.6101 89.9199L34.3713 89.2446L36.4311 91.5856Z" fill="#0F7B29"/>
<path d="M30.6548 97.5732L30.4757 97.8433L28.0577 95.9076L28.2816 95.6375L30.6548 97.5732Z" fill="#0F7B29"/>
<path d="M41.2222 87.849L40.9088 88.0741L39.1625 85.5081L39.5207 85.283L41.2222 87.849Z" fill="#0F7B29"/>
<path d="M42.7447 86.8586L41.9387 87.3988L40.282 84.7878L41.1328 84.2476L42.7447 86.8586Z" fill="#0F7B29"/>
<path d="M43.7746 86.2735L43.4612 86.4536L41.9387 83.7975L42.2074 83.6174L43.7746 86.2735Z" fill="#0F7B29"/>
<path d="M33.9235 93.8816L32.5354 95.3672L31.192 96.8978L28.8188 94.917L30.2517 93.2963L31.7294 91.7207L33.9235 93.8816Z" fill="#0F7B29"/>
<path d="M40.2819 88.5244C39.1593 89.2847 38.0828 90.1115 37.058 91.0005L35.0878 88.6145C36.2072 87.7141 37.3266 86.8137 38.4909 86.0034L40.2819 88.5244Z" fill="#0F7B29"/>
<path d="M46.2821 84.923L44.9836 85.5532L43.7298 86.2735L42.2074 83.6174L43.5507 82.8521L44.894 82.1318L46.2821 84.923Z" fill="#0F7B29"/>
<path d="M47.4464 84.3378L47.0882 84.5178L45.7449 81.7267L46.1479 81.5466L47.4464 84.3378Z" fill="#0F7B29"/>
<path d="M49.0584 83.6174L48.1628 84.0226L46.9539 81.1864C47.2437 81.0328 47.5428 80.8975 47.8494 80.7812L49.0584 83.6174Z" fill="#0F7B29"/>
<path d="M56.5361 81.2313L55.5958 81.4114L54.8346 78.4402L55.8645 78.2151L56.5361 81.2313Z" fill="#0F7B29"/>
<path d="M58.1481 80.8712H57.2078L56.5361 77.855L57.5212 77.6299L58.1481 80.8712Z" fill="#0F7B29"/>
<path d="M50.1777 83.1672L49.8643 83.3023L48.7449 80.4211L49.0583 80.3311L50.1777 83.1672Z" fill="#0F7B29"/>
<path d="M64.1931 80.106H63.7454L63.5215 77.0448L63.9693 76.9998L64.1931 80.106Z" fill="#0F7B29"/>
<path d="M65.9394 80.0159H64.9991L64.8647 76.9547L65.8499 76.9097L65.9394 80.0159Z" fill="#0F7B29"/>
<path d="M67.1036 79.9709H66.7902V76.9097H67.1036V79.9709Z" fill="#0F7B29"/>
<path d="M54.7899 81.6365L52.8645 82.2217L50.9391 82.852L49.9092 79.9708L51.9242 79.2505L53.9839 78.6653L54.7899 81.6365Z" fill="#0F7B29"/>
<path d="M62.9842 80.1511H60.9692H59.9841H58.999L58.4617 77.0898H59.4915H60.5662H62.7155L62.9842 80.1511Z" fill="#0F7B29"/>
<path d="M69.9694 80.0609H67.1036V76.9546C68.1335 76.9546 69.1634 76.9546 70.1485 76.9546L69.9694 80.0609Z" fill="#0F7B29"/>
<path d="M71.268 80.196L70.865 80.1509L71.1337 77.0447L71.5367 77.0897L71.268 80.196Z" fill="#0F7B29"/>
<path d="M73.0591 80.376L72.074 80.2409L72.4322 77.1797L73.4173 77.3147L73.0591 80.376Z" fill="#0F7B29"/>
<path d="M80.716 81.9967L79.8204 81.7266L80.6264 78.7554L81.6115 79.0255L80.716 81.9967Z" fill="#0F7B29"/>
<path d="M82.2831 82.5368L81.3876 82.2217L82.3279 79.2505L83.2682 79.6106L82.2831 82.5368Z" fill="#0F7B29"/>
<path d="M74.2232 80.511L73.9098 80.466L74.3576 77.4048L74.671 77.4498L74.2232 80.511Z" fill="#0F7B29"/>
<path d="M87.8803 84.8779L87.5221 84.6979L88.8654 81.9067L89.2684 82.0868L87.8803 84.8779Z" fill="#0F7B29"/>
<path d="M89.4476 85.6882L88.6416 85.2381L90.0297 82.4919L90.9253 82.9871L89.4476 85.6882Z" fill="#0F7B29"/>
<path d="M90.4774 86.2734L90.2087 86.1384L91.7312 83.4373L92.0446 83.6173L90.4774 86.2734Z" fill="#0F7B29"/>
<path d="M79.0144 81.5015C77.7158 81.1863 76.3725 80.8712 75.074 80.6461L75.5665 77.6299C76.9994 77.855 78.3875 78.1701 79.7756 78.5302L79.0144 81.5015Z" fill="#0F7B29"/>
<path d="M86.8056 84.3377C86.2235 84.0676 85.5966 83.7524 84.9698 83.5273L83.0891 82.807L84.119 79.8809L86.134 80.6912C86.8056 80.9163 87.4773 81.2764 88.1042 81.5465L86.8056 84.3377Z" fill="#0F7B29"/>
<path d="M92.9403 87.8041C92.1462 87.2516 91.3241 86.7407 90.4775 86.2735L92.0447 83.6174C92.9403 84.0676 93.7463 84.6528 94.6418 85.1931L92.9403 87.8041Z" fill="#0F7B29"/>
<path d="M94.015 88.5243L93.6567 88.2992L95.4031 85.7332L95.7613 86.0033L94.015 88.5243Z" fill="#0F7B29"/>
<path d="M95.403 89.5598L94.6865 89.0196L96.5224 86.4985L97.3284 87.1288L95.403 89.5598Z" fill="#0F7B29"/>
<path d="M101.269 94.872L100.597 94.1968L102.791 92.0359L103.508 92.7562L101.269 94.872Z" fill="#0F7B29"/>
<path d="M102.344 96.0875L101.717 95.3672L104 93.2964L104.672 94.0617L102.344 96.0875Z" fill="#0F7B29"/>
<path d="M96.3433 90.3252L96.1194 90.1001L98 87.7141L98.2687 87.8942L96.3433 90.3252Z" fill="#0F7B29"/>
<path d="M106.06 101.085L105.836 100.724L108.344 99.0137L108.612 99.3738L106.06 101.085Z" fill="#0F7B29"/>
<path d="M107 102.48L106.508 101.67L109.105 100.004L109.642 100.859L107 102.48Z" fill="#0F7B29"/>
<path d="M107.582 103.471L107.448 103.2L110.09 101.625L110.269 101.94L107.582 103.471Z" fill="#0F7B29"/>
<path d="M100.015 93.6116L98.5374 92.171L97.015 90.8655L98.9852 88.4795L100.642 89.9201L102.164 91.4057L100.015 93.6116Z" fill="#0F7B29"/>
<path d="M105.388 99.9592C104.627 98.8787 103.776 97.7983 102.926 96.7629L105.254 94.7371C106.198 95.8424 107.08 96.9997 107.896 98.2035L105.388 99.9592Z" fill="#0F7B29"/>
<path d="M108.971 105.992L108.12 104.731C107.908 104.296 107.668 103.875 107.403 103.471L110.09 101.94C110.314 102.39 110.583 102.795 110.851 103.245L111.523 104.641L108.971 105.992Z" fill="#0F7B29"/>
<path d="M109.508 107.207L109.374 106.802L112.15 105.496L112.329 105.902L109.508 107.207Z" fill="#0F7B29"/>
<path d="M110.224 108.828C110.124 108.52 110.005 108.219 109.866 107.927L112.687 106.667L113.09 107.612L110.224 108.828Z" fill="#0F7B29"/>
<path d="M112.642 116.346L112.418 115.4L115.419 114.635L115.642 115.625L112.642 116.346Z" fill="#0F7B29"/>
<path d="M113 117.921C113 117.606 113 117.291 113 116.976L116.001 116.346C116.001 116.661 116.001 117.021 116.001 117.336L113 117.921Z" fill="#0F7B29"/>
<path d="M110.672 109.908L110.583 109.638L113.404 108.468L113.538 108.783L110.672 109.908Z" fill="#0F7B29"/>
<path d="M113.762 123.999L113.717 123.594L116.807 123.369L116.851 123.819L113.762 123.999Z" fill="#0F7B29"/>
<path d="M113.851 125.8L113.807 124.854L116.896 124.674V125.709L113.851 125.8Z" fill="#0F7B29"/>
<path d="M113.851 126.97V126.655H116.941V126.97H113.851Z" fill="#0F7B29"/>
<path d="M112.239 114.59C112.015 113.96 111.881 113.284 111.657 112.654L110.985 110.718L113.896 109.638L114.568 111.709C114.792 112.384 114.971 113.104 115.195 113.78L112.239 114.59Z" fill="#0F7B29"/>
<path d="M113.672 122.828C113.672 122.153 113.672 121.478 113.448 120.803V119.767V118.777L116.493 118.237V119.317V120.397C116.612 121.112 116.687 121.834 116.717 122.558L113.672 122.828Z" fill="#0F7B29"/>
<path d="M67.1036 169.422C90.4239 169.422 109.329 150.416 109.329 126.97C109.329 103.524 90.4239 84.5178 67.1036 84.5178C43.7834 84.5178 24.8785 103.524 24.8785 126.97C24.8785 150.416 43.7834 169.422 67.1036 169.422Z" stroke="#4DCA2E" stroke-width="0.187778" stroke-miterlimit="10" stroke-linecap="square" stroke-dasharray="0.7 0.7"/>
<path d="M85.3281 124.089C87.1436 122.135 88.1521 119.56 88.1491 116.886V115.67C88.1491 112.502 86.9004 109.463 84.6764 107.219C82.4523 104.974 79.4343 103.707 76.2831 103.696H74.492V93.4314H68.0888V103.696H63.3424V93.4314H56.8049V103.696H43.8643V110.628H52.1481V144.077H44.9837L43.8643 151.01H56.8049V161.004H63.3424V151.01H68.2679V161.004H74.6711V151.01H79.1489C82.7116 151.01 86.1283 149.587 88.6476 147.054C91.1668 144.521 92.5821 141.086 92.5821 137.504V136.064C92.579 133.591 91.9009 131.167 90.6218 129.056C89.3427 126.944 87.5116 125.226 85.3281 124.089ZM63.3424 110.088H72.2979C73.7248 110.215 75.0526 110.875 76.0197 111.937C76.9869 113 77.5233 114.388 77.5233 115.828C77.5233 117.268 76.9869 118.656 76.0197 119.719C75.0526 120.781 73.7248 121.441 72.2979 121.568H63.3424V110.088ZM73.686 144.392H63.3424V129.221H73.686C75.6574 129.221 77.548 130.008 78.942 131.41C80.3359 132.811 81.1191 134.712 81.1191 136.694C81.1191 138.676 80.3359 140.577 78.942 141.978C77.548 143.38 75.6574 144.167 73.686 144.167V144.392Z" stroke="#4DCA2E" stroke-width="1.50222" stroke-miterlimit="10"/>
<path style="mix-blend-mode:screen" d="M67.1036 74.9739C79.0816 74.9548 90.6954 79.1127 99.9655 86.7388C109.236 94.3649 115.588 104.987 117.94 116.795C120.293 128.603 118.499 140.866 112.865 151.493C107.231 162.12 98.1058 170.454 87.0444 175.074C75.9831 179.694 63.6703 180.314 52.205 176.829C40.7396 173.344 30.8313 165.969 24.169 155.961C17.5066 145.954 14.5026 133.933 15.669 121.947C16.8353 109.962 22.0999 98.7547 30.5653 90.2351C35.345 85.3828 41.0369 81.5346 47.3097 78.9146C53.5826 76.2946 60.311 74.955 67.1036 74.9739ZM67.1036 72.0927C56.3023 72.066 45.7359 75.2617 36.7421 81.2755C27.7482 87.2892 20.7311 95.8505 16.5792 105.876C12.4273 115.901 11.3272 126.939 13.4181 137.593C15.5091 148.247 20.697 158.038 28.3253 165.726C35.9536 173.414 45.6792 178.654 56.271 180.783C66.8629 182.911 77.8447 181.832 87.8264 177.683C97.8081 173.533 106.341 166.5 112.345 157.472C118.348 148.445 121.553 137.829 121.553 126.97C121.553 119.76 120.14 112.62 117.394 105.959C114.648 99.298 110.623 93.2464 105.55 88.15C100.477 83.0536 94.4541 79.0123 87.8265 76.2571C81.199 73.5019 74.0963 72.0868 66.9245 72.0927H67.1036Z" fill="url(#paint1_linear_534_4450)"/>
<path style="mix-blend-mode:screen" d="M66.998 174.721C93.1611 174.721 114.37 153.399 114.37 127.097C114.37 100.795 93.1611 79.4734 66.998 79.4734C40.835 79.4734 19.6256 100.795 19.6256 127.097C19.6256 153.399 40.835 174.721 66.998 174.721Z" fill="url(#paint2_linear_534_4450)"/>
<path style="mix-blend-mode:screen" d="M266.71 180.277C296.361 180.277 320.399 156.112 320.399 126.303C320.399 96.4943 296.361 72.3296 266.71 72.3296C237.058 72.3296 213.021 96.4943 213.021 126.303C213.021 156.112 237.058 180.277 266.71 180.277Z" fill="url(#paint3_linear_534_4450)"/>
</g>
<defs>
<linearGradient id="paint0_linear_534_4450" x1="278.275" y1="72.813" x2="254.39" y2="179.272" gradientUnits="userSpaceOnUse">
<stop stop-color="#1BD242"/>
<stop offset="0.01" stop-color="#0FD258"/>
<stop offset="0.03" stop-color="#07D368"/>
<stop offset="0.04" stop-color="#02D371"/>
<stop offset="0.06" stop-color="#00C66D"/>
<stop offset="0.07" stop-color="#009D56"/>
<stop offset="0.09" stop-color="#007741"/>
<stop offset="0.1" stop-color="#005730"/>
<stop offset="0.11" stop-color="#003B21"/>
<stop offset="0.13" stop-color="#002515"/>
<stop offset="0.15" stop-color="#00140B"/>
<stop offset="0.17" stop-color="#000905"/>
<stop offset="0.2" stop-color="#000201"/>
<stop offset="0.29"/>
</linearGradient>
<linearGradient id="paint1_linear_534_4450" x1="103.911" y1="87.9842" x2="32.2223" y2="163.141" gradientUnits="userSpaceOnUse">
<stop offset="0.01" stop-color="#00D23D"/>
<stop offset="0.08" stop-color="#00D374"/>
<stop offset="0.09" stop-color="#00C66D"/>
<stop offset="0.11" stop-color="#009D56"/>
<stop offset="0.12" stop-color="#007741"/>
<stop offset="0.14" stop-color="#005730"/>
<stop offset="0.17" stop-color="#003B21"/>
<stop offset="0.19" stop-color="#002515"/>
<stop offset="0.22" stop-color="#00140B"/>
<stop offset="0.26" stop-color="#000905"/>
<stop offset="0.31" stop-color="#000201"/>
<stop offset="0.45"/>
<stop offset="0.87"/>
<stop offset="0.94"/>
<stop offset="0.95" stop-color="#000301"/>
<stop offset="0.96" stop-color="#020E05"/>
<stop offset="0.98" stop-color="#041F0C"/>
<stop offset="0.99" stop-color="#083716"/>
<stop offset="1" stop-color="#0C5823"/>
</linearGradient>
<linearGradient id="paint2_linear_534_4450" x1="95.7168" y1="96.7414" x2="42.3365" y2="152.639" gradientUnits="userSpaceOnUse">
<stop stop-color="#07570E"/>
<stop offset="0.03" stop-color="#07510D"/>
<stop offset="0.19" stop-color="#043408"/>
<stop offset="0.35" stop-color="#021D05"/>
<stop offset="0.53" stop-color="#010D02"/>
<stop offset="0.73" stop-color="#000300"/>
<stop offset="1"/>
</linearGradient>
<linearGradient id="paint3_linear_534_4450" x1="299.214" y1="91.8999" x2="238.716" y2="155.25" gradientUnits="userSpaceOnUse">
<stop stop-color="#07570E"/>
<stop offset="0.03" stop-color="#07510D"/>
<stop offset="0.19" stop-color="#043408"/>
<stop offset="0.35" stop-color="#021D05"/>
<stop offset="0.53" stop-color="#010D02"/>
<stop offset="0.73" stop-color="#000300"/>
<stop offset="1"/>
</linearGradient>
<clipPath id="clip0_534_4450">
<rect width="310.209" height="111.916" fill="white" transform="translate(12.52 70.7422)"/>
</clipPath>
</defs>
</svg>
