<svg width="336" height="252" viewBox="0 0 336 252" fill="none" xmlns="http://www.w3.org/2000/svg">
<path opacity="0.3" d="M78.8303 197.27L91.6328 189.887" stroke="white" stroke-width="0.582772" stroke-miterlimit="10"/>
<path opacity="0.3" d="M260.084 154.872C260.169 124.523 217.72 99.8016 165.273 99.6553C112.825 99.509 70.2389 123.993 70.1541 154.342C70.0693 184.691 112.518 209.413 164.965 209.559C217.413 209.705 259.999 185.221 260.084 154.872Z" stroke="white" stroke-width="0.582772" stroke-miterlimit="10"/>
<path opacity="0.3" d="M246.303 183.849L267.893 196.301" stroke="white" stroke-width="0.582772" stroke-miterlimit="10"/>
<path d="M225.037 149.859C225.037 150.165 225.005 150.465 224.973 150.765C224.941 151.064 224.909 151.294 224.871 151.555C224.833 151.817 224.788 152.154 224.731 152.448C224.673 152.741 224.628 152.977 224.565 153.245C224.501 153.512 224.431 153.825 224.354 154.118C224.277 154.411 224.201 154.647 224.124 154.909C224.048 155.17 223.939 155.489 223.837 155.776C223.735 156.063 223.646 156.292 223.544 156.554C223.441 156.815 223.295 157.153 223.161 157.453C223.027 157.752 222.931 157.963 222.803 158.218C222.676 158.473 222.503 158.817 222.344 159.11C222.184 159.404 222.076 159.595 221.935 159.837C221.731 160.194 221.508 160.551 221.297 160.902L220.882 161.54C220.614 161.928 220.327 162.311 220.033 162.694L219.657 163.204C219.172 163.809 218.648 164.415 218.1 165.014C217.959 165.167 217.806 165.32 217.659 165.473C217.225 165.926 216.772 166.379 216.3 166.819C216.083 167.023 215.872 167.227 215.662 167.456C215.451 167.686 215.094 167.96 214.8 168.208C214.507 168.457 214.258 168.668 213.97 168.897C213.683 169.127 213.332 169.388 213.039 169.63L212.139 170.3C211.813 170.542 211.469 170.778 211.13 171.014L210.173 171.651L209.082 172.34C208.622 172.627 208.169 172.914 207.69 173.188C206.797 173.711 205.872 174.202 204.933 174.686L204.116 175.094C203.383 175.451 202.642 175.802 201.889 176.14L201.13 176.478C200.153 176.905 199.151 177.313 198.136 177.696L197.594 177.893C196.739 178.212 195.871 178.531 194.996 178.805L193.905 179.162C193.42 179.309 192.935 179.462 192.444 179.602L191.206 179.959C190.708 180.099 190.21 180.227 189.706 180.361L188.429 180.673L186.891 181.03L185.615 181.304L184.038 181.617L182.832 181.84C181.709 182.037 180.579 182.222 179.443 182.382L178.946 182.445C177.956 182.579 176.961 182.694 175.965 182.796C175.589 182.841 175.206 182.873 174.823 182.911C174.185 182.968 173.546 183.026 172.908 183.07L171.696 183.153C171.019 183.198 170.343 183.23 169.672 183.255L168.536 183.306L166.781 183.338H165.556H163.686C163.316 183.338 162.946 183.338 162.576 183.338C162.008 183.338 161.44 183.3 160.878 183.274L159.64 183.191C159.034 183.159 158.427 183.108 157.821 183.07L156.736 182.994C156.002 182.93 155.274 182.853 154.547 182.777L153.845 182.713C152.888 182.605 151.93 182.484 150.986 182.35L150.482 182.273C149.684 182.152 148.88 182.031 148.088 181.897C147.744 181.833 147.405 181.763 147.061 181.706L145.223 181.355C144.897 181.285 144.584 181.209 144.253 181.145C143.614 180.998 142.912 180.851 142.242 180.686L141.125 180.405C140.519 180.252 139.913 180.093 139.313 179.927L138.285 179.634C137.332 179.362 136.388 179.068 135.452 178.754L134.954 178.594C133.875 178.231 132.822 177.842 131.763 177.434C131.342 177.275 130.92 177.103 130.486 176.93L129.491 176.516C129.019 176.312 128.559 176.102 128.093 175.878L127.187 175.464C126.683 175.228 126.185 174.973 125.694 174.724L124.953 174.355C124.221 173.972 123.5 173.577 122.79 173.169C110.964 166.347 105.054 157.395 105.079 148.45V158.409C105.079 167.335 110.964 176.306 122.79 183.128C123.498 183.536 124.219 183.931 124.947 184.313L125.694 184.683C126.185 184.938 126.683 185.187 127.187 185.423C127.487 185.569 127.793 185.703 128.1 185.844C128.559 186.054 129.019 186.264 129.491 186.481L130.493 186.896C130.806 187.03 131.131 187.163 131.444 187.291L131.744 187.399C132.79 187.807 133.843 188.196 134.935 188.56L135.433 188.719C136.371 189.031 137.315 189.325 138.273 189.599L138.745 189.746L139.294 189.892L141.113 190.377L142.229 190.651C142.868 190.817 143.57 190.963 144.246 191.11L144.999 191.282L145.204 191.32L147.067 191.671L148.069 191.862C148.867 191.996 149.665 192.117 150.469 192.238L150.941 192.315C151.892 192.449 152.856 192.57 153.807 192.678L154.406 192.736C155.166 192.819 155.932 192.895 156.698 192.959H156.749L157.732 193.023C158.37 193.067 158.976 193.118 159.602 193.15L160.782 193.201C161.363 193.201 161.937 193.252 162.518 193.265H162.652H163.616H165.499H166.724C167.305 193.265 167.892 193.265 168.479 193.233H168.798L169.615 193.188C170.253 193.188 170.962 193.131 171.632 193.086L172.844 193.004C173.483 192.959 174.121 192.902 174.759 192.844L175.429 192.787C175.589 192.787 175.742 192.749 175.901 192.729C176.897 192.627 177.893 192.513 178.875 192.379L179.373 192.315C180.509 192.156 181.645 191.971 182.768 191.773L183.081 191.722C183.381 191.671 183.675 191.607 183.968 191.55L185.545 191.237L186.821 190.963C187.338 190.849 187.849 190.734 188.359 190.606L189.636 190.294C190.133 190.16 190.638 190.032 191.135 189.892L192.373 189.535C192.865 189.395 193.35 189.242 193.835 189.089C194.046 189.025 194.263 188.968 194.473 188.898C194.684 188.827 194.767 188.789 194.92 188.745C195.794 188.451 196.662 188.145 197.517 187.833L198.066 187.629C199.079 187.246 200.077 186.84 201.059 186.411L201.819 186.073C202.572 185.735 203.312 185.385 204.04 185.028L204.863 184.62C205.801 184.135 206.727 183.644 207.62 183.121C207.869 182.981 208.112 182.834 208.354 182.688C208.597 182.541 208.788 182.414 208.992 182.273C209.356 182.044 209.726 181.821 210.077 181.585C210.428 181.349 210.716 181.158 211.035 180.947C211.354 180.737 211.718 180.475 212.049 180.233L212.943 179.564C213.262 179.321 213.581 179.079 213.881 178.83L214.704 178.142C215.004 177.893 215.292 177.638 215.572 177.389C215.687 177.281 215.815 177.185 215.93 177.077L216.223 176.784C216.702 176.337 217.155 175.885 217.589 175.426C217.736 175.279 217.883 175.126 218.023 174.973C218.578 174.374 219.095 173.774 219.58 173.162L219.65 173.079C219.759 172.939 219.855 172.793 219.963 172.652C220.257 172.27 220.538 171.887 220.806 171.498C220.952 171.282 221.086 171.071 221.227 170.861C221.45 170.51 221.674 170.153 221.865 169.796L222.044 169.509C222.127 169.362 222.191 169.216 222.267 169.076C222.427 168.776 222.586 168.476 222.733 168.177C222.88 167.877 222.976 167.667 223.084 167.418C223.193 167.169 223.346 166.812 223.467 166.506C223.524 166.372 223.588 166.238 223.639 166.104C223.69 165.971 223.716 165.856 223.761 165.735C223.863 165.448 223.958 165.155 224.048 164.868C224.137 164.581 224.207 164.338 224.284 164.077C224.36 163.816 224.431 163.497 224.494 163.204C224.533 163.044 224.577 162.885 224.609 162.732C224.641 162.579 224.641 162.515 224.66 162.407C224.718 162.113 224.763 161.814 224.801 161.514C224.839 161.214 224.871 160.985 224.903 160.723C224.935 160.462 224.948 160.124 224.967 159.824C224.967 159.646 224.999 159.467 225.005 159.289C225.011 159.11 225.005 158.938 225.005 158.766V148.807C225.082 149.158 225.056 149.509 225.037 149.859Z" fill="url(#paint0_linear_534_4693)"/>
<path d="M207.378 125.53C230.883 139.084 230.992 161.062 207.652 174.623C184.313 188.184 146.333 188.184 122.828 174.623C99.323 161.062 99.2145 139.091 122.554 125.53C145.893 111.969 183.892 111.975 207.378 125.53Z" fill="#36872F"/>
<path d="M207.378 124.095C230.883 137.65 230.992 159.627 207.652 173.188C184.313 186.749 146.333 186.749 122.828 173.188C99.323 159.627 99.2145 137.657 122.554 124.095C145.893 110.534 183.892 110.541 207.378 124.095Z" fill="url(#paint1_linear_534_4693)"/>
<path d="M207.505 141.182C207.505 141.393 207.505 141.609 207.46 141.82C207.416 142.03 207.416 142.19 207.39 142.374C207.365 142.559 207.326 142.802 207.288 143.012C207.25 143.222 207.218 143.382 207.173 143.567C207.129 143.752 207.078 143.981 207.02 144.204C206.963 144.427 206.918 144.574 206.861 144.759C206.803 144.944 206.727 145.173 206.656 145.397C206.586 145.62 206.522 145.76 206.446 145.938C206.369 146.117 206.273 146.372 206.178 146.576L205.929 147.112C205.82 147.328 205.712 147.539 205.597 147.749C205.482 147.96 205.412 148.093 205.316 148.259C205.22 148.425 205.01 148.763 204.844 149.012C204.678 149.26 204.652 149.318 204.55 149.464C204.365 149.745 204.161 150.019 203.95 150.287C203.861 150.408 203.778 150.529 203.682 150.644C203.344 151.077 202.974 151.504 202.585 151.919L202.272 152.244C201.965 152.563 201.646 152.882 201.314 153.2L200.849 153.628L200.21 154.163C200.019 154.322 199.827 154.488 199.623 154.648C199.419 154.807 199.189 154.998 198.985 155.17C198.781 155.343 198.57 155.483 198.347 155.642L197.632 156.146C197.409 156.299 197.185 156.452 196.956 156.599C196.726 156.745 196.445 156.93 196.183 157.09C195.922 157.249 195.545 157.498 195.2 157.689C194.281 158.224 193.318 158.715 192.341 159.194L191.563 159.557C190.676 159.965 189.776 160.354 188.85 160.717C188.723 160.762 188.608 160.819 188.487 160.864C187.491 161.24 186.47 161.584 185.442 161.903C184.721 162.133 183.987 162.33 183.253 162.541C182.698 162.694 182.149 162.853 181.588 162.993C180.815 163.178 180.03 163.331 179.245 163.491C178.671 163.606 178.109 163.739 177.535 163.835C177.299 163.88 177.056 163.912 176.814 163.95C175.844 164.109 174.867 164.249 173.878 164.364L173.023 164.473C171.878 164.596 170.729 164.691 169.576 164.76L168.938 164.791C168.166 164.83 167.387 164.842 166.609 164.855C165.83 164.868 165.058 164.855 164.286 164.855C163.647 164.855 163.009 164.855 162.371 164.804C161.733 164.753 160.935 164.74 160.22 164.689C159.506 164.638 158.944 164.587 158.261 164.524C157.578 164.46 156.844 164.377 156.142 164.288C155.44 164.198 154.866 164.122 154.228 164.02C153.474 163.905 152.721 163.771 151.981 163.631C151.241 163.491 150.417 163.338 149.652 163.159L149.096 163.038C148.011 162.777 146.952 162.49 145.905 162.177L145.012 161.903C144.137 161.629 143.282 161.336 142.459 161.023L141.725 160.749C140.953 160.456 140.212 160.112 139.472 159.793C139.108 159.633 138.732 159.487 138.374 159.321C137.309 158.811 136.262 158.275 135.266 157.695C130.563 154.986 127.18 151.791 125.132 148.399C124.685 147.664 124.293 146.897 123.957 146.104C123.791 145.722 123.651 145.333 123.517 144.944C123.005 143.423 122.745 141.83 122.745 140.226V147.239C122.745 153.564 126.899 159.888 135.266 164.715C136.262 165.289 137.302 165.831 138.374 166.334C138.732 166.506 139.108 166.653 139.472 166.812C140.11 167.093 140.749 167.386 141.387 167.641L141.731 167.769C141.974 167.864 142.223 167.947 142.472 168.037C143.314 168.349 144.169 168.642 145.025 168.916L145.918 169.197L146.518 169.382C147.373 169.624 148.241 169.841 149.115 170.051L149.664 170.179C150.092 170.274 150.513 170.376 150.941 170.466C151.368 170.555 151.649 170.581 152 170.651C152.747 170.791 153.494 170.918 154.247 171.04C154.547 171.084 154.847 171.154 155.147 171.193C155.447 171.231 155.785 171.263 156.142 171.307C156.844 171.397 157.553 171.473 158.261 171.543C158.599 171.575 158.931 171.626 159.269 171.658C159.608 171.69 159.908 171.658 160.22 171.709C160.935 171.754 161.65 171.792 162.371 171.824C162.728 171.824 163.086 171.868 163.45 171.881C163.813 171.894 164.024 171.881 164.311 171.881C165.09 171.881 165.862 171.881 166.634 171.881C167.024 171.881 167.407 171.881 167.789 171.881C168.172 171.881 168.568 171.843 168.964 171.824L169.602 171.792C170.572 171.735 171.517 171.664 172.493 171.569L173.042 171.505L173.903 171.403C174.893 171.282 175.869 171.148 176.839 170.989L177.56 170.874L177.905 170.816C178.365 170.734 178.811 170.619 179.271 170.53C180.056 170.37 180.841 170.211 181.613 170.026C182.175 169.892 182.724 169.726 183.279 169.58C184.013 169.376 184.747 169.178 185.461 168.942C185.621 168.891 185.781 168.859 185.934 168.808C186.808 168.528 187.663 168.221 188.487 167.896C188.614 167.852 188.729 167.801 188.85 167.75C189.782 167.393 190.682 167.004 191.569 166.596L192.348 166.226C193.324 165.754 194.262 165.257 195.207 164.728L195.724 164.422L196.19 164.128L196.962 163.637C197.192 163.491 197.415 163.338 197.638 163.178C197.862 163.019 198.123 162.847 198.353 162.675C198.583 162.503 198.781 162.362 198.991 162.203C199.202 162.043 199.438 161.859 199.63 161.686C199.821 161.514 200.025 161.361 200.217 161.195C200.408 161.03 200.632 160.845 200.855 160.666C200.938 160.59 201.027 160.52 201.104 160.443L201.321 160.233C201.653 159.918 201.972 159.599 202.278 159.276L202.591 158.958C202.98 158.53 203.344 158.103 203.689 157.682L203.74 157.625L203.963 157.319C204.167 157.051 204.372 156.777 204.557 156.503C204.659 156.35 204.754 156.197 204.857 156.05C205.016 155.802 205.169 155.547 205.316 155.298C205.361 155.228 205.405 155.164 205.444 155.094C205.482 155.024 205.552 154.884 205.603 154.782C205.718 154.571 205.827 154.361 205.935 154.144L206.184 153.608C206.28 153.392 206.369 153.181 206.452 152.971C206.49 152.875 206.541 152.78 206.573 152.684L206.663 152.423C206.733 152.219 206.803 152.014 206.867 151.785C206.931 151.555 206.975 151.415 207.026 151.224C207.078 151.033 207.135 150.816 207.18 150.586C207.18 150.478 207.237 150.363 207.263 150.255C207.288 150.146 207.263 150.102 207.263 150.025C207.301 149.815 207.333 149.604 207.365 149.388C207.397 149.171 207.416 149.018 207.435 148.833C207.454 148.648 207.467 148.406 207.48 148.195C207.48 148.074 207.48 147.947 207.48 147.826C207.48 147.705 207.48 147.577 207.48 147.449V140.436C207.505 140.685 207.505 140.934 207.505 141.182Z" fill="url(#paint2_linear_534_4693)"/>
<path d="M194.997 124.395C211.59 133.959 211.699 149.515 195.182 159.104C178.665 168.693 151.822 168.668 135.19 159.104C118.559 149.541 118.482 133.984 134.992 124.401C151.503 114.819 178.378 114.812 194.997 124.395Z" fill="#36872F"/>
<path d="M194.997 122.96C211.59 132.524 211.699 148.081 195.182 157.67C178.665 167.259 151.822 167.233 135.19 157.67C118.559 148.106 118.482 132.549 134.992 122.967C151.503 113.384 178.378 113.378 194.997 122.96Z" fill="url(#paint3_linear_534_4693)"/>
<path d="M178.187 127.168C185.469 131.37 185.507 138.179 178.27 142.38C171.032 146.582 159.27 146.582 151.988 142.38C144.706 138.179 144.668 131.37 151.905 127.168C159.143 122.966 170.905 122.966 178.187 127.168Z" fill="#338A2E"/>
<path d="M151.905 128.558C159.142 124.35 170.904 124.35 178.186 128.558C181.543 130.47 183.343 132.982 183.617 135.52C183.956 132.523 182.156 129.463 178.186 127.174C170.904 122.973 159.142 122.973 151.905 127.174C148.005 129.444 146.238 132.466 146.557 135.424C146.876 132.919 148.612 130.464 151.905 128.558Z" fill="#0A8901"/>
<path d="M179.709 66.8636C179.497 65.2228 178.753 63.6971 177.59 62.5213C176.674 61.5941 175.547 60.9027 174.306 60.5063C173.747 60.3119 173.176 60.141 172.611 59.9583C173.064 59.6873 173.535 59.5165 173.982 59.2926C175.513 58.5777 176.785 57.4068 177.626 55.9401C178.194 54.9658 178.524 53.8706 178.589 52.7442C178.653 51.6177 178.45 50.492 177.996 49.4591C177.603 48.4795 176.989 47.6043 176.201 46.902C174.57 45.4827 172.533 44.6147 170.38 44.4216C170.045 44.3862 169.915 44.2625 169.921 43.909C169.921 42.3418 169.921 40.7686 169.921 39.1955C169.921 38.6711 169.921 38.6711 169.386 38.6711H165.778C165.189 38.6711 165.189 38.6711 165.189 39.2603V43.6851C165.189 44.1506 165.189 44.1505 164.712 44.1505C164.041 44.1505 163.37 44.1505 162.699 44.1505C162.364 44.1505 162.246 44.0622 162.252 43.7146C162.252 42.1945 162.252 40.6685 162.252 39.1484C162.252 38.8008 162.17 38.6711 161.799 38.677C160.516 38.677 159.227 38.677 157.944 38.677C157.585 38.677 157.473 38.7831 157.479 39.1366C157.479 40.639 157.479 42.1355 157.479 43.638C157.479 44.1447 157.479 44.1447 156.972 44.1447C153.988 44.1447 151.004 44.1447 148.02 44.1447C147.708 44.1447 147.573 44.2271 147.579 44.563C147.579 45.8592 147.579 47.1613 147.579 48.4575C147.579 48.7639 147.685 48.8758 147.997 48.864C148.68 48.8454 149.364 48.8651 150.045 48.9229C150.42 48.939 150.774 49.096 151.038 49.3625C151.302 49.629 151.456 49.9854 151.469 50.3605C151.469 50.879 151.528 51.3975 151.528 51.916C151.528 57.855 151.528 63.7939 151.528 69.7329C151.528 70.2867 151.528 70.8406 151.475 71.3944C151.48 71.5879 151.445 71.7803 151.373 71.9599C151.301 72.1394 151.193 72.3024 151.056 72.4386C150.919 72.5749 150.755 72.6817 150.575 72.7524C150.395 72.8231 150.203 72.8562 150.01 72.8497C149.362 72.9086 148.715 72.9027 148.067 72.9086C147.614 72.9086 147.585 72.9381 147.585 73.3917C147.585 74.629 147.585 75.8722 147.585 77.1095C147.585 77.6162 147.585 77.6221 148.097 77.6221H157.014C157.479 77.6221 157.479 77.6221 157.479 78.0993C157.479 79.749 157.479 81.4046 157.479 83.0544H162.223V78.2761C162.223 77.5455 162.152 77.628 162.894 77.6221C163.482 77.6221 164.071 77.6221 164.695 77.6221C165.048 77.6221 165.165 77.7046 165.16 78.0699C165.16 79.5841 165.16 81.0924 165.16 82.6007C165.16 82.7539 165.16 82.9071 165.16 83.0602H169.898C169.898 81.2927 169.898 79.5251 169.898 77.787C169.898 77.4159 170.021 77.3098 170.374 77.2627C172.557 77.058 174.638 76.2411 176.378 74.9059C178.938 72.8143 180.145 70.1748 179.709 66.8636ZM159.892 50.0777C159.892 49.7419 159.992 49.6241 160.333 49.63C161.881 49.63 163.423 49.63 164.965 49.63C166.074 49.6079 167.179 49.7752 168.232 50.1249C169.007 50.4224 169.65 50.9871 170.046 51.7173C170.442 52.4474 170.565 53.2951 170.392 54.1078C170.115 55.8753 168.873 57.0537 166.919 57.3718C165.582 57.5976 164.226 57.6943 162.87 57.6605C162.034 57.6605 161.198 57.6605 160.363 57.6605C160.01 57.6605 159.886 57.5604 159.892 57.201C159.892 56.0226 159.892 54.8148 159.892 53.6246C159.892 52.4345 159.892 51.2679 159.892 50.0777ZM167.649 71.8186C166.642 72.0681 165.608 72.1928 164.571 72.1898C163.321 72.2369 162.07 72.2192 160.822 72.1368C160.612 72.1514 160.405 72.082 160.246 71.944C160.087 71.8059 159.989 71.6104 159.974 71.4003C159.896 70.8739 159.868 70.3412 159.892 69.8095C159.892 68.8727 159.892 67.9418 159.892 67.0109C159.892 65.6616 159.892 64.3183 159.892 62.975C159.892 62.7688 159.968 62.6981 160.157 62.6981C161.752 62.6981 163.341 62.6627 164.93 62.7393C165.696 62.7499 166.461 62.8109 167.22 62.9219C168.497 63.1576 169.668 63.6231 170.404 64.7661C170.785 65.3937 171.016 66.1013 171.079 66.8334C171.141 67.5655 171.033 68.302 170.764 68.9854C170.494 69.6687 170.07 70.2801 169.524 70.7717C168.979 71.2633 168.327 71.6216 167.62 71.8186H167.649Z" fill="white"/>
<g filter="url(#filter0_f_534_4693)">
<path d="M179.709 66.8636C179.497 65.2228 178.753 63.6971 177.59 62.5213C176.674 61.5941 175.547 60.9027 174.306 60.5063C173.747 60.3119 173.176 60.141 172.611 59.9583C173.064 59.6873 173.535 59.5165 173.982 59.2926C175.513 58.5777 176.785 57.4068 177.626 55.9401C178.194 54.9658 178.524 53.8706 178.589 52.7442C178.653 51.6177 178.45 50.492 177.996 49.4591C177.603 48.4795 176.989 47.6043 176.201 46.902C174.57 45.4827 172.533 44.6147 170.38 44.4216C170.045 44.3862 169.915 44.2625 169.921 43.909C169.921 42.3418 169.921 40.7686 169.921 39.1955C169.921 38.6711 169.921 38.6711 169.386 38.6711H165.778C165.189 38.6711 165.189 38.6711 165.189 39.2603V43.6851C165.189 44.1506 165.189 44.1505 164.712 44.1505C164.041 44.1505 163.37 44.1505 162.699 44.1505C162.364 44.1505 162.246 44.0622 162.252 43.7146C162.252 42.1945 162.252 40.6685 162.252 39.1484C162.252 38.8008 162.17 38.6711 161.799 38.677C160.516 38.677 159.227 38.677 157.944 38.677C157.585 38.677 157.473 38.7831 157.479 39.1366C157.479 40.639 157.479 42.1355 157.479 43.638C157.479 44.1447 157.479 44.1447 156.972 44.1447C153.988 44.1447 151.004 44.1447 148.02 44.1447C147.708 44.1447 147.573 44.2271 147.579 44.563C147.579 45.8592 147.579 47.1613 147.579 48.4575C147.579 48.7639 147.685 48.8758 147.997 48.864C148.68 48.8454 149.364 48.8651 150.045 48.9229C150.42 48.939 150.774 49.096 151.038 49.3625C151.302 49.629 151.456 49.9854 151.469 50.3605C151.469 50.879 151.528 51.3975 151.528 51.916C151.528 57.855 151.528 63.7939 151.528 69.7329C151.528 70.2867 151.528 70.8406 151.475 71.3944C151.48 71.5879 151.445 71.7803 151.373 71.9599C151.301 72.1394 151.193 72.3024 151.056 72.4386C150.919 72.5749 150.755 72.6817 150.575 72.7524C150.395 72.8231 150.203 72.8562 150.01 72.8497C149.362 72.9086 148.715 72.9027 148.067 72.9086C147.614 72.9086 147.585 72.9381 147.585 73.3917C147.585 74.629 147.585 75.8722 147.585 77.1095C147.585 77.6162 147.585 77.6221 148.097 77.6221H157.014C157.479 77.6221 157.479 77.6221 157.479 78.0993C157.479 79.749 157.479 81.4046 157.479 83.0544H162.223V78.2761C162.223 77.5455 162.152 77.628 162.894 77.6221C163.482 77.6221 164.071 77.6221 164.695 77.6221C165.048 77.6221 165.165 77.7046 165.16 78.0699C165.16 79.5841 165.16 81.0924 165.16 82.6007C165.16 82.7539 165.16 82.9071 165.16 83.0602H169.898C169.898 81.2927 169.898 79.5251 169.898 77.787C169.898 77.4159 170.021 77.3098 170.374 77.2627C172.557 77.058 174.638 76.2411 176.378 74.9059C178.938 72.8143 180.145 70.1748 179.709 66.8636ZM159.892 50.0777C159.892 49.7419 159.992 49.6241 160.333 49.63C161.881 49.63 163.423 49.63 164.965 49.63C166.074 49.6079 167.179 49.7752 168.232 50.1249C169.007 50.4224 169.65 50.9871 170.046 51.7173C170.442 52.4474 170.565 53.2951 170.392 54.1078C170.115 55.8753 168.873 57.0537 166.919 57.3718C165.582 57.5976 164.226 57.6943 162.87 57.6605C162.034 57.6605 161.198 57.6605 160.363 57.6605C160.01 57.6605 159.886 57.5604 159.892 57.201C159.892 56.0226 159.892 54.8148 159.892 53.6246C159.892 52.4345 159.892 51.2679 159.892 50.0777ZM167.649 71.8186C166.642 72.0681 165.608 72.1928 164.571 72.1898C163.321 72.2369 162.07 72.2192 160.822 72.1368C160.612 72.1514 160.405 72.082 160.246 71.944C160.087 71.8059 159.989 71.6104 159.974 71.4003C159.896 70.8739 159.868 70.3412 159.892 69.8095C159.892 68.8727 159.892 67.9418 159.892 67.0109C159.892 65.6616 159.892 64.3183 159.892 62.975C159.892 62.7688 159.968 62.6981 160.157 62.6981C161.752 62.6981 163.341 62.6627 164.93 62.7393C165.696 62.7499 166.461 62.8109 167.22 62.9219C168.497 63.1576 169.668 63.6231 170.404 64.7661C170.785 65.3937 171.016 66.1013 171.079 66.8334C171.141 67.5655 171.033 68.302 170.764 68.9854C170.494 69.6687 170.07 70.2801 169.524 70.7717C168.979 71.2633 168.327 71.6216 167.62 71.8186H167.649Z" fill="white" fill-opacity="0.7"/>
</g>
<path style="mix-blend-mode:screen" opacity="0.6" d="M198.845 10.7672C198.845 8.01286 197.001 5.25856 193.363 3.16095C186.081 -1.04063 143.972 -1.04063 136.728 3.16095C133.116 5.25856 131.316 8.01286 131.329 10.7672L146.499 134.774C146.499 137.529 148.35 140.277 151.988 142.381C159.27 146.582 171.038 146.582 178.269 142.381C181.888 140.277 183.688 137.529 183.675 134.774L198.845 10.7672Z" fill="url(#paint4_linear_534_4693)"/>
<path style="mix-blend-mode:screen" opacity="0.6" d="M183.675 10.7672C183.675 8.01286 181.831 5.25856 178.187 3.16095C170.905 -1.04063 159.143 -1.04063 151.905 3.16095C148.287 5.25856 146.487 8.01286 146.5 10.7672V134.774C146.5 137.529 148.351 140.277 151.988 142.381C159.27 146.582 171.039 146.582 178.27 142.381C181.888 140.277 183.688 137.529 183.675 134.774V10.7672Z" fill="url(#paint5_linear_534_4693)"/>
<path style="mix-blend-mode:screen" d="M182.278 108.991C182.278 109.799 182.038 110.59 181.588 111.262C181.139 111.934 180.5 112.458 179.752 112.767C179.005 113.076 178.182 113.157 177.389 112.999C176.595 112.842 175.866 112.452 175.294 111.881C174.722 111.309 174.332 110.581 174.175 109.788C174.017 108.996 174.098 108.174 174.407 107.427C174.717 106.68 175.241 106.042 175.914 105.593C176.587 105.144 177.378 104.904 178.187 104.904C179.272 104.904 180.312 105.335 181.08 106.101C181.847 106.868 182.278 107.907 182.278 108.991Z" fill="url(#paint6_radial_534_4693)"/>
<path style="mix-blend-mode:screen" d="M157.159 85.1906C157.159 85.9989 156.919 86.789 156.469 87.4611C156.02 88.1332 155.381 88.657 154.633 88.9663C153.886 89.2756 153.063 89.3566 152.27 89.1989C151.476 89.0412 150.747 88.652 150.175 88.0804C149.603 87.5089 149.213 86.7807 149.056 85.9879C148.898 85.1951 148.979 84.3734 149.288 83.6266C149.598 82.8799 150.122 82.2416 150.795 81.7925C151.468 81.3435 152.259 81.1038 153.068 81.1038C153.605 81.1038 154.137 81.2095 154.633 81.4149C155.13 81.6202 155.581 81.9213 155.961 82.3008C156.34 82.6803 156.642 83.1308 156.847 83.6266C157.053 84.1225 157.159 84.6539 157.159 85.1906Z" fill="url(#paint7_radial_534_4693)"/>
<path style="mix-blend-mode:screen" d="M183.988 95.3534C183.988 96.1617 183.748 96.9519 183.299 97.6239C182.849 98.296 182.21 98.8198 181.463 99.1292C180.715 99.4385 179.893 99.5194 179.099 99.3617C178.306 99.204 177.577 98.8148 177.005 98.2432C176.432 97.6717 176.043 96.9435 175.885 96.1507C175.727 95.358 175.808 94.5362 176.118 93.7895C176.427 93.0427 176.952 92.4044 177.625 91.9554C178.297 91.5063 179.088 91.2666 179.897 91.2666C180.435 91.2666 180.967 91.3723 181.463 91.5777C181.959 91.7831 182.41 92.0841 182.79 92.4636C183.17 92.8431 183.471 93.2936 183.677 93.7895C183.882 94.2853 183.988 94.8167 183.988 95.3534Z" fill="url(#paint8_radial_534_4693)"/>
<path style="mix-blend-mode:screen" d="M157.962 73.2809C158.678 73.2809 159.258 72.7015 159.258 71.9866C159.258 71.2718 158.678 70.6924 157.962 70.6924C157.247 70.6924 156.667 71.2718 156.667 71.9866C156.667 72.7015 157.247 73.2809 157.962 73.2809Z" fill="url(#paint9_radial_534_4693)"/>
<path style="mix-blend-mode:screen" d="M175.443 59.9875C176.159 59.9875 176.739 59.408 176.739 58.6932C176.739 57.9784 176.159 57.3989 175.443 57.3989C174.728 57.3989 174.148 57.9784 174.148 58.6932C174.148 59.408 174.728 59.9875 175.443 59.9875Z" fill="url(#paint10_radial_534_4693)"/>
<path style="mix-blend-mode:screen" d="M171.128 119.938C171.128 120.19 171.054 120.437 170.913 120.646C170.773 120.856 170.574 121.02 170.34 121.116C170.107 121.213 169.851 121.238 169.603 121.189C169.355 121.139 169.128 121.018 168.949 120.84C168.771 120.661 168.649 120.434 168.6 120.187C168.551 119.939 168.576 119.683 168.673 119.45C168.769 119.217 168.933 119.018 169.143 118.878C169.353 118.738 169.6 118.663 169.852 118.663C170.191 118.663 170.515 118.797 170.755 119.036C170.994 119.275 171.128 119.6 171.128 119.938Z" fill="url(#paint11_radial_534_4693)"/>
<path style="mix-blend-mode:screen" d="M177.823 85.1907C177.823 85.6625 177.683 86.1238 177.421 86.5161C177.158 86.9084 176.785 87.214 176.348 87.3943C175.912 87.5746 175.432 87.6214 174.968 87.5289C174.505 87.4364 174.08 87.2086 173.746 86.8745C173.413 86.5404 173.186 86.1149 173.095 85.6519C173.003 85.189 173.051 84.7093 173.233 84.2737C173.415 83.8381 173.722 83.4662 174.115 83.2049C174.508 82.9437 174.97 82.8049 175.443 82.8062C175.756 82.8062 176.066 82.8679 176.355 82.9878C176.645 83.1077 176.907 83.2834 177.128 83.505C177.35 83.7265 177.525 83.9894 177.644 84.2786C177.763 84.5679 177.824 84.8778 177.823 85.1907Z" fill="url(#paint12_radial_534_4693)"/>
<path style="mix-blend-mode:screen" d="M171.319 93.1796C171.319 93.7231 171.158 94.2543 170.856 94.7062C170.554 95.1581 170.124 95.5103 169.621 95.7183C169.119 95.9263 168.566 95.9807 168.032 95.8747C167.499 95.7687 167.008 95.5069 166.624 95.1226C166.239 94.7383 165.977 94.2487 165.871 93.7157C165.765 93.1826 165.819 92.6301 166.028 92.128C166.236 91.6259 166.588 91.1967 167.041 90.8947C167.493 90.5928 168.025 90.4316 168.569 90.4316C169.298 90.4316 169.998 90.7212 170.514 91.2365C171.03 91.7518 171.319 92.4508 171.319 93.1796Z" fill="url(#paint13_radial_534_4693)"/>
<path style="mix-blend-mode:screen" d="M167.854 132.932C167.853 133.74 167.612 134.529 167.162 135.201C166.711 135.872 166.072 136.395 165.324 136.703C164.577 137.011 163.754 137.091 162.961 136.933C162.168 136.775 161.44 136.385 160.868 135.813C160.297 135.241 159.908 134.513 159.751 133.72C159.593 132.928 159.675 132.106 159.984 131.36C160.294 130.614 160.819 129.976 161.491 129.527C162.164 129.078 162.954 128.839 163.763 128.839C164.301 128.839 164.834 128.945 165.33 129.15C165.827 129.356 166.278 129.658 166.658 130.038C167.038 130.418 167.339 130.869 167.545 131.366C167.75 131.862 167.855 132.395 167.854 132.932Z" fill="url(#paint14_radial_534_4693)"/>
<path style="mix-blend-mode:screen" d="M159.002 118.644C159.002 118.982 158.902 119.312 158.714 119.593C158.526 119.874 158.259 120.093 157.947 120.222C157.634 120.352 157.29 120.386 156.958 120.32C156.627 120.254 156.322 120.091 156.083 119.852C155.843 119.613 155.681 119.309 155.615 118.977C155.549 118.646 155.582 118.302 155.712 117.99C155.841 117.678 156.061 117.411 156.342 117.223C156.623 117.035 156.954 116.935 157.292 116.935C157.746 116.935 158.181 117.115 158.502 117.436C158.822 117.756 159.002 118.191 159.002 118.644Z" fill="url(#paint15_radial_534_4693)"/>
<path style="mix-blend-mode:screen" d="M151.983 61.4987C151.983 61.8367 151.882 62.167 151.694 62.448C151.506 62.729 151.239 62.948 150.927 63.0773C150.614 63.2067 150.27 63.2405 149.938 63.1746C149.607 63.1086 149.302 62.9459 149.063 62.7069C148.824 62.468 148.661 62.1635 148.595 61.8321C148.529 61.5006 148.563 61.1571 148.692 60.8448C148.821 60.5326 149.041 60.2658 149.322 60.078C149.603 59.8903 149.934 59.79 150.272 59.79C150.726 59.79 151.161 59.9701 151.482 60.2905C151.802 60.6109 151.983 61.0456 151.983 61.4987Z" fill="url(#paint16_radial_534_4693)"/>
<path style="mix-blend-mode:screen" d="M150.278 122.367C150.278 122.62 150.204 122.866 150.063 123.076C149.923 123.286 149.724 123.449 149.49 123.546C149.257 123.642 149.001 123.667 148.753 123.618C148.505 123.569 148.278 123.447 148.099 123.269C147.921 123.091 147.799 122.864 147.75 122.616C147.701 122.369 147.726 122.112 147.823 121.879C147.919 121.646 148.083 121.447 148.293 121.307C148.503 121.167 148.75 121.092 149.002 121.092C149.341 121.092 149.665 121.227 149.905 121.466C150.144 121.705 150.278 122.029 150.278 122.367Z" fill="url(#paint17_radial_534_4693)"/>
<path style="mix-blend-mode:screen" d="M178.187 123.356C179.131 123.356 179.897 122.591 179.897 121.647C179.897 120.703 179.131 119.938 178.187 119.938C177.242 119.938 176.476 120.703 176.476 121.647C176.476 122.591 177.242 123.356 178.187 123.356Z" fill="url(#paint18_radial_534_4693)"/>
<path style="mix-blend-mode:screen" d="M150.809 106.613C151.753 106.613 152.519 105.848 152.519 104.904C152.519 103.961 151.753 103.196 150.809 103.196C149.864 103.196 149.098 103.961 149.098 104.904C149.098 105.848 149.864 106.613 150.809 106.613Z" fill="url(#paint19_radial_534_4693)"/>
<path style="mix-blend-mode:screen" d="M168.569 47.8163C169.513 47.8163 170.279 47.0513 170.279 46.1076C170.279 45.1639 169.513 44.3989 168.569 44.3989C167.624 44.3989 166.858 45.1639 166.858 46.1076C166.858 47.0513 167.624 47.8163 168.569 47.8163Z" fill="url(#paint20_radial_534_4693)"/>
<path opacity="0.3" d="M73.9354 104.644L95.526 117.096" stroke="white" stroke-width="0.582772" stroke-miterlimit="10"/>
<path opacity="0.3" d="M257.331 104.644L235.741 117.096" stroke="white" stroke-width="0.582772" stroke-miterlimit="10"/>
<path d="M57.5645 162.602L57.3539 163.316V183.922L57.5645 184.126L67.1376 178.477L57.5645 162.602Z" fill="#BFDCB2"/>
<path d="M57.5651 162.602L47.9919 178.477L57.5651 184.126V162.602Z" fill="#CAE2BF"/>
<path opacity="0.3" d="M99.1631 208.611C101.716 210.064 101.716 212.436 99.195 213.883L62.2683 235.325C60.8554 236.042 59.293 236.415 57.7083 236.415C56.1236 236.415 54.5613 236.042 53.1483 235.325L15.9727 213.883C13.4518 212.43 13.4199 210.058 15.9727 208.611L52.9058 187.169C54.3165 186.452 55.8768 186.079 57.4594 186.079C59.0421 186.079 60.6023 186.452 62.013 187.169L99.1631 208.611Z" stroke="white" stroke-width="0.582772" stroke-miterlimit="10"/>
<path d="M92.5571 210.504V210.663C92.5435 210.707 92.5328 210.752 92.5252 210.797C92.5074 210.847 92.4924 210.898 92.4805 210.95L92.4231 211.078C92.4029 211.135 92.3772 211.191 92.3465 211.244L92.2827 211.358L92.155 211.537C92.1293 211.572 92.1016 211.606 92.0721 211.639C92.0049 211.722 91.9324 211.801 91.8551 211.875L91.7721 211.964L91.6126 212.091L91.4658 212.206C91.4065 212.25 91.3447 212.291 91.2807 212.327C91.2172 212.374 91.1511 212.416 91.0828 212.455L61.3551 229.708C61.1956 229.797 61.036 229.88 60.8637 229.956L60.7169 230.02C60.5829 230.071 60.4489 230.128 60.3085 230.173L60.1617 230.224L59.8936 230.3L59.6894 230.358L59.4022 230.415C59.337 230.432 59.271 230.444 59.2044 230.453C59.0102 230.491 58.8142 230.519 58.6172 230.536H58.4321H58.0811H57.3344H57.0728H56.8302H56.575L56.3388 230.498L56.0644 230.453L55.8538 230.409L55.5283 230.332L55.3496 230.281C55.1612 230.23 54.9758 230.169 54.7944 230.096H54.7178C54.4772 229.998 54.2427 229.885 54.0157 229.759L24.1093 212.506C23.0882 211.919 22.5776 211.148 22.5776 210.37V212.06C22.5776 212.831 23.0882 213.609 24.1093 214.195L54.0157 231.448C54.2443 231.576 54.4809 231.689 54.7242 231.786H54.7688C54.9475 231.856 55.1326 231.914 55.3241 231.971H55.3687L55.5028 232.009L55.8282 232.086H55.9112H56.0389L56.3133 232.13H56.4282H56.5494H56.8047H56.9324H57.0472H57.3089H57.4429C57.4769 232.133 57.5111 232.133 57.545 232.13C57.6408 232.13 57.7365 232.13 57.8322 232.13H58.0556H58.4066H58.5917C58.7895 232.13 58.9874 232.086 59.1852 232.047L59.3575 232.009L59.6383 231.945L59.8426 231.894L60.1106 231.818H60.1681L60.2574 231.786L60.6659 231.633L60.8126 231.569C60.9809 231.495 61.1449 231.412 61.3041 231.321L91.019 214.068L91.0828 214.03C91.1299 214.004 91.1747 213.974 91.2169 213.94C91.2809 213.904 91.3427 213.863 91.4019 213.819L91.5487 213.705L91.7083 213.571H91.7402L91.7913 213.513C91.8707 213.439 91.9453 213.361 92.0146 213.277L92.0593 213.226L92.0976 213.175C92.1417 213.116 92.1821 213.054 92.2188 212.99L92.2699 212.92V212.876C92.2971 212.824 92.3206 212.771 92.3401 212.716C92.3576 212.686 92.3726 212.654 92.3848 212.621C92.3848 212.621 92.3848 212.621 92.3848 212.589C92.4026 212.539 92.4175 212.488 92.4295 212.436V212.334C92.4326 212.281 92.4326 212.227 92.4295 212.174C92.4295 212.136 92.4295 212.104 92.4295 212.066V210.332C92.5699 210.402 92.5571 210.459 92.5571 210.504Z" fill="url(#paint21_linear_534_4693)"/>
<path d="M91.038 208.215C93.0675 209.382 93.0803 211.288 91.038 212.455L61.355 229.708C60.2183 230.286 58.9609 230.587 57.6853 230.587C56.4097 230.587 55.1522 230.286 54.0156 229.708L24.1092 212.455C22.0797 211.288 22.0669 209.388 24.1092 208.215L53.8241 190.962C54.9597 190.384 56.2161 190.083 57.4906 190.083C58.7652 190.083 60.0216 190.384 61.1571 190.962L91.038 208.215Z" fill="url(#paint22_linear_534_4693)"/>
<path d="M88.6963 204.084C88.6999 204.133 88.6999 204.182 88.6963 204.231C88.6963 204.269 88.6963 204.313 88.6963 204.352L88.658 204.486L88.607 204.6C88.5884 204.648 88.5671 204.695 88.5432 204.741L88.4793 204.849L88.3709 205.008L88.2943 205.098C88.2373 205.174 88.1732 205.244 88.1028 205.308L88.0262 205.385L87.8858 205.499C87.8439 205.537 87.7991 205.571 87.7518 205.601L87.5859 205.71L87.4135 205.824L60.9726 221.177C60.8386 221.254 60.6918 221.324 60.5386 221.394L60.411 221.451C60.2918 221.502 60.1706 221.547 60.0472 221.585L59.9132 221.63L59.677 221.7L59.492 221.751L59.2367 221.802L59.0644 221.84C58.892 221.872 58.7197 221.891 58.541 221.91H58.3751H58.0624H57.4242H57.188H56.9774H56.7477L56.5434 221.878L56.2945 221.84L56.1031 221.802L55.8159 221.732L55.6627 221.687C55.4904 221.636 55.3245 221.585 55.1649 221.521L55.1011 221.49C54.8808 221.409 54.6673 221.311 54.4629 221.196L27.8496 205.844C27.4726 205.675 27.1476 205.409 26.9086 205.073C26.6695 204.736 26.525 204.342 26.4902 203.931V205.436C26.525 205.847 26.6695 206.241 26.9086 206.577C27.1476 206.914 27.4726 207.18 27.8496 207.348L54.4629 222.695C54.6684 222.809 54.8817 222.909 55.1011 222.994H55.1394C55.3011 223.058 55.467 223.115 55.6372 223.166H55.6755H55.7967L56.0839 223.237H56.1605C56.1987 223.24 56.2372 223.24 56.2754 223.237L56.5179 223.281H56.6136H56.7221H56.9519H57.0668H57.1689H57.405H58.0432H58.3559H58.5155C58.6942 223.281 58.8665 223.236 59.0388 223.205L59.192 223.173C59.275 223.173 59.3643 223.141 59.4473 223.115L59.626 223.071L59.8621 223.001H59.9132H59.9961L60.3599 222.86L60.4939 222.809C60.6407 222.739 60.7875 222.669 60.9279 222.586L87.3625 207.24L87.4199 207.208L87.522 207.272L87.688 207.163L87.8156 207.061L87.956 206.947L88.0071 206.896L88.2049 206.685L88.2432 206.641L88.2751 206.59C88.3149 206.539 88.3512 206.486 88.3836 206.43L88.4283 206.366V206.328C88.4522 206.283 88.4735 206.236 88.4921 206.188C88.4921 206.188 88.4921 206.131 88.5368 206.105C88.5338 206.095 88.5338 206.084 88.5368 206.073L88.5751 205.933C88.5751 205.901 88.5751 205.875 88.5751 205.844C88.5782 205.795 88.5782 205.746 88.5751 205.697C88.5782 205.665 88.5782 205.633 88.5751 205.601V204.058C88.616 204.064 88.6565 204.073 88.6963 204.084Z" fill="url(#paint23_linear_534_4693)"/>
<path d="M87.3435 202.076C89.156 203.115 89.1624 204.811 87.3435 205.85L60.9025 221.203C59.8919 221.715 58.7746 221.982 57.6413 221.982C56.508 221.982 55.3906 221.715 54.38 221.203L27.7668 205.85C25.9607 204.811 25.9543 203.121 27.7668 202.076L54.2077 186.729C55.2174 186.214 56.3351 185.945 57.469 185.945C58.6028 185.945 59.7205 186.214 60.7302 186.729L87.3435 202.076Z" fill="url(#paint24_linear_534_4693)"/>
<path d="M85.263 199.06C85.263 199.104 85.263 199.149 85.263 199.187C85.263 199.226 85.263 199.258 85.263 199.296L85.2247 199.417C85.2125 199.452 85.1976 199.486 85.18 199.519C85.1651 199.563 85.1458 199.606 85.1226 199.646L85.0651 199.736C85.0378 199.787 85.0058 199.836 84.9694 199.882L84.9056 199.965L84.7333 200.15L84.6631 200.214C84.6234 200.251 84.5807 200.285 84.5354 200.316L84.4269 200.412L84.2738 200.507L84.1206 200.609L60.558 214.285C60.4343 214.356 60.3064 214.42 60.1751 214.476L60.0538 214.527L59.7347 214.648L59.6134 214.693L59.4028 214.75L59.2433 214.795L59.0135 214.846H58.8603C58.7072 214.878 58.5476 214.897 58.3945 214.916H58.2477H57.9669H57.3797H57.1691H56.9776H56.7734H56.5947L56.3713 214.878L56.2054 214.84L55.9501 214.782L55.8097 214.744C55.6604 214.701 55.5134 214.65 55.3693 214.591H55.3119C55.1195 214.516 54.9319 214.428 54.7503 214.33L31.0792 200.673C30.7448 200.525 30.4561 200.29 30.243 199.993C30.0298 199.696 29.8999 199.347 29.8666 198.983V200.258C29.8999 200.622 30.0298 200.971 30.243 201.268C30.4561 201.565 30.7448 201.8 31.0792 201.948L54.7567 215.605C54.934 215.709 55.1197 215.799 55.3119 215.873H55.3502C55.4943 215.929 55.6413 215.978 55.7906 216.019H55.8289H55.931L56.1863 216.083H56.2565H56.3586C56.4296 216.102 56.5022 216.115 56.5756 216.121H56.6649H56.7606H56.9649H57.0606H57.1563H57.3606H57.9541H58.2285H58.3753C58.5349 216.121 58.688 216.083 58.8412 216.057L58.9752 216.026L59.1986 215.981L59.3645 215.936L59.5751 215.873H59.6198H59.69L60.0155 215.751L60.1304 215.7C60.2644 215.637 60.3984 215.573 60.5197 215.503L84.0376 201.846H84.0887L84.1972 201.776C84.2486 201.746 84.2977 201.712 84.344 201.674L84.4589 201.585L84.5865 201.483L84.6312 201.432C84.6935 201.375 84.7512 201.313 84.8035 201.247L84.8418 201.208L84.8737 201.164L84.9694 201.024L85.0077 200.96C85.0111 200.949 85.0111 200.938 85.0077 200.928C85.0328 200.887 85.0541 200.845 85.0715 200.8C85.075 200.777 85.075 200.754 85.0715 200.73C85.0872 200.689 85.1 200.646 85.1098 200.603V200.526C85.113 200.484 85.113 200.441 85.1098 200.399C85.1124 200.371 85.1124 200.343 85.1098 200.316V198.939C85.1662 198.972 85.2178 199.013 85.263 199.06Z" fill="url(#paint25_linear_534_4693)"/>
<path d="M84.063 197.249C85.6712 198.174 85.6776 199.679 84.063 200.609L60.5578 214.285C59.6578 214.741 58.663 214.979 57.6539 214.979C56.6449 214.979 55.65 214.741 54.7501 214.285L31.079 200.629C29.4707 199.704 29.4643 198.193 31.079 197.269L54.6033 183.612C55.5015 183.154 56.4956 182.915 57.504 182.915C58.5123 182.915 59.5064 183.154 60.4046 183.612L84.063 197.249Z" fill="url(#paint26_linear_534_4693)"/>
<path d="M78.5867 196.229C79.8632 196.962 79.8632 198.142 78.5867 198.894L59.9319 209.733C59.2188 210.098 58.4292 210.288 57.628 210.288C56.8269 210.288 56.0372 210.098 55.3241 209.733L36.548 198.894C35.2716 198.155 35.2716 196.981 36.548 196.229L55.2028 185.39C55.9163 185.031 56.7043 184.843 57.5036 184.843C58.3028 184.843 59.0908 185.031 59.8043 185.39L78.5867 196.229Z" fill="#37862D"/>
<path d="M36.5473 197.708L55.2021 186.87C55.9145 186.506 56.703 186.317 57.5029 186.317C58.3027 186.317 59.0912 186.506 59.8036 186.87L78.586 197.708C78.8565 197.859 79.0932 198.063 79.2817 198.308C79.7923 197.619 79.5625 196.79 78.586 196.229L59.81 185.39C59.0965 185.031 58.3085 184.843 57.5092 184.843C56.71 184.843 55.922 185.031 55.2085 185.39L36.5537 196.229C35.59 196.784 35.3666 197.613 35.8772 198.295C36.0589 198.056 36.2868 197.857 36.5473 197.708Z" fill="#0C8502"/>
<path style="mix-blend-mode:screen" d="M78.6698 197.511V162.311C78.6304 162.035 78.522 161.773 78.3546 161.55C78.1873 161.328 77.9665 161.15 77.7125 161.035L58.9364 150.197C58.224 149.833 57.4355 149.644 56.6357 149.644C55.8358 149.644 55.0474 149.833 54.335 150.197L35.6801 161.035C35.4268 161.15 35.207 161.327 35.0416 161.55C34.8763 161.773 34.7709 162.035 34.7356 162.311V197.511C34.7483 197.806 34.8435 198.093 35.0104 198.337C35.1773 198.581 35.4093 198.774 35.6801 198.894L54.4626 209.733C55.1757 210.098 55.9654 210.288 56.7665 210.288C57.5677 210.288 58.3574 210.098 59.0705 209.733L77.7253 198.894C77.996 198.776 78.2274 198.583 78.3924 198.338C78.5574 198.093 78.6492 197.806 78.657 197.511H78.6698Z" fill="url(#paint27_linear_534_4693)"/>
<mask id="mask0_534_4693" style="mask-type:luminance" maskUnits="userSpaceOnUse" x="47" y="162" width="21" height="32">
<path d="M67.1446 162.602H47.9919V193.766H67.1446V162.602Z" fill="white"/>
</mask>
<g mask="url(#mask0_534_4693)">
<path d="M57.5652 185.936L57.4503 186.083V193.422L57.5652 193.766L67.1383 180.288L57.5652 185.936Z" fill="#BFDCB2"/>
<path d="M57.5651 193.766V185.936L47.9919 180.288L57.5651 193.766Z" fill="#CAE2BF"/>
</g>
<path d="M57.5649 184.151L67.1381 178.503L57.5649 174.154V184.151Z" fill="#ADD29D"/>
<path d="M47.9919 178.477L57.5651 184.126V174.129L47.9919 178.477Z" fill="#BFDCB2"/>
<path opacity="0.3" d="M88.748 91.4218C90.8669 92.6459 90.8796 94.6096 88.748 95.8465L57.7694 113.832C56.5837 114.437 55.2714 114.752 53.9402 114.752C52.609 114.752 51.2967 114.437 50.1109 113.832L18.96 95.8465C16.8412 94.6287 16.8284 92.6586 18.96 91.4218L49.945 73.4359C51.131 72.8324 52.4432 72.5178 53.7742 72.5178C55.1053 72.5178 56.4174 72.8324 57.6035 73.4359L88.748 91.4218Z" stroke="white" stroke-width="0.582772" stroke-miterlimit="10"/>
<path d="M83.0545 92.3272C83.0576 92.3718 83.0576 92.4165 83.0545 92.4611C83.0545 92.4993 83.0545 92.5376 83.0545 92.5759L83.0162 92.7034L82.9715 92.8054C82.9529 92.8512 82.9315 92.8959 82.9077 92.9393L82.8502 93.0349L82.7481 93.1879C82.7267 93.2192 82.7033 93.249 82.6779 93.2772C82.6197 93.3462 82.5579 93.4122 82.4928 93.4748L82.4226 93.545C82.3844 93.5832 82.3333 93.6151 82.2886 93.6533L82.1674 93.749L82.0142 93.851L81.7781 93.9339L56.9837 108.324C56.8516 108.402 56.7152 108.472 56.5752 108.534L56.454 108.585L56.1157 108.713L55.9881 108.757L55.7647 108.821L55.5988 108.866L55.3563 108.917H55.1967C55.0308 108.949 54.8648 108.968 54.6989 108.987H54.5457H54.2522H53.614H53.3906H53.1927H52.9757H52.7843L52.5545 108.942L52.3758 108.91L52.1014 108.84L51.9546 108.802C51.7983 108.758 51.6448 108.705 51.4951 108.643H51.4313C51.2291 108.563 51.0328 108.47 50.8441 108.362L25.9285 93.9339C25.5756 93.7772 25.2712 93.529 25.0467 93.2151C24.8223 92.9012 24.686 92.533 24.6521 92.1487V93.5577C24.688 93.9414 24.825 94.3088 25.0492 94.6224C25.2734 94.9359 25.5768 95.1846 25.9285 95.3429L50.8824 109.733C51.0711 109.84 51.2674 109.934 51.4696 110.013H51.5079C51.6598 110.076 51.8153 110.129 51.9738 110.173H52.0121H52.1206L52.3886 110.243H52.4588H52.5673L52.7971 110.288H52.8928H52.9949H53.2055H53.4097H53.6267H54.2649H54.5585H54.7117C54.8776 110.288 55.0435 110.249 55.2031 110.217L55.3435 110.186L55.5796 110.135L55.752 110.09L55.9753 110.026H56.02L56.0966 109.994L56.4348 109.867L56.5625 109.816C56.7029 109.752 56.8369 109.682 56.9709 109.605L81.7781 95.3684L81.8291 95.3365L81.9376 95.26L82.0972 95.158L82.2184 95.0624L82.3524 94.954C82.3657 94.9376 82.3807 94.9226 82.3971 94.9094C82.4602 94.8467 82.5198 94.7807 82.5758 94.7117L82.6205 94.6671V94.6225L82.7226 94.4758C82.736 94.4535 82.7509 94.4322 82.7673 94.4121C82.7673 94.4121 82.7673 94.4121 82.7673 94.3738C82.7911 94.3304 82.8124 94.2857 82.8311 94.2399L82.8694 94.1634C82.8851 94.1197 82.8979 94.0749 82.9077 94.0295V93.9466C82.9108 93.9021 82.9108 93.8573 82.9077 93.8127C82.9077 93.7809 82.9077 93.7554 82.9077 93.7235V92.2762C82.958 92.2888 83.0072 92.3058 83.0545 92.3272Z" fill="url(#paint28_linear_534_4693)"/>
<path d="M81.7781 90.4143C83.4757 91.3961 83.4821 92.9645 81.7781 93.9591L56.9837 108.349C56.0364 108.833 54.9876 109.086 53.9235 109.086C52.8595 109.086 51.8107 108.833 50.8633 108.349L25.9286 93.9336C24.2309 92.9518 24.2246 91.3834 25.9286 90.3888L50.7229 75.9924C51.67 75.5114 52.7175 75.2607 53.78 75.2607C54.8424 75.2607 55.8899 75.5114 56.837 75.9924L81.7781 90.4143Z" fill="url(#paint29_linear_534_4693)"/>
<path d="M79.8262 86.991C79.8262 87.0357 79.8262 87.0739 79.8262 87.1122C79.8262 87.1504 79.8262 87.1823 79.8262 87.2142C79.8262 87.2461 79.8262 87.2907 79.8262 87.3289L79.7879 87.4246L79.7305 87.5393C79.7111 87.5677 79.694 87.5975 79.6794 87.6286C79.6794 87.6732 79.622 87.7179 79.5837 87.7625L79.5263 87.839L79.3603 88.0175L79.2965 88.0749L79.1816 88.1769L79.0731 88.2598C79.0288 88.2932 78.9818 88.3231 78.9327 88.3491L78.7859 88.4447L56.7295 101.253C56.6121 101.321 56.4906 101.38 56.3657 101.432L56.2572 101.483L55.9509 101.598L55.8424 101.636L55.6445 101.693L55.4914 101.732L55.2807 101.776L55.134 101.808C54.9872 101.808 54.8468 101.853 54.6936 101.866H54.5596H54.2979H53.698H53.5065H53.3278H53.1364H52.9641L52.7598 101.827L52.6003 101.795L52.3578 101.738L52.2301 101.7C52.0895 101.663 51.951 101.618 51.8153 101.566H51.7578C51.5791 101.489 51.4004 101.406 51.2345 101.317L29.0313 88.5084C28.7167 88.3701 28.4452 88.1496 28.2454 87.8703C28.0455 87.591 27.9245 87.263 27.8953 86.9209V88.196C27.9245 88.5382 28.0455 88.8661 28.2454 89.1454C28.4452 89.4248 28.7167 89.6452 29.0313 89.7836L51.2345 102.586C51.4025 102.684 51.5774 102.769 51.7578 102.841H51.7898C51.9238 102.892 52.0642 102.943 52.2046 102.981H52.3067L52.5428 103.039H52.6067H52.7024H52.9066H52.9896H53.0789H53.2704H53.4491H53.6469H54.2022H54.4575H54.5979C54.7447 103.039 54.8914 103 55.0318 102.975H55.1595L55.3701 102.93L55.5233 102.886L55.7147 102.828H55.7594H55.8296C55.932 102.797 56.0322 102.758 56.1296 102.713L56.2381 102.669C56.3631 102.615 56.4846 102.553 56.6018 102.484L78.6647 89.6816L78.7094 89.6497L78.8115 89.5859L78.9455 89.4903C78.9843 89.4663 79.0206 89.4385 79.054 89.4074L79.1752 89.3118C79.1752 89.3118 79.1753 89.2799 79.2199 89.2671L79.3795 89.095L79.4178 89.0568V89.0185C79.4512 88.9742 79.4811 88.9273 79.5071 88.8782L79.5454 88.8272V88.7954L79.6028 88.6742C79.6173 88.6527 79.628 88.629 79.6348 88.6041C79.6492 88.5648 79.6598 88.5242 79.6667 88.4829C79.6667 88.4829 79.6667 88.4319 79.6667 88.4064C79.6698 88.3661 79.6698 88.3256 79.6667 88.2853C79.6697 88.2599 79.6697 88.2342 79.6667 88.2088V86.9337C79.8645 86.9209 79.8262 86.9592 79.8262 86.991Z" fill="url(#paint30_linear_534_4693)"/>
<path d="M78.6964 85.295C80.2089 86.1621 80.2153 87.5775 78.6964 88.4446L56.6399 101.253C55.7952 101.681 54.8617 101.904 53.9148 101.904C52.9679 101.904 52.0343 101.681 51.1896 101.253L28.9864 88.4446C27.4802 87.5775 27.4738 86.1621 28.9864 85.295L51.0428 72.4863C51.8864 72.0589 52.819 71.8362 53.7648 71.8362C54.7106 71.8362 55.6432 72.0589 56.4868 72.4863L78.6964 85.295Z" fill="url(#paint31_linear_534_4693)"/>
<path d="M76.9602 82.7763C76.9637 82.8123 76.9637 82.8486 76.9602 82.8847V82.9739C76.9602 83.0058 76.9602 83.044 76.9283 83.0759C76.9257 83.1035 76.9257 83.1312 76.9283 83.1588L76.8773 83.2672L76.8326 83.3437L76.7496 83.4648L76.6922 83.5286C76.6484 83.5863 76.5993 83.6396 76.5454 83.688C76.5318 83.7081 76.5145 83.7254 76.4943 83.739L76.3859 83.8283L76.2901 83.9048L76.1689 83.9876L76.0412 84.0705L56.3461 95.4639L56.027 95.6297L55.9249 95.6679C55.8375 95.7068 55.748 95.7409 55.6569 95.7699L55.5611 95.8018L55.3824 95.8528L55.2484 95.8911L55.057 95.9293H54.9293C54.8006 95.9551 54.6707 95.9743 54.54 95.9867H54.4187H54.189H53.5189H53.3593H53.187H53.0402L52.8551 95.9548H52.7147L52.4977 95.8974H52.3829L52.0127 95.7699H51.968C51.8074 95.7071 51.6517 95.6326 51.5021 95.5468L31.7496 84.1534C31.4703 84.03 31.229 83.8343 31.0506 83.5866C30.8723 83.3389 30.7632 83.0482 30.7349 82.7444V83.8601C30.762 84.1635 30.8698 84.454 31.0471 84.7017C31.2244 84.9495 31.4647 85.1454 31.7432 85.2692L51.5277 96.6625C51.675 96.7483 51.8286 96.8229 51.9872 96.8857H52.0191C52.1402 96.9327 52.2638 96.9732 52.3892 97.0068H52.4786L52.6892 97.0642H52.7466H52.836L53.0147 97.0961H53.0849H53.1679H53.3402H53.4231H54.1635H54.3932H54.5209L54.9102 97.0387H55.0187L55.2037 97.0004L55.3441 96.9622L55.5165 96.9112H55.6122H55.676L55.9441 96.8092L56.0398 96.7709C56.1547 96.7199 56.2632 96.6625 56.3653 96.6051L75.9902 85.2118H76.0348L76.1178 85.1544L76.2454 85.0715L76.3412 84.995L76.4433 84.9057L76.4816 84.8675C76.5338 84.8175 76.5828 84.7642 76.6284 84.7081C76.6284 84.7081 76.6284 84.7081 76.6284 84.6762V84.638L76.7113 84.5232C76.7242 84.5077 76.735 84.4906 76.7432 84.4722C76.7629 84.4374 76.7799 84.4011 76.7943 84.3638L76.8262 84.3001C76.8262 84.2682 76.8262 84.2299 76.8262 84.198C76.8291 84.1748 76.8291 84.1512 76.8262 84.1279C76.8262 84.1279 76.8262 84.0578 76.8262 84.0195C76.8262 83.9813 76.8262 83.9749 76.8262 83.9494V82.8081C76.9666 82.7125 76.9602 82.7444 76.9602 82.7763Z" fill="url(#paint32_linear_534_4693)"/>
<path d="M75.9586 81.2655C77.2989 82.0433 77.3053 83.2993 75.9586 84.0708L56.3465 95.4642C55.5959 95.8445 54.7661 96.0427 53.9245 96.0427C53.0829 96.0427 52.2531 95.8445 51.5025 95.4642L31.75 84.0708C30.4098 83.2993 30.4034 82.0433 31.75 81.2655L51.3813 69.8721C52.1307 69.4919 52.9595 69.2937 53.8001 69.2937C54.6407 69.2937 55.4694 69.4919 56.2189 69.8721L75.9586 81.2655Z" fill="url(#paint33_linear_534_4693)"/>
<path d="M71.3898 80.411C72.4492 81.0485 72.462 82.024 71.3898 82.6361L55.8239 91.6768C55.2303 91.9766 54.5744 92.1328 53.9093 92.1328C53.2441 92.1328 52.5883 91.9766 51.9947 91.6768L36.3267 82.6361C35.2608 81.9985 35.2545 81.0294 36.3267 80.4173L51.8925 71.3766C52.4862 71.0768 53.142 70.9207 53.8072 70.9207C54.4723 70.9207 55.1282 71.0768 55.7218 71.3766L71.3898 80.411Z" fill="#37862D"/>
<path d="M36.3134 81.6542L51.8793 72.6135C52.4729 72.3137 53.1288 72.1575 53.7939 72.1575C54.4591 72.1575 55.1149 72.3137 55.7086 72.6135L71.3766 81.6542C71.6015 81.7769 71.7974 81.9465 71.951 82.1515C72.3786 81.5777 72.1871 80.8764 71.3766 80.411L55.7086 71.3766C55.1149 71.0768 54.4591 70.9207 53.7939 70.9207C53.1288 70.9207 52.4729 71.0768 51.8793 71.3766L36.3134 80.4173C35.5093 80.8828 35.3242 81.5713 35.7454 82.1452C35.8985 81.9438 36.092 81.7766 36.3134 81.6542Z" fill="#0C8502"/>
<path style="mix-blend-mode:screen" d="M72.2051 81.4819V52.1091C72.1755 51.8763 72.0867 51.655 71.947 51.4663C71.8073 51.2776 71.6215 51.128 71.4073 51.0316L55.7393 41.9909C55.1457 41.6911 54.4899 41.5349 53.8247 41.5349C53.1595 41.5349 52.5037 41.6911 51.9101 41.9909L36.3442 51.0316C36.1306 51.1271 35.9457 51.2768 35.808 51.4659C35.6703 51.6549 35.5845 51.8767 35.5592 52.1091V81.4819C35.5704 81.7288 35.6504 81.9677 35.7902 82.1716C35.93 82.3755 36.1241 82.5364 36.3506 82.6359L52.025 91.6767C52.6186 91.9764 53.2744 92.1326 53.9396 92.1326C54.6047 92.1326 55.2606 91.9764 55.8542 91.6767L71.4265 82.6359C71.6505 82.5345 71.842 82.3729 71.9795 82.1692C72.117 81.9654 72.1951 81.7275 72.2051 81.4819Z" fill="url(#paint34_linear_534_4693)"/>
<mask id="mask1_534_4693" style="mask-type:luminance" maskUnits="userSpaceOnUse" x="40" y="51" width="31" height="31">
<path d="M70.1581 51.7783H40.5325V81.3743H70.1581V51.7783Z" fill="white"/>
</mask>
<g mask="url(#mask1_534_4693)">
<path d="M57.529 68.8273L56.093 72.7547C56.0546 72.8663 56.0546 72.9875 56.093 73.099L58.5565 79.8573L61.4157 78.2123L57.9885 68.8273C57.9723 68.7793 57.9414 68.7376 57.9001 68.708C57.8589 68.6785 57.8095 68.6626 57.7587 68.6626C57.708 68.6626 57.6586 68.6785 57.6173 68.708C57.5761 68.7376 57.5452 68.7793 57.529 68.8273Z" fill="#CAE2BF"/>
<path d="M60.4196 62.2218C60.4018 62.1745 60.37 62.1338 60.3284 62.105C60.2867 62.0762 60.2373 62.0608 60.1867 62.0608C60.1361 62.0608 60.0867 62.0762 60.0451 62.105C60.0034 62.1338 59.9716 62.1745 59.9538 62.2218L58.5242 66.1493C58.4858 66.2608 58.4858 66.382 58.5242 66.4936L62.564 77.5618L65.4168 75.9168L60.4196 62.2346V62.2218Z" fill="#CAE2BF"/>
<path fill-rule="evenodd" clip-rule="evenodd" d="M55.5504 53.6722C55.4876 53.6376 55.4177 53.618 55.3461 53.6148V53.602C55.2765 53.6045 55.2085 53.6242 55.1483 53.6594L44.2669 59.9331C44.2078 59.9726 44.1591 60.0256 44.1247 60.0877C44.0903 60.1498 44.0712 60.2192 44.069 60.2901V72.8503C44.0677 72.9219 44.0853 72.9926 44.12 73.0553C44.1548 73.1179 44.2054 73.1704 44.2669 73.2073L48.5817 75.695L48.1536 77.5207L43.3734 74.7566C43.0317 74.5595 42.748 74.2761 42.5508 73.9347C42.3537 73.5933 42.2499 73.2061 42.2501 72.812V60.2646C42.2542 59.8757 42.3601 59.4945 42.5571 59.159C42.7541 58.8235 43.0355 58.5453 43.3734 58.3519L54.2229 52.0782C54.5639 51.8802 54.9517 51.7768 55.3461 51.7786L55.3079 51.8041C55.7045 51.8005 56.0948 51.904 56.4375 52.1037L67.3253 58.3774C67.664 58.5698 67.9461 58.8478 68.1433 59.1835C68.3404 59.5193 68.4457 59.9009 68.4485 60.2901V72.812C68.45 73.2064 68.3469 73.5941 68.1496 73.9357C67.9522 74.2773 67.6678 74.5605 67.3253 74.7566L56.4758 81.0303C56.1306 81.223 55.7416 81.324 55.3461 81.3236C54.9525 81.3255 54.5652 81.2244 54.2229 81.0303L49.3314 78.2018L51.001 77.0898L55.1483 79.481C55.2085 79.5162 55.2765 79.5359 55.3461 79.5384C55.4177 79.5352 55.4876 79.5155 55.5504 79.481L66.3999 73.2073C66.4613 73.1698 66.5121 73.1173 66.5478 73.0549C66.5835 72.9925 66.6029 72.9221 66.6041 72.8503V60.3029C66.6054 60.2305 66.5872 60.1591 66.5512 60.0963C66.5153 60.0334 66.463 59.9815 66.3999 59.9459L55.5504 53.6722Z" fill="white"/>
<path d="M54.4202 59.4039H51.6632C51.5623 59.4037 51.4638 59.434 51.3806 59.4909C51.2974 59.5479 51.2335 59.6287 51.1973 59.7227L45.2875 75.917L48.1403 77.5619L54.6564 59.71C54.6709 59.6734 54.6762 59.6338 54.672 59.5947C54.6678 59.5556 54.6541 59.518 54.6321 59.4854C54.6101 59.4528 54.5805 59.426 54.5458 59.4073C54.5111 59.3887 54.4724 59.3788 54.433 59.3784L54.4202 59.4039Z" fill="#CAE2BF"/>
<path d="M59.2582 59.4036H56.4947C56.395 59.4046 56.2978 59.4356 56.2159 59.4924C56.134 59.5493 56.071 59.6294 56.0352 59.7224L49.2766 78.2119L52.1358 79.8568L59.4815 59.7224C59.4961 59.6858 59.5014 59.6462 59.4972 59.6071C59.493 59.568 59.4793 59.5305 59.4573 59.4979C59.4353 59.4652 59.4057 59.4384 59.371 59.4198C59.3363 59.4011 59.2976 59.3912 59.2582 59.3909V59.4036Z" fill="#CAE2BF"/>
</g>
<path opacity="0.3" d="M309.21 90.7735C311.259 91.953 311.272 93.8657 309.21 95.0452L279.291 112.413C278.148 112.994 276.882 113.298 275.599 113.298C274.316 113.298 273.051 112.994 271.907 112.413L241.796 95.0452C239.748 93.8657 239.741 91.953 241.796 90.7735L271.716 73.4061C272.858 72.8245 274.122 72.5212 275.404 72.5212C276.687 72.5212 277.951 72.8245 279.093 73.4061L309.21 90.7735Z" stroke="white" stroke-width="0.582772" stroke-miterlimit="10"/>
<path d="M303.978 91.7426C303.978 91.7873 303.978 91.8319 303.978 91.8765C303.981 91.9126 303.981 91.9489 303.978 91.9849C303.97 92.0281 303.959 92.0707 303.946 92.1124L303.901 92.2145C303.882 92.2603 303.861 92.305 303.837 92.3483C303.82 92.3795 303.801 92.4093 303.78 92.4376C303.754 92.4901 303.722 92.5394 303.684 92.5842C303.663 92.6155 303.639 92.6453 303.614 92.6735C303.558 92.7404 303.498 92.8042 303.435 92.8648L303.365 92.9285L303.237 93.0369L303.122 93.1326L302.969 93.2346L302.81 93.3366L278.641 107.363C278.513 107.44 278.379 107.503 278.245 107.567L278.124 107.618L277.792 107.746L277.671 107.784L277.454 107.848L277.288 107.892L277.052 107.943L276.892 107.975C276.739 107.975 276.573 108.026 276.413 108.039H276.267H275.979H275.156H274.965H274.754H274.563L274.339 108.001L274.167 107.962L273.899 107.899L273.759 107.86C273.605 107.816 273.452 107.765 273.305 107.707H273.242C273.019 107.623 272.805 107.516 272.603 107.389L248.275 93.3621C247.931 93.2085 247.635 92.9663 247.416 92.6604C247.198 92.3545 247.064 91.9959 247.03 91.6215V92.9987C247.062 93.3729 247.195 93.7316 247.414 94.0369C247.633 94.3421 247.93 94.5826 248.275 94.7328L272.597 108.759C272.782 108.863 272.974 108.955 273.171 109.034H273.21C273.356 109.091 273.51 109.142 273.663 109.187H273.701H273.81L274.071 109.25H274.141H274.244L274.467 109.295H274.556H274.658H274.869H274.971H275.067H275.277H275.916H276.203H276.318C276.484 109.295 276.643 109.257 276.803 109.225L276.943 109.193L277.173 109.142L277.339 109.097L277.556 109.04H277.607L277.677 109.008C277.79 108.972 277.901 108.93 278.009 108.881L278.13 108.83C278.266 108.773 278.399 108.707 278.526 108.632L302.695 94.6053L302.746 94.5735L302.854 94.5033C302.908 94.4731 302.959 94.439 303.008 94.4013C303.046 94.3695 303.087 94.3397 303.129 94.312L303.257 94.2037L303.301 94.1527L303.48 93.9614L303.518 93.9231C303.517 93.9083 303.517 93.8934 303.518 93.8785L303.62 93.7319L303.659 93.6681V93.6362L303.716 93.5023L303.754 93.4258L303.793 93.2983C303.793 93.2983 303.793 93.2473 303.793 93.2154C303.796 93.1709 303.796 93.1261 303.793 93.0815C303.796 93.0519 303.796 93.022 303.793 92.9923V91.5833C303.863 91.6253 303.926 91.6792 303.978 91.7426Z" fill="url(#paint35_linear_534_4693)"/>
<path d="M302.739 89.8807C304.392 90.8371 304.405 92.38 302.739 93.3363L278.571 107.363C277.647 107.834 276.624 108.08 275.587 108.08C274.55 108.08 273.527 107.834 272.603 107.363L248.275 93.3363C246.628 92.38 246.616 90.8371 248.275 89.8807L272.444 75.8542C273.368 75.3829 274.39 75.1372 275.427 75.1372C276.465 75.1372 277.487 75.3829 278.411 75.8542L302.739 89.8807Z" fill="url(#paint36_linear_534_4693)"/>
<path d="M300.838 86.5461C300.841 86.5864 300.841 86.6269 300.838 86.6672C300.841 86.699 300.841 86.731 300.838 86.7628C300.842 86.7989 300.842 86.8352 300.838 86.8712C300.828 86.9041 300.815 86.9361 300.8 86.9669C300.786 87.0062 300.769 87.0446 300.749 87.0816L300.698 87.1645C300.698 87.2091 300.64 87.2538 300.609 87.2984L300.551 87.3685C300.501 87.4289 300.448 87.4864 300.392 87.5407L300.328 87.6044L300.213 87.7001L300.104 87.7829L299.97 87.8722L299.83 87.9615L278.329 100.445C278.214 100.509 278.099 100.566 277.971 100.624L277.869 100.668L277.569 100.783L277.461 100.815C277.398 100.838 277.334 100.857 277.269 100.872L277.123 100.91L276.912 100.955H276.772C276.631 100.955 276.491 101 276.344 101.013H276.216H275.961H275.418H275.227H275.055H274.87H274.697L274.499 100.974L274.346 100.942C274.266 100.93 274.187 100.911 274.11 100.885L273.983 100.853C273.848 100.815 273.708 100.77 273.58 100.719H273.529C273.354 100.65 273.183 100.569 273.019 100.477L251.377 87.9933C251.074 87.8551 250.811 87.64 250.617 87.3694C250.422 87.0988 250.301 86.782 250.267 86.4504V87.6235C250.294 87.9571 250.412 88.277 250.606 88.5497C250.8 88.8223 251.064 89.0376 251.371 89.1728L272.942 101.65C273.107 101.742 273.277 101.823 273.453 101.892L273.861 102.033H273.893H273.989L274.219 102.09H274.282H274.378H274.576H274.653H274.742H274.927H275.016H275.833H276.089H276.191L276.618 102.026H276.74L276.944 101.982L277.097 101.943L277.288 101.886H277.327H277.397L277.69 101.778L277.799 101.733C277.92 101.676 278.042 101.618 278.15 101.554L299.658 89.0708L299.702 89.039L299.798 88.9752L299.932 88.8859L300.034 88.8031L300.149 88.7074L300.187 88.6692L300.347 88.497L300.379 88.4588C300.381 88.4461 300.381 88.4332 300.379 88.4205C300.411 88.3795 300.44 88.337 300.468 88.293L300.506 88.2356L300.564 88.1145V88.0507C300.564 88.0507 300.564 87.9742 300.564 87.936V87.8658C300.564 87.8276 300.564 87.7893 300.564 87.7511C300.564 87.7128 300.564 87.7001 300.564 87.6746V86.3994C300.666 86.4249 300.76 86.4753 300.838 86.5461Z" fill="url(#paint37_linear_534_4693)"/>
<path d="M299.74 84.8883C301.208 85.7363 301.221 87.1134 299.74 87.9614L278.239 100.445C277.417 100.863 276.507 101.081 275.584 101.081C274.661 101.081 273.752 100.863 272.929 100.445L251.288 87.9614C249.813 87.1134 249.807 85.7363 251.288 84.8883L272.795 72.4047C273.616 71.9866 274.525 71.7686 275.447 71.7686C276.369 71.7686 277.277 71.9866 278.099 72.4047L299.74 84.8883Z" fill="url(#paint38_linear_534_4693)"/>
<path d="M298.048 82.4403C298.048 82.4403 298.048 82.5105 298.048 82.5423C298.051 82.572 298.051 82.6019 298.048 82.6316C298.051 82.6634 298.051 82.6954 298.048 82.7272C298.046 82.7549 298.046 82.7825 298.048 82.8101L297.997 82.9121L297.952 82.9886L297.876 83.1034L297.818 83.1735L297.678 83.3266L297.62 83.3776L297.518 83.4604L297.429 83.537L297.308 83.6135C297.268 83.6448 297.225 83.6725 297.18 83.6963L278.034 94.8028C277.932 94.8602 277.823 94.9112 277.715 94.9622L277.619 95.0005L277.357 95.1025H277.262L277.089 95.1535L276.962 95.1853L276.777 95.23H276.649L276.266 95.281H276.151H275.921H275.283H275.13H274.964H274.817L274.639 95.2491H274.498L274.294 95.1981L274.179 95.1662C274.058 95.1325 273.938 95.0921 273.822 95.0451H273.771C273.615 94.9832 273.463 94.9107 273.318 94.8283L254.063 83.7219C253.791 83.6021 253.557 83.4117 253.384 83.1706C253.211 82.9295 253.106 82.6465 253.08 82.3511V83.4349C253.108 83.7314 253.215 84.0151 253.388 84.257C253.562 84.4989 253.797 84.6905 254.069 84.8121L273.241 95.9122C273.388 95.9933 273.539 96.0657 273.694 96.129L274.051 96.2501H274.134L274.345 96.3011H274.396H274.485L274.658 96.333H274.728H274.811H274.977H275.781H276.004H276.126C276.252 96.3227 276.378 96.3056 276.502 96.282H276.611L276.796 96.2437L276.93 96.2055L277.102 96.1608H277.134H277.198L277.459 96.0588L277.555 96.0206L277.868 95.8612L297.014 84.7547H297.052L297.142 84.6973L297.257 84.6144C297.291 84.5947 297.323 84.5712 297.352 84.5443L297.455 84.4614L297.493 84.4232L297.633 84.2702C297.633 84.2702 297.633 84.2702 297.633 84.2383C297.665 84.2019 297.69 84.1611 297.71 84.1171L297.748 84.0725C297.748 84.0725 297.786 84.0024 297.799 83.9705C297.796 83.9494 297.796 83.9279 297.799 83.9067C297.802 83.8728 297.802 83.8387 297.799 83.8047V83.741C297.802 83.7049 297.802 83.6687 297.799 83.6326C297.802 83.6115 297.802 83.59 297.799 83.5688V82.4467C298.054 82.3766 298.048 82.4085 298.048 82.4403Z" fill="url(#paint39_linear_534_4693)"/>
<path d="M297.065 80.9674C298.341 81.7197 298.386 82.9439 297.065 83.6962L277.919 94.8027C277.187 95.1765 276.376 95.3714 275.554 95.3714C274.732 95.3714 273.921 95.1765 273.189 94.8027L253.935 83.6962C252.626 82.9439 252.62 81.7197 253.935 80.9674L273.081 69.8609C273.811 69.4867 274.619 69.2915 275.439 69.2915C276.259 69.2915 277.068 69.4867 277.797 69.8609L297.065 80.9674Z" fill="url(#paint40_linear_534_4693)"/>
<path d="M292.61 80.1321C293.651 80.7314 293.657 81.7005 292.61 82.2998L277.453 91.111C276.873 91.4066 276.231 91.5607 275.58 91.5607C274.929 91.5607 274.287 91.4066 273.707 91.111L258.434 82.2998C257.4 81.7069 257.394 80.7314 258.434 80.1321L273.611 71.3273C274.19 71.0318 274.831 70.8777 275.481 70.8777C276.131 70.8777 276.772 71.0318 277.351 71.3273L292.61 80.1321Z" fill="#37862D"/>
<path d="M258.422 81.3435L273.598 72.5323C274.177 72.2368 274.818 72.0827 275.468 72.0827C276.118 72.0827 276.759 72.2368 277.338 72.5323L292.61 81.3435C292.831 81.4637 293.025 81.6287 293.178 81.828C293.593 81.267 293.408 80.5911 292.61 80.1321L277.338 71.3273C276.759 71.0318 276.118 70.8777 275.468 70.8777C274.818 70.8777 274.177 71.0318 273.598 71.3273L258.422 80.1321C257.643 80.5911 257.458 81.2606 257.873 81.8153C258.021 81.622 258.208 81.4614 258.422 81.3435Z" fill="#0C8502"/>
<path style="mix-blend-mode:screen" d="M293.395 81.1715V52.5574C293.365 52.3315 293.277 52.117 293.141 51.9341C293.005 51.7512 292.825 51.6059 292.617 51.5118L277.338 42.7005C276.759 42.405 276.118 42.251 275.468 42.251C274.818 42.251 274.177 42.405 273.598 42.7005L258.422 51.5118C258.215 51.6061 258.036 51.7517 257.902 51.9348C257.768 52.1178 257.683 52.3322 257.656 52.5574V81.1906C257.669 81.4321 257.749 81.6653 257.886 81.8644C258.023 82.0635 258.213 82.2209 258.434 82.3191L273.707 91.1303C274.287 91.4259 274.929 91.58 275.58 91.58C276.231 91.58 276.873 91.4259 277.453 91.1303L292.63 82.3191C292.85 82.2218 293.038 82.0641 293.172 81.8644C293.307 81.6647 293.382 81.4311 293.389 81.1906L293.395 81.1715Z" fill="url(#paint41_linear_534_4693)"/>
<mask id="mask2_534_4693" style="mask-type:luminance" maskUnits="userSpaceOnUse" x="262" y="56" width="27" height="24">
<path d="M288.57 56.8105H262.314V79.6228H288.57V56.8105Z" fill="white"/>
</mask>
<g mask="url(#mask2_534_4693)">
<path d="M282.176 63.7598C281.923 63.6247 281.642 63.5541 281.355 63.5541C281.069 63.5541 280.788 63.6247 280.535 63.7598L276.706 66.004L274.109 67.4322L270.343 69.6828C270.091 69.8179 269.809 69.8885 269.523 69.8885C269.237 69.8885 268.955 69.8179 268.703 69.6828L265.761 67.9104C265.512 67.7639 265.306 67.5551 265.163 67.3046C265.019 67.0542 264.944 66.7707 264.944 66.4822V63.0776C264.946 62.7895 265.022 62.5067 265.165 62.2566C265.308 62.0064 265.513 61.7973 265.761 61.6494L268.703 59.9471C268.955 59.8121 269.237 59.7414 269.523 59.7414C269.809 59.7414 270.091 59.8121 270.343 59.9471L273.285 61.7132C273.536 61.8599 273.744 62.0694 273.888 62.3211C274.032 62.5727 274.108 62.8577 274.109 63.1477V65.392L276.706 63.8937V61.5793C276.704 61.2906 276.626 61.0074 276.482 60.7572C276.338 60.507 276.131 60.2982 275.883 60.1511L270.413 56.9633C270.161 56.8282 269.879 56.7576 269.593 56.7576C269.307 56.7576 269.025 56.8282 268.773 56.9633L263.131 60.2085C262.882 60.3376 262.673 60.5337 262.529 60.7747C262.385 61.0157 262.31 61.2921 262.314 61.5729V67.9486C262.317 68.2366 262.393 68.5191 262.536 68.7692C262.679 69.0192 262.884 69.2284 263.131 69.3768L268.671 72.5646C268.923 72.6997 269.205 72.7703 269.491 72.7703C269.777 72.7703 270.059 72.6997 270.311 72.5646L274.077 70.3841L276.674 68.8858L280.433 66.7117C280.685 66.5767 280.967 66.506 281.253 66.506C281.539 66.506 281.821 66.5767 282.073 66.7117L285.016 68.414C285.266 68.5592 285.474 68.7675 285.618 69.0182C285.763 69.2688 285.839 69.553 285.839 69.8422V73.2468C285.836 73.5355 285.759 73.8187 285.615 74.0689C285.471 74.3191 285.264 74.5279 285.016 74.675L282.144 76.3773C281.891 76.5123 281.61 76.583 281.323 76.583C281.037 76.583 280.756 76.5123 280.503 76.3773L277.561 74.675C277.313 74.5285 277.106 74.3197 276.963 74.0693C276.82 73.8188 276.744 73.5353 276.744 73.2468V71.111L274.14 72.6093V74.8726C274.144 75.1612 274.221 75.4441 274.365 75.6942C274.509 75.9443 274.715 76.1532 274.964 76.3008L280.503 79.4886C280.756 79.6237 281.037 79.6944 281.323 79.6944C281.61 79.6944 281.891 79.6237 282.144 79.4886L287.683 76.3008C287.932 76.1543 288.138 75.9455 288.282 75.6951C288.425 75.4446 288.5 75.1611 288.5 74.8726V68.3885C288.499 68.1003 288.423 67.8173 288.28 67.5671C288.137 67.3168 287.931 67.1078 287.683 66.9604L282.176 63.7598Z" fill="#CAE2BF"/>
</g>
<path opacity="0.3" d="M318.924 205.856C321.043 207.081 321.055 209.044 318.924 210.288L287.92 228.286C286.734 228.89 285.422 229.204 284.091 229.204C282.759 229.204 281.447 228.89 280.261 228.286L249.053 210.288C246.934 209.063 246.921 207.1 249.053 205.856L280.057 187.858C281.243 187.253 282.555 186.938 283.886 186.938C285.217 186.938 286.53 187.253 287.716 187.858L318.924 205.856Z" stroke="white" stroke-width="0.582772" stroke-miterlimit="10"/>
<path d="M313.027 207.596C313.027 207.641 313.027 207.686 313.027 207.73C313.027 207.775 313.027 207.807 312.995 207.845C312.963 207.883 312.995 207.928 312.957 207.973C312.945 208.008 312.93 208.042 312.912 208.075C312.893 208.123 312.872 208.169 312.848 208.215C312.834 208.249 312.815 208.282 312.791 208.311C312.76 208.361 312.726 208.41 312.689 208.457L312.625 208.546L312.44 208.744L312.37 208.814L312.236 208.923L312.114 209.018L311.961 209.12L311.795 209.229L287.001 223.619C286.869 223.696 286.732 223.767 286.592 223.829L286.471 223.88L286.127 224.008L286.005 224.052L285.782 224.116L285.61 224.161L285.373 224.212L285.208 224.243C285.048 224.243 284.882 224.294 284.716 224.314H284.563H284.269H283.631H283.414H283.216H282.999H282.801L282.572 224.269L282.393 224.237L282.125 224.167L281.978 224.129C281.827 224.061 281.68 223.985 281.538 223.899H281.48C281.277 223.822 281.081 223.729 280.893 223.619L255.907 209.235C255.556 209.077 255.252 208.828 255.028 208.514C254.804 208.201 254.667 207.834 254.631 207.45V208.859C254.664 209.244 254.799 209.612 255.024 209.926C255.249 210.241 255.554 210.488 255.907 210.644L280.861 225.034C281.05 225.141 281.246 225.235 281.448 225.315H281.487C281.636 225.378 281.79 225.431 281.946 225.474H281.985H282.099L282.367 225.544H282.438C282.474 225.548 282.51 225.548 282.546 225.544L282.776 225.589H282.865H282.967H283.184H283.382H283.606H284.244H284.537H284.729C284.895 225.589 285.061 225.55 285.22 225.519L285.361 225.487L285.603 225.436L285.769 225.391L285.992 225.327H286.044L286.12 225.295L286.458 225.168L286.58 225.117C286.72 225.054 286.856 224.984 286.988 224.906L311.782 210.517L311.84 210.485L311.948 210.408L312.102 210.306L312.223 210.21C312.268 210.172 312.319 210.14 312.357 210.102L312.402 210.057C312.467 209.995 312.528 209.929 312.587 209.86L312.625 209.815V209.771L312.727 209.624C312.727 209.624 312.727 209.579 312.765 209.56V209.522C312.789 209.479 312.81 209.434 312.829 209.388C312.842 209.364 312.853 209.338 312.861 209.312L312.899 209.178C312.902 209.15 312.902 209.122 312.899 209.095C312.902 209.05 312.902 209.005 312.899 208.961C312.902 208.931 312.902 208.901 312.899 208.872V207.424C312.949 207.476 312.992 207.534 313.027 207.596Z" fill="url(#paint42_linear_534_4693)"/>
<path d="M311.757 205.684C313.454 206.666 313.461 208.234 311.757 209.229L286.962 223.619C286.015 224.103 284.966 224.355 283.902 224.355C282.838 224.355 281.789 224.103 280.842 223.619L255.907 209.235C254.216 208.254 254.21 206.685 255.907 205.691L280.708 191.294C281.655 190.813 282.703 190.562 283.765 190.563C284.828 190.562 285.875 190.813 286.822 191.294L311.757 205.684Z" fill="url(#paint43_linear_534_4693)"/>
<path d="M309.803 202.261C309.807 202.303 309.807 202.346 309.803 202.388C309.806 202.42 309.806 202.452 309.803 202.484C309.796 202.523 309.785 202.561 309.772 202.599L309.733 202.694C309.733 202.733 309.733 202.771 309.676 202.815L309.625 202.898L309.535 203.032L309.472 203.109C309.421 203.166 309.369 203.23 309.312 203.287L309.248 203.345L309.127 203.447L309.018 203.53C308.976 203.563 308.931 203.593 308.884 203.619L308.738 203.714L286.643 216.523C286.528 216.587 286.407 216.651 286.279 216.708L286.171 216.753L285.871 216.868L285.762 216.906L285.558 216.963L285.411 217.001L285.194 217.046L285.054 217.078L284.613 217.135H284.479H284.218H283.662H283.465H283.286H283.094H282.922L282.718 217.097H282.558L282.322 217.04L282.188 217.001C282.048 216.963 281.907 216.919 281.773 216.868H281.722C281.543 216.796 281.368 216.713 281.199 216.619L258.996 203.81C258.681 203.672 258.41 203.451 258.21 203.172C258.01 202.893 257.889 202.565 257.86 202.223V203.498C257.889 203.84 258.01 204.168 258.21 204.447C258.41 204.726 258.681 204.947 258.996 205.085L281.199 217.888C281.368 217.984 281.542 218.069 281.722 218.143H281.754C281.888 218.194 282.022 218.245 282.163 218.283H282.201H282.297L282.539 218.34H282.603H282.699L282.903 218.372H282.98H283.075H283.267H283.452H283.643H284.199H284.46H284.594C284.747 218.372 284.888 218.334 285.035 218.308H285.162L285.373 218.264L285.526 218.219C285.59 218.219 285.66 218.187 285.724 218.162H285.769H285.832C285.937 218.13 286.039 218.092 286.139 218.047L286.247 218.002C286.372 217.948 286.494 217.887 286.611 217.817L308.667 205.015L308.719 204.983L308.814 204.919L308.98 204.773L309.089 204.69L309.204 204.594L309.242 204.55L309.408 204.378V204.339V204.301C309.485 204.255 309.555 204.199 309.618 204.135C309.62 204.118 309.62 204.101 309.618 204.084V204.052C309.639 204.014 309.656 203.973 309.669 203.931L309.708 203.861C309.708 203.823 309.708 203.785 309.74 203.746C309.742 203.719 309.742 203.691 309.74 203.663C309.74 203.663 309.74 203.581 309.74 203.542C309.74 203.504 309.74 203.491 309.74 203.466V202.191C309.763 202.212 309.784 202.236 309.803 202.261Z" fill="url(#paint44_linear_534_4693)"/>
<path d="M308.68 200.565C310.186 201.432 310.193 202.847 308.68 203.714L286.643 216.523C285.799 216.951 284.867 217.173 283.921 217.173C282.975 217.173 282.043 216.951 281.199 216.523L258.996 203.714C257.49 202.847 257.483 201.432 258.996 200.565L281.059 187.756C281.902 187.329 282.835 187.106 283.781 187.106C284.726 187.106 285.659 187.329 286.503 187.756L308.68 200.565Z" fill="url(#paint45_linear_534_4693)"/>
<path d="M306.946 198.046C306.946 198.084 306.946 198.123 306.946 198.154C306.946 198.186 306.946 198.218 306.946 198.244V198.346L306.907 198.429C306.893 198.466 306.876 198.502 306.856 198.537C306.844 198.564 306.829 198.589 306.812 198.614L306.729 198.735L306.678 198.798C306.632 198.855 306.583 198.908 306.531 198.958L306.429 199.034L306.327 199.117L306.231 199.194L306.11 199.277L305.975 199.359L286.351 210.753C286.249 210.81 286.14 210.868 286.025 210.919L285.929 210.957L285.661 211.059L285.559 211.091L285.368 211.148L285.234 211.186L285.042 211.225H284.915C284.787 211.225 284.653 211.269 284.525 211.282H284.404H284.168H283.53H283.37H283.198H283.045H282.86H282.719L282.509 211.225H282.394L282.024 211.097H281.973C281.814 211.034 281.66 210.96 281.513 210.874L261.729 199.481C261.451 199.356 261.211 199.16 261.034 198.912C260.857 198.665 260.749 198.375 260.72 198.072V199.034C260.749 199.338 260.858 199.629 261.036 199.877C261.214 200.124 261.456 200.32 261.735 200.443L281.487 211.837C281.637 211.922 281.793 211.997 281.953 212.06L282.324 212.187H282.355H282.438L282.655 212.245H282.713H282.796H282.975H283.051H283.134C283.189 212.251 283.245 212.251 283.3 212.245H283.383H284.13H284.359H284.481C284.611 212.232 284.741 212.213 284.87 212.187H284.985L285.17 212.149L285.304 212.111L285.483 212.06H285.521H285.578C285.67 212.031 285.759 211.997 285.846 211.958L285.949 211.92L286.268 211.754L305.899 200.36H305.937L306.027 200.303L306.148 200.22L306.244 200.144L306.352 200.054L306.39 200.016C306.44 199.966 306.487 199.913 306.531 199.857C306.531 199.857 306.531 199.857 306.563 199.825V199.793L306.646 199.672C306.644 199.655 306.644 199.638 306.646 199.621L306.697 199.512C306.698 199.491 306.698 199.47 306.697 199.449C306.697 199.417 306.697 199.379 306.697 199.347V199.277C306.7 199.241 306.7 199.204 306.697 199.168C306.697 199.168 306.697 199.124 306.697 199.098V197.95C306.952 197.982 306.946 198.014 306.946 198.046Z" fill="url(#paint46_linear_534_4693)"/>
<path d="M305.937 196.535C307.284 197.313 307.29 198.569 305.937 199.34L286.312 210.734C285.562 211.114 284.732 211.312 283.89 211.312C283.049 211.312 282.219 211.114 281.468 210.734L261.684 199.34C260.343 198.569 260.337 197.313 261.684 196.535L281.309 185.142C282.059 184.761 282.889 184.563 283.731 184.563C284.572 184.563 285.402 184.761 286.153 185.142L305.937 196.535Z" fill="url(#paint47_linear_534_4693)"/>
<path d="M301.368 195.687C302.434 196.325 302.44 197.294 301.368 197.906L285.802 206.947C285.208 207.245 284.552 207.401 283.887 207.401C283.222 207.401 282.567 207.245 281.973 206.947L266.305 197.906C265.245 197.268 265.239 196.299 266.305 195.687L281.871 186.646C282.464 186.346 283.12 186.189 283.785 186.189C284.451 186.189 285.106 186.346 285.7 186.646L301.368 195.687Z" fill="#37862D"/>
<path d="M266.298 196.924L281.864 187.883C282.457 187.583 283.113 187.426 283.779 187.426C284.444 187.426 285.1 187.583 285.693 187.883L301.361 196.924C301.588 197.047 301.786 197.216 301.942 197.421C302.37 196.848 302.178 196.146 301.361 195.687L285.693 186.646C285.1 186.346 284.444 186.189 283.779 186.189C283.113 186.189 282.457 186.346 281.864 186.646L266.298 195.687C265.488 196.153 265.303 196.841 265.73 197.415C265.882 197.212 266.076 197.045 266.298 196.924Z" fill="#0C8502"/>
<path style="mix-blend-mode:screen" d="M302.172 196.752V167.379C302.142 167.147 302.052 166.926 301.913 166.737C301.773 166.548 301.588 166.399 301.374 166.302L285.7 157.261C285.106 156.96 284.45 156.803 283.785 156.803C283.12 156.803 282.464 156.96 281.87 157.261L266.298 166.302C266.087 166.4 265.904 166.551 265.766 166.739C265.629 166.928 265.542 167.148 265.513 167.379V196.752C265.528 196.999 265.61 197.237 265.75 197.44C265.891 197.644 266.085 197.805 266.311 197.906L281.979 206.947C282.573 207.246 283.228 207.401 283.893 207.401C284.558 207.401 285.214 207.246 285.808 206.947L301.374 197.906C301.602 197.81 301.796 197.649 301.935 197.444C302.073 197.24 302.149 196.999 302.153 196.752H302.172Z" fill="url(#paint48_linear_534_4693)"/>
<mask id="mask3_534_4693" style="mask-type:luminance" maskUnits="userSpaceOnUse" x="272" y="169" width="24" height="25">
<path d="M295.972 169.553H272.104V193.398H295.972V169.553Z" fill="white"/>
</mask>
<g mask="url(#mask3_534_4693)">
<path d="M279.398 179.576L284.038 174.947L288.671 179.576L291.371 176.885L284.038 169.553L276.705 176.879L279.398 179.576ZM272.104 181.488L274.797 178.798L277.496 181.488L274.797 184.185L272.104 181.488ZM279.398 183.401L284.038 188.03L288.671 183.395L291.371 186.092L284.038 193.417L276.705 186.092L279.405 183.401M290.58 181.488L293.279 178.798L295.979 181.488L293.279 184.185L290.58 181.488Z" fill="#CAE2BF"/>
<path d="M286.769 181.475L284.038 178.74L282.021 180.761L281.785 180.997L281.306 181.475L284.044 184.204L286.782 181.475" fill="#CAE2BF"/>
</g>
<defs>
<filter id="filter0_f_534_4693" x="143.283" y="34.3754" width="40.8093" height="52.9806" filterUnits="userSpaceOnUse" color-interpolation-filters="sRGB">
<feFlood flood-opacity="0" result="BackgroundImageFix"/>
<feBlend mode="normal" in="SourceGraphic" in2="BackgroundImageFix" result="shape"/>
<feGaussianBlur stdDeviation="2.14786" result="effect1_foregroundBlur_534_4693"/>
</filter>
<linearGradient id="paint0_linear_534_4693" x1="105.092" y1="170.88" x2="225.082" y2="170.88" gradientUnits="userSpaceOnUse">
<stop stop-color="#1A5424"/>
<stop offset="0.51" stop-color="#014E30"/>
<stop offset="1" stop-color="#12713C"/>
</linearGradient>
<linearGradient id="paint1_linear_534_4693" x1="105.118" y1="148.635" x2="225.082" y2="148.635" gradientUnits="userSpaceOnUse">
<stop offset="0.01" stop-color="#00541B"/>
<stop offset="1" stop-color="#12842C"/>
</linearGradient>
<linearGradient id="paint2_linear_534_4693" x1="122.668" y1="156.038" x2="207.511" y2="156.038" gradientUnits="userSpaceOnUse">
<stop stop-color="#1A5424"/>
<stop offset="0.51" stop-color="#014E30"/>
<stop offset="1" stop-color="#12713C"/>
</linearGradient>
<linearGradient id="paint3_linear_534_4693" x1="122.688" y1="140.315" x2="207.512" y2="140.315" gradientUnits="userSpaceOnUse">
<stop offset="0.01" stop-color="#00541B"/>
<stop offset="1" stop-color="#12842C"/>
</linearGradient>
<linearGradient id="paint4_linear_534_4693" x1="165.09" y1="138.064" x2="165.09" y2="24.8128" gradientUnits="userSpaceOnUse">
<stop stop-color="#1C8900"/>
<stop offset="1" stop-opacity="0"/>
</linearGradient>
<linearGradient id="paint5_linear_534_4693" x1="165.091" y1="138.064" x2="165.091" y2="24.8128" gradientUnits="userSpaceOnUse">
<stop stop-color="#1C8900"/>
<stop offset="1" stop-opacity="0"/>
</linearGradient>
<radialGradient id="paint6_radial_534_4693" cx="0" cy="0" r="1" gradientUnits="userSpaceOnUse" gradientTransform="translate(178.187 108.991) scale(4.09091 4.08682)">
<stop offset="0.05" stop-color="#1C8900"/>
<stop offset="0.18" stop-color="#125A00" stop-opacity="0.66"/>
<stop offset="0.31" stop-color="#0B3300" stop-opacity="0.38"/>
<stop offset="0.44" stop-color="#051700" stop-opacity="0.17"/>
<stop offset="0.54" stop-color="#010600" stop-opacity="0.04"/>
<stop offset="0.62" stop-opacity="0"/>
</radialGradient>
<radialGradient id="paint7_radial_534_4693" cx="0" cy="0" r="1" gradientUnits="userSpaceOnUse" gradientTransform="translate(153.068 85.1906) scale(4.0909 4.08682)">
<stop offset="0.05" stop-color="#1C8900"/>
<stop offset="0.18" stop-color="#125A00" stop-opacity="0.66"/>
<stop offset="0.31" stop-color="#0B3300" stop-opacity="0.38"/>
<stop offset="0.44" stop-color="#051700" stop-opacity="0.17"/>
<stop offset="0.54" stop-color="#010600" stop-opacity="0.04"/>
<stop offset="0.62" stop-opacity="0"/>
</radialGradient>
<radialGradient id="paint8_radial_534_4693" cx="0" cy="0" r="1" gradientUnits="userSpaceOnUse" gradientTransform="translate(179.897 95.3279) scale(4.09091 4.08682)">
<stop offset="0.05" stop-color="#1C8900"/>
<stop offset="0.18" stop-color="#125A00" stop-opacity="0.66"/>
<stop offset="0.31" stop-color="#0B3300" stop-opacity="0.38"/>
<stop offset="0.44" stop-color="#051700" stop-opacity="0.17"/>
<stop offset="0.54" stop-color="#010600" stop-opacity="0.04"/>
<stop offset="0.62" stop-opacity="0"/>
</radialGradient>
<radialGradient id="paint9_radial_534_4693" cx="0" cy="0" r="1" gradientUnits="userSpaceOnUse" gradientTransform="translate(157.962 71.9866) scale(1.29556 1.29427)">
<stop offset="0.05" stop-color="#1C8900"/>
<stop offset="0.18" stop-color="#125A00" stop-opacity="0.66"/>
<stop offset="0.31" stop-color="#0B3300" stop-opacity="0.38"/>
<stop offset="0.44" stop-color="#051700" stop-opacity="0.17"/>
<stop offset="0.54" stop-color="#010600" stop-opacity="0.04"/>
<stop offset="0.62" stop-opacity="0"/>
</radialGradient>
<radialGradient id="paint10_radial_534_4693" cx="0" cy="0" r="1" gradientUnits="userSpaceOnUse" gradientTransform="translate(175.443 58.6932) scale(1.29556 1.29427)">
<stop offset="0.05" stop-color="#1C8900"/>
<stop offset="0.18" stop-color="#125A00" stop-opacity="0.66"/>
<stop offset="0.31" stop-color="#0B3300" stop-opacity="0.38"/>
<stop offset="0.44" stop-color="#051700" stop-opacity="0.17"/>
<stop offset="0.54" stop-color="#010600" stop-opacity="0.04"/>
<stop offset="0.62" stop-opacity="0"/>
</radialGradient>
<radialGradient id="paint11_radial_534_4693" cx="0" cy="0" r="1" gradientUnits="userSpaceOnUse" gradientTransform="translate(169.865 119.938) scale(1.29556 1.29427)">
<stop offset="0.05" stop-color="#1C8900"/>
<stop offset="0.18" stop-color="#125A00" stop-opacity="0.66"/>
<stop offset="0.31" stop-color="#0B3300" stop-opacity="0.38"/>
<stop offset="0.44" stop-color="#051700" stop-opacity="0.17"/>
<stop offset="0.54" stop-color="#010600" stop-opacity="0.04"/>
<stop offset="0.62" stop-opacity="0"/>
</radialGradient>
<radialGradient id="paint12_radial_534_4693" cx="0" cy="0" r="1" gradientUnits="userSpaceOnUse" gradientTransform="translate(175.443 85.1907) scale(2.38689 2.38451)">
<stop offset="0.05" stop-color="#1C8900"/>
<stop offset="0.18" stop-color="#125A00" stop-opacity="0.66"/>
<stop offset="0.31" stop-color="#0B3300" stop-opacity="0.38"/>
<stop offset="0.44" stop-color="#051700" stop-opacity="0.17"/>
<stop offset="0.54" stop-color="#010600" stop-opacity="0.04"/>
<stop offset="0.62" stop-opacity="0"/>
</radialGradient>
<radialGradient id="paint13_radial_534_4693" cx="0" cy="0" r="1" gradientUnits="userSpaceOnUse" gradientTransform="translate(168.569 93.1796) scale(2.75067 2.74792)">
<stop offset="0.05" stop-color="#1C8900"/>
<stop offset="0.18" stop-color="#125A00" stop-opacity="0.66"/>
<stop offset="0.31" stop-color="#0B3300" stop-opacity="0.38"/>
<stop offset="0.44" stop-color="#051700" stop-opacity="0.17"/>
<stop offset="0.54" stop-color="#010600" stop-opacity="0.04"/>
<stop offset="0.62" stop-opacity="0"/>
</radialGradient>
<radialGradient id="paint14_radial_534_4693" cx="0" cy="0" r="1" gradientUnits="userSpaceOnUse" gradientTransform="translate(163.763 132.925) scale(4.09091 4.08682)">
<stop offset="0.05" stop-color="#1C8900"/>
<stop offset="0.18" stop-color="#125A00" stop-opacity="0.66"/>
<stop offset="0.31" stop-color="#0B3300" stop-opacity="0.38"/>
<stop offset="0.44" stop-color="#051700" stop-opacity="0.17"/>
<stop offset="0.54" stop-color="#010600" stop-opacity="0.04"/>
<stop offset="0.62" stop-opacity="0"/>
</radialGradient>
<radialGradient id="paint15_radial_534_4693" cx="0" cy="0" r="1" gradientUnits="userSpaceOnUse" gradientTransform="translate(157.279 118.644) scale(1.7104 1.70869)">
<stop offset="0.05" stop-color="#1C8900"/>
<stop offset="0.18" stop-color="#125A00" stop-opacity="0.66"/>
<stop offset="0.31" stop-color="#0B3300" stop-opacity="0.38"/>
<stop offset="0.44" stop-color="#051700" stop-opacity="0.17"/>
<stop offset="0.54" stop-color="#010600" stop-opacity="0.04"/>
<stop offset="0.62" stop-opacity="0"/>
</radialGradient>
<radialGradient id="paint16_radial_534_4693" cx="0" cy="0" r="1" gradientUnits="userSpaceOnUse" gradientTransform="translate(150.279 61.4987) scale(1.7104 1.70869)">
<stop offset="0.05" stop-color="#1C8900"/>
<stop offset="0.18" stop-color="#125A00" stop-opacity="0.66"/>
<stop offset="0.31" stop-color="#0B3300" stop-opacity="0.38"/>
<stop offset="0.44" stop-color="#051700" stop-opacity="0.17"/>
<stop offset="0.54" stop-color="#010600" stop-opacity="0.04"/>
<stop offset="0.62" stop-opacity="0"/>
</radialGradient>
<radialGradient id="paint17_radial_534_4693" cx="0" cy="0" r="1" gradientUnits="userSpaceOnUse" gradientTransform="translate(148.976 122.367) scale(1.30194 1.30064)">
<stop offset="0.05" stop-color="#1C8900"/>
<stop offset="0.18" stop-color="#125A00" stop-opacity="0.66"/>
<stop offset="0.31" stop-color="#0B3300" stop-opacity="0.38"/>
<stop offset="0.44" stop-color="#051700" stop-opacity="0.17"/>
<stop offset="0.54" stop-color="#010600" stop-opacity="0.04"/>
<stop offset="0.62" stop-opacity="0"/>
</radialGradient>
<radialGradient id="paint18_radial_534_4693" cx="0" cy="0" r="1" gradientUnits="userSpaceOnUse" gradientTransform="translate(178.187 121.647) scale(1.7104 1.70869)">
<stop offset="0.05" stop-color="#1C8900"/>
<stop offset="0.18" stop-color="#125A00" stop-opacity="0.66"/>
<stop offset="0.31" stop-color="#0B3300" stop-opacity="0.38"/>
<stop offset="0.44" stop-color="#051700" stop-opacity="0.17"/>
<stop offset="0.54" stop-color="#010600" stop-opacity="0.04"/>
<stop offset="0.62" stop-opacity="0"/>
</radialGradient>
<radialGradient id="paint19_radial_534_4693" cx="0" cy="0" r="1" gradientUnits="userSpaceOnUse" gradientTransform="translate(150.809 104.904) scale(1.7104 1.70869)">
<stop offset="0.05" stop-color="#1C8900"/>
<stop offset="0.18" stop-color="#125A00" stop-opacity="0.66"/>
<stop offset="0.31" stop-color="#0B3300" stop-opacity="0.38"/>
<stop offset="0.44" stop-color="#051700" stop-opacity="0.17"/>
<stop offset="0.54" stop-color="#010600" stop-opacity="0.04"/>
<stop offset="0.62" stop-opacity="0"/>
</radialGradient>
<radialGradient id="paint20_radial_534_4693" cx="0" cy="0" r="1" gradientUnits="userSpaceOnUse" gradientTransform="translate(168.569 46.1076) scale(1.7104 1.70869)">
<stop offset="0.05" stop-color="#1C8900"/>
<stop offset="0.18" stop-color="#125A00" stop-opacity="0.66"/>
<stop offset="0.31" stop-color="#0B3300" stop-opacity="0.38"/>
<stop offset="0.44" stop-color="#051700" stop-opacity="0.17"/>
<stop offset="0.54" stop-color="#010600" stop-opacity="0.04"/>
<stop offset="0.62" stop-opacity="0"/>
</radialGradient>
<linearGradient id="paint21_linear_534_4693" x1="22.5649" y1="221.298" x2="92.5699" y2="221.298" gradientUnits="userSpaceOnUse">
<stop stop-color="#1A5424"/>
<stop offset="0.51" stop-color="#014E30"/>
<stop offset="1" stop-color="#12713C"/>
</linearGradient>
<linearGradient id="paint22_linear_534_4693" x1="22.5711" y1="210.338" x2="92.5697" y2="210.338" gradientUnits="userSpaceOnUse">
<stop offset="0.01" stop-color="#00541B"/>
<stop offset="1" stop-color="#12842C"/>
</linearGradient>
<linearGradient id="paint23_linear_534_4693" x1="26.4264" y1="213.718" x2="88.7091" y2="213.718" gradientUnits="userSpaceOnUse">
<stop stop-color="#1A5424"/>
<stop offset="0.51" stop-color="#014E30"/>
<stop offset="1" stop-color="#12713C"/>
</linearGradient>
<linearGradient id="paint24_linear_534_4693" x1="26.4329" y1="203.963" x2="88.7092" y2="203.963" gradientUnits="userSpaceOnUse">
<stop offset="0.01" stop-color="#00541B"/>
<stop offset="1" stop-color="#12842C"/>
</linearGradient>
<linearGradient id="paint25_linear_534_4693" x1="29.8602" y1="207.603" x2="85.2758" y2="207.603" gradientUnits="userSpaceOnUse">
<stop stop-color="#1A5424"/>
<stop offset="0.51" stop-color="#014E30"/>
<stop offset="1" stop-color="#12713C"/>
</linearGradient>
<linearGradient id="paint26_linear_534_4693" x1="29.8664" y1="198.926" x2="85.2756" y2="198.926" gradientUnits="userSpaceOnUse">
<stop offset="0.01" stop-color="#00541B"/>
<stop offset="1" stop-color="#12842C"/>
</linearGradient>
<linearGradient id="paint27_linear_534_4693" x1="56.7027" y1="210.97" x2="56.7027" y2="157.835" gradientUnits="userSpaceOnUse">
<stop stop-color="#1C8900"/>
<stop offset="1" stop-opacity="0"/>
</linearGradient>
<linearGradient id="paint28_linear_534_4693" x1="24.6457" y1="101.336" x2="83.0545" y2="101.336" gradientUnits="userSpaceOnUse">
<stop stop-color="#1A5424"/>
<stop offset="0.51" stop-color="#014E30"/>
<stop offset="1" stop-color="#12713C"/>
</linearGradient>
<linearGradient id="paint29_linear_534_4693" x1="24.6522" y1="92.1867" x2="83.0545" y2="92.1867" gradientUnits="userSpaceOnUse">
<stop offset="0.01" stop-color="#00541B"/>
<stop offset="1" stop-color="#12842C"/>
</linearGradient>
<linearGradient id="paint30_linear_534_4693" x1="27.8697" y1="95.0053" x2="79.8326" y2="95.0053" gradientUnits="userSpaceOnUse">
<stop stop-color="#1A5424"/>
<stop offset="0.51" stop-color="#014E30"/>
<stop offset="1" stop-color="#12713C"/>
</linearGradient>
<linearGradient id="paint31_linear_534_4693" x1="27.8695" y1="86.8698" x2="79.8324" y2="86.8698" gradientUnits="userSpaceOnUse">
<stop offset="0.01" stop-color="#00541B"/>
<stop offset="1" stop-color="#12842C"/>
</linearGradient>
<linearGradient id="paint32_linear_534_4693" x1="30.7349" y1="89.9107" x2="76.9666" y2="89.9107" gradientUnits="userSpaceOnUse">
<stop stop-color="#1A5424"/>
<stop offset="0.51" stop-color="#014E30"/>
<stop offset="1" stop-color="#12713C"/>
</linearGradient>
<linearGradient id="paint33_linear_534_4693" x1="30.7353" y1="82.6681" x2="76.967" y2="82.6681" gradientUnits="userSpaceOnUse">
<stop offset="0.01" stop-color="#00541B"/>
<stop offset="1" stop-color="#12842C"/>
</linearGradient>
<linearGradient id="paint34_linear_534_4693" x1="53.8566" y1="92.7159" x2="53.8566" y2="48.3729" gradientUnits="userSpaceOnUse">
<stop stop-color="#1C8900"/>
<stop offset="1" stop-opacity="0"/>
</linearGradient>
<linearGradient id="paint35_linear_534_4693" x1="247.056" y1="100.522" x2="303.99" y2="100.522" gradientUnits="userSpaceOnUse">
<stop stop-color="#1A5424"/>
<stop offset="0.51" stop-color="#014E30"/>
<stop offset="1" stop-color="#12713C"/>
</linearGradient>
<linearGradient id="paint36_linear_534_4693" x1="247.056" y1="91.6085" x2="303.99" y2="91.6085" gradientUnits="userSpaceOnUse">
<stop offset="0.01" stop-color="#00541B"/>
<stop offset="1" stop-color="#12842C"/>
</linearGradient>
<linearGradient id="paint37_linear_534_4693" x1="250.197" y1="94.3563" x2="300.851" y2="94.3563" gradientUnits="userSpaceOnUse">
<stop stop-color="#1A5424"/>
<stop offset="0.51" stop-color="#014E30"/>
<stop offset="1" stop-color="#12713C"/>
</linearGradient>
<linearGradient id="paint38_linear_534_4693" x1="250.196" y1="86.4249" x2="300.851" y2="86.4249" gradientUnits="userSpaceOnUse">
<stop offset="0.01" stop-color="#00541B"/>
<stop offset="1" stop-color="#12842C"/>
</linearGradient>
<linearGradient id="paint39_linear_534_4693" x1="252.984" y1="89.3898" x2="298.054" y2="89.3898" gradientUnits="userSpaceOnUse">
<stop stop-color="#1A5424"/>
<stop offset="0.51" stop-color="#014E30"/>
<stop offset="1" stop-color="#12713C"/>
</linearGradient>
<linearGradient id="paint40_linear_534_4693" x1="252.99" y1="82.3318" x2="298.054" y2="82.3318" gradientUnits="userSpaceOnUse">
<stop offset="0.01" stop-color="#00541B"/>
<stop offset="1" stop-color="#12842C"/>
</linearGradient>
<linearGradient id="paint41_linear_534_4693" x1="275.526" y1="92.1249" x2="275.526" y2="48.8977" gradientUnits="userSpaceOnUse">
<stop stop-color="#1C8900"/>
<stop offset="1" stop-opacity="0"/>
</linearGradient>
<linearGradient id="paint42_linear_534_4693" x1="254.631" y1="216.605" x2="313.04" y2="216.605" gradientUnits="userSpaceOnUse">
<stop stop-color="#1A5424"/>
<stop offset="0.51" stop-color="#014E30"/>
<stop offset="1" stop-color="#12713C"/>
</linearGradient>
<linearGradient id="paint43_linear_534_4693" x1="254.631" y1="207.457" x2="313.04" y2="207.457" gradientUnits="userSpaceOnUse">
<stop offset="0.01" stop-color="#00541B"/>
<stop offset="1" stop-color="#12842C"/>
</linearGradient>
<linearGradient id="paint44_linear_534_4693" x1="257.847" y1="210.275" x2="309.816" y2="210.275" gradientUnits="userSpaceOnUse">
<stop stop-color="#1A5424"/>
<stop offset="0.51" stop-color="#014E30"/>
<stop offset="1" stop-color="#12713C"/>
</linearGradient>
<linearGradient id="paint45_linear_534_4693" x1="257.853" y1="202.14" x2="309.816" y2="202.14" gradientUnits="userSpaceOnUse">
<stop offset="0.01" stop-color="#00541B"/>
<stop offset="1" stop-color="#12842C"/>
</linearGradient>
<linearGradient id="paint46_linear_534_4693" x1="260.714" y1="205.18" x2="306.952" y2="205.18" gradientUnits="userSpaceOnUse">
<stop stop-color="#1A5424"/>
<stop offset="0.51" stop-color="#014E30"/>
<stop offset="1" stop-color="#12713C"/>
</linearGradient>
<linearGradient id="paint47_linear_534_4693" x1="260.72" y1="197.938" x2="306.952" y2="197.938" gradientUnits="userSpaceOnUse">
<stop offset="0.01" stop-color="#00541B"/>
<stop offset="1" stop-color="#12842C"/>
</linearGradient>
<linearGradient id="paint48_linear_534_4693" x1="283.836" y1="207.986" x2="283.836" y2="163.643" gradientUnits="userSpaceOnUse">
<stop stop-color="#1C8900"/>
<stop offset="1" stop-opacity="0"/>
</linearGradient>
</defs>
</svg>
