<svg width="413" height="149" viewBox="0 0 413 149" fill="none" xmlns="http://www.w3.org/2000/svg">
<g clip-path="url(#clip0_425_12)">
<g opacity="0.2">
<path d="M400 100.867H36V103H400V100.867Z" fill="white"/>
<path d="M400 91.8593H36V93.9926H400V91.8593Z" fill="white"/>
<path d="M400 82.9111H36V85.0444H400V82.9111Z" fill="white"/>
<path d="M400 73.9037H36V76.037H400V73.9037Z" fill="white"/>
<path d="M400 64.9556H36V67.0889H400V64.9556Z" fill="white"/>
<path d="M400 55.9481H36V58.0815H400V55.9481Z" fill="white"/>
<path d="M400 47H36V49.1333H400V47Z" fill="white"/>
</g>
<path d="M390.293 127.152C419.232 98.0576 419.232 50.8868 390.293 21.7927C361.355 -7.30135 314.437 -7.30135 285.498 21.7927C256.56 50.8868 256.56 98.0576 285.498 127.152C314.437 156.246 361.355 156.246 390.293 127.152Z" fill="#0E5215"/>
<path d="M337.66 2.45748C351.809 2.45748 365.64 6.67566 377.404 14.5786C389.169 22.4816 398.338 33.7144 403.753 46.8566C409.167 59.9987 410.584 74.46 407.823 88.4117C405.063 102.363 398.25 115.179 388.245 125.237C378.24 135.296 365.494 142.146 351.617 144.921C337.74 147.696 323.356 146.272 310.284 140.828C297.212 135.385 286.039 126.166 278.179 114.338C270.318 102.511 266.122 88.6052 266.122 74.3802C266.122 55.3051 273.659 37.0113 287.075 23.5232C300.491 10.035 318.687 2.45748 337.66 2.45748ZM337.66 0.000115092C323.015 0.0474988 308.711 4.45709 296.557 12.672C284.402 20.8869 274.942 32.5387 269.37 46.1559C263.798 59.7731 262.364 74.745 265.25 89.1807C268.136 103.616 275.213 116.869 285.585 127.264C295.958 137.659 309.162 144.73 323.53 147.586C337.897 150.441 352.784 148.952 366.311 143.306C379.837 137.66 391.396 128.111 399.528 115.865C407.66 103.619 412 89.2246 412 74.5001C412.008 64.6942 410.089 54.9833 406.353 45.9253C402.617 36.8673 397.137 28.6407 390.229 21.718C383.322 14.7953 375.122 9.313 366.1 5.58596C357.079 1.85893 347.414 -0.0393645 337.66 0.000115092Z" fill="#2D8A01"/>
<path d="M384.855 121.684C410.791 95.6099 410.791 53.3345 384.855 27.2598C358.92 1.1852 316.871 1.1852 290.936 27.2598C265.001 53.3345 265.001 95.6098 290.936 121.684C316.871 147.759 358.92 147.759 384.855 121.684Z" stroke="#4DCA2E" stroke-width="0.45" stroke-miterlimit="10"/>
<path d="M337.899 131.199C369.045 131.199 394.294 105.814 394.294 74.5001C394.294 43.1861 369.045 17.801 337.899 17.801C306.752 17.801 281.503 43.1861 281.503 74.5001C281.503 105.814 306.752 131.199 337.899 131.199Z" stroke="#4DCA2E" stroke-width="0.2" stroke-miterlimit="10"/>
<path d="M398.408 81.992C398.697 79.5054 398.836 77.0035 398.825 74.5H406.754C406.773 77.3243 406.614 80.147 406.277 82.9509L398.408 81.992Z" fill="#0F7B29"/>
<path d="M397.871 85.3483L398.05 84.3293L405.919 85.588L405.681 86.7867L397.871 85.3483Z" fill="#0F7B29"/>
<path d="M396.917 89.9034L397.454 87.446L405.264 89.1242L404.608 91.8813L396.917 89.9034Z" fill="#0F7B29"/>
<path d="M388.571 108.603L389.883 106.506L396.679 110.701L395.129 113.039L388.571 108.603Z" fill="#0F7B29"/>
<path d="M386.068 112.08L386.783 111.121L387.498 110.102L393.996 114.717L393.162 115.856L392.327 116.994L386.068 112.08Z" fill="#0F7B29"/>
<path d="M396.083 92.8402C396.065 92.5808 396.065 92.3204 396.083 92.061L403.654 94.3386C403.627 94.6377 403.627 94.9386 403.654 95.2376L396.083 92.8402Z" fill="#0F7B29"/>
<path d="M374.8 123.288L375.635 122.628L380.523 128.922L379.569 129.641L374.8 123.288Z" fill="#0F7B29"/>
<path d="M370.985 125.985L372.058 125.326L373.071 124.546L377.662 131.079L376.47 131.918L375.277 132.638L370.985 125.985Z" fill="#0F7B29"/>
<path d="M368.362 127.603L369.077 127.183L373.131 134.016L372.356 134.496L368.362 127.603Z" fill="#0F7B29"/>
<path d="M390.956 104.648C392.702 101.566 394.178 98.337 395.367 94.998L402.819 97.6952C401.464 101.459 399.81 105.107 397.871 108.603L390.956 104.648Z" fill="#0F7B29"/>
<path d="M377.185 121.37C379.888 119.081 382.382 116.554 384.637 113.818L390.598 118.972C388.04 122.024 385.228 124.851 382.193 127.423L377.185 121.37Z" fill="#0F7B29"/>
<path d="M361.506 130.959C363.79 129.961 366.019 128.841 368.183 127.603L372.177 134.496C369.727 135.897 367.199 137.158 364.606 138.272L361.506 130.959Z" fill="#0F7B29"/>
<path d="M358.525 132.158C358.872 132.065 359.211 131.945 359.539 131.799L362.341 139.231L361.208 139.65L358.525 132.158Z" fill="#0F7B29"/>
<path d="M354.114 133.597L356.499 132.877L358.943 140.429C358.049 140.789 357.154 140.969 356.26 141.268L354.114 133.597Z" fill="#0F7B29"/>
<path d="M333.845 135.634C334.658 135.695 335.475 135.695 336.289 135.634V143.606H333.487L333.845 135.634Z" fill="#0F7B29"/>
<path d="M329.553 135.215H332.056L331.281 143.126H328.48L329.553 135.215Z" fill="#0F7B29"/>
<path d="M351.133 134.316L351.968 134.136L353.756 141.928L352.862 142.107L351.133 134.316Z" fill="#0F7B29"/>
<path d="M314.291 131.019L315.305 131.439L312.324 138.811L311.251 138.391L314.291 131.019Z" fill="#0F7B29"/>
<path d="M310.118 129.042L312.324 130.18L309.045 137.373L306.482 136.174L310.118 129.042Z" fill="#0F7B29"/>
<path d="M307.376 127.603L308.151 128.023L304.276 134.975L303.441 134.496L307.376 127.603Z" fill="#0F7B29"/>
<path d="M338.435 135.754C341.953 135.735 345.464 135.414 348.927 134.795L350.358 142.587C346.427 143.331 342.436 143.713 338.435 143.726V135.754Z" fill="#0F7B29"/>
<path d="M317.153 132.158C320.467 133.35 323.878 134.253 327.347 134.855L325.737 142.707C321.818 142.041 317.967 141.018 314.232 139.65L317.153 132.158Z" fill="#0F7B29"/>
<path d="M301.176 123.468C303.203 124.906 305.23 126.344 307.137 127.603L303.203 134.496C300.778 133.063 298.429 131.503 296.168 129.821L301.176 123.468Z" fill="#0F7B29"/>
<path d="M298.553 121.31L299.328 122.029L294.32 128.023L293.426 127.243L298.553 121.31Z" fill="#0F7B29"/>
<path d="M295.155 118.193L296.943 119.931L291.578 125.805L289.551 123.887L295.155 118.193Z" fill="#0F7B29"/>
<path d="M283.172 101.531L284.305 103.809L277.33 107.585L276.078 105.067L283.172 101.531Z" fill="#0F7B29"/>
<path d="M281.384 97.6353C281.384 98.4144 282.099 99.1337 282.397 99.9128L275.184 103.209C274.826 102.37 274.409 101.531 274.051 100.632L281.384 97.6353Z" fill="#0F7B29"/>
<path d="M292.949 115.976L293.545 116.575L287.763 122.029L287.166 121.37L292.949 115.976Z" fill="#0F7B29"/>
<path d="M277.39 82.2317L277.568 83.3105L269.699 84.4493L269.52 83.2506L277.39 82.2317Z" fill="#0F7B29"/>
<path d="M276.972 77.6167L277.151 80.134L269.282 80.7933L269.044 78.0363L276.972 77.6167Z" fill="#0F7B29"/>
<path d="M276.913 74.5V75.3391L268.984 75.459V74.5H276.913Z" fill="#0F7B29"/>
<path d="M285.378 105.607C287.101 108.659 289.097 111.548 291.339 114.237L285.378 119.452C282.814 116.389 280.501 113.121 278.463 109.682L285.378 105.607Z" fill="#0F7B29"/>
<path d="M278.045 85.2883C278.665 88.7775 279.582 92.2066 280.788 95.5373L273.336 98.2344C271.969 94.4769 270.931 90.6063 270.236 86.6668L278.045 85.2883Z" fill="#0F7B29"/>
<path d="M277.39 67.008C277.08 69.4934 276.921 71.9953 276.913 74.5H268.984C269.014 71.6755 269.193 68.8545 269.52 66.0491L277.39 67.008Z" fill="#0F7B29"/>
<path d="M277.867 63.6517L277.688 64.7306L269.878 63.4719L270.057 62.2732L277.867 63.6517Z" fill="#0F7B29"/>
<path d="M278.88 59.0965L278.284 61.5539L270.534 59.8757L271.19 57.1187L278.88 59.0965Z" fill="#0F7B29"/>
<path d="M287.226 40.3967L285.855 42.4944L279.118 38.3589L280.609 35.9614L287.226 40.3967Z" fill="#0F7B29"/>
<path d="M289.73 36.9203L288.955 37.9392L288.24 38.9581L281.801 34.2832L282.636 33.1444L283.47 32.0056L289.73 36.9203Z" fill="#0F7B29"/>
<path d="M279.715 56.0997C279.688 56.3788 279.688 56.6597 279.715 56.9388L272.084 54.6612C272.084 54.3616 272.084 54.0019 272.084 53.7622L279.715 56.0997Z" fill="#0F7B29"/>
<path d="M300.997 25.7123L300.162 26.3716L295.214 20.1383L296.168 19.3591L300.997 25.7123Z" fill="#0F7B29"/>
<path d="M304.753 23.0751L303.739 23.7344L302.726 24.4536L298.136 17.9206L299.268 17.1415L300.461 16.3623L304.753 23.0751Z" fill="#0F7B29"/>
<path d="M307.376 21.4569L306.72 21.8165L302.607 14.9839L303.441 14.5044L307.376 21.4569Z" fill="#0F7B29"/>
<path d="M284.782 44.3522C283.055 47.4357 281.599 50.6644 280.43 54.0019L272.918 51.3048C274.321 47.5307 276.036 43.8818 278.045 40.3965L284.782 44.3522Z" fill="#0F7B29"/>
<path d="M298.612 27.6304C295.896 29.8823 293.4 32.3911 291.161 35.1224L285.199 30.0278C287.726 26.9477 290.541 24.1178 293.605 21.5769L298.612 27.6304Z" fill="#0F7B29"/>
<path d="M313.814 18.0407C311.531 19.0388 309.302 20.1592 307.137 21.3971L303.203 14.5045C305.627 13.0912 308.135 11.8301 310.714 10.7285L313.814 18.0407Z" fill="#0F7B29"/>
<path d="M317.212 16.782L316.199 17.2015L313.397 9.70959L314.53 9.29004L317.212 16.782Z" fill="#0F7B29"/>
<path d="M321.624 15.4035C320.849 15.4035 320.014 15.823 319.239 16.1227L316.795 8.51086L319.537 7.73169L321.624 15.4035Z" fill="#0F7B29"/>
<path d="M341.953 13.3657C341.119 13.3069 340.282 13.3069 339.449 13.3657V5.39424C340.402 5.33441 341.357 5.33441 342.31 5.39424L341.953 13.3657Z" fill="#0F7B29"/>
<path d="M346.185 13.785H343.741L344.456 5.87354H347.258L346.185 13.785Z" fill="#0F7B29"/>
<path d="M324.605 14.6842L323.83 14.864L321.982 7.13232L322.876 6.89258L324.605 14.6842Z" fill="#0F7B29"/>
<path d="M361.447 17.9806L360.493 17.561L363.414 10.189L364.547 10.6085L361.447 17.9806Z" fill="#0F7B29"/>
<path d="M365.679 19.9586L363.414 18.8198L366.752 11.5676L369.256 12.8263L365.679 19.9586Z" fill="#0F7B29"/>
<path d="M368.362 21.4568L367.647 20.9773L371.521 14.0847L372.356 14.5043L368.362 21.4568Z" fill="#0F7B29"/>
<path d="M337.303 13.1858C333.783 13.2251 330.273 13.5659 326.81 14.2047L325.38 6.35314C329.32 5.67119 333.305 5.2905 337.303 5.21436V13.1858Z" fill="#0F7B29"/>
<path d="M358.585 16.8419C355.273 15.642 351.862 14.7394 348.391 14.1448L349.583 6.29321C353.506 6.94421 357.358 7.9677 361.089 9.34993L358.585 16.8419Z" fill="#0F7B29"/>
<path d="M374.562 25.5326C372.595 24.0941 370.508 22.6556 368.6 21.397L372.595 14.5044C375.033 15.9156 377.382 17.4769 379.629 19.1794L374.562 25.5326Z" fill="#0F7B29"/>
<path d="M377.245 27.6903L376.41 26.9711L381.418 20.9775L382.312 21.7567L377.245 27.6903Z" fill="#0F7B29"/>
<path d="M380.643 30.8069L378.854 29.1287L384.16 23.1951L386.187 25.1729L380.643 30.8069Z" fill="#0F7B29"/>
<path d="M392.625 47.469L391.492 45.2514L398.408 41.4155L399.719 43.9328L392.625 47.469Z" fill="#0F7B29"/>
<path d="M394.354 51.3649C394.056 50.5857 393.698 49.8066 393.341 49.0874L400.554 45.731C400.981 46.5875 401.36 47.468 401.687 48.3681L394.354 51.3649Z" fill="#0F7B29"/>
<path d="M382.789 33.0244L382.193 32.4251L387.975 26.9709L388.631 27.6302L382.789 33.0244Z" fill="#0F7B29"/>
<path d="M398.348 66.7683L398.229 65.6894L406.098 64.6106L406.217 65.7494L398.348 66.7683Z" fill="#0F7B29"/>
<path d="M398.765 71.3834L398.587 68.926L406.515 68.2068L406.694 71.0238L398.765 71.3834Z" fill="#0F7B29"/>
<path d="M398.825 74.5V73.6609L406.754 73.541V74.5H398.825Z" fill="#0F7B29"/>
<path d="M390.419 43.3335C388.661 40.3224 386.668 37.4564 384.458 34.7627L390.419 29.5483C392.976 32.6032 395.27 35.8715 397.275 39.3178L390.419 43.3335Z" fill="#0F7B29"/>
<path d="M397.871 63.7116C397.272 60.224 396.375 56.795 395.189 53.4626L402.64 50.7056C403.981 54.4875 404.998 58.3774 405.681 62.3331L397.871 63.7116Z" fill="#0F7B29"/>
<path d="M337.899 96.1967L305.17 79.0551L337.899 22.4758L370.627 79.0551L337.899 96.1967Z" stroke="#4DCA2E" stroke-width="2" stroke-linejoin="round"/>
<path d="M337.899 101.591L305.17 84.4492L337.899 127.063L370.627 84.4492L337.899 101.591Z" stroke="#4DCA2E" stroke-width="2" stroke-linejoin="round"/>
<path d="M337.899 22.356V96.2566" stroke="#4DCA2E" stroke-width="2" stroke-miterlimit="10"/>
<path d="M305.17 79.0552L337.899 61.9136L370.627 79.0552" stroke="#4DCA2E" stroke-width="2" stroke-miterlimit="10"/>
<path d="M337.899 101.591V127.063" stroke="#4DCA2E" stroke-width="2" stroke-miterlimit="10"/>
<path style="mix-blend-mode:screen" d="M337.66 2.45748C354.207 2.47056 370.237 8.24981 383.021 18.811C395.805 29.3722 404.552 44.0623 407.773 60.3794C410.994 76.6965 408.49 93.6317 400.686 108.301C392.882 122.97 380.262 134.466 364.975 140.83C349.688 147.195 332.678 148.035 316.844 143.208C301.01 138.38 287.33 128.184 278.133 114.355C268.937 100.525 264.793 83.9185 266.407 67.3625C268.022 50.8065 275.295 35.3251 286.988 23.5548C293.622 16.8385 301.519 11.5149 310.218 7.89307C318.917 4.2713 328.245 2.42365 337.66 2.45748ZM337.66 0.000115092C323.015 0.0474988 308.711 4.45709 296.557 12.672C284.402 20.8869 274.942 32.5387 269.37 46.1559C263.798 59.7731 262.364 74.745 265.25 89.1807C268.136 103.616 275.213 116.869 285.585 127.264C295.958 137.659 309.162 144.73 323.53 147.586C337.897 150.441 352.784 148.952 366.311 143.306C379.837 137.66 391.396 128.111 399.528 115.865C407.66 103.619 412 89.2246 412 74.5001C412.008 64.6942 410.089 54.9833 406.353 45.9253C402.617 36.8673 397.137 28.6407 390.229 21.718C383.322 14.7953 375.122 9.313 366.1 5.58596C357.079 1.85893 347.414 -0.0393645 337.66 0.000115092Z" fill="url(#paint0_linear_425_12)"/>
<path d="M72.6705 147.921C112.805 147.921 145.341 115.21 145.341 74.8596C145.341 34.5089 112.805 1.7981 72.6705 1.7981C32.5357 1.7981 0 34.5089 0 74.8596C0 115.21 32.5357 147.921 72.6705 147.921Z" fill="#0E5215"/>
<path d="M72.6705 5.63396C86.2913 5.62211 99.6096 9.67203 110.941 17.2714C122.272 24.8708 131.106 35.6783 136.327 48.3265C141.548 60.9748 142.92 74.8957 140.27 88.3281C137.619 101.761 131.066 114.101 121.439 123.788C111.812 133.476 99.5433 140.075 86.1851 142.751C72.8268 145.427 58.9793 144.059 46.3942 138.821C33.8091 133.584 23.0518 124.711 15.4833 113.326C7.91475 101.94 3.87496 88.5537 3.87495 74.8596C3.89071 56.5151 11.1419 38.9255 24.0385 25.9484C36.935 12.9712 54.4242 5.66569 72.6705 5.63396ZM72.6705 1.79807C58.2901 1.76249 44.2224 6.01721 32.2483 14.0237C20.2742 22.0301 10.932 33.4283 5.40432 46.7754C-0.123376 60.1224 -1.58803 74.8183 1.19575 89.0027C3.97952 103.187 10.8866 116.222 21.0426 126.458C31.1986 136.694 44.1469 143.67 58.2484 146.504C72.35 149.338 86.9708 147.901 100.26 142.377C113.549 136.852 124.909 127.488 132.902 115.469C140.896 103.45 145.162 89.3175 145.162 74.8596C145.162 65.26 143.281 55.7545 139.625 46.8863C135.969 38.0182 130.611 29.9613 123.856 23.1761C117.102 16.3909 109.084 11.0105 100.26 7.34234C91.4365 3.67418 81.9803 1.7902 72.4321 1.79807H72.6705Z" fill="#2C8B00"/>
<path d="M72.6705 137.672C107.175 137.672 135.147 109.55 135.147 74.8599C135.147 40.1695 107.175 12.0474 72.6705 12.0474C38.1658 12.0474 10.1942 40.1695 10.1942 74.8599C10.1942 109.55 38.1658 137.672 72.6705 137.672Z" stroke="#4DCA2E" stroke-width="0.65" stroke-miterlimit="10"/>
<path d="M134.789 78.6955C134.789 77.4368 134.789 76.1183 134.789 74.8596H139.201C139.201 76.2381 139.201 77.5567 139.201 78.9352L134.789 78.6955Z" fill="#0F7B29"/>
<path d="M134.67 80.4337L134.73 79.8943L138.783 80.194L138.724 80.7933L134.67 80.4337Z" fill="#0F7B29"/>
<path d="M134.432 82.7711L134.551 81.5125L138.664 81.932L138.485 83.3105L134.432 82.7711Z" fill="#0F7B29"/>
<path d="M132.226 93.0799L132.583 91.8213L136.518 92.9601L136.16 94.2786L132.226 93.0799Z" fill="#0F7B29"/>
<path d="M131.57 95.1778L131.987 93.9192L135.862 95.1778L135.445 96.4964L131.57 95.1778Z" fill="#0F7B29"/>
<path d="M134.253 84.3293V83.9697L138.307 84.5091L138.247 84.9886L134.253 84.3293Z" fill="#0F7B29"/>
<path d="M128.47 102.67L128.709 102.19L132.405 103.988L132.107 104.528L128.47 102.67Z" fill="#0F7B29"/>
<path d="M127.397 104.767L127.934 103.629L131.57 105.547L130.974 106.745L127.397 104.767Z" fill="#0F7B29"/>
<path d="M126.562 106.146L126.801 105.786L130.378 107.824L130.139 108.184L126.562 106.146Z" fill="#0F7B29"/>
<path d="M132.882 90.8025C133.299 89.0045 133.716 87.2663 134.014 85.4683L138.068 86.1875C137.77 88.1054 137.293 89.9634 136.876 91.8214L132.882 90.8025Z" fill="#0F7B29"/>
<path d="M129.126 101.231C129.484 100.392 129.901 99.613 130.199 98.7739L131.212 96.2566L135.028 97.6351L134.014 100.332C133.657 101.231 133.239 102.07 132.822 102.969L129.126 101.231Z" fill="#0F7B29"/>
<path d="M124.595 109.383C125.251 108.304 125.966 107.285 126.562 106.146L130.139 108.184C129.484 109.383 128.709 110.521 127.993 111.66L124.595 109.383Z" fill="#0F7B29"/>
<path d="M123.582 110.821L123.939 110.401L127.278 112.739L126.98 113.218L123.582 110.821Z" fill="#0F7B29"/>
<path d="M122.21 112.739C122.501 112.426 122.761 112.084 122.985 111.72L126.264 114.117C126.264 114.537 125.728 114.897 125.489 115.256L122.21 112.739Z" fill="#0F7B29"/>
<path d="M115.176 120.531L116.13 119.691L118.991 122.628L117.978 123.527L115.176 120.531Z" fill="#0F7B29"/>
<path d="M113.566 122.029L114.52 121.19L117.322 124.247L116.249 125.146L113.566 122.029Z" fill="#0F7B29"/>
<path d="M121.257 113.998L121.495 113.638L124.714 116.215L124.416 116.575L121.257 113.998Z" fill="#0F7B29"/>
<path d="M107.128 126.944H107.605L109.93 130.36L109.393 130.3L107.128 126.944Z" fill="#0F7B29"/>
<path d="M105.161 128.262L106.234 127.543L108.439 131.019L107.307 131.738L105.161 128.262Z" fill="#0F7B29"/>
<path d="M103.789 129.041L104.207 128.862L106.234 132.398L105.876 132.638L103.789 129.041Z" fill="#0F7B29"/>
<path d="M116.905 118.912L118.753 116.934L120.541 114.896L123.701 117.534L121.793 119.691L119.826 121.789L116.905 118.912Z" fill="#0F7B29"/>
<path d="M108.439 126.045C109.93 125.026 111.301 123.947 112.732 122.748L115.355 125.925C113.864 127.123 112.374 128.322 110.824 129.401L108.439 126.045Z" fill="#0F7B29"/>
<path d="M100.451 130.84L102.12 130L103.79 129.042L105.876 132.578L104.088 133.597L102.299 134.556L100.451 130.84Z" fill="#0F7B29"/>
<path d="M98.9011 131.619L99.378 131.379L101.166 135.095L100.63 135.335L98.9011 131.619Z" fill="#0F7B29"/>
<path d="M96.7549 132.578L97.8876 132.038L99.5569 135.814C99.1507 136.019 98.7327 136.199 98.3049 136.354L96.7549 132.578Z" fill="#0F7B29"/>
<path d="M86.7993 135.814L88.0512 135.515L89.0646 139.53L87.6935 139.83L86.7993 135.814Z" fill="#0F7B29"/>
<path d="M84.6531 136.294H85.905L86.7993 140.309L85.4281 140.609L84.6531 136.294Z" fill="#0F7B29"/>
<path d="M95.2646 133.177L95.6819 132.997L97.1723 136.833L96.755 137.013L95.2646 133.177Z" fill="#0F7B29"/>
<path d="M76.6051 137.313L77.2013 137.253L77.4397 141.388H76.9032L76.6051 137.313Z" fill="#0F7B29"/>
<path d="M74.2802 137.432L75.5321 137.373L75.7109 141.508H74.3994L74.2802 137.432Z" fill="#0F7B29"/>
<path d="M72.6705 137.432H73.1475V141.568H72.6705V137.432Z" fill="#0F7B29"/>
<path d="M89.0646 135.215L91.6877 134.436L94.1915 133.597L95.6223 137.433L92.88 138.392L90.1377 139.171L89.0646 135.215Z" fill="#0F7B29"/>
<path d="M78.2147 137.193H80.8974H82.2089H83.5204L84.2358 141.209H82.8051H81.3743H78.5724L78.2147 137.193Z" fill="#0F7B29"/>
<path d="M68.8552 137.312H72.6705V141.448H68.6167L68.8552 137.312Z" fill="#0F7B29"/>
<path d="M67.186 137.193L67.7225 137.253L67.3648 141.328L66.8283 141.268L67.186 137.193Z" fill="#0F7B29"/>
<path d="M64.8014 136.953L66.1129 137.073L65.636 141.209L64.3245 141.029L64.8014 136.953Z" fill="#0F7B29"/>
<path d="M54.6072 134.735L55.7995 135.095L54.7264 139.051L53.4149 138.691L54.6072 134.735Z" fill="#0F7B29"/>
<path d="M52.5207 134.076L53.713 134.496L52.4611 138.392L51.2092 137.972L52.5207 134.076Z" fill="#0F7B29"/>
<path d="M63.2514 136.713L63.6687 136.773L63.0725 140.849L62.6552 140.789L63.2514 136.713Z" fill="#0F7B29"/>
<path d="M45.0689 130.899L45.5458 131.199L43.7573 134.855L43.2208 134.615L45.0689 130.899Z" fill="#0F7B29"/>
<path d="M42.9227 129.821L44.0554 130.42L42.2073 134.076L41.015 133.477L42.9227 129.821Z" fill="#0F7B29"/>
<path d="M41.6112 129.042L41.9689 129.281L39.942 132.817L39.5247 132.638L41.6112 129.042Z" fill="#0F7B29"/>
<path d="M56.8726 135.395C58.6014 135.814 60.3303 136.234 62.1187 136.534L61.4033 140.549C59.5553 140.25 57.6476 139.83 55.7995 139.351L56.8726 135.395Z" fill="#0F7B29"/>
<path d="M46.44 131.619C47.2746 131.978 48.1092 132.398 48.9438 132.697L51.4476 133.656L50.0169 137.552L47.3342 136.294C46.44 135.994 45.6054 135.514 44.7112 135.155L46.44 131.619Z" fill="#0F7B29"/>
<path d="M38.3324 127.004C39.4055 127.723 40.4785 128.442 41.5516 129.041L39.5247 132.578C38.3324 131.978 37.1997 131.199 36.067 130.48L38.3324 127.004Z" fill="#0F7B29"/>
<path d="M36.9016 126.045L37.3785 126.404L35.0535 129.761L34.5766 129.401L36.9016 126.045Z" fill="#0F7B29"/>
<path d="M34.9939 124.666L36.0074 125.385L33.6228 128.742L32.5497 127.903L34.9939 124.666Z" fill="#0F7B29"/>
<path d="M27.244 117.594L28.1382 118.553L25.2171 121.43L24.2633 120.411L27.244 117.594Z" fill="#0F7B29"/>
<path d="M25.8133 115.975L26.6479 116.934L23.6075 119.691L22.7133 118.672L25.8133 115.975Z" fill="#0F7B29"/>
<path d="M33.8016 123.707L34.0997 123.947L31.5959 127.183L31.2382 126.884L33.8016 123.707Z" fill="#0F7B29"/>
<path d="M20.8652 109.502V109.982L17.4672 112.259C17.3546 112.108 17.2549 111.948 17.1691 111.78L20.8652 109.502Z" fill="#0F7B29"/>
<path d="M19.6133 107.524L20.2691 108.603L16.8114 110.821L16.096 109.682L19.6133 107.524Z" fill="#0F7B29"/>
<path d="M18.7787 106.146L19.0172 106.506L15.4999 108.603L15.2614 108.184L18.7787 106.146Z" fill="#0F7B29"/>
<path d="M28.9132 119.332L30.8209 121.19L32.9074 122.988L30.2844 126.105L28.0786 124.247L25.9921 122.209L28.9132 119.332Z" fill="#0F7B29"/>
<path d="M21.7594 110.821C22.7729 112.26 23.9056 113.698 25.0382 115.076L21.8787 117.774C20.6864 116.275 19.4941 114.777 18.421 113.159L21.7594 110.821Z" fill="#0F7B29"/>
<path d="M16.9902 102.79L17.8845 104.468L18.7787 106.146L15.2614 108.184C14.9037 107.584 14.546 107.045 14.248 106.446L13.3537 104.588L16.9902 102.79Z" fill="#0F7B29"/>
<path d="M16.2748 101.231L16.4537 101.711L12.7576 103.509L12.5191 102.969L16.2748 101.231Z" fill="#0F7B29"/>
<path d="M15.2614 99.0137L15.7979 100.212L12.0422 101.891L11.5057 100.632L15.2614 99.0137Z" fill="#0F7B29"/>
<path d="M12.1018 89.0645L12.3999 90.2632L8.40568 91.2821L8.1076 89.9635L12.1018 89.0645Z" fill="#0F7B29"/>
<path d="M11.6249 86.9067C11.5966 87.3258 11.5966 87.7463 11.6249 88.1654L7.63069 89.0045C7.63069 88.5849 7.63069 88.1055 7.33261 87.6859L11.6249 86.9067Z" fill="#0F7B29"/>
<path d="M14.7249 97.5752L14.8441 97.9947L11.0287 99.4931L10.9095 99.0736L14.7249 97.5752Z" fill="#0F7B29"/>
<path d="M10.6114 78.8154V79.3549L6.55763 79.6545L6.49802 79.1151L10.6114 78.8154Z" fill="#0F7B29"/>
<path d="M10.4922 76.4778L10.5518 77.7364L6.4384 77.9162L6.37878 76.5377L10.4922 76.4778Z" fill="#0F7B29"/>
<path d="M10.4326 74.8596L10.4922 75.2792L6.37878 75.3391V74.8596H10.4326Z" fill="#0F7B29"/>
<path d="M12.6384 91.342C12.6384 92.1811 13.1153 93.0802 13.4133 93.9193L14.248 96.4965L10.4326 97.935L9.53838 95.1779C9.18069 94.2789 9.00184 93.3199 8.70377 92.4209L12.6384 91.342Z" fill="#0F7B29"/>
<path d="M10.7307 80.3738C10.771 81.2784 10.8706 82.1794 11.0287 83.0709V84.4494V85.768L7.03454 86.4872V85.0488V83.6103C7.03454 82.6513 6.73646 81.6924 6.67685 80.7334L10.7307 80.3738Z" fill="#0F7B29"/>
<path d="M10.6114 71.0237C10.6114 72.2823 10.6114 73.6009 10.6114 74.8596H6.55762C6.55762 73.481 6.55762 72.1625 6.55762 70.7839L10.6114 71.0237Z" fill="#0F7B29"/>
<path d="M10.7306 69.2856L10.671 69.8251L6.61722 69.5254V68.926L10.7306 69.2856Z" fill="#0F7B29"/>
<path d="M10.9691 66.9482L10.7903 68.2069L6.73645 67.7873L6.91529 66.4688L10.9691 66.9482Z" fill="#0F7B29"/>
<path d="M13.1749 56.6992L12.8172 57.8979L8.8826 56.7591L9.24029 55.5005L13.1749 56.6992Z" fill="#0F7B29"/>
<path d="M13.8306 54.6013L13.4133 55.8L9.53836 54.5414L9.95566 53.2827L13.8306 54.6013Z" fill="#0F7B29"/>
<path d="M11.148 65.3899L11.0883 65.8094L7.09415 65.2101L7.15376 64.7905L11.148 65.3899Z" fill="#0F7B29"/>
<path d="M16.9306 47.0495L16.6922 47.529L12.996 45.7309L13.2941 45.2515L16.9306 47.0495Z" fill="#0F7B29"/>
<path d="M18.0037 44.9518L17.4075 46.0905L13.771 44.2325L14.4268 42.9739L18.0037 44.9518Z" fill="#0F7B29"/>
<path d="M18.7787 43.5732L18.5998 43.9328L15.0229 41.955L15.2614 41.5354L18.7787 43.5732Z" fill="#0F7B29"/>
<path d="M12.5191 58.9169C12.0278 60.6686 11.6495 62.4504 11.3864 64.2511L7.33261 63.5319C7.33261 61.614 8.04799 59.756 8.52491 57.8979L12.5191 58.9169Z" fill="#0F7B29"/>
<path d="M16.2748 48.488C15.9172 49.3271 15.4998 50.1063 15.1422 50.9454L14.1883 53.4627L10.3134 52.3838L11.3864 49.6867C11.7441 48.7877 12.1614 47.9486 12.5191 47.0496L16.2748 48.488Z" fill="#0F7B29"/>
<path d="M20.8056 40.3967C20.0902 41.4755 19.4345 42.4944 18.7787 43.6332L15.2614 41.5954C15.9172 40.3967 16.6326 39.2579 17.4075 38.1191L20.8056 40.3967Z" fill="#0F7B29"/>
<path d="M21.7594 38.8983L21.4614 39.3778L18.1229 36.9803L18.421 36.5608L21.7594 38.8983Z" fill="#0F7B29"/>
<path d="M23.1902 36.9803C22.8993 37.2936 22.6397 37.6348 22.4152 37.9992L19.0768 35.6018L19.971 34.4031L23.1902 36.9803Z" fill="#0F7B29"/>
<path d="M30.1651 29.1887L29.2709 30.0877L26.4094 27.1509L27.3632 26.1919L30.1651 29.1887Z" fill="#0F7B29"/>
<path d="M31.8344 27.7502L30.8209 28.5294L28.0786 25.5326L29.0921 24.6335L31.8344 27.7502Z" fill="#0F7B29"/>
<path d="M24.144 35.7218L23.9056 36.0814L20.6864 33.5041L20.9844 33.1445L24.144 35.7218Z" fill="#0F7B29"/>
<path d="M38.2131 22.7755L37.7958 23.0751L35.4709 19.6588L35.9478 19.3591L38.2131 22.7755Z" fill="#0F7B29"/>
<path d="M40.2401 21.457L39.167 22.1762L36.9612 18.6999L38.0939 17.9807L40.2401 21.457Z" fill="#0F7B29"/>
<path d="M41.6112 20.6778L41.1939 20.9175L39.167 17.3813L39.5247 17.1416L41.6112 20.6778Z" fill="#0F7B29"/>
<path d="M28.4959 30.8068L26.6479 32.7847L24.8594 34.8225L21.6998 32.1854L23.6075 30.0277L25.5748 27.9299L28.4959 30.8068Z" fill="#0F7B29"/>
<path d="M36.9612 23.6745C35.4666 24.6866 34.0333 25.7874 32.669 26.971L30.0459 23.7944C31.5363 22.5957 33.0266 21.397 34.5766 20.3181L36.9612 23.6745Z" fill="#0F7B29"/>
<path d="M44.9496 18.8798L43.2208 19.7189L41.5516 20.6779L39.5247 17.1417L41.3131 16.1228L43.1015 15.1638L44.9496 18.8798Z" fill="#0F7B29"/>
<path d="M46.4996 18.1005L46.0227 18.3403L44.2342 14.6243L44.7708 14.3845L46.4996 18.1005Z" fill="#0F7B29"/>
<path d="M48.6457 17.1417L47.4534 17.6811L45.8438 13.9051C46.2297 13.7006 46.6279 13.5204 47.0361 13.3657L48.6457 17.1417Z" fill="#0F7B29"/>
<path d="M58.6014 13.9649L57.3495 14.2046L56.3361 10.2489L57.7072 9.94922L58.6014 13.9649Z" fill="#0F7B29"/>
<path d="M60.7475 13.4855H59.4956L58.6014 9.46984L59.9129 9.17017L60.7475 13.4855Z" fill="#0F7B29"/>
<path d="M50.1361 16.5423L49.7188 16.7221L48.2284 12.8862L48.6457 12.7664L50.1361 16.5423Z" fill="#0F7B29"/>
<path d="M68.7956 12.4666H68.1994L67.9013 8.39099L68.4975 8.33105L68.7956 12.4666Z" fill="#0F7B29"/>
<path d="M71.1206 12.3467H69.8686L69.6898 8.27112L71.0013 8.21118L71.1206 12.3467Z" fill="#0F7B29"/>
<path d="M72.6705 12.2868H72.2532V8.21118H72.6705V12.2868Z" fill="#0F7B29"/>
<path d="M56.2764 14.5043L53.713 15.2835L51.1496 16.1226L49.7784 12.2867L52.4611 11.3277L55.2034 10.5486L56.2764 14.5043Z" fill="#0F7B29"/>
<path d="M67.186 12.5266H64.5033H63.1918H61.8802L61.1649 8.45093H62.536H63.9668H66.8283L67.186 12.5266Z" fill="#0F7B29"/>
<path d="M76.4859 12.4066H72.6705V8.271C74.0417 8.271 75.4128 8.271 76.7243 8.271L76.4859 12.4066Z" fill="#0F7B29"/>
<path d="M78.2147 12.5864L77.6782 12.5264L78.0359 8.39087L78.5724 8.4508L78.2147 12.5864Z" fill="#0F7B29"/>
<path d="M80.5993 12.826L79.2878 12.6462L79.7647 8.57056L81.0762 8.75036L80.5993 12.826Z" fill="#0F7B29"/>
<path d="M90.7935 14.9838L89.6012 14.6242L90.6742 10.6685L91.9858 11.0281L90.7935 14.9838Z" fill="#0F7B29"/>
<path d="M92.88 15.7029L91.6877 15.2834L92.9396 11.3276L94.1915 11.8071L92.88 15.7029Z" fill="#0F7B29"/>
<path d="M82.1493 13.0059L81.732 12.946L82.3281 8.87036L82.7454 8.9303L82.1493 13.0059Z" fill="#0F7B29"/>
<path d="M100.332 18.8198L99.8549 18.58L101.643 14.864L102.18 15.1038L100.332 18.8198Z" fill="#0F7B29"/>
<path d="M102.418 19.8985L101.345 19.2991L103.193 15.6431L104.386 16.3024L102.418 19.8985Z" fill="#0F7B29"/>
<path d="M103.789 20.6776L103.432 20.4978L105.459 16.9016L105.876 17.1414L103.789 20.6776Z" fill="#0F7B29"/>
<path d="M88.5281 14.3244C86.7993 13.9048 85.0108 13.4853 83.282 13.1856L83.9377 9.16992C85.8454 9.4696 87.6935 9.88914 89.5415 10.3686L88.5281 14.3244Z" fill="#0F7B29"/>
<path d="M98.9011 18.1004C98.1261 17.7408 97.2915 17.3212 96.4569 17.0215L93.953 16.0626L95.3242 12.1667L98.0068 13.2456C98.9011 13.5453 99.7953 14.0247 100.63 14.3844L98.9011 18.1004Z" fill="#0F7B29"/>
<path d="M107.068 22.7156C106.011 21.98 104.917 21.2998 103.789 20.6778L105.876 17.1416C107.068 17.741 108.141 18.5201 109.334 19.2393L107.068 22.7156Z" fill="#0F7B29"/>
<path d="M108.499 23.6745L108.022 23.3748L110.347 19.9585L110.824 20.3181L108.499 23.6745Z" fill="#0F7B29"/>
<path d="M110.347 25.0532L109.393 24.3339L111.838 20.9775L112.911 21.8166L110.347 25.0532Z" fill="#0F7B29"/>
<path d="M118.157 32.1256L117.262 31.2265L120.184 28.3496L121.137 29.3086L118.157 32.1256Z" fill="#0F7B29"/>
<path d="M119.587 33.7438L118.753 32.7849L121.793 30.0278L122.687 31.0467L119.587 33.7438Z" fill="#0F7B29"/>
<path d="M111.599 26.072L111.301 25.7723L113.805 22.5957L114.162 22.8354L111.599 26.072Z" fill="#0F7B29"/>
<path d="M124.535 40.3967L124.237 39.9172L127.576 37.6396L127.934 38.1191L124.535 40.3967Z" fill="#0F7B29"/>
<path d="M125.787 42.2547L125.132 41.1759L128.589 38.9583L129.305 40.097L125.787 42.2547Z" fill="#0F7B29"/>
<path d="M126.562 43.5733L126.384 43.2137L129.901 41.116L130.139 41.5355L126.562 43.5733Z" fill="#0F7B29"/>
<path d="M116.487 30.4474L114.52 28.5295L112.493 26.7913L115.116 23.6147L117.322 25.5327L119.349 27.5106L116.487 30.4474Z" fill="#0F7B29"/>
<path d="M123.641 38.8983C122.628 37.4599 121.495 36.0214 120.362 34.6429L123.462 31.9458C124.719 33.4174 125.893 34.9581 126.98 36.5608L123.641 38.8983Z" fill="#0F7B29"/>
<path d="M128.41 46.9296L127.278 45.2514C126.995 44.6723 126.677 44.1117 126.324 43.5732L129.901 41.5354C130.199 42.1348 130.557 42.6742 130.914 43.2735L131.808 45.1315L128.41 46.9296Z" fill="#0F7B29"/>
<path d="M129.126 48.5478L128.947 48.0084L132.643 46.2703L132.882 46.8097L129.126 48.5478Z" fill="#0F7B29"/>
<path d="M130.08 50.7055C129.946 50.296 129.787 49.8957 129.603 49.5068L133.358 47.8286L133.895 49.0873L130.08 50.7055Z" fill="#0F7B29"/>
<path d="M133.299 60.7148L133.001 59.4562L136.995 58.4373L137.293 59.7558L133.299 60.7148Z" fill="#0F7B29"/>
<path d="M133.776 62.8126C133.776 62.393 133.776 61.9735 133.776 61.554L137.77 60.7148C137.77 61.1344 137.77 61.6139 137.77 62.0334L133.776 62.8126Z" fill="#0F7B29"/>
<path d="M130.676 52.144L130.557 51.7844L134.312 50.2261L134.491 50.6456L130.676 52.144Z" fill="#0F7B29"/>
<path d="M134.789 70.9038L134.73 70.3644L138.843 70.0647L138.903 70.6641L134.789 70.9038Z" fill="#0F7B29"/>
<path d="M134.908 73.3014L134.849 72.0427L138.962 71.803V73.1815L134.908 73.3014Z" fill="#0F7B29"/>
<path d="M134.908 74.8595V74.4399H139.022V74.8595H134.908Z" fill="#0F7B29"/>
<path d="M132.762 58.3773C132.464 57.5382 132.285 56.6392 131.987 55.8001L131.093 53.2229L134.968 51.7844L135.862 54.5415C136.16 55.4405 136.399 56.3995 136.697 57.2985L132.762 58.3773Z" fill="#0F7B29"/>
<path d="M134.67 69.3456C134.67 68.4466 134.67 67.5476 134.372 66.6485V65.27V63.9514L138.426 63.2322V64.6706V66.1091C138.584 67.061 138.683 68.0218 138.724 68.986L134.67 69.3456Z" fill="#0F7B29"/>
<path d="M72.6705 131.379C103.718 131.379 128.887 106.074 128.887 74.8596C128.887 43.6449 103.718 18.3403 72.6705 18.3403C41.6228 18.3403 16.4537 43.6449 16.4537 74.8596C16.4537 106.074 41.6228 131.379 72.6705 131.379Z" stroke="#4DCA2E" stroke-width="0.25" stroke-miterlimit="10" stroke-linecap="square" stroke-dasharray="0.93 0.93"/>
<path d="M96.9338 71.0237C99.3509 68.4222 100.694 64.9939 100.69 61.434V59.8157C100.69 55.5978 99.027 51.5517 96.066 48.5636C93.1051 45.5754 89.0869 43.8887 84.8916 43.8728H82.507V30.2075H73.9821V43.8728H67.6629V30.2075H58.9591V43.8728H41.7304V53.1029H52.7592V97.6351H43.2208L41.7304 106.865H58.9591V120.171H67.6629V106.865H74.2205V120.171H82.7454V106.865H88.7069C93.4502 106.865 97.9992 104.971 101.353 101.599C104.707 98.2267 106.591 93.6533 106.591 88.8845V86.9666C106.587 83.675 105.685 80.4477 103.982 77.6364C102.279 74.8252 99.8408 72.5378 96.9338 71.0237ZM67.6629 52.3837H79.5859C81.4856 52.553 83.2533 53.4314 84.541 54.8458C85.8286 56.2602 86.5428 58.1081 86.5428 60.0255C86.5428 61.9429 85.8286 63.7908 84.541 65.2052C83.2533 66.6196 81.4856 67.498 79.5859 67.6673H67.6629V52.3837ZM81.4339 98.0547H67.6629V77.8564H81.4339C84.0585 77.8564 86.5756 78.9046 88.4315 80.7704C90.2874 82.6363 91.33 85.1669 91.33 87.8057C91.33 90.4444 90.2874 92.975 88.4315 94.8409C86.5756 96.7068 84.0585 97.755 81.4339 97.755V98.0547Z" stroke="#4DCA2E" stroke-width="2" stroke-miterlimit="10"/>
<path style="mix-blend-mode:screen" d="M72.6705 5.63396C88.6175 5.60855 104.08 11.1442 116.421 21.2973C128.763 31.4504 137.221 45.5925 140.353 61.3131C143.484 77.0337 141.096 93.3597 133.596 107.508C126.095 121.657 113.946 132.752 99.219 138.903C84.4923 145.054 68.0996 145.88 52.835 141.24C37.5705 136.6 24.379 126.781 15.509 113.457C6.63902 100.133 2.6396 84.1293 4.19245 68.1727C5.7453 52.2161 12.7543 37.2948 24.0248 25.9521C30.3883 19.492 37.9663 14.3687 46.3177 10.8805C54.6691 7.39233 63.6271 5.60889 72.6705 5.63396ZM72.6705 1.79807C58.2901 1.76249 44.2224 6.01721 32.2483 14.0237C20.2742 22.0301 10.932 33.4283 5.40432 46.7754C-0.123376 60.1224 -1.58803 74.8183 1.19575 89.0027C3.97952 103.187 10.8866 116.222 21.0426 126.458C31.1986 136.694 44.1469 143.67 58.2484 146.504C72.35 149.338 86.9708 147.901 100.26 142.377C113.549 136.852 124.909 127.488 132.902 115.469C140.896 103.45 145.162 89.3175 145.162 74.8596C145.162 65.26 143.281 55.7545 139.625 46.8863C135.969 38.0182 130.611 29.9613 123.856 23.1761C117.102 16.3909 109.084 11.0105 100.26 7.34234C91.4365 3.67418 81.9803 1.7902 72.4321 1.79807H72.6705Z" fill="url(#paint1_linear_425_12)"/>
<path style="mix-blend-mode:screen" d="M72.5299 138.433C107.362 138.433 135.6 110.046 135.6 75.0285C135.6 40.0113 107.362 11.6243 72.5299 11.6243C37.6975 11.6243 9.46017 40.0113 9.46017 75.0285C9.46017 110.046 37.6975 138.433 72.5299 138.433Z" fill="url(#paint2_linear_425_12)"/>
<path style="mix-blend-mode:screen" d="M338.418 145.83C377.895 145.83 409.897 113.658 409.897 73.9717C409.897 34.2855 377.895 2.11353 338.418 2.11353C298.942 2.11353 266.939 34.2855 266.939 73.9717C266.939 113.658 298.942 145.83 338.418 145.83Z" fill="url(#paint3_linear_425_12)"/>
</g>
<defs>
<linearGradient id="paint0_linear_425_12" x1="353.816" y1="2.75715" x2="322.016" y2="144.492" gradientUnits="userSpaceOnUse">
<stop stop-color="#1BD242"/>
<stop offset="0.01" stop-color="#0FD258"/>
<stop offset="0.03" stop-color="#07D368"/>
<stop offset="0.04" stop-color="#02D371"/>
<stop offset="0.06" stop-color="#00C66D"/>
<stop offset="0.07" stop-color="#009D56"/>
<stop offset="0.09" stop-color="#007741"/>
<stop offset="0.1" stop-color="#005730"/>
<stop offset="0.11" stop-color="#003B21"/>
<stop offset="0.13" stop-color="#002515"/>
<stop offset="0.15" stop-color="#00140B"/>
<stop offset="0.17" stop-color="#000905"/>
<stop offset="0.2" stop-color="#000201"/>
<stop offset="0.29"/>
</linearGradient>
<linearGradient id="paint1_linear_425_12" x1="121.674" y1="22.9554" x2="26.2308" y2="123.016" gradientUnits="userSpaceOnUse">
<stop offset="0.01" stop-color="#00D23D"/>
<stop offset="0.08" stop-color="#00D374"/>
<stop offset="0.09" stop-color="#00C66D"/>
<stop offset="0.11" stop-color="#009D56"/>
<stop offset="0.12" stop-color="#007741"/>
<stop offset="0.14" stop-color="#005730"/>
<stop offset="0.17" stop-color="#003B21"/>
<stop offset="0.19" stop-color="#002515"/>
<stop offset="0.22" stop-color="#00140B"/>
<stop offset="0.26" stop-color="#000905"/>
<stop offset="0.31" stop-color="#000201"/>
<stop offset="0.45"/>
<stop offset="0.87"/>
<stop offset="0.94"/>
<stop offset="0.95" stop-color="#000301"/>
<stop offset="0.96" stop-color="#020E05"/>
<stop offset="0.98" stop-color="#041F0C"/>
<stop offset="0.99" stop-color="#083716"/>
<stop offset="1" stop-color="#0C5823"/>
</linearGradient>
<linearGradient id="paint2_linear_425_12" x1="110.765" y1="34.6142" x2="39.6965" y2="109.034" gradientUnits="userSpaceOnUse">
<stop stop-color="#07570E"/>
<stop offset="0.03" stop-color="#07510D"/>
<stop offset="0.19" stop-color="#043408"/>
<stop offset="0.35" stop-color="#021D05"/>
<stop offset="0.53" stop-color="#010D02"/>
<stop offset="0.73" stop-color="#000300"/>
<stop offset="1"/>
</linearGradient>
<linearGradient id="paint3_linear_425_12" x1="381.693" y1="28.1687" x2="301.148" y2="112.511" gradientUnits="userSpaceOnUse">
<stop stop-color="#07570E"/>
<stop offset="0.03" stop-color="#07510D"/>
<stop offset="0.19" stop-color="#043408"/>
<stop offset="0.35" stop-color="#021D05"/>
<stop offset="0.53" stop-color="#010D02"/>
<stop offset="0.73" stop-color="#000300"/>
<stop offset="1"/>
</linearGradient>
<clipPath id="clip0_425_12">
<rect width="413" height="149" fill="white"/>
</clipPath>
</defs>
</svg>
