<svg width="311" height="113" viewBox="0 0 311 113" fill="none" xmlns="http://www.w3.org/2000/svg">
<g clip-path="url(#clip0_534_4451)">
<g opacity="0.2">
<path d="M300.965 76.5043H27.5601V78.1067H300.965V76.5043Z" fill="white"/>
<path d="M300.965 69.7387H27.5601V71.3411H300.965V69.7387Z" fill="white"/>
<path d="M300.965 63.0177H27.5601V64.62H300.965V63.0177Z" fill="white"/>
<path d="M300.965 56.2521H27.5601V57.8545H300.965V56.2521Z" fill="white"/>
<path d="M300.965 49.5311H27.5601V51.1334H300.965V49.5311Z" fill="white"/>
<path d="M300.965 42.7655H27.5601V44.3679H300.965V42.7655Z" fill="white"/>
<path d="M300.965 36.0444H27.5601V37.6468H300.965V36.0444Z" fill="white"/>
</g>
<path d="M293.674 96.2471C315.41 74.3942 315.41 38.9637 293.674 17.1108C271.938 -4.74205 236.697 -4.74204 214.961 17.1108C193.225 38.9637 193.225 74.3942 214.961 96.2471C236.697 118.1 271.938 118.1 293.674 96.2471Z" fill="#0E5215"/>
<path d="M254.14 2.5879C264.768 2.5879 275.156 5.75623 283.993 11.6922C292.829 17.6283 299.716 26.0653 303.783 35.9366C307.85 45.8078 308.914 56.6698 306.841 67.1491C304.767 77.6283 299.65 87.2541 292.135 94.8092C284.621 102.364 275.046 107.509 264.623 109.594C254.2 111.678 243.396 110.608 233.578 106.52C223.759 102.431 215.367 95.5068 209.463 86.6229C203.559 77.739 200.407 67.2944 200.407 56.6099C200.407 42.2824 206.069 28.5417 216.145 18.4106C226.222 8.27949 239.89 2.5879 254.14 2.5879ZM254.14 0.742152C243.14 0.777743 232.397 4.08984 223.267 10.2602C214.138 16.4305 207.032 25.1823 202.847 35.4103C198.661 45.6383 197.585 56.8839 199.753 67.7267C201.92 78.5696 207.235 88.5234 215.026 96.3313C222.817 104.139 232.735 109.451 243.527 111.595C254.318 113.74 265.5 112.621 275.66 108.381C285.82 104.14 294.502 96.9679 300.61 87.7696C306.718 78.5713 309.978 67.7596 309.978 56.6999C309.984 49.3346 308.542 42.0406 305.736 35.2371C302.93 28.4335 298.814 22.2544 293.626 17.0547C288.437 11.855 282.278 7.73716 275.502 4.93774C268.726 2.13833 261.466 0.712499 254.14 0.742152Z" fill="#2D8A01"/>
<path d="M289.589 92.1407C309.069 72.5557 309.069 40.8022 289.589 21.2173C270.109 1.6323 238.526 1.6323 219.045 21.2173C199.565 40.8022 199.565 72.5557 219.045 92.1407C238.526 111.726 270.109 111.726 289.589 92.1407Z" stroke="#4DCA2E" stroke-width="0.338" stroke-miterlimit="10"/>
<path d="M254.32 99.2875C277.714 99.2875 296.679 80.2205 296.679 56.7001C296.679 33.1798 277.714 14.1128 254.32 14.1128C230.925 14.1128 211.96 33.1798 211.96 56.7001C211.96 80.2205 230.925 99.2875 254.32 99.2875Z" stroke="#4DCA2E" stroke-width="0.150222" stroke-miterlimit="10"/>
<path d="M299.769 62.3272C299.986 60.4595 300.09 58.5804 300.082 56.7H306.037C306.052 58.8213 305.932 60.9415 305.679 63.0475L299.769 62.3272Z" fill="#0F7B29"/>
<path d="M299.366 64.8481L299.5 64.0828L305.411 65.0281L305.231 65.9285L299.366 64.8481Z" fill="#0F7B29"/>
<path d="M298.649 68.2696L299.052 66.4238L304.918 67.6843L304.425 69.7552L298.649 68.2696Z" fill="#0F7B29"/>
<path d="M292.38 82.3154L293.365 80.7397L298.47 83.891L297.306 85.6467L292.38 82.3154Z" fill="#0F7B29"/>
<path d="M290.5 84.9265L291.037 84.2062L291.574 83.4409L296.455 86.9073L295.828 87.7627L295.201 88.618L290.5 84.9265Z" fill="#0F7B29"/>
<path d="M298.022 70.4754C298.009 70.2805 298.009 70.085 298.022 69.8901L303.709 71.6008C303.689 71.8255 303.689 72.0515 303.709 72.2761L298.022 70.4754Z" fill="#0F7B29"/>
<path d="M282.037 93.3448L282.664 92.8496L286.335 97.5765L285.619 98.1168L282.037 93.3448Z" fill="#0F7B29"/>
<path d="M279.171 95.3707L279.977 94.8755L280.738 94.2903L284.186 99.1973L283.29 99.8275L282.395 100.368L279.171 95.3707Z" fill="#0F7B29"/>
<path d="M277.201 96.5861L277.738 96.271L280.783 101.403L280.201 101.763L277.201 96.5861Z" fill="#0F7B29"/>
<path d="M294.171 79.3441C295.483 77.0293 296.591 74.6041 297.485 72.0962L303.082 74.122C302.064 76.9492 300.821 79.6891 299.366 82.3154L294.171 79.3441Z" fill="#0F7B29"/>
<path d="M283.828 91.9042C285.858 90.1854 287.732 88.287 289.425 86.2319L293.903 90.1035C291.981 92.3956 289.869 94.5191 287.589 96.4511L283.828 91.9042Z" fill="#0F7B29"/>
<path d="M272.051 99.1072C273.767 98.3575 275.441 97.5159 277.066 96.5862L280.066 101.763C278.226 102.816 276.327 103.763 274.38 104.599L272.051 99.1072Z" fill="#0F7B29"/>
<path d="M269.812 100.008C270.073 99.9378 270.327 99.8475 270.574 99.7375L272.678 105.32L271.827 105.635L269.812 100.008Z" fill="#0F7B29"/>
<path d="M266.499 101.088L268.29 100.548L270.126 106.22C269.454 106.49 268.783 106.625 268.111 106.85L266.499 101.088Z" fill="#0F7B29"/>
<path d="M251.275 102.619C251.886 102.665 252.499 102.665 253.11 102.619V108.606H251.006L251.275 102.619Z" fill="#0F7B29"/>
<path d="M248.051 102.303H249.931L249.349 108.246H247.245L248.051 102.303Z" fill="#0F7B29"/>
<path d="M264.26 101.628L264.887 101.493L266.23 107.346L265.559 107.481L264.26 101.628Z" fill="#0F7B29"/>
<path d="M236.588 99.1521L237.349 99.4672L235.11 105.004L234.304 104.689L236.588 99.1521Z" fill="#0F7B29"/>
<path d="M233.453 97.6667L235.11 98.5221L232.647 103.924L230.722 103.024L233.453 97.6667Z" fill="#0F7B29"/>
<path d="M231.393 96.5862L231.976 96.9013L229.065 102.123L228.438 101.763L231.393 96.5862Z" fill="#0F7B29"/>
<path d="M254.722 102.709C257.365 102.694 260.001 102.453 262.603 101.989L263.678 107.841C260.725 108.4 257.727 108.686 254.722 108.696V102.709Z" fill="#0F7B29"/>
<path d="M238.737 100.008C241.227 100.903 243.788 101.581 246.394 102.033L245.185 107.931C242.241 107.43 239.348 106.662 236.543 105.635L238.737 100.008Z" fill="#0F7B29"/>
<path d="M226.737 93.48C228.259 94.5604 229.781 95.6409 231.214 96.5862L228.259 101.763C226.437 100.687 224.674 99.5153 222.975 98.2519L226.737 93.48Z" fill="#0F7B29"/>
<path d="M224.766 91.8594L225.348 92.3996L221.587 96.9014L220.916 96.3162L224.766 91.8594Z" fill="#0F7B29"/>
<path d="M222.214 89.5183L223.557 90.8238L219.527 95.2356L218.005 93.7951L222.214 89.5183Z" fill="#0F7B29"/>
<path d="M213.214 77.0032L214.065 78.7139L208.826 81.55L207.885 79.6593L213.214 77.0032Z" fill="#0F7B29"/>
<path d="M211.871 74.0771C211.871 74.6624 212.408 75.2026 212.632 75.7878L207.214 78.2639C206.945 77.6336 206.632 77.0033 206.363 76.3281L211.871 74.0771Z" fill="#0F7B29"/>
<path d="M220.557 87.8528L221.005 88.303L216.662 92.3996L216.214 91.9044L220.557 87.8528Z" fill="#0F7B29"/>
<path d="M208.87 62.5073L209.005 63.3177L203.094 64.173L202.96 63.2726L208.87 62.5073Z" fill="#0F7B29"/>
<path d="M208.557 59.041L208.691 60.9318L202.781 61.427L202.602 59.3561L208.557 59.041Z" fill="#0F7B29"/>
<path d="M208.512 56.7V57.3302L202.557 57.4202V56.7H208.512Z" fill="#0F7B29"/>
<path d="M214.871 80.0645C216.165 82.3571 217.664 84.5268 219.348 86.5471L214.871 90.4637C212.945 88.1628 211.208 85.7088 209.676 83.1257L214.871 80.0645Z" fill="#0F7B29"/>
<path d="M209.363 64.8032C209.828 67.424 210.517 69.9996 211.423 72.5014L205.825 74.5272C204.799 71.7048 204.02 68.7976 203.497 65.8386L209.363 64.8032Z" fill="#0F7B29"/>
<path d="M208.87 51.0726C208.638 52.9394 208.519 54.8186 208.512 56.6999H202.557C202.579 54.5783 202.714 52.4595 202.96 50.3523L208.87 51.0726Z" fill="#0F7B29"/>
<path d="M209.229 48.5518L209.094 49.3621L203.229 48.4167L203.363 47.5164L209.229 48.5518Z" fill="#0F7B29"/>
<path d="M209.99 45.1301L209.542 46.9759L203.721 45.7154L204.214 43.6445L209.99 45.1301Z" fill="#0F7B29"/>
<path d="M216.259 31.0845L215.229 32.6602L210.169 29.5539L211.288 27.7532L216.259 31.0845Z" fill="#0F7B29"/>
<path d="M218.139 28.4735L217.557 29.2388L217.02 30.0041L212.184 26.4927L212.811 25.6373L213.438 24.782L218.139 28.4735Z" fill="#0F7B29"/>
<path d="M210.617 42.8793C210.597 43.0889 210.597 43.2999 210.617 43.5095L204.885 41.7988C204.885 41.5737 204.885 41.3036 204.885 41.1235L210.617 42.8793Z" fill="#0F7B29"/>
<path d="M226.602 20.0549L225.975 20.5501L222.259 15.8682L222.975 15.283L226.602 20.0549Z" fill="#0F7B29"/>
<path d="M229.423 18.074L228.662 18.5692L227.901 19.1095L224.453 14.2025L225.304 13.6172L226.199 13.032L229.423 18.074Z" fill="#0F7B29"/>
<path d="M231.393 16.8586L230.901 17.1287L227.811 11.9966L228.438 11.6365L231.393 16.8586Z" fill="#0F7B29"/>
<path d="M214.423 34.0557C213.126 36.3717 212.032 38.7968 211.154 41.3036L205.512 39.2778C206.565 36.4431 207.853 33.7023 209.363 31.0845L214.423 34.0557Z" fill="#0F7B29"/>
<path d="M224.811 21.4956C222.771 23.187 220.896 25.0714 219.214 27.1229L214.736 23.2963C216.634 20.9828 218.749 18.8572 221.05 16.9487L224.811 21.4956Z" fill="#0F7B29"/>
<path d="M236.229 14.2928C234.514 15.0425 232.84 15.8841 231.214 16.8138L228.259 11.6367C230.08 10.5752 231.964 9.62798 233.901 8.80054L236.229 14.2928Z" fill="#0F7B29"/>
<path d="M238.782 13.3473L238.02 13.6624L235.916 8.0351L236.767 7.71997L238.782 13.3473Z" fill="#0F7B29"/>
<path d="M242.095 12.3119C241.513 12.3119 240.886 12.627 240.304 12.8521L238.468 7.1348L240.528 6.54956L242.095 12.3119Z" fill="#0F7B29"/>
<path d="M257.364 10.7812C256.738 10.737 256.11 10.737 255.484 10.7812V4.79372C256.2 4.74877 256.917 4.74877 257.633 4.79372L257.364 10.7812Z" fill="#0F7B29"/>
<path d="M260.544 11.0962H258.708L259.245 5.15381H261.35L260.544 11.0962Z" fill="#0F7B29"/>
<path d="M244.334 11.7716L243.752 11.9066L242.364 6.09926L243.036 5.91919L244.334 11.7716Z" fill="#0F7B29"/>
<path d="M272.007 14.2476L271.29 13.9325L273.484 8.39526L274.335 8.71039L272.007 14.2476Z" fill="#0F7B29"/>
<path d="M275.186 15.7332L273.484 14.8779L275.992 9.43066L277.872 10.376L275.186 15.7332Z" fill="#0F7B29"/>
<path d="M277.201 16.8585L276.663 16.4984L279.574 11.3213L280.201 11.6364L277.201 16.8585Z" fill="#0F7B29"/>
<path d="M253.872 10.6461C251.228 10.6756 248.591 10.9317 245.991 11.4114L244.916 5.51404C247.876 5.00182 250.869 4.71589 253.872 4.65869V10.6461Z" fill="#0F7B29"/>
<path d="M269.857 13.3922C267.369 12.491 264.807 11.813 262.2 11.3664L263.096 5.46899C266.042 5.95797 268.936 6.72672 271.738 7.76493L269.857 13.3922Z" fill="#0F7B29"/>
<path d="M281.858 19.9198C280.38 18.8394 278.813 17.759 277.38 16.8136L280.38 11.6365C282.211 12.6965 283.976 13.8692 285.664 15.1479L281.858 19.9198Z" fill="#0F7B29"/>
<path d="M283.873 21.5406L283.246 21.0004L287.007 16.4985L287.679 17.0838L283.873 21.5406Z" fill="#0F7B29"/>
<path d="M286.425 23.8816L285.082 22.6211L289.067 18.1643L290.589 19.6499L286.425 23.8816Z" fill="#0F7B29"/>
<path d="M295.425 36.3967L294.574 34.731L299.769 31.8499L300.754 33.7406L295.425 36.3967Z" fill="#0F7B29"/>
<path d="M296.724 39.323C296.5 38.7378 296.231 38.1526 295.962 37.6123L301.38 35.0913C301.702 35.7346 301.986 36.396 302.231 37.0721L296.724 39.323Z" fill="#0F7B29"/>
<path d="M288.037 25.5471L287.589 25.0969L291.932 21.0002L292.425 21.4954L288.037 25.5471Z" fill="#0F7B29"/>
<path d="M299.724 50.8926L299.634 50.0823L305.545 49.272L305.634 50.1273L299.724 50.8926Z" fill="#0F7B29"/>
<path d="M300.037 54.3591L299.903 52.5134L305.858 51.9731L305.993 54.089L300.037 54.3591Z" fill="#0F7B29"/>
<path d="M300.082 56.7V56.0698L306.037 55.9797V56.7H300.082Z" fill="#0F7B29"/>
<path d="M293.768 33.2905C292.448 31.0288 290.95 28.8761 289.291 26.8529L293.768 22.9363C295.689 25.2308 297.412 27.6857 298.918 30.2743L293.768 33.2905Z" fill="#0F7B29"/>
<path d="M299.366 48.5966C298.915 45.9771 298.241 43.4014 297.351 40.8985L302.948 38.8276C303.954 41.6683 304.718 44.5901 305.231 47.5612L299.366 48.5966Z" fill="#0F7B29"/>
<path d="M254.319 72.9966L229.737 60.1213L254.319 17.624L278.902 60.1213L254.319 72.9966Z" stroke="#4DCA2E" stroke-width="1.50222" stroke-linejoin="round"/>
<path d="M254.319 77.0481L229.737 64.1729L254.319 96.1809L278.902 64.1729L254.319 77.0481Z" stroke="#4DCA2E" stroke-width="1.50222" stroke-linejoin="round"/>
<path d="M254.319 17.5339V73.0415" stroke="#4DCA2E" stroke-width="1.50222" stroke-miterlimit="10"/>
<path d="M229.737 60.1213L254.319 47.2461L278.902 60.1213" stroke="#4DCA2E" stroke-width="1.50222" stroke-miterlimit="10"/>
<path d="M254.319 77.0481V96.1809" stroke="#4DCA2E" stroke-width="1.50222" stroke-miterlimit="10"/>
<path style="mix-blend-mode:screen" d="M254.14 2.5879C266.568 2.59773 278.609 6.93859 288.211 14.8712C297.813 22.8039 304.384 33.8377 306.803 46.0937C309.222 58.3497 307.341 71.0699 301.48 82.0879C295.618 93.106 286.139 101.741 274.657 106.521C263.174 111.302 250.398 111.933 238.505 108.307C226.612 104.681 216.336 97.0224 209.429 86.635C202.521 76.2477 199.409 63.7742 200.622 51.3388C201.834 38.9034 207.297 27.2752 216.08 18.4344C221.063 13.3897 226.994 9.391 233.528 6.67064C240.062 3.95028 247.068 2.5625 254.14 2.5879ZM254.14 0.742152C243.14 0.777743 232.397 4.08984 223.267 10.2602C214.138 16.4305 207.032 25.1823 202.847 35.4103C198.661 45.6383 197.585 56.8839 199.753 67.7267C201.92 78.5696 207.235 88.5234 215.026 96.3313C222.817 104.139 232.735 109.451 243.527 111.595C254.318 113.74 265.5 112.621 275.66 108.381C285.82 104.14 294.502 96.9679 300.61 87.7696C306.718 78.5713 309.978 67.7596 309.978 56.6999C309.984 49.3346 308.542 42.0406 305.736 35.2371C302.93 28.4335 298.814 22.2544 293.626 17.0547C288.437 11.855 282.278 7.73716 275.502 4.93774C268.726 2.13833 261.466 0.712499 254.14 0.742152Z" fill="url(#paint0_linear_534_4451)"/>
<path d="M55.1037 111.847C85.2494 111.847 109.687 87.278 109.687 56.9701C109.687 26.6622 85.2494 2.09277 55.1037 2.09277C24.9579 2.09277 0.52002 26.6622 0.52002 56.9701C0.52002 87.278 24.9579 111.847 55.1037 111.847Z" fill="#0E5215"/>
<path d="M55.1036 4.97387C65.3344 4.96497 75.3379 8.00691 83.8487 13.7149C92.3596 19.4229 98.9954 27.5405 102.917 37.0407C106.838 46.541 107.868 56.9971 105.878 67.0864C103.888 77.1756 98.9654 86.4446 91.7343 93.7209C84.5032 100.997 75.288 105.954 65.2545 107.964C55.221 109.974 44.82 108.947 35.3672 105.012C25.9144 101.078 17.8345 94.4139 12.1497 85.8622C6.46485 77.3105 3.43051 67.2558 3.43051 56.97C3.44234 43.1912 8.88883 29.9795 18.5756 20.2322C28.2623 10.4849 41.3986 4.99771 55.1036 4.97387ZM55.1036 2.0927C44.3023 2.06597 33.7359 5.26174 24.7421 11.2755C15.7482 17.2892 8.73115 25.8505 4.57923 35.8756C0.42732 45.9008 -0.6728 56.939 1.41813 67.593C3.50905 78.2471 8.69702 88.0379 16.3253 95.7262C23.9536 103.414 33.6792 108.654 44.271 110.783C54.8629 112.911 65.8447 111.832 75.8264 107.683C85.8081 103.533 94.3408 96.4997 100.345 87.4722C106.348 78.4448 109.553 67.8295 109.553 56.97C109.553 49.7596 108.14 42.6199 105.394 35.959C102.648 29.298 98.6232 23.2464 93.5499 18.15C88.4766 13.0536 82.4541 9.01225 75.8265 6.25706C69.199 3.50186 62.0963 2.08678 54.9245 2.0927H55.1036Z" fill="#2C8B00"/>
<path d="M55.1037 104.149C81.0206 104.149 102.03 83.0266 102.03 56.9702C102.03 30.9139 81.0206 9.79102 55.1037 9.79102C29.1868 9.79102 8.177 30.9139 8.177 56.9702C8.177 83.0266 29.1868 104.149 55.1037 104.149Z" stroke="#4DCA2E" stroke-width="0.488222" stroke-miterlimit="10"/>
<path d="M101.762 59.8511C101.762 58.9058 101.762 57.9154 101.762 56.97H105.075C105.075 58.0054 105.075 58.9958 105.075 60.0312L101.762 59.8511Z" fill="#0F7B29"/>
<path d="M101.672 61.1569L101.717 60.7517L104.762 60.9768L104.717 61.427L101.672 61.1569Z" fill="#0F7B29"/>
<path d="M101.493 62.9124L101.583 61.967L104.672 62.2822L104.538 63.3176L101.493 62.9124Z" fill="#0F7B29"/>
<path d="M99.8363 70.6556L100.105 69.7102L103.06 70.5656L102.792 71.556L99.8363 70.6556Z" fill="#0F7B29"/>
<path d="M99.3438 72.2313L99.6572 71.2859L102.568 72.2313L102.254 73.2217L99.3438 72.2313Z" fill="#0F7B29"/>
<path d="M101.359 64.0829V63.8127L104.404 64.2179L104.359 64.5781L101.359 64.0829Z" fill="#0F7B29"/>
<path d="M97.0153 77.8584L97.1944 77.4983L99.9706 78.8488L99.7467 79.254L97.0153 77.8584Z" fill="#0F7B29"/>
<path d="M96.2092 79.4342L96.6122 78.5789L99.3436 80.0194L98.8959 80.9198L96.2092 79.4342Z" fill="#0F7B29"/>
<path d="M95.5824 80.4696L95.7615 80.1995L98.4482 81.7301L98.269 82.0002L95.5824 80.4696Z" fill="#0F7B29"/>
<path d="M100.329 68.9449C100.642 67.5943 100.956 66.2888 101.18 64.9382L104.224 65.4784C104.001 66.919 103.642 68.3146 103.329 69.7102L100.329 68.9449Z" fill="#0F7B29"/>
<path d="M97.5078 76.778C97.7765 76.1478 98.0899 75.5625 98.3138 74.9323L99.075 73.0415L101.941 74.0769L101.18 76.1028C100.911 76.778 100.597 77.4083 100.284 78.0836L97.5078 76.778Z" fill="#0F7B29"/>
<path d="M94.1047 82.9005C94.5973 82.0901 95.1346 81.3248 95.5824 80.4695L98.269 82.0001C97.7765 82.9005 97.1944 83.7558 96.6571 84.6112L94.1047 82.9005Z" fill="#0F7B29"/>
<path d="M93.3435 83.9809L93.6122 83.6658L96.1197 85.4215L95.8958 85.7816L93.3435 83.9809Z" fill="#0F7B29"/>
<path d="M92.3137 85.4216C92.5323 85.1863 92.7272 84.9299 92.8958 84.6562L95.3586 86.457C95.3586 86.7721 94.9556 87.0422 94.7765 87.3123L92.3137 85.4216Z" fill="#0F7B29"/>
<path d="M87.03 91.2741L87.7465 90.6438L89.8958 92.8497L89.1346 93.525L87.03 91.2741Z" fill="#0F7B29"/>
<path d="M85.821 92.3995L86.5375 91.7693L88.642 94.0652L87.836 94.7405L85.821 92.3995Z" fill="#0F7B29"/>
<path d="M91.5973 86.367L91.7764 86.0969L94.1944 88.0327L93.9705 88.3028L91.5973 86.367Z" fill="#0F7B29"/>
<path d="M80.9851 96.0908H81.3433L83.0896 98.6569L82.6866 98.6119L80.9851 96.0908Z" fill="#0F7B29"/>
<path d="M79.5073 97.0812L80.3133 96.541L81.9701 99.1521L81.1193 99.6923L79.5073 97.0812Z" fill="#0F7B29"/>
<path d="M78.4775 97.6666L78.791 97.5315L80.3134 100.188L80.0447 100.368L78.4775 97.6666Z" fill="#0F7B29"/>
<path d="M88.3285 90.0585L89.7166 88.5729L91.0599 87.0422L93.4331 89.023L92.0002 90.6437L90.5226 92.2193L88.3285 90.0585Z" fill="#0F7B29"/>
<path d="M81.9702 95.4157C83.0896 94.6504 84.1195 93.8401 85.1942 92.9397L87.1644 95.3257C86.045 96.226 84.9255 97.1264 83.7613 97.9367L81.9702 95.4157Z" fill="#0F7B29"/>
<path d="M75.9698 99.0173L77.2236 98.387L78.4774 97.6667L80.0446 100.323L78.7013 101.088L77.3579 101.808L75.9698 99.0173Z" fill="#0F7B29"/>
<path d="M74.8058 99.6024L75.164 99.4224L76.5073 102.214L76.1043 102.394L74.8058 99.6024Z" fill="#0F7B29"/>
<path d="M73.1937 100.323L74.0445 99.9177L75.2983 102.754C74.9932 102.908 74.6792 103.043 74.3579 103.159L73.1937 100.323Z" fill="#0F7B29"/>
<path d="M65.7159 102.754L66.6563 102.529L67.4175 105.545L66.3876 105.77L65.7159 102.754Z" fill="#0F7B29"/>
<path d="M64.1039 103.114H65.0442L65.7159 106.13L64.686 106.355L64.1039 103.114Z" fill="#0F7B29"/>
<path d="M72.0742 100.773L72.3877 100.638L73.5071 103.519L73.1937 103.654L72.0742 100.773Z" fill="#0F7B29"/>
<path d="M58.059 103.879L58.5067 103.834L58.6858 106.94H58.2828L58.059 103.879Z" fill="#0F7B29"/>
<path d="M56.3126 103.969L57.2529 103.924L57.3873 107.031H56.4022L56.3126 103.969Z" fill="#0F7B29"/>
<path d="M55.1036 103.969H55.4619V107.076H55.1036V103.969Z" fill="#0F7B29"/>
<path d="M67.4174 102.304L69.3876 101.718L71.2682 101.088L72.3429 103.969L70.2831 104.69L68.2234 105.275L67.4174 102.304Z" fill="#0F7B29"/>
<path d="M59.2679 103.789H61.2829H62.268H63.2531L63.7905 106.806H62.7158H61.6411H59.5366L59.2679 103.789Z" fill="#0F7B29"/>
<path d="M52.2378 103.879H55.1036V106.985H52.0587L52.2378 103.879Z" fill="#0F7B29"/>
<path d="M50.9841 103.789L51.3871 103.834L51.1185 106.895L50.7155 106.85L50.9841 103.789Z" fill="#0F7B29"/>
<path d="M49.1931 103.609L50.1782 103.699L49.8199 106.805L48.8348 106.67L49.1931 103.609Z" fill="#0F7B29"/>
<path d="M41.5361 101.943L42.4316 102.213L41.6256 105.185L40.6405 104.915L41.5361 101.943Z" fill="#0F7B29"/>
<path d="M39.9689 101.448L40.8644 101.763L39.9241 104.69L38.9838 104.374L39.9689 101.448Z" fill="#0F7B29"/>
<path d="M48.0288 103.429L48.3423 103.474L47.8945 106.535L47.5811 106.49L48.0288 103.429Z" fill="#0F7B29"/>
<path d="M34.3717 99.0623L34.73 99.2873L33.3866 102.033L32.9836 101.853L34.3717 99.0623Z" fill="#0F7B29"/>
<path d="M32.7597 98.2517L33.6104 98.7019L32.2223 101.448L31.3268 100.998L32.7597 98.2517Z" fill="#0F7B29"/>
<path d="M31.7746 97.6667L32.0433 97.8468L30.5208 100.503L30.2074 100.368L31.7746 97.6667Z" fill="#0F7B29"/>
<path d="M43.2376 102.439C44.5362 102.754 45.8347 103.069 47.178 103.294L46.6407 106.31C45.2526 106.085 43.8197 105.77 42.4316 105.41L43.2376 102.439Z" fill="#0F7B29"/>
<path d="M35.4016 99.6023C36.0285 99.8724 36.6553 100.188 37.2822 100.413L39.1629 101.133L38.0882 104.059L36.0732 103.114C35.4016 102.889 34.7747 102.528 34.103 102.258L35.4016 99.6023Z" fill="#0F7B29"/>
<path d="M29.3118 96.136C30.1178 96.6762 30.9238 97.2164 31.7298 97.6666L30.2073 100.323C29.3118 99.8725 28.461 99.2873 27.6102 98.747L29.3118 96.136Z" fill="#0F7B29"/>
<path d="M28.2372 95.4158L28.5954 95.6859L26.8491 98.2069L26.4908 97.9368L28.2372 95.4158Z" fill="#0F7B29"/>
<path d="M26.8043 94.3801L27.5655 94.9203L25.7744 97.4414L24.9684 96.8111L26.8043 94.3801Z" fill="#0F7B29"/>
<path d="M20.9833 89.0681L21.6549 89.7884L19.4608 91.9493L18.7444 91.184L20.9833 89.0681Z" fill="#0F7B29"/>
<path d="M19.9086 87.8525L20.5355 88.5728L18.2519 90.6437L17.5802 89.8784L19.9086 87.8525Z" fill="#0F7B29"/>
<path d="M25.9087 93.6599L26.1326 93.84L24.2519 96.271L23.9833 96.0459L25.9087 93.6599Z" fill="#0F7B29"/>
<path d="M16.1921 82.9907V83.3509L13.6398 85.0616C13.5552 84.9481 13.4803 84.8276 13.4159 84.7014L16.1921 82.9907Z" fill="#0F7B29"/>
<path d="M15.2517 81.5049L15.7443 82.3152L13.1472 83.9809L12.6099 83.1255L15.2517 81.5049Z" fill="#0F7B29"/>
<path d="M14.6249 80.4697L14.804 80.7398L12.1621 82.3155L11.983 82.0004L14.6249 80.4697Z" fill="#0F7B29"/>
<path d="M22.2371 90.3735L23.6699 91.7691L25.2371 93.1197L23.2669 95.4606L21.6102 94.065L20.043 92.5344L22.2371 90.3735Z" fill="#0F7B29"/>
<path d="M16.8637 83.9812C17.625 85.0616 18.4757 86.1421 19.3265 87.1775L16.9533 89.2033C16.0577 88.0779 15.1622 86.9524 14.3562 85.7369L16.8637 83.9812Z" fill="#0F7B29"/>
<path d="M13.2816 77.9485L13.9532 79.209L14.6249 80.4695L11.983 82.0001C11.7144 81.55 11.4457 81.1448 11.2218 80.6946L10.5502 79.299L13.2816 77.9485Z" fill="#0F7B29"/>
<path d="M12.7443 76.7781L12.8786 77.1382L10.1025 78.4888L9.92334 78.0836L12.7443 76.7781Z" fill="#0F7B29"/>
<path d="M11.983 75.1125L12.386 76.0129L9.56498 77.2734L9.16199 76.328L11.983 75.1125Z" fill="#0F7B29"/>
<path d="M9.60983 67.6394L9.83371 68.5398L6.83363 69.3051L6.60974 68.3147L9.60983 67.6394Z" fill="#0F7B29"/>
<path d="M9.25156 66.0188C9.2303 66.3336 9.2303 66.6494 9.25156 66.9642L6.25148 67.5945C6.25148 67.2793 6.25147 66.9192 6.02759 66.604L9.25156 66.0188Z" fill="#0F7B29"/>
<path d="M11.58 74.032L11.6695 74.3471L8.80379 75.4726L8.71423 75.1574L11.58 74.032Z" fill="#0F7B29"/>
<path d="M8.4904 59.9414V60.3466L5.44553 60.5717L5.40076 60.1665L8.4904 59.9414Z" fill="#0F7B29"/>
<path d="M8.4008 58.1855L8.44557 59.1309L5.35593 59.266L5.31116 58.2306L8.4008 58.1855Z" fill="#0F7B29"/>
<path d="M8.35602 56.97L8.4008 57.2851L5.31116 57.3301V56.97H8.35602Z" fill="#0F7B29"/>
<path d="M10.0128 69.3501C10.0128 69.9804 10.371 70.6556 10.5949 71.2859L11.2218 73.2217L8.35604 74.3021L7.68438 72.2313C7.41572 71.556 7.28138 70.8357 7.0575 70.1604L10.0128 69.3501Z" fill="#0F7B29"/>
<path d="M8.57989 61.1118C8.61019 61.7913 8.68498 62.468 8.80378 63.1376V64.1731V65.1635L5.8037 65.7037V64.6233V63.5428C5.8037 62.8225 5.57981 62.1022 5.53503 61.3819L8.57989 61.1118Z" fill="#0F7B29"/>
<path d="M8.49042 54.0888C8.49042 55.0342 8.49042 56.0246 8.49042 56.9699H5.44556C5.44556 55.9345 5.44556 54.9441 5.44556 53.9087L8.49042 54.0888Z" fill="#0F7B29"/>
<path d="M8.57987 52.7833L8.5351 53.1885L5.49023 52.9634V52.5132L8.57987 52.7833Z" fill="#0F7B29"/>
<path d="M8.75903 51.0276L8.6247 51.973L5.57983 51.6579L5.71417 50.6675L8.75903 51.0276Z" fill="#0F7B29"/>
<path d="M10.4157 43.3296L10.1471 44.2299L7.19177 43.3746L7.46044 42.4292L10.4157 43.3296Z" fill="#0F7B29"/>
<path d="M10.9083 41.7538L10.5949 42.6542L7.68433 41.7088L7.99777 40.7634L10.9083 41.7538Z" fill="#0F7B29"/>
<path d="M8.89337 49.8572L8.8486 50.1723L5.84851 49.7221L5.89329 49.407L8.89337 49.8572Z" fill="#0F7B29"/>
<path d="M13.2367 36.0815L13.0576 36.4417L10.2814 35.0911L10.5053 34.731L13.2367 36.0815Z" fill="#0F7B29"/>
<path d="M14.0427 34.5059L13.5949 35.3612L10.8635 33.9656L11.3561 33.0203L14.0427 34.5059Z" fill="#0F7B29"/>
<path d="M14.6249 33.4706L14.4906 33.7407L11.804 32.2551L11.9831 31.9399L14.6249 33.4706Z" fill="#0F7B29"/>
<path d="M9.92322 44.9953C9.55422 46.3111 9.27004 47.6494 9.07245 49.0019L6.02759 48.4617C6.02759 47.0211 6.56492 45.6255 6.92313 44.23L9.92322 44.9953Z" fill="#0F7B29"/>
<path d="M12.7442 37.162C12.4756 37.7922 12.1621 38.3775 11.8934 39.0077L11.177 40.8985L8.26648 40.0882L9.07247 38.0623C9.34114 37.3871 9.65458 36.7568 9.92324 36.0815L12.7442 37.162Z" fill="#0F7B29"/>
<path d="M16.1473 31.0845C15.61 31.8948 15.1175 32.6601 14.6249 33.5155L11.983 31.9848C12.4756 31.0845 13.0129 30.2291 13.595 29.3738L16.1473 31.0845Z" fill="#0F7B29"/>
<path d="M16.8637 29.9591L16.6399 30.3192L14.1323 28.5185L14.3562 28.2034L16.8637 29.9591Z" fill="#0F7B29"/>
<path d="M17.9383 28.5186C17.7197 28.7538 17.5248 29.0102 17.3562 29.2839L14.8486 27.4831L15.5203 26.5828L17.9383 28.5186Z" fill="#0F7B29"/>
<path d="M23.1773 22.6662L22.5056 23.3415L20.3563 21.1356L21.0728 20.4153L23.1773 22.6662Z" fill="#0F7B29"/>
<path d="M24.4311 21.5856L23.6699 22.1708L21.6101 19.9199L22.3713 19.2446L24.4311 21.5856Z" fill="#0F7B29"/>
<path d="M18.6548 27.5732L18.4757 27.8433L16.0577 25.9076L16.2816 25.6375L18.6548 27.5732Z" fill="#0F7B29"/>
<path d="M29.2222 17.849L28.9088 18.0741L27.1625 15.5081L27.5207 15.283L29.2222 17.849Z" fill="#0F7B29"/>
<path d="M30.7447 16.8586L29.9387 17.3988L28.282 14.7878L29.1328 14.2476L30.7447 16.8586Z" fill="#0F7B29"/>
<path d="M31.7746 16.2735L31.4612 16.4536L29.9387 13.7975L30.2074 13.6174L31.7746 16.2735Z" fill="#0F7B29"/>
<path d="M21.9235 23.8816L20.5354 25.3672L19.192 26.8978L16.8188 24.917L18.2517 23.2963L19.7294 21.7207L21.9235 23.8816Z" fill="#0F7B29"/>
<path d="M28.2819 18.5244C27.1593 19.2847 26.0828 20.1115 25.058 21.0005L23.0878 18.6145C24.2072 17.7141 25.3266 16.8137 26.4909 16.0034L28.2819 18.5244Z" fill="#0F7B29"/>
<path d="M34.2821 14.923L32.9836 15.5532L31.7298 16.2735L30.2074 13.6174L31.5507 12.8521L32.894 12.1318L34.2821 14.923Z" fill="#0F7B29"/>
<path d="M35.4464 14.3378L35.0882 14.5178L33.7449 11.7267L34.1479 11.5466L35.4464 14.3378Z" fill="#0F7B29"/>
<path d="M37.0584 13.6174L36.1628 14.0226L34.9539 11.1864C35.2437 11.0328 35.5428 10.8975 35.8494 10.7812L37.0584 13.6174Z" fill="#0F7B29"/>
<path d="M44.5361 11.2313L43.5958 11.4114L42.8346 8.44018L43.8645 8.21509L44.5361 11.2313Z" fill="#0F7B29"/>
<path d="M46.1481 10.8712H45.2078L44.5361 7.85497L45.5212 7.62988L46.1481 10.8712Z" fill="#0F7B29"/>
<path d="M38.1777 13.1672L37.8643 13.3023L36.7449 10.4211L37.0583 10.3311L38.1777 13.1672Z" fill="#0F7B29"/>
<path d="M52.1931 10.106H51.7454L51.5215 7.04477L51.9693 6.99976L52.1931 10.106Z" fill="#0F7B29"/>
<path d="M53.9394 10.0159H52.9991L52.8647 6.95469L53.8499 6.90967L53.9394 10.0159Z" fill="#0F7B29"/>
<path d="M55.1036 9.97091H54.7902V6.90967H55.1036V9.97091Z" fill="#0F7B29"/>
<path d="M42.7899 11.6365L40.8645 12.2217L38.9391 12.852L37.9092 9.97081L39.9242 9.25052L41.9839 8.66528L42.7899 11.6365Z" fill="#0F7B29"/>
<path d="M50.9842 10.1511H48.9692H47.9841H46.999L46.4617 7.08984H47.4915H48.5662H50.7155L50.9842 10.1511Z" fill="#0F7B29"/>
<path d="M57.9694 10.0609H55.1036V6.95459C56.1335 6.95459 57.1634 6.95459 58.1485 6.95459L57.9694 10.0609Z" fill="#0F7B29"/>
<path d="M59.268 10.196L58.865 10.1509L59.1337 7.04468L59.5367 7.0897L59.268 10.196Z" fill="#0F7B29"/>
<path d="M61.0591 10.376L60.074 10.2409L60.4322 7.17969L61.4173 7.31474L61.0591 10.376Z" fill="#0F7B29"/>
<path d="M68.716 11.9967L67.8204 11.7266L68.6264 8.75537L69.6115 9.02548L68.716 11.9967Z" fill="#0F7B29"/>
<path d="M70.2831 12.5368L69.3876 12.2217L70.3279 9.25049L71.2682 9.61064L70.2831 12.5368Z" fill="#0F7B29"/>
<path d="M62.2232 10.511L61.9098 10.466L62.3576 7.40479L62.671 7.4498L62.2232 10.511Z" fill="#0F7B29"/>
<path d="M75.8803 14.8779L75.5221 14.6979L76.8654 11.9067L77.2684 12.0868L75.8803 14.8779Z" fill="#0F7B29"/>
<path d="M77.4476 15.6882L76.6416 15.2381L78.0297 12.4919L78.9253 12.9871L77.4476 15.6882Z" fill="#0F7B29"/>
<path d="M78.4774 16.2734L78.2087 16.1384L79.7312 13.4373L80.0446 13.6173L78.4774 16.2734Z" fill="#0F7B29"/>
<path d="M67.0144 11.5015C65.7158 11.1863 64.3725 10.8712 63.074 10.6461L63.5665 7.62988C64.9994 7.85497 66.3875 8.1701 67.7756 8.53024L67.0144 11.5015Z" fill="#0F7B29"/>
<path d="M74.8056 14.3377C74.2235 14.0676 73.5966 13.7524 72.9698 13.5273L71.0891 12.807L72.119 9.88086L74.134 10.6912C74.8056 10.9163 75.4773 11.2764 76.1042 11.5465L74.8056 14.3377Z" fill="#0F7B29"/>
<path d="M80.9403 17.8041C80.1462 17.2516 79.3241 16.7407 78.4775 16.2735L80.0447 13.6174C80.9403 14.0676 81.7463 14.6528 82.6418 15.1931L80.9403 17.8041Z" fill="#0F7B29"/>
<path d="M82.015 18.5243L81.6567 18.2992L83.4031 15.7332L83.7613 16.0033L82.015 18.5243Z" fill="#0F7B29"/>
<path d="M83.403 19.5598L82.6865 19.0196L84.5224 16.4985L85.3284 17.1288L83.403 19.5598Z" fill="#0F7B29"/>
<path d="M89.2688 24.872L88.5972 24.1968L90.7913 22.0359L91.5077 22.7562L89.2688 24.872Z" fill="#0F7B29"/>
<path d="M90.3436 26.0875L89.7167 25.3672L92.0003 23.2964L92.672 24.0617L90.3436 26.0875Z" fill="#0F7B29"/>
<path d="M84.3433 20.3252L84.1194 20.1001L86 17.7141L86.2687 17.8942L84.3433 20.3252Z" fill="#0F7B29"/>
<path d="M94.06 31.0845L93.8361 30.7244L96.3436 29.0137L96.6123 29.3738L94.06 31.0845Z" fill="#0F7B29"/>
<path d="M95.0004 32.4802L94.5078 31.6698L97.1049 30.0042L97.6422 30.8595L95.0004 32.4802Z" fill="#0F7B29"/>
<path d="M95.5824 33.4705L95.4481 33.2004L98.09 31.6248L98.2691 31.9399L95.5824 33.4705Z" fill="#0F7B29"/>
<path d="M88.0151 23.6116L86.5374 22.171L85.015 20.8655L86.9852 18.4795L88.642 19.9201L90.1644 21.4057L88.0151 23.6116Z" fill="#0F7B29"/>
<path d="M93.3884 29.9592C92.6272 28.8787 91.7764 27.7983 90.9257 26.7629L93.2541 24.7371C94.1979 25.8424 95.0799 26.9997 95.896 28.2035L93.3884 29.9592Z" fill="#0F7B29"/>
<path d="M96.9705 35.9916L96.1198 34.7311C95.9077 34.2961 95.6684 33.8751 95.4033 33.4706L98.09 31.9399C98.3139 32.3901 98.5825 32.7953 98.8512 33.2455L99.5228 34.641L96.9705 35.9916Z" fill="#0F7B29"/>
<path d="M97.5079 37.207L97.3735 36.8019L100.15 35.4963L100.329 35.9015L97.5079 37.207Z" fill="#0F7B29"/>
<path d="M98.2243 38.8276C98.1243 38.5201 98.0046 38.2193 97.8661 37.9273L100.687 36.6667L101.09 37.6121L98.2243 38.8276Z" fill="#0F7B29"/>
<path d="M100.642 46.3457L100.418 45.4003L103.419 44.635L103.642 45.6254L100.642 46.3457Z" fill="#0F7B29"/>
<path d="M101 47.9213C101 47.6062 101 47.2911 101 46.976L104.001 46.3457C104.001 46.6608 104.001 47.021 104.001 47.3361L101 47.9213Z" fill="#0F7B29"/>
<path d="M98.6721 39.9081L98.5825 39.638L101.404 38.4675L101.538 38.7827L98.6721 39.9081Z" fill="#0F7B29"/>
<path d="M101.762 53.9989L101.717 53.5937L104.807 53.3687L104.851 53.8188L101.762 53.9989Z" fill="#0F7B29"/>
<path d="M101.851 55.7995L101.807 54.8541L104.896 54.6741V55.7095L101.851 55.7995Z" fill="#0F7B29"/>
<path d="M101.851 56.9699V56.6548H104.941V56.9699H101.851Z" fill="#0F7B29"/>
<path d="M100.239 44.59C100.015 43.9597 99.881 43.2844 99.6571 42.6542L98.9855 40.7184L101.896 39.6379L102.568 41.7088C102.792 42.3841 102.971 43.1044 103.195 43.7796L100.239 44.59Z" fill="#0F7B29"/>
<path d="M101.672 52.8285C101.672 52.1532 101.672 51.4779 101.448 50.8026V49.7672V48.7768L104.493 48.2366V49.317V50.3975C104.612 51.1124 104.687 51.8341 104.717 52.5583L101.672 52.8285Z" fill="#0F7B29"/>
<path d="M55.1036 99.4224C78.4239 99.4224 97.3287 80.4158 97.3287 56.9701C97.3287 33.5244 78.4239 14.5178 55.1036 14.5178C31.7834 14.5178 12.8785 33.5244 12.8785 56.9701C12.8785 80.4158 31.7834 99.4224 55.1036 99.4224Z" stroke="#4DCA2E" stroke-width="0.187778" stroke-miterlimit="10" stroke-linecap="square" stroke-dasharray="0.7 0.7"/>
<path d="M73.3281 54.0889C75.1436 52.1349 76.1521 49.5599 76.1491 46.8859V45.6704C76.1491 42.5023 74.9004 39.4632 72.6764 37.2188C70.4523 34.9744 67.4343 33.7075 64.2831 33.6956H62.492V23.4314H56.0888V33.6956H51.3424V23.4314H44.8049V33.6956H31.8643V40.6284H40.1481V74.077H32.9837L31.8643 81.0098H44.8049V91.0039H51.3424V81.0098H56.2679V91.0039H62.6711V81.0098H67.1489C70.7116 81.0098 74.1283 79.5869 76.6476 77.0542C79.1668 74.5214 80.5821 71.0862 80.5821 67.5043V66.0638C80.579 63.5914 79.9009 61.1673 78.6218 59.0558C77.3427 56.9442 75.5116 55.2262 73.3281 54.0889ZM51.3424 40.0882H60.2979C61.7248 40.2153 63.0526 40.8751 64.0197 41.9375C64.9869 42.9998 65.5233 44.3878 65.5233 45.828C65.5233 47.2682 64.9869 48.6562 64.0197 49.7186C63.0526 50.7809 61.7248 51.4407 60.2979 51.5678H51.3424V40.0882ZM61.686 74.3921H51.3424V59.221H61.686C63.6574 59.221 65.548 60.0083 66.942 61.4098C68.3359 62.8112 69.1191 64.712 69.1191 66.694C69.1191 68.676 68.3359 70.5768 66.942 71.9782C65.548 73.3797 63.6574 74.167 61.686 74.167V74.3921Z" stroke="#4DCA2E" stroke-width="1.50222" stroke-miterlimit="10"/>
<path style="mix-blend-mode:screen" d="M55.1036 4.97387C67.0816 4.95479 78.6954 9.11265 87.9655 16.7388C97.2356 24.3649 103.588 34.9872 105.94 46.7951C108.293 58.603 106.499 70.8656 100.865 81.4928C95.2312 92.1199 86.1058 100.454 75.0444 105.074C63.9831 109.694 51.6703 110.314 40.205 106.829C28.7396 103.344 18.8313 95.9689 12.169 85.9612C5.50663 75.9535 2.50262 63.9326 3.66898 51.9474C4.83535 39.9622 10.0999 28.7547 18.5653 20.2351C23.345 15.3828 29.0369 11.5346 35.3097 8.91462C41.5826 6.2946 48.311 4.95504 55.1036 4.97387ZM55.1036 2.0927C44.3023 2.06597 33.7359 5.26174 24.7421 11.2755C15.7482 17.2892 8.73115 25.8505 4.57923 35.8756C0.42732 45.9008 -0.6728 56.939 1.41813 67.593C3.50905 78.2471 8.69702 88.0379 16.3253 95.7262C23.9536 103.414 33.6792 108.654 44.271 110.783C54.8629 112.911 65.8447 111.832 75.8264 107.683C85.8081 103.533 94.3408 96.4997 100.345 87.4722C106.348 78.4448 109.553 67.8295 109.553 56.97C109.553 49.7596 108.14 42.6199 105.394 35.959C102.648 29.298 98.6232 23.2464 93.5499 18.15C88.4766 13.0536 82.4541 9.01225 75.8265 6.25706C69.199 3.50186 62.0963 2.08678 54.9245 2.0927H55.1036Z" fill="url(#paint1_linear_534_4451)"/>
<path style="mix-blend-mode:screen" d="M54.998 104.721C81.1611 104.721 102.37 83.3988 102.37 57.097C102.37 30.7952 81.1611 9.47339 54.998 9.47339C28.835 9.47339 7.62561 30.7952 7.62561 57.097C7.62561 83.3988 28.835 104.721 54.998 104.721Z" fill="url(#paint2_linear_534_4451)"/>
<path style="mix-blend-mode:screen" d="M254.71 110.277C284.361 110.277 308.399 86.1118 308.399 56.303C308.399 26.4943 284.361 2.32959 254.71 2.32959C225.058 2.32959 201.021 26.4943 201.021 56.303C201.021 86.1118 225.058 110.277 254.71 110.277Z" fill="url(#paint3_linear_534_4451)"/>
</g>
<defs>
<linearGradient id="paint0_linear_534_4451" x1="266.275" y1="2.81299" x2="242.39" y2="109.272" gradientUnits="userSpaceOnUse">
<stop stop-color="#1BD242"/>
<stop offset="0.01" stop-color="#0FD258"/>
<stop offset="0.03" stop-color="#07D368"/>
<stop offset="0.04" stop-color="#02D371"/>
<stop offset="0.06" stop-color="#00C66D"/>
<stop offset="0.07" stop-color="#009D56"/>
<stop offset="0.09" stop-color="#007741"/>
<stop offset="0.1" stop-color="#005730"/>
<stop offset="0.11" stop-color="#003B21"/>
<stop offset="0.13" stop-color="#002515"/>
<stop offset="0.15" stop-color="#00140B"/>
<stop offset="0.17" stop-color="#000905"/>
<stop offset="0.2" stop-color="#000201"/>
<stop offset="0.29"/>
</linearGradient>
<linearGradient id="paint1_linear_534_4451" x1="91.9106" y1="17.9842" x2="20.2223" y2="93.1407" gradientUnits="userSpaceOnUse">
<stop offset="0.01" stop-color="#00D23D"/>
<stop offset="0.08" stop-color="#00D374"/>
<stop offset="0.09" stop-color="#00C66D"/>
<stop offset="0.11" stop-color="#009D56"/>
<stop offset="0.12" stop-color="#007741"/>
<stop offset="0.14" stop-color="#005730"/>
<stop offset="0.17" stop-color="#003B21"/>
<stop offset="0.19" stop-color="#002515"/>
<stop offset="0.22" stop-color="#00140B"/>
<stop offset="0.26" stop-color="#000905"/>
<stop offset="0.31" stop-color="#000201"/>
<stop offset="0.45"/>
<stop offset="0.87"/>
<stop offset="0.94"/>
<stop offset="0.95" stop-color="#000301"/>
<stop offset="0.96" stop-color="#020E05"/>
<stop offset="0.98" stop-color="#041F0C"/>
<stop offset="0.99" stop-color="#083716"/>
<stop offset="1" stop-color="#0C5823"/>
</linearGradient>
<linearGradient id="paint2_linear_534_4451" x1="83.7168" y1="26.7414" x2="30.3365" y2="82.6389" gradientUnits="userSpaceOnUse">
<stop stop-color="#07570E"/>
<stop offset="0.03" stop-color="#07510D"/>
<stop offset="0.19" stop-color="#043408"/>
<stop offset="0.35" stop-color="#021D05"/>
<stop offset="0.53" stop-color="#010D02"/>
<stop offset="0.73" stop-color="#000300"/>
<stop offset="1"/>
</linearGradient>
<linearGradient id="paint3_linear_534_4451" x1="287.214" y1="21.8999" x2="226.716" y2="85.2505" gradientUnits="userSpaceOnUse">
<stop stop-color="#07570E"/>
<stop offset="0.03" stop-color="#07510D"/>
<stop offset="0.19" stop-color="#043408"/>
<stop offset="0.35" stop-color="#021D05"/>
<stop offset="0.53" stop-color="#010D02"/>
<stop offset="0.73" stop-color="#000300"/>
<stop offset="1"/>
</linearGradient>
<clipPath id="clip0_534_4451">
<rect width="310.209" height="111.916" fill="white" transform="translate(0.52002 0.742188)"/>
</clipPath>
</defs>
</svg>
