<svg width="514" height="373" viewBox="0 0 514 373" fill="none" xmlns="http://www.w3.org/2000/svg">
<path opacity="0.3" d="M132.453 296.521L150.335 286.208" stroke="white" stroke-width="0.813981" stroke-miterlimit="10"/>
<path opacity="0.3" d="M385.617 237.303C385.736 194.913 326.446 160.383 253.191 160.179C179.935 159.975 120.453 194.173 120.335 236.562C120.216 278.952 179.506 313.482 252.761 313.686C326.017 313.89 385.499 279.692 385.617 237.303Z" stroke="white" stroke-width="0.813981" stroke-miterlimit="10"/>
<path opacity="0.3" d="M366.368 277.775L396.525 295.167" stroke="white" stroke-width="0.813981" stroke-miterlimit="10"/>
<path d="M336.666 230.301C336.666 230.728 336.621 231.147 336.576 231.565C336.532 231.984 336.487 232.304 336.434 232.67C336.38 233.035 336.318 233.507 336.238 233.916C336.158 234.326 336.095 234.655 336.006 235.029C335.917 235.403 335.819 235.84 335.712 236.249C335.605 236.659 335.498 236.989 335.391 237.354C335.284 237.719 335.132 238.164 334.99 238.565C334.847 238.966 334.722 239.286 334.58 239.651C334.437 240.016 334.232 240.488 334.045 240.907C333.858 241.325 333.724 241.619 333.546 241.975C333.367 242.332 333.127 242.813 332.904 243.222C332.681 243.632 332.529 243.899 332.333 244.237C332.048 244.736 331.736 245.235 331.442 245.725L330.863 246.615C330.488 247.158 330.087 247.693 329.677 248.227L329.151 248.939C328.474 249.785 327.743 250.631 326.976 251.468C326.78 251.682 326.566 251.896 326.361 252.11C325.755 252.742 325.122 253.374 324.462 253.989C324.159 254.274 323.865 254.559 323.571 254.879C323.277 255.2 322.777 255.583 322.367 255.93C321.957 256.277 321.61 256.571 321.209 256.892C320.807 257.212 320.317 257.577 319.907 257.916L318.65 258.851C318.196 259.189 317.714 259.519 317.242 259.848L315.905 260.739L314.38 261.7C313.739 262.101 313.106 262.502 312.437 262.885C311.189 263.615 309.897 264.301 308.586 264.978L307.445 265.548C306.42 266.046 305.386 266.536 304.334 267.008L303.273 267.48C301.91 268.077 300.51 268.647 299.093 269.181L298.335 269.457C297.141 269.902 295.928 270.347 294.707 270.73L293.183 271.229C292.505 271.434 291.828 271.648 291.141 271.843L289.412 272.342C288.717 272.538 288.021 272.716 287.317 272.903L285.534 273.34L283.386 273.838L281.603 274.221L279.401 274.658L277.717 274.969C276.148 275.245 274.57 275.504 272.983 275.726L272.288 275.815C270.906 276.002 269.516 276.163 268.125 276.305C267.599 276.367 267.064 276.412 266.53 276.465C265.638 276.545 264.747 276.626 263.855 276.688L262.162 276.804C261.217 276.866 260.272 276.911 259.336 276.946L257.749 277.017L255.298 277.062H253.586H250.974C250.457 277.062 249.94 277.062 249.423 277.062C248.63 277.062 247.837 277.008 247.052 276.973L245.323 276.857C244.476 276.813 243.629 276.741 242.782 276.688L241.267 276.581C240.242 276.492 239.226 276.385 238.209 276.278L237.229 276.189C235.892 276.038 234.555 275.869 233.235 275.682L232.531 275.575C231.417 275.406 230.294 275.236 229.188 275.049C228.707 274.96 228.235 274.862 227.753 274.782L225.186 274.292C224.731 274.194 224.295 274.088 223.831 273.999C222.94 273.794 221.959 273.589 221.023 273.357L219.463 272.966C218.616 272.752 217.769 272.529 216.931 272.298L215.496 271.888C214.165 271.508 212.846 271.098 211.538 270.659L210.843 270.436C209.337 269.929 207.866 269.386 206.386 268.816C205.798 268.593 205.209 268.353 204.603 268.112L203.213 267.533C202.553 267.248 201.911 266.955 201.261 266.643L199.995 266.064C199.29 265.735 198.595 265.378 197.909 265.031L196.875 264.515C195.853 263.98 194.845 263.428 193.853 262.858C177.335 253.33 169.081 240.827 169.116 228.333V242.243C169.116 254.71 177.335 267.24 193.853 276.768C194.842 277.338 195.85 277.89 196.866 278.424L197.909 278.941C198.595 279.297 199.29 279.644 199.995 279.974C200.414 280.179 200.842 280.366 201.269 280.562C201.911 280.856 202.553 281.149 203.213 281.452L204.612 282.031C205.049 282.218 205.504 282.405 205.94 282.583L206.359 282.735C207.821 283.304 209.292 283.848 210.816 284.355L211.512 284.578C212.822 285.014 214.141 285.424 215.478 285.807L216.138 286.012L216.905 286.216L219.445 286.893L221.005 287.276C221.897 287.508 222.877 287.713 223.822 287.917L224.874 288.158L225.159 288.211L227.762 288.701L229.162 288.968C230.276 289.155 231.39 289.324 232.513 289.494L233.173 289.6C234.501 289.787 235.847 289.957 237.175 290.108L238.013 290.188C239.074 290.304 240.144 290.411 241.214 290.5H241.285L242.658 290.589C243.549 290.651 244.396 290.722 245.269 290.767L246.919 290.838C247.73 290.838 248.532 290.909 249.343 290.927H249.53H250.876H253.506H255.218C256.029 290.927 256.849 290.927 257.669 290.883H258.115L259.256 290.82C260.147 290.82 261.137 290.74 262.072 290.678L263.766 290.562C264.658 290.5 265.549 290.42 266.44 290.34L267.376 290.259C267.599 290.259 267.813 290.206 268.036 290.179C269.427 290.037 270.817 289.876 272.19 289.689L272.885 289.6C274.472 289.378 276.059 289.12 277.628 288.843L278.064 288.772C278.483 288.701 278.893 288.612 279.303 288.532L281.505 288.095L283.288 287.713C284.01 287.552 284.723 287.392 285.436 287.214L287.219 286.777C287.914 286.59 288.619 286.412 289.314 286.216L291.043 285.718C291.73 285.522 292.407 285.308 293.085 285.094C293.379 285.005 293.682 284.925 293.976 284.827C294.27 284.729 294.386 284.676 294.6 284.614C295.821 284.204 297.034 283.776 298.228 283.34L298.995 283.055C300.409 282.521 301.803 281.954 303.175 281.354L304.236 280.882C305.288 280.41 306.322 279.92 307.338 279.422L308.488 278.852C309.799 278.175 311.091 277.489 312.339 276.759C312.687 276.563 313.025 276.358 313.364 276.154C313.703 275.949 313.97 275.771 314.256 275.575C314.764 275.254 315.281 274.942 315.771 274.613C316.261 274.283 316.662 274.016 317.108 273.722C317.554 273.429 318.062 273.063 318.525 272.725L319.773 271.79C320.219 271.452 320.665 271.113 321.084 270.766L322.234 269.804C322.653 269.457 323.054 269.101 323.446 268.753C323.606 268.602 323.785 268.468 323.945 268.317L324.355 267.907C325.024 267.284 325.657 266.652 326.263 266.011C326.468 265.806 326.673 265.592 326.869 265.378C327.645 264.541 328.367 263.704 329.044 262.849L329.142 262.733C329.294 262.538 329.427 262.333 329.579 262.137C329.989 261.603 330.381 261.068 330.756 260.525C330.961 260.222 331.148 259.928 331.344 259.634C331.656 259.145 331.968 258.646 332.235 258.147L332.485 257.747C332.601 257.542 332.69 257.337 332.797 257.141C333.02 256.722 333.243 256.304 333.448 255.885C333.653 255.467 333.786 255.173 333.938 254.826C334.089 254.478 334.303 253.98 334.473 253.552C334.553 253.365 334.642 253.178 334.713 252.991C334.785 252.804 334.82 252.644 334.883 252.475C335.025 252.074 335.159 251.664 335.284 251.264C335.409 250.863 335.507 250.524 335.614 250.159C335.721 249.794 335.819 249.349 335.908 248.939C335.961 248.717 336.024 248.494 336.068 248.28C336.113 248.067 336.113 247.978 336.14 247.826C336.22 247.417 336.282 246.998 336.336 246.579C336.389 246.161 336.434 245.84 336.478 245.475C336.523 245.11 336.541 244.638 336.568 244.22C336.568 243.97 336.612 243.721 336.621 243.472C336.63 243.222 336.621 242.982 336.621 242.741V228.831C336.728 229.321 336.692 229.811 336.666 230.301Z" fill="url(#paint0_linear_468_9)"/>
<path d="M312.001 196.319C344.831 215.251 344.983 245.947 312.384 264.889C279.785 283.83 226.737 283.83 193.907 264.889C161.076 245.947 160.925 215.26 193.524 196.319C226.122 177.377 279.197 177.386 312.001 196.319Z" fill="#36872F"/>
<path d="M312.001 194.315C344.831 213.248 344.983 243.944 312.384 262.885C279.785 281.826 226.737 281.826 193.907 262.885C161.076 243.944 160.925 213.257 193.523 194.315C226.122 175.374 279.197 175.383 312.001 194.315Z" fill="url(#paint1_linear_468_9)"/>
<path d="M312.178 218.181C312.178 218.475 312.178 218.778 312.116 219.072C312.053 219.365 312.053 219.588 312.018 219.846C311.982 220.105 311.929 220.443 311.875 220.737C311.822 221.031 311.777 221.253 311.715 221.512C311.652 221.77 311.581 222.09 311.501 222.402C311.421 222.714 311.358 222.919 311.278 223.177C311.198 223.435 311.091 223.756 310.993 224.067C310.895 224.379 310.805 224.575 310.699 224.824C310.592 225.074 310.458 225.43 310.324 225.715L309.976 226.463C309.825 226.766 309.673 227.059 309.513 227.353C309.353 227.647 309.254 227.834 309.121 228.066C308.987 228.297 308.693 228.769 308.461 229.117C308.229 229.464 308.194 229.544 308.051 229.749C307.793 230.141 307.507 230.524 307.213 230.898C307.088 231.067 306.972 231.236 306.839 231.396C306.366 232.002 305.849 232.598 305.306 233.177L304.869 233.631C304.441 234.077 303.995 234.522 303.532 234.967L302.881 235.564L301.989 236.312C301.722 236.535 301.455 236.766 301.169 236.989C300.884 237.211 300.563 237.479 300.278 237.719C299.993 237.959 299.699 238.155 299.387 238.378L298.388 239.081C298.076 239.295 297.764 239.509 297.443 239.714C297.122 239.919 296.73 240.177 296.365 240.399C295.999 240.622 295.473 240.969 294.992 241.237C293.708 241.985 292.362 242.67 290.998 243.338L289.911 243.846C288.672 244.416 287.415 244.959 286.122 245.466C285.944 245.529 285.784 245.609 285.614 245.671C284.224 246.197 282.797 246.678 281.362 247.123C280.355 247.443 279.33 247.719 278.305 248.013C277.529 248.227 276.763 248.45 275.978 248.646C274.9 248.904 273.803 249.118 272.707 249.34C271.904 249.501 271.12 249.688 270.318 249.821C269.988 249.883 269.649 249.928 269.31 249.981C267.955 250.204 266.592 250.4 265.21 250.56L264.015 250.712C262.417 250.884 260.812 251.017 259.202 251.112L258.31 251.157C257.232 251.21 256.144 251.228 255.057 251.246C253.969 251.264 252.891 251.246 251.812 251.246C250.921 251.246 250.029 251.246 249.138 251.175C248.246 251.103 247.132 251.086 246.134 251.014C245.135 250.943 244.351 250.872 243.397 250.783C242.443 250.694 241.418 250.578 240.438 250.453C239.457 250.329 238.655 250.222 237.763 250.079C236.712 249.919 235.66 249.732 234.626 249.536C233.592 249.34 232.442 249.126 231.372 248.877L230.596 248.708C229.081 248.343 227.601 247.942 226.139 247.506L224.891 247.123C223.67 246.74 222.476 246.33 221.326 245.894L220.301 245.511C219.222 245.101 218.188 244.62 217.154 244.175C216.646 243.953 216.12 243.748 215.621 243.516C214.132 242.804 212.67 242.056 211.28 241.245C204.71 237.461 199.985 232.999 197.124 228.262C196.5 227.234 195.952 226.163 195.484 225.056C195.252 224.521 195.056 223.978 194.869 223.435C194.154 221.311 193.79 219.086 193.79 216.845V226.641C193.79 235.475 199.593 244.309 211.28 251.05C212.67 251.851 214.123 252.608 215.621 253.312C216.12 253.552 216.646 253.757 217.154 253.98C218.045 254.372 218.937 254.781 219.828 255.137L220.31 255.316C220.648 255.449 220.996 255.565 221.344 255.69C222.52 256.126 223.715 256.536 224.909 256.919L226.157 257.31L226.995 257.569C228.19 257.907 229.402 258.21 230.623 258.504L231.39 258.682C231.987 258.815 232.575 258.958 233.173 259.083C233.77 259.207 234.162 259.243 234.652 259.341C235.695 259.537 236.738 259.715 237.79 259.884C238.209 259.946 238.628 260.044 239.047 260.098C239.466 260.151 239.938 260.196 240.438 260.258C241.418 260.383 242.408 260.489 243.397 260.587C243.87 260.632 244.333 260.703 244.806 260.748C245.278 260.792 245.697 260.748 246.134 260.819C247.132 260.881 248.13 260.935 249.138 260.979C249.637 260.979 250.136 261.042 250.644 261.059C251.152 261.077 251.447 261.059 251.848 261.059C252.935 261.059 254.014 261.059 255.092 261.059C255.636 261.059 256.171 261.059 256.706 261.059C257.241 261.059 257.793 261.006 258.346 260.979L259.237 260.935C260.592 260.855 261.912 260.757 263.276 260.623L264.042 260.534L265.246 260.392C266.627 260.222 267.991 260.035 269.346 259.813L270.353 259.652L270.835 259.572C271.477 259.457 272.101 259.296 272.742 259.172C273.839 258.949 274.935 258.726 276.014 258.468C276.798 258.281 277.565 258.049 278.34 257.845C279.365 257.56 280.391 257.284 281.389 256.954C281.612 256.883 281.835 256.838 282.049 256.767C283.27 256.375 284.464 255.948 285.614 255.494C285.793 255.431 285.953 255.36 286.122 255.289C287.424 254.79 288.681 254.247 289.92 253.677L291.007 253.161C292.371 252.502 293.682 251.807 295.001 251.068L295.723 250.64L296.374 250.231L297.452 249.545C297.773 249.34 298.085 249.126 298.397 248.904C298.709 248.681 299.075 248.441 299.395 248.2C299.716 247.96 299.993 247.764 300.287 247.541C300.581 247.319 300.911 247.06 301.178 246.82C301.446 246.58 301.731 246.366 301.998 246.134C302.266 245.903 302.578 245.645 302.89 245.395C303.006 245.288 303.13 245.19 303.237 245.084L303.541 244.79C304.004 244.35 304.45 243.905 304.878 243.454L305.314 243.009C305.858 242.412 306.366 241.815 306.848 241.228L306.919 241.147L307.231 240.72C307.516 240.346 307.801 239.963 308.06 239.58C308.203 239.366 308.336 239.153 308.479 238.948C308.702 238.601 308.916 238.244 309.121 237.897C309.183 237.799 309.246 237.71 309.299 237.612C309.352 237.514 309.451 237.318 309.522 237.176C309.682 236.882 309.834 236.588 309.985 236.285L310.333 235.537C310.467 235.234 310.592 234.941 310.707 234.647C310.761 234.513 310.832 234.38 310.877 234.246L311.002 233.881C311.1 233.596 311.198 233.311 311.287 232.99C311.376 232.67 311.438 232.474 311.51 232.207C311.581 231.939 311.661 231.637 311.724 231.316C311.724 231.165 311.804 231.004 311.84 230.853C311.875 230.702 311.84 230.639 311.84 230.532C311.893 230.239 311.938 229.945 311.982 229.642C312.027 229.339 312.053 229.125 312.08 228.867C312.107 228.609 312.125 228.271 312.143 227.977C312.143 227.807 312.143 227.629 312.143 227.46C312.143 227.291 312.143 227.113 312.143 226.935V217.139C312.178 217.486 312.178 217.834 312.178 218.181Z" fill="url(#paint2_linear_468_9)"/>
<path d="M294.707 194.734C317.884 208.091 318.036 229.82 294.966 243.213C271.896 256.607 234.404 256.571 211.173 243.213C187.943 229.856 187.836 208.127 210.897 194.743C233.958 181.358 271.495 181.349 294.707 194.734Z" fill="#36872F"/>
<path d="M294.707 192.73C317.884 206.088 318.036 227.817 294.966 241.21C271.896 254.603 234.404 254.568 211.173 241.21C187.943 227.852 187.836 206.124 210.897 192.739C233.958 179.355 271.495 179.346 294.707 192.73Z" fill="url(#paint3_linear_468_9)"/>
<path d="M271.228 198.607C281.399 204.475 281.453 213.986 271.344 219.855C261.235 225.723 244.807 225.723 234.636 219.855C224.465 213.986 224.411 204.475 234.52 198.607C244.628 192.738 261.057 192.738 271.228 198.607Z" fill="#338A2E"/>
<path d="M234.519 200.548C244.628 194.671 261.057 194.671 271.228 200.548C275.917 203.219 278.43 206.728 278.814 210.272C279.286 206.087 276.772 201.812 271.228 198.615C261.057 192.747 244.628 192.747 234.519 198.615C229.073 201.786 226.604 206.007 227.049 210.139C227.495 206.639 229.92 203.211 234.519 200.548Z" fill="#0A8901"/>
<path d="M273.355 114.377C273.059 112.086 272.019 109.955 270.395 108.312C269.116 107.017 267.542 106.052 265.808 105.498C265.027 105.226 264.23 104.988 263.44 104.733C264.073 104.354 264.731 104.115 265.356 103.803C267.494 102.804 269.271 101.169 270.445 99.1203C271.239 97.7594 271.699 96.2297 271.789 94.6564C271.879 93.083 271.596 91.5106 270.962 90.068C270.413 88.6997 269.555 87.4773 268.455 86.4964C266.177 84.514 263.331 83.3016 260.325 83.0319C259.856 82.9825 259.675 82.8097 259.683 82.3159C259.683 80.1269 259.683 77.9297 259.683 75.7324C259.683 75 259.683 75 258.935 75H253.896C253.074 75 253.074 75 253.074 75.8229V82.0032C253.074 82.6533 253.074 82.6533 252.408 82.6533C251.471 82.6533 250.534 82.6533 249.596 82.6533C249.128 82.6533 248.963 82.5299 248.972 82.0443C248.972 79.9212 248.972 77.7898 248.972 75.6666C248.972 75.181 248.856 75 248.339 75.0082C246.546 75.0082 244.746 75.0082 242.954 75.0082C242.452 75.0082 242.296 75.1564 242.304 75.6501C242.304 77.7486 242.304 79.8389 242.304 81.9374C242.304 82.6451 242.304 82.6451 241.597 82.6451C237.429 82.6451 233.261 82.6451 229.094 82.6451C228.658 82.6451 228.469 82.7603 228.477 83.2294C228.477 85.0398 228.477 86.8585 228.477 88.669C228.477 89.0969 228.625 89.2532 229.061 89.2368C230.015 89.2108 230.97 89.2382 231.921 89.3191C232.445 89.3416 232.94 89.5608 233.309 89.9331C233.678 90.3053 233.893 90.8031 233.911 91.327C233.911 92.0512 233.993 92.7754 233.993 93.4996C233.993 101.795 233.993 110.09 233.993 118.385C233.993 119.159 233.993 119.932 233.919 120.706C233.926 120.976 233.878 121.245 233.777 121.496C233.676 121.746 233.526 121.974 233.334 122.164C233.142 122.355 232.914 122.504 232.662 122.603C232.411 122.701 232.142 122.748 231.872 122.739C230.968 122.821 230.064 122.813 229.159 122.821C228.526 122.821 228.485 122.862 228.485 123.496C228.485 125.224 228.485 126.96 228.485 128.688C228.485 129.396 228.485 129.404 229.2 129.404H241.655C242.304 129.404 242.304 129.404 242.304 130.071C242.304 132.375 242.304 134.688 242.304 136.992H248.93V130.318C248.93 129.297 248.832 129.413 249.868 129.404C250.69 129.404 251.512 129.404 252.383 129.404C252.877 129.404 253.041 129.52 253.033 130.03C253.033 132.145 253.033 134.251 253.033 136.358C253.033 136.572 253.033 136.786 253.033 137H259.651C259.651 134.531 259.651 132.062 259.651 129.635C259.651 129.116 259.823 128.968 260.316 128.902C263.365 128.616 266.272 127.476 268.702 125.611C272.278 122.689 273.963 119.002 273.355 114.377ZM245.675 90.932C245.675 90.463 245.815 90.2984 246.292 90.3066C248.454 90.3066 250.608 90.3066 252.761 90.3066C254.31 90.2758 255.853 90.5095 257.324 90.9979C258.406 91.4135 259.305 92.2022 259.858 93.2221C260.411 94.2419 260.582 95.4259 260.341 96.5609C259.955 99.0297 258.22 100.676 255.491 101.12C253.623 101.435 251.729 101.57 249.835 101.523C248.667 101.523 247.5 101.523 246.333 101.523C245.839 101.523 245.667 101.383 245.675 100.881C245.675 99.2355 245.675 97.5484 245.675 95.8861C245.675 94.2238 245.675 92.5944 245.675 90.932ZM256.51 121.298C255.104 121.647 253.66 121.821 252.211 121.817C250.465 121.883 248.717 121.858 246.974 121.743C246.681 121.763 246.391 121.666 246.17 121.473C245.948 121.281 245.811 121.008 245.79 120.714C245.681 119.979 245.642 119.235 245.675 118.492C245.675 117.184 245.675 115.883 245.675 114.583C245.675 112.699 245.675 110.822 245.675 108.946C245.675 108.658 245.782 108.559 246.045 108.559C248.273 108.559 250.492 108.51 252.712 108.617C253.782 108.632 254.851 108.717 255.91 108.872C257.694 109.201 259.33 109.851 260.357 111.448C260.89 112.324 261.213 113.313 261.3 114.335C261.388 115.358 261.237 116.387 260.86 117.341C260.484 118.295 259.891 119.149 259.129 119.836C258.367 120.523 257.457 121.023 256.469 121.298H256.51Z" fill="white"/>
<g filter="url(#filter0_f_468_9)">
<path d="M273.355 114.377C273.059 112.086 272.019 109.955 270.395 108.312C269.116 107.017 267.542 106.052 265.808 105.498C265.027 105.226 264.23 104.988 263.44 104.733C264.073 104.354 264.731 104.115 265.356 103.803C267.494 102.804 269.271 101.169 270.445 99.1203C271.239 97.7594 271.699 96.2297 271.789 94.6564C271.879 93.083 271.596 91.5106 270.962 90.068C270.413 88.6997 269.555 87.4773 268.455 86.4964C266.177 84.514 263.331 83.3016 260.325 83.0319C259.856 82.9825 259.675 82.8097 259.683 82.3159C259.683 80.1269 259.683 77.9297 259.683 75.7324C259.683 75 259.683 75 258.935 75H253.896C253.074 75 253.074 75 253.074 75.8229V82.0032C253.074 82.6533 253.074 82.6533 252.408 82.6533C251.471 82.6533 250.534 82.6533 249.596 82.6533C249.128 82.6533 248.963 82.5299 248.972 82.0443C248.972 79.9212 248.972 77.7898 248.972 75.6666C248.972 75.181 248.856 75 248.339 75.0082C246.546 75.0082 244.746 75.0082 242.954 75.0082C242.452 75.0082 242.296 75.1564 242.304 75.6501C242.304 77.7486 242.304 79.8389 242.304 81.9374C242.304 82.6451 242.304 82.6451 241.597 82.6451C237.429 82.6451 233.261 82.6451 229.094 82.6451C228.658 82.6451 228.469 82.7603 228.477 83.2294C228.477 85.0398 228.477 86.8585 228.477 88.669C228.477 89.0969 228.625 89.2532 229.061 89.2368C230.015 89.2108 230.97 89.2382 231.921 89.3191C232.445 89.3416 232.94 89.5608 233.309 89.9331C233.678 90.3053 233.893 90.8031 233.911 91.327C233.911 92.0512 233.993 92.7754 233.993 93.4996C233.993 101.795 233.993 110.09 233.993 118.385C233.993 119.159 233.993 119.932 233.919 120.706C233.926 120.976 233.878 121.245 233.777 121.496C233.676 121.746 233.526 121.974 233.334 122.164C233.142 122.355 232.914 122.504 232.662 122.603C232.411 122.701 232.142 122.748 231.872 122.739C230.968 122.821 230.064 122.813 229.159 122.821C228.526 122.821 228.485 122.862 228.485 123.496C228.485 125.224 228.485 126.96 228.485 128.688C228.485 129.396 228.485 129.404 229.2 129.404H241.655C242.304 129.404 242.304 129.404 242.304 130.071C242.304 132.375 242.304 134.688 242.304 136.992H248.93V130.318C248.93 129.297 248.832 129.413 249.868 129.404C250.69 129.404 251.512 129.404 252.383 129.404C252.877 129.404 253.041 129.52 253.033 130.03C253.033 132.145 253.033 134.251 253.033 136.358C253.033 136.572 253.033 136.786 253.033 137H259.651C259.651 134.531 259.651 132.062 259.651 129.635C259.651 129.116 259.823 128.968 260.316 128.902C263.365 128.616 266.272 127.476 268.702 125.611C272.278 122.689 273.963 119.002 273.355 114.377ZM245.675 90.932C245.675 90.463 245.815 90.2984 246.292 90.3066C248.454 90.3066 250.608 90.3066 252.761 90.3066C254.31 90.2758 255.853 90.5095 257.324 90.9979C258.406 91.4135 259.305 92.2022 259.858 93.2221C260.411 94.2419 260.582 95.4259 260.341 96.5609C259.955 99.0297 258.22 100.676 255.491 101.12C253.623 101.435 251.729 101.57 249.835 101.523C248.667 101.523 247.5 101.523 246.333 101.523C245.839 101.523 245.667 101.383 245.675 100.881C245.675 99.2355 245.675 97.5484 245.675 95.8861C245.675 94.2238 245.675 92.5944 245.675 90.932ZM256.51 121.298C255.104 121.647 253.66 121.821 252.211 121.817C250.465 121.883 248.717 121.858 246.974 121.743C246.681 121.763 246.391 121.666 246.17 121.473C245.948 121.281 245.811 121.008 245.79 120.714C245.681 119.979 245.642 119.235 245.675 118.492C245.675 117.184 245.675 115.883 245.675 114.583C245.675 112.699 245.675 110.822 245.675 108.946C245.675 108.658 245.782 108.559 246.045 108.559C248.273 108.559 250.492 108.51 252.712 108.617C253.782 108.632 254.851 108.717 255.91 108.872C257.694 109.201 259.33 109.851 260.357 111.448C260.89 112.324 261.213 113.313 261.3 114.335C261.388 115.358 261.237 116.387 260.86 117.341C260.484 118.295 259.891 119.149 259.129 119.836C258.367 120.523 257.457 121.023 256.469 121.298H256.51Z" fill="white" fill-opacity="0.7"/>
</g>
<path style="mix-blend-mode:screen" opacity="0.6" d="M300.083 36.0253C300.083 32.1782 297.507 28.3312 292.425 25.4014C282.254 19.5329 223.439 19.5329 213.322 25.4014C208.276 28.3312 205.763 32.1782 205.78 36.0253L226.969 209.231C226.969 213.078 229.554 216.916 234.635 219.855C244.806 225.723 261.244 225.723 271.344 219.855C276.398 216.916 278.912 213.078 278.894 209.231L300.083 36.0253Z" fill="url(#paint4_linear_468_9)"/>
<path style="mix-blend-mode:screen" opacity="0.6" d="M278.895 36.0253C278.895 32.1782 276.318 28.3312 271.228 25.4014C261.057 19.5329 244.629 19.5329 234.52 25.4014C229.466 28.3312 226.952 32.1782 226.97 36.0253V209.231C226.97 213.078 229.555 216.916 234.636 219.855C244.807 225.723 261.245 225.723 271.344 219.855C276.399 216.916 278.912 213.078 278.895 209.231V36.0253Z" fill="url(#paint5_linear_468_9)"/>
<path style="mix-blend-mode:screen" d="M276.942 173.219C276.942 174.348 276.607 175.451 275.979 176.39C275.352 177.329 274.459 178.06 273.415 178.492C272.371 178.924 271.222 179.038 270.114 178.817C269.005 178.597 267.987 178.053 267.188 177.255C266.389 176.457 265.845 175.44 265.624 174.332C265.404 173.225 265.517 172.077 265.95 171.034C266.382 169.991 267.114 169.1 268.054 168.473C268.994 167.845 270.098 167.51 271.228 167.51C272.744 167.51 274.197 168.112 275.269 169.182C276.34 170.253 276.942 171.705 276.942 173.219Z" fill="url(#paint6_radial_468_9)"/>
<path style="mix-blend-mode:screen" d="M241.858 139.975C241.858 141.104 241.522 142.208 240.895 143.147C240.267 144.085 239.374 144.817 238.33 145.249C237.286 145.681 236.137 145.794 235.029 145.574C233.92 145.354 232.902 144.81 232.103 144.012C231.304 143.213 230.76 142.196 230.539 141.089C230.319 139.982 230.432 138.834 230.865 137.791C231.297 136.748 232.029 135.856 232.969 135.229C233.909 134.602 235.013 134.267 236.144 134.267C236.894 134.267 237.637 134.415 238.33 134.702C239.023 134.988 239.653 135.409 240.184 135.939C240.715 136.469 241.135 137.098 241.423 137.791C241.71 138.483 241.858 139.226 241.858 139.975Z" fill="url(#paint7_radial_468_9)"/>
<path style="mix-blend-mode:screen" d="M279.331 154.17C279.331 155.299 278.996 156.403 278.368 157.341C277.741 158.28 276.848 159.012 275.804 159.444C274.76 159.876 273.611 159.989 272.503 159.769C271.394 159.548 270.376 159.005 269.577 158.206C268.778 157.408 268.234 156.391 268.013 155.284C267.793 154.176 267.906 153.029 268.338 151.986C268.771 150.943 269.503 150.051 270.443 149.424C271.383 148.797 272.487 148.462 273.617 148.462C274.368 148.462 275.111 148.61 275.804 148.896C276.497 149.183 277.127 149.604 277.658 150.134C278.188 150.664 278.609 151.293 278.896 151.986C279.184 152.678 279.331 153.421 279.331 154.17Z" fill="url(#paint8_radial_468_9)"/>
<path style="mix-blend-mode:screen" d="M242.98 123.341C243.979 123.341 244.79 122.531 244.79 121.533C244.79 120.534 243.979 119.725 242.98 119.725C241.981 119.725 241.17 120.534 241.17 121.533C241.17 122.531 241.981 123.341 242.98 123.341Z" fill="url(#paint9_radial_468_9)"/>
<path style="mix-blend-mode:screen" d="M267.396 104.773C268.396 104.773 269.206 103.964 269.206 102.965C269.206 101.967 268.396 101.158 267.396 101.158C266.397 101.158 265.587 101.967 265.587 102.965C265.587 103.964 266.397 104.773 267.396 104.773Z" fill="url(#paint10_radial_468_9)"/>
<path style="mix-blend-mode:screen" d="M261.37 188.509C261.37 188.861 261.265 189.205 261.069 189.498C260.873 189.791 260.595 190.019 260.269 190.154C259.943 190.289 259.585 190.324 259.239 190.255C258.893 190.187 258.575 190.017 258.326 189.768C258.077 189.519 257.907 189.202 257.838 188.856C257.769 188.511 257.805 188.152 257.94 187.827C258.075 187.502 258.303 187.223 258.596 187.028C258.89 186.832 259.234 186.728 259.587 186.728C260.06 186.728 260.513 186.915 260.847 187.249C261.182 187.583 261.37 188.036 261.37 188.509Z" fill="url(#paint11_radial_468_9)"/>
<path style="mix-blend-mode:screen" d="M270.721 139.976C270.721 140.635 270.525 141.279 270.158 141.827C269.792 142.375 269.27 142.802 268.661 143.053C268.051 143.305 267.38 143.371 266.733 143.241C266.086 143.112 265.492 142.794 265.026 142.327C264.56 141.861 264.244 141.266 264.116 140.62C263.988 139.973 264.056 139.303 264.309 138.695C264.563 138.086 264.992 137.567 265.541 137.202C266.091 136.837 266.736 136.643 267.396 136.645C267.833 136.645 268.266 136.731 268.67 136.899C269.074 137.066 269.441 137.312 269.75 137.621C270.059 137.93 270.304 138.298 270.47 138.702C270.637 139.106 270.722 139.539 270.721 139.976Z" fill="url(#paint12_radial_468_9)"/>
<path style="mix-blend-mode:screen" d="M261.636 151.134C261.636 151.893 261.411 152.635 260.989 153.266C260.567 153.897 259.967 154.389 259.265 154.68C258.563 154.97 257.79 155.046 257.045 154.898C256.3 154.75 255.615 154.385 255.078 153.848C254.54 153.311 254.174 152.627 254.026 151.883C253.878 151.138 253.954 150.366 254.245 149.665C254.536 148.964 255.028 148.364 255.66 147.942C256.292 147.521 257.035 147.296 257.794 147.296C258.813 147.296 259.791 147.7 260.511 148.42C261.232 149.14 261.636 150.116 261.636 151.134Z" fill="url(#paint13_radial_468_9)"/>
<path style="mix-blend-mode:screen" d="M256.796 206.658C256.795 207.786 256.458 208.889 255.829 209.826C255.2 210.764 254.307 211.494 253.263 211.925C252.219 212.356 251.07 212.467 249.962 212.246C248.854 212.025 247.837 211.48 247.039 210.682C246.241 209.883 245.697 208.866 245.478 207.759C245.258 206.652 245.372 205.505 245.804 204.462C246.237 203.42 246.969 202.529 247.909 201.902C248.848 201.275 249.953 200.94 251.082 200.94C251.834 200.94 252.577 201.088 253.271 201.376C253.965 201.663 254.595 202.084 255.126 202.615C255.657 203.146 256.077 203.777 256.364 204.47C256.651 205.164 256.798 205.907 256.796 206.658Z" fill="url(#paint14_radial_468_9)"/>
<path style="mix-blend-mode:screen" d="M244.433 186.701C244.433 187.173 244.293 187.634 244.03 188.027C243.768 188.419 243.394 188.725 242.958 188.906C242.521 189.086 242.041 189.134 241.578 189.042C241.114 188.949 240.689 188.722 240.354 188.388C240.02 188.055 239.793 187.629 239.701 187.166C239.608 186.703 239.656 186.224 239.837 185.787C240.017 185.351 240.324 184.979 240.717 184.716C241.109 184.454 241.571 184.314 242.044 184.314C242.677 184.314 243.285 184.566 243.733 185.013C244.181 185.461 244.433 186.068 244.433 186.701Z" fill="url(#paint15_radial_468_9)"/>
<path style="mix-blend-mode:screen" d="M234.628 106.884C234.628 107.356 234.488 107.818 234.225 108.21C233.963 108.603 233.59 108.908 233.153 109.089C232.717 109.27 232.236 109.317 231.773 109.225C231.309 109.133 230.884 108.905 230.55 108.572C230.215 108.238 229.988 107.813 229.896 107.35C229.804 106.887 229.851 106.407 230.032 105.971C230.213 105.535 230.519 105.162 230.912 104.9C231.304 104.638 231.766 104.498 232.239 104.498C232.872 104.498 233.48 104.749 233.928 105.197C234.376 105.644 234.628 106.251 234.628 106.884Z" fill="url(#paint16_radial_468_9)"/>
<path style="mix-blend-mode:screen" d="M232.248 191.902C232.248 192.254 232.143 192.598 231.947 192.891C231.751 193.184 231.473 193.413 231.147 193.547C230.821 193.682 230.463 193.717 230.117 193.649C229.771 193.58 229.453 193.41 229.204 193.161C228.955 192.912 228.785 192.595 228.716 192.249C228.647 191.904 228.683 191.546 228.818 191.22C228.953 190.895 229.181 190.617 229.474 190.421C229.767 190.225 230.112 190.121 230.465 190.121C230.938 190.121 231.391 190.308 231.725 190.643C232.06 190.977 232.248 191.43 232.248 191.902Z" fill="url(#paint17_radial_468_9)"/>
<path style="mix-blend-mode:screen" d="M271.228 193.282C272.548 193.282 273.617 192.213 273.617 190.895C273.617 189.577 272.548 188.509 271.228 188.509C269.909 188.509 268.839 189.577 268.839 190.895C268.839 192.213 269.909 193.282 271.228 193.282Z" fill="url(#paint18_radial_468_9)"/>
<path style="mix-blend-mode:screen" d="M232.988 169.897C234.308 169.897 235.377 168.828 235.377 167.51C235.377 166.192 234.308 165.124 232.988 165.124C231.669 165.124 230.599 166.192 230.599 167.51C230.599 168.828 231.669 169.897 232.988 169.897Z" fill="url(#paint19_radial_468_9)"/>
<path style="mix-blend-mode:screen" d="M257.794 87.7732C259.114 87.7732 260.183 86.7047 260.183 85.3866C260.183 84.0685 259.114 83 257.794 83C256.475 83 255.406 84.0685 255.406 85.3866C255.406 86.7047 256.475 87.7732 257.794 87.7732Z" fill="url(#paint20_radial_468_9)"/>
<path opacity="0.3" d="M125.616 167.146L155.773 184.538" stroke="white" stroke-width="0.813981" stroke-miterlimit="10"/>
<path opacity="0.3" d="M381.773 167.146L351.616 184.538" stroke="white" stroke-width="0.813981" stroke-miterlimit="10"/>
<path d="M102.75 248.099L102.456 249.096V277.878L102.75 278.163L116.121 270.273L102.75 248.099Z" fill="#BFDCB2"/>
<path d="M102.751 248.099L89.38 270.273L102.751 278.163V248.099Z" fill="#CAE2BF"/>
<path opacity="0.3" d="M160.853 312.361C164.419 314.391 164.419 317.704 160.897 319.726L109.321 349.674C107.347 350.675 105.165 351.197 102.951 351.197C100.738 351.197 98.5558 350.675 96.5823 349.674L44.6577 319.726C41.1366 317.695 41.092 314.383 44.6577 312.361L96.2435 282.413C98.2139 281.412 100.393 280.89 102.604 280.89C104.814 280.89 106.994 281.412 108.964 282.413L160.853 312.361Z" stroke="white" stroke-width="0.813981" stroke-miterlimit="10"/>
<path d="M151.626 315.005V315.228C151.607 315.289 151.592 315.352 151.581 315.415C151.556 315.485 151.536 315.556 151.519 315.629L151.439 315.807C151.41 315.887 151.375 315.965 151.332 316.038L151.243 316.199L151.064 316.448C151.028 316.498 150.99 316.545 150.948 316.59C150.855 316.707 150.753 316.817 150.645 316.92L150.529 317.045L150.307 317.223L150.102 317.383C150.019 317.445 149.933 317.501 149.843 317.552C149.754 317.617 149.662 317.676 149.567 317.73L108.045 341.828C107.822 341.952 107.599 342.068 107.358 342.175L107.153 342.264C106.966 342.335 106.779 342.416 106.583 342.478L106.378 342.549L106.004 342.656L105.718 342.736L105.317 342.816C105.226 342.839 105.134 342.857 105.041 342.87C104.77 342.922 104.496 342.961 104.221 342.985H103.962H103.472H102.429H102.064H101.725H101.368L101.038 342.932L100.655 342.87L100.361 342.807L99.9063 342.7L99.6567 342.629C99.3935 342.558 99.1346 342.472 98.8812 342.371H98.7742C98.4382 342.233 98.1107 342.076 97.7937 341.899L56.0222 317.802C54.596 316.982 53.8828 315.905 53.8828 314.818V317.178C53.8828 318.256 54.596 319.342 56.0222 320.161L97.7937 344.259C98.1129 344.437 98.4434 344.595 98.7831 344.731H98.8455C99.0951 344.829 99.3536 344.909 99.6211 344.989H99.6835L99.8707 345.043L100.325 345.149H100.441H100.619L101.003 345.212H101.163H101.333H101.689H101.867H102.028H102.393H102.581C102.628 345.216 102.676 345.216 102.723 345.212C102.857 345.212 102.991 345.212 103.124 345.212H103.436H103.927H104.185C104.461 345.212 104.738 345.149 105.014 345.096L105.255 345.043L105.647 344.953L105.932 344.882L106.307 344.775H106.387L106.512 344.731L107.082 344.517L107.287 344.428C107.522 344.325 107.751 344.209 107.974 344.081L149.478 319.983L149.567 319.93C149.632 319.894 149.695 319.852 149.754 319.805C149.843 319.754 149.93 319.698 150.012 319.636L150.217 319.476L150.44 319.289H150.485L150.556 319.209C150.667 319.105 150.771 318.995 150.868 318.879L150.931 318.808L150.984 318.737C151.046 318.654 151.102 318.568 151.153 318.478L151.225 318.38V318.318C151.263 318.246 151.296 318.172 151.323 318.095C151.347 318.053 151.368 318.008 151.385 317.962C151.385 317.962 151.385 317.962 151.385 317.917C151.41 317.847 151.431 317.776 151.448 317.704V317.561C151.452 317.487 151.452 317.413 151.448 317.339C151.448 317.285 151.448 317.241 151.448 317.187V314.765C151.644 314.863 151.626 314.943 151.626 315.005Z" fill="url(#paint21_linear_468_9)"/>
<path d="M149.504 311.809C152.339 313.438 152.357 316.101 149.504 317.731L108.045 341.828C106.457 342.636 104.701 343.057 102.919 343.057C101.137 343.057 99.381 342.636 97.7934 341.828L56.022 317.731C53.1873 316.101 53.1694 313.447 56.022 311.809L97.526 287.711C99.112 286.904 100.867 286.482 102.647 286.482C104.427 286.482 106.182 286.904 107.768 287.711L149.504 311.809Z" fill="url(#paint22_linear_468_9)"/>
<path d="M146.233 306.038C146.238 306.107 146.238 306.175 146.233 306.243C146.233 306.297 146.233 306.359 146.233 306.412L146.18 306.599L146.109 306.76C146.083 306.827 146.053 306.892 146.02 306.956L145.93 307.107L145.779 307.33L145.672 307.454C145.592 307.561 145.503 307.659 145.404 307.748L145.298 307.855L145.101 308.015C145.043 308.068 144.98 308.115 144.914 308.158L144.682 308.309L144.442 308.47L107.511 329.913C107.323 330.02 107.118 330.118 106.905 330.216L106.726 330.296C106.56 330.367 106.39 330.43 106.218 330.483L106.031 330.545L105.701 330.643L105.443 330.715L105.086 330.786L104.845 330.839C104.605 330.884 104.364 330.911 104.114 330.937H103.883H103.446H102.554H102.225H101.93H101.61L101.324 330.893L100.977 330.839L100.709 330.786L100.308 330.688L100.094 330.626C99.8535 330.554 99.6217 330.483 99.3988 330.394L99.3097 330.35C99.002 330.237 98.7039 330.1 98.4183 329.94L61.2465 308.496C60.7199 308.261 60.266 307.889 59.9321 307.419C59.5982 306.95 59.3964 306.399 59.3478 305.825V307.926C59.3964 308.501 59.5982 309.051 59.9321 309.521C60.266 309.991 60.7199 310.363 61.2465 310.598L98.4183 332.033C98.7054 332.193 99.0033 332.332 99.3097 332.451H99.3632C99.589 332.54 99.8208 332.62 100.058 332.692H100.112H100.281L100.682 332.79H100.789C100.843 332.794 100.897 332.794 100.95 332.79L101.289 332.852H101.422H101.574H101.895H102.055H102.198H102.528H103.419H103.856H104.079C104.328 332.852 104.569 332.79 104.81 332.745L105.024 332.701C105.14 332.701 105.264 332.656 105.38 332.62L105.63 332.558L105.96 332.46H106.031H106.147L106.655 332.264L106.842 332.193C107.047 332.095 107.252 331.997 107.448 331.881L144.37 310.446L144.451 310.402L144.593 310.491L144.825 310.34L145.003 310.197L145.199 310.037L145.271 309.966L145.547 309.672L145.601 309.609L145.645 309.538C145.701 309.468 145.751 309.393 145.797 309.316L145.859 309.226V309.173C145.892 309.109 145.922 309.044 145.948 308.977C145.948 308.977 145.948 308.897 146.011 308.861C146.006 308.847 146.006 308.831 146.011 308.817L146.064 308.621C146.064 308.576 146.064 308.541 146.064 308.496C146.069 308.428 146.069 308.36 146.064 308.291C146.068 308.247 146.068 308.202 146.064 308.158V306.003C146.121 306.011 146.178 306.023 146.233 306.038Z" fill="url(#paint23_linear_468_9)"/>
<path d="M144.344 303.233C146.876 304.685 146.884 307.054 144.344 308.505L107.413 329.949C106.001 330.664 104.441 331.038 102.858 331.038C101.275 331.038 99.7142 330.664 98.3026 329.949L61.1308 308.505C58.6081 307.054 58.5992 304.694 61.1308 303.233L98.0619 281.798C99.4722 281.078 101.033 280.703 102.617 280.703C104.201 280.703 105.762 281.078 107.172 281.798L144.344 303.233Z" fill="url(#paint24_linear_468_9)"/>
<path d="M141.438 299.021C141.438 299.083 141.438 299.146 141.438 299.199C141.438 299.253 141.438 299.297 141.438 299.35L141.384 299.52C141.367 299.569 141.347 299.616 141.322 299.662C141.301 299.724 141.274 299.784 141.242 299.84L141.162 299.965C141.123 300.037 141.079 300.106 141.028 300.17L140.939 300.286L140.698 300.544L140.6 300.633C140.545 300.685 140.485 300.733 140.422 300.775L140.27 300.909L140.056 301.043L139.842 301.185L106.931 320.287C106.759 320.386 106.58 320.475 106.397 320.554L106.227 320.625L105.782 320.794L105.612 320.857L105.318 320.937L105.095 320.999L104.774 321.07H104.56C104.346 321.115 104.124 321.141 103.91 321.168H103.705H103.312H102.492H102.198H101.931H101.645H101.396L101.084 321.115L100.852 321.061L100.496 320.981L100.299 320.928C100.091 320.867 99.8855 320.796 99.6843 320.714H99.6041C99.3354 320.609 99.0734 320.487 98.8196 320.349L65.7573 301.274C65.2903 301.067 64.8871 300.739 64.5893 300.324C64.2916 299.909 64.1101 299.422 64.0636 298.914V300.695C64.1101 301.204 64.2916 301.69 64.5893 302.105C64.8871 302.52 65.2903 302.848 65.7573 303.055L98.8286 322.13C99.0763 322.276 99.3357 322.401 99.6041 322.504H99.6576C99.8589 322.583 100.064 322.651 100.273 322.709H100.326H100.469L100.825 322.798H100.923H101.066C101.165 322.825 101.267 322.843 101.369 322.851H101.494H101.628H101.913H102.047H102.18H102.466H103.295H103.678H103.883C104.106 322.851 104.32 322.798 104.534 322.762L104.721 322.718L105.033 322.655L105.265 322.593L105.559 322.504H105.621H105.719L106.174 322.335L106.334 322.264C106.521 322.174 106.709 322.085 106.878 321.987L139.726 302.913H139.798L139.949 302.815C140.021 302.772 140.09 302.725 140.154 302.672L140.315 302.547L140.493 302.405L140.555 302.334C140.643 302.254 140.723 302.168 140.796 302.075L140.85 302.022L140.894 301.96L141.028 301.764L141.081 301.675C141.086 301.66 141.086 301.645 141.081 301.63C141.116 301.574 141.146 301.514 141.171 301.452C141.175 301.42 141.175 301.387 141.171 301.354C141.192 301.296 141.21 301.237 141.224 301.176V301.069C141.228 301.01 141.228 300.95 141.224 300.891C141.228 300.853 141.228 300.814 141.224 300.775V298.852C141.303 298.898 141.375 298.955 141.438 299.021Z" fill="url(#paint25_linear_468_9)"/>
<path d="M139.762 296.492C142.008 297.784 142.017 299.885 139.762 301.185L106.931 320.287C105.674 320.924 104.285 321.256 102.875 321.256C101.466 321.256 100.076 320.924 98.8192 320.287L65.7568 301.212C63.5105 299.921 63.5016 297.81 65.7568 296.519L98.6142 277.444C99.8688 276.805 101.257 276.471 102.666 276.471C104.074 276.471 105.463 276.805 106.717 277.444L139.762 296.492Z" fill="url(#paint26_linear_468_9)"/>
<path d="M132.113 295.067C133.896 296.091 133.896 297.739 132.113 298.79L106.057 313.928C105.061 314.438 103.958 314.704 102.839 314.704C101.72 314.704 100.617 314.438 99.6211 313.928L73.3958 298.79C71.613 297.757 71.613 296.118 73.3958 295.067L99.4517 279.928C100.448 279.426 101.549 279.164 102.665 279.164C103.782 279.164 104.882 279.426 105.879 279.928L132.113 295.067Z" fill="#37862D"/>
<path d="M73.395 297.133L99.4509 281.995C100.446 281.487 101.547 281.223 102.664 281.223C103.782 281.223 104.883 281.487 105.878 281.995L132.112 297.133C132.49 297.343 132.82 297.628 133.084 297.971C133.797 297.009 133.476 295.851 132.112 295.067L105.887 279.929C104.89 279.426 103.79 279.164 102.673 279.164C101.557 279.164 100.456 279.426 99.4598 279.929L73.4039 295.067C72.0578 295.842 71.7458 297 72.459 297.953C72.7127 297.62 73.0311 297.341 73.395 297.133Z" fill="#0C8502"/>
<path style="mix-blend-mode:screen" d="M132.229 296.857V247.692C132.174 247.307 132.022 246.941 131.789 246.63C131.555 246.319 131.247 246.071 130.892 245.911L104.667 230.772C103.672 230.265 102.57 230 101.453 230C100.336 230 99.2346 230.265 98.2396 230.772L72.1837 245.911C71.8298 246.07 71.5228 246.318 71.2918 246.63C71.0609 246.941 70.9137 247.307 70.8644 247.692V296.857C70.8822 297.27 71.0151 297.67 71.2482 298.011C71.4813 298.353 71.8053 298.622 72.1837 298.79L98.4179 313.928C99.4139 314.438 100.517 314.704 101.636 314.704C102.755 314.704 103.858 314.438 104.854 313.928L130.91 298.79C131.288 298.624 131.611 298.355 131.842 298.012C132.072 297.67 132.2 297.27 132.211 296.857H132.229Z" fill="url(#paint27_linear_468_9)"/>
<mask id="mask0_468_9" style="mask-type:luminance" maskUnits="userSpaceOnUse" x="89" y="248" width="28" height="44">
<path d="M116.131 248.099H89.38V291.627H116.131V248.099Z" fill="white"/>
</mask>
<g mask="url(#mask0_468_9)">
<path d="M102.751 280.691L102.591 280.896V291.146L102.751 291.627L116.123 272.801L102.751 280.691Z" fill="#BFDCB2"/>
<path d="M102.751 291.627V280.691L89.38 272.801L102.751 291.627Z" fill="#CAE2BF"/>
</g>
<path d="M102.751 278.198L116.122 270.308L102.751 264.234V278.198Z" fill="#ADD29D"/>
<path d="M89.38 270.273L102.751 278.163V264.199L89.38 270.273Z" fill="#BFDCB2"/>
<path opacity="0.3" d="M146.306 148.679C149.265 150.389 149.283 153.131 146.306 154.859L103.037 179.98C101.38 180.825 99.5475 181.265 97.6881 181.265C95.8287 181.265 93.9958 180.825 92.3396 179.98L48.8299 154.859C45.8705 153.158 45.8526 150.406 48.8299 148.679L92.1079 123.557C93.7645 122.714 95.5972 122.275 97.4563 122.275C99.3154 122.275 101.148 122.714 102.805 123.557L146.306 148.679Z" stroke="white" stroke-width="0.813981" stroke-miterlimit="10"/>
<path d="M138.353 149.943C138.358 150.006 138.358 150.068 138.353 150.13C138.353 150.184 138.353 150.237 138.353 150.291L138.3 150.469L138.237 150.611C138.211 150.675 138.182 150.738 138.148 150.798L138.068 150.932L137.925 151.146C137.896 151.189 137.863 151.231 137.827 151.27C137.746 151.367 137.66 151.459 137.569 151.546L137.471 151.644C137.417 151.698 137.346 151.742 137.284 151.796L137.114 151.929L136.9 152.072L136.57 152.188L101.939 172.287C101.755 172.395 101.564 172.493 101.369 172.58L101.199 172.652L100.727 172.83L100.549 172.892L100.237 172.981L100.005 173.043L99.6661 173.115H99.4433C99.2115 173.159 98.9798 173.186 98.748 173.213H98.534H98.124H97.2326H96.9206H96.6443H96.3412H96.0738L95.7528 173.15L95.5032 173.106L95.1199 173.008L94.9149 172.954C94.6966 172.894 94.4822 172.819 94.2731 172.732H94.184C93.9015 172.621 93.6274 172.49 93.3639 172.34L58.5632 152.188C58.0704 151.969 57.6451 151.622 57.3316 151.184C57.0181 150.745 56.8278 150.231 56.7804 149.694V151.662C56.8305 152.198 57.0219 152.711 57.3351 153.149C57.6482 153.587 58.072 153.934 58.5632 154.156L93.4174 174.255C93.6809 174.405 93.955 174.536 94.2374 174.646H94.2909C94.5031 174.734 94.7204 174.808 94.9417 174.869H94.9951H95.1467L95.5211 174.967H95.6191H95.7707L96.0916 175.029H96.2253H96.3679H96.6621H96.9473H97.2504H98.1418H98.5519H98.7658C98.9976 175.029 99.2293 174.976 99.4522 174.931L99.6483 174.887L99.9781 174.816L100.219 174.753L100.531 174.664H100.593L100.7 174.62L101.173 174.442L101.351 174.37C101.547 174.281 101.734 174.183 101.921 174.076L136.57 154.191L136.642 154.147L136.793 154.04L137.016 153.897L137.186 153.764L137.373 153.612C137.391 153.589 137.412 153.569 137.435 153.55C137.523 153.463 137.607 153.37 137.685 153.274L137.747 153.212V153.149L137.89 152.944C137.908 152.913 137.929 152.884 137.952 152.855C137.952 152.855 137.952 152.855 137.952 152.802C137.985 152.741 138.015 152.679 138.041 152.615L138.095 152.508C138.117 152.447 138.135 152.385 138.148 152.321V152.205C138.153 152.143 138.153 152.081 138.148 152.018C138.148 151.974 138.148 151.938 138.148 151.894V149.872C138.219 149.89 138.287 149.914 138.353 149.943Z" fill="url(#paint28_linear_468_9)"/>
<path d="M136.57 147.271C138.942 148.643 138.95 150.834 136.57 152.223L101.939 172.322C100.616 172.998 99.151 173.35 97.6648 173.35C96.1786 173.35 94.7137 172.998 93.3905 172.322L58.5632 152.187C56.192 150.816 56.1831 148.625 58.5632 147.236L93.1944 127.128C94.5173 126.456 95.9803 126.106 97.4643 126.106C98.9483 126.106 100.411 126.456 101.734 127.128L136.57 147.271Z" fill="url(#paint29_linear_468_9)"/>
<path d="M133.844 142.49C133.844 142.552 133.844 142.606 133.844 142.659C133.844 142.713 133.844 142.757 133.844 142.802C133.844 142.846 133.844 142.909 133.844 142.962L133.791 143.096L133.711 143.256C133.684 143.295 133.66 143.337 133.639 143.381C133.639 143.443 133.559 143.505 133.506 143.568L133.425 143.674L133.194 143.924L133.104 144.004L132.944 144.146L132.792 144.262C132.73 144.309 132.665 144.351 132.596 144.387L132.391 144.52L101.584 162.411C101.42 162.505 101.251 162.588 101.076 162.66L100.925 162.732L100.497 162.892L100.345 162.945L100.069 163.025L99.8549 163.079L99.5607 163.141L99.3557 163.186C99.1507 163.186 98.9546 163.248 98.7406 163.266H98.5534H98.1879H97.35H97.0826H96.833H96.5656H96.3249L96.0396 163.212L95.8168 163.168L95.4781 163.088L95.2998 163.034C95.1033 162.983 94.9099 162.92 94.7204 162.847H94.6401C94.3905 162.74 94.1409 162.625 93.9092 162.5L62.897 144.609C62.4577 144.416 62.0785 144.108 61.7993 143.718C61.5201 143.328 61.3512 142.87 61.3103 142.392V144.173C61.3512 144.651 61.5201 145.109 61.7993 145.499C62.0785 145.889 62.4577 146.197 62.897 146.391L93.9092 164.272C94.1438 164.409 94.3881 164.528 94.6401 164.628H94.6847C94.8719 164.7 95.068 164.771 95.2641 164.824H95.4067L95.7366 164.904H95.8257H95.9594H96.2447H96.3605H96.4853H96.7528H97.0024H97.2787H98.0542H98.4108H98.6069C98.8119 164.904 99.0169 164.851 99.2131 164.815H99.3913L99.6855 164.753L99.8994 164.691L100.167 164.611H100.229H100.327C100.47 164.566 100.61 164.513 100.746 164.45L100.898 164.388C101.072 164.313 101.242 164.226 101.406 164.13L132.222 146.248L132.284 146.204L132.427 146.114L132.614 145.981C132.668 145.947 132.719 145.909 132.766 145.865L132.935 145.732C132.935 145.732 132.935 145.687 132.997 145.669L133.22 145.429L133.274 145.375V145.322C133.321 145.26 133.362 145.194 133.399 145.126L133.452 145.055V145.01L133.532 144.841C133.552 144.811 133.568 144.778 133.577 144.743C133.597 144.688 133.612 144.632 133.621 144.574C133.621 144.574 133.621 144.503 133.621 144.467C133.626 144.411 133.626 144.354 133.621 144.298C133.626 144.262 133.626 144.226 133.621 144.191V142.41C133.898 142.392 133.844 142.446 133.844 142.49Z" fill="url(#paint30_linear_468_9)"/>
<path d="M132.266 140.121C134.379 141.332 134.388 143.309 132.266 144.52L101.459 162.411C100.279 163.008 98.9752 163.319 97.6526 163.319C96.3301 163.319 95.0262 163.008 93.8463 162.411L62.8342 144.52C60.7305 143.309 60.7216 141.332 62.8342 140.121L93.6413 122.231C94.8196 121.634 96.1221 121.323 97.4432 121.323C98.7643 121.323 100.067 121.634 101.245 122.231L132.266 140.121Z" fill="url(#paint31_linear_468_9)"/>
<path d="M129.841 136.603C129.846 136.653 129.846 136.704 129.841 136.755V136.879C129.841 136.924 129.841 136.977 129.797 137.022C129.793 137.06 129.793 137.099 129.797 137.137L129.725 137.289L129.663 137.396L129.547 137.565L129.467 137.654C129.406 137.734 129.337 137.809 129.262 137.877C129.243 137.905 129.219 137.929 129.19 137.948L129.039 138.072L128.905 138.179L128.736 138.295L128.558 138.411L101.049 154.324L100.603 154.556L100.46 154.609C100.338 154.664 100.213 154.711 100.086 154.752L99.9522 154.796L99.7026 154.868L99.5154 154.921L99.248 154.975H99.0697C98.8899 155.011 98.7085 155.037 98.5259 155.055H98.3566H98.0357H97.0997H96.8768H96.6361H96.4311L96.1726 155.01H95.9765L95.6734 154.93H95.513L94.996 154.752H94.9336C94.7092 154.664 94.4917 154.56 94.2828 154.44L66.6937 138.527C66.3036 138.354 65.9666 138.081 65.7174 137.735C65.4683 137.389 65.316 136.983 65.2764 136.559V138.117C65.3143 138.541 65.4648 138.947 65.7125 139.293C65.9601 139.639 66.2958 139.912 66.6848 140.085L94.3185 155.999C94.5243 156.118 94.7388 156.223 94.9603 156.31H95.0049C95.174 156.376 95.3466 156.432 95.5219 156.479H95.6467L95.9408 156.56H96.0211H96.1459L96.3955 156.604H96.4935H96.6094H96.8501H96.966H98H98.3209H98.4992L99.0429 156.524H99.1945L99.453 156.471L99.6491 156.417L99.8898 156.346H100.024H100.113L100.487 156.203L100.621 156.15C100.781 156.079 100.933 155.999 101.075 155.918L128.486 140.005H128.549L128.664 139.925L128.843 139.809L128.976 139.702L129.119 139.577L129.173 139.524C129.245 139.454 129.314 139.38 129.378 139.301C129.378 139.301 129.378 139.301 129.378 139.257V139.203L129.493 139.043C129.512 139.022 129.527 138.998 129.538 138.972C129.565 138.923 129.589 138.873 129.609 138.821L129.654 138.731C129.654 138.687 129.654 138.634 129.654 138.589C129.658 138.556 129.658 138.524 129.654 138.491C129.654 138.491 129.654 138.393 129.654 138.34C129.654 138.286 129.654 138.277 129.654 138.242V136.648C129.85 136.514 129.841 136.559 129.841 136.603Z" fill="url(#paint32_linear_468_9)"/>
<path d="M128.442 134.493C130.314 135.579 130.323 137.334 128.442 138.411L101.049 154.325C100.001 154.856 98.8419 155.133 97.6664 155.133C96.4909 155.133 95.3319 154.856 94.2835 154.325L66.6944 138.411C64.8224 137.334 64.8135 135.579 66.6944 134.493L94.1141 118.579C95.1609 118.048 96.3185 117.771 97.4926 117.771C98.6667 117.771 99.8242 118.048 100.871 118.579L128.442 134.493Z" fill="url(#paint33_linear_468_9)"/>
<path d="M122.061 133.299C123.541 134.19 123.558 135.552 122.061 136.407L100.319 149.035C99.4902 149.454 98.5741 149.672 97.6451 149.672C96.716 149.672 95.8 149.454 94.9709 149.035L73.0868 136.407C71.5981 135.517 71.5892 134.163 73.0868 133.308L94.8282 120.681C95.6574 120.262 96.5734 120.044 97.5025 120.044C98.4315 120.044 99.3476 120.262 100.177 120.681L122.061 133.299Z" fill="#37862D"/>
<path d="M73.0682 135.036L94.8097 122.408C95.6388 121.99 96.5548 121.772 97.4839 121.772C98.4129 121.772 99.329 121.99 100.158 122.408L122.042 135.036C122.356 135.207 122.63 135.444 122.845 135.731C123.442 134.929 123.174 133.95 122.042 133.299L100.158 120.681C99.329 120.262 98.4129 120.044 97.4839 120.044C96.5548 120.044 95.6388 120.262 94.8097 120.681L73.0682 133.308C71.945 133.958 71.6865 134.92 72.2748 135.722C72.4887 135.44 72.7589 135.207 73.0682 135.036Z" fill="#0C8502"/>
<path style="mix-blend-mode:screen" d="M123.2 134.796V93.7694C123.158 93.4442 123.034 93.1351 122.839 92.8716C122.644 92.6081 122.384 92.399 122.085 92.2644L100.201 79.6369C99.372 79.2182 98.456 79 97.5269 79C96.5979 79 95.6818 79.2182 94.8527 79.6369L73.1112 92.2644C72.8128 92.3978 72.5546 92.6069 72.3622 92.8709C72.1699 93.135 72.0501 93.4447 72.0148 93.7694V134.796C72.0304 135.14 72.1421 135.474 72.3374 135.759C72.5327 136.044 72.8038 136.268 73.1201 136.407L95.0131 149.035C95.8423 149.454 96.7583 149.672 97.6874 149.672C98.6164 149.672 99.5325 149.454 100.362 149.035L122.112 136.407C122.425 136.266 122.692 136.04 122.884 135.755C123.076 135.471 123.186 135.139 123.2 134.796Z" fill="url(#paint34_linear_468_9)"/>
<mask id="mask1_468_9" style="mask-type:luminance" maskUnits="userSpaceOnUse" x="78" y="93" width="43" height="42">
<path d="M120.34 93.3071H78.9611V134.645H120.34V93.3071Z" fill="white"/>
</mask>
<g mask="url(#mask1_468_9)">
<path d="M102.701 117.12L100.695 122.606C100.641 122.762 100.641 122.931 100.695 123.087L104.136 132.526L108.129 130.229L103.343 117.12C103.32 117.053 103.277 116.995 103.219 116.954C103.162 116.912 103.093 116.89 103.022 116.89C102.951 116.89 102.882 116.912 102.824 116.954C102.767 116.995 102.723 117.053 102.701 117.12Z" fill="#CAE2BF"/>
<path d="M106.738 107.894C106.714 107.828 106.669 107.771 106.611 107.731C106.553 107.691 106.484 107.669 106.413 107.669C106.342 107.669 106.273 107.691 106.215 107.731C106.157 107.771 106.113 107.828 106.088 107.894L104.091 113.38C104.037 113.536 104.037 113.705 104.091 113.861L109.734 129.32L113.718 127.022L106.738 107.912V107.894Z" fill="#CAE2BF"/>
<path fill-rule="evenodd" clip-rule="evenodd" d="M99.9372 95.9525C99.8496 95.9042 99.752 95.8768 99.652 95.8723V95.8545C99.5547 95.858 99.4597 95.8855 99.3757 95.9347L84.1771 104.697C84.0947 104.753 84.0266 104.827 83.9785 104.913C83.9305 105 83.9038 105.097 83.9008 105.196V122.739C83.899 122.839 83.9235 122.938 83.9721 123.026C84.0206 123.113 84.0913 123.186 84.1771 123.238L90.2037 126.713L89.6058 129.263L82.9292 125.402C82.4519 125.127 82.0557 124.731 81.7803 124.254C81.5049 123.777 81.36 123.236 81.3603 122.686V105.16C81.366 104.617 81.5138 104.085 81.789 103.616C82.0642 103.148 82.4572 102.759 82.9292 102.489L98.0831 93.7262C98.5594 93.4496 99.101 93.3051 99.652 93.3077L99.5985 93.3433C100.153 93.3382 100.698 93.4828 101.176 93.7618L116.384 102.525C116.857 102.793 117.251 103.182 117.526 103.65C117.802 104.119 117.949 104.652 117.953 105.196V122.686C117.955 123.237 117.811 123.778 117.535 124.255C117.259 124.732 116.862 125.128 116.384 125.402L101.23 134.165C100.748 134.434 100.204 134.575 99.652 134.574C99.1022 134.577 98.5613 134.436 98.0831 134.165L91.2508 130.214L93.5828 128.661L99.3757 132.001C99.4597 132.05 99.5547 132.077 99.652 132.081C99.752 132.076 99.8496 132.049 99.9372 132.001L115.091 123.238C115.177 123.186 115.248 123.112 115.298 123.025C115.348 122.938 115.375 122.84 115.376 122.739V105.214C115.378 105.113 115.353 105.013 115.303 104.925C115.252 104.838 115.179 104.765 115.091 104.715L99.9372 95.9525Z" fill="white"/>
<path d="M98.3587 103.958H94.5078C94.3669 103.958 94.2293 104 94.1131 104.08C93.9969 104.159 93.9076 104.272 93.857 104.403L85.6026 127.023L89.5872 129.32L98.6885 104.386C98.7088 104.335 98.7163 104.279 98.7104 104.225C98.7045 104.17 98.6853 104.118 98.6546 104.072C98.6239 104.026 98.5825 103.989 98.534 103.963C98.4856 103.937 98.4315 103.923 98.3765 103.923L98.3587 103.958Z" fill="#CAE2BF"/>
<path d="M105.116 103.958H101.256C101.117 103.959 100.981 104.002 100.867 104.082C100.752 104.161 100.664 104.273 100.614 104.403L91.1743 130.228L95.1679 132.526L105.428 104.403C105.448 104.352 105.456 104.297 105.45 104.242C105.444 104.187 105.425 104.135 105.394 104.089C105.363 104.044 105.322 104.006 105.274 103.98C105.225 103.954 105.171 103.94 105.116 103.94V103.958Z" fill="#CAE2BF"/>
</g>
<path opacity="0.3" d="M454.234 147.773C457.095 149.421 457.113 152.092 454.234 153.74L412.445 177.998C410.847 178.81 409.08 179.234 407.288 179.234C405.495 179.234 403.728 178.81 402.131 177.998L360.074 153.74C357.213 152.092 357.204 149.421 360.074 147.773L401.864 123.516C403.459 122.703 405.225 122.28 407.016 122.28C408.807 122.28 410.573 122.703 412.168 123.516L454.234 147.773Z" stroke="white" stroke-width="0.813981" stroke-miterlimit="10"/>
<path d="M446.925 149.127C446.925 149.189 446.925 149.252 446.925 149.314C446.93 149.364 446.93 149.415 446.925 149.465C446.915 149.526 446.9 149.585 446.881 149.643L446.818 149.786C446.792 149.85 446.763 149.912 446.729 149.973C446.706 150.016 446.679 150.058 446.649 150.098C446.613 150.171 446.568 150.24 446.515 150.302C446.485 150.346 446.453 150.388 446.417 150.427C446.339 150.521 446.256 150.61 446.168 150.694L446.07 150.783L445.891 150.935L445.731 151.068L445.517 151.211L445.294 151.353L411.536 170.945C411.358 171.051 411.171 171.141 410.984 171.23L410.814 171.301L410.351 171.479L410.181 171.532L409.878 171.621L409.647 171.684L409.317 171.755L409.094 171.8C408.88 171.8 408.648 171.871 408.425 171.889H408.22H407.819H406.669H406.402H406.108H405.84L405.528 171.835L405.288 171.782L404.913 171.693L404.717 171.639C404.503 171.577 404.289 171.506 404.084 171.426H403.995C403.684 171.307 403.385 171.158 403.104 170.98L369.123 151.389C368.643 151.174 368.23 150.836 367.924 150.409C367.619 149.982 367.432 149.481 367.385 148.958V150.881C367.429 151.404 367.614 151.905 367.92 152.331C368.226 152.758 368.642 153.094 369.123 153.303L403.095 172.895C403.353 173.04 403.621 173.168 403.897 173.278H403.951C404.156 173.358 404.369 173.429 404.583 173.492H404.637H404.788L405.154 173.581H405.252H405.395L405.707 173.643H405.831H405.974H406.268H406.411H406.545H406.839H407.73H408.131H408.292C408.523 173.643 408.746 173.589 408.969 173.545L409.165 173.5L409.486 173.429L409.718 173.367L410.021 173.287H410.092L410.19 173.242C410.348 173.192 410.503 173.133 410.654 173.064L410.823 172.993C411.014 172.913 411.198 172.821 411.376 172.717L445.134 153.125L445.205 153.081L445.357 152.983C445.431 152.941 445.503 152.893 445.57 152.84C445.625 152.796 445.681 152.754 445.74 152.716L445.918 152.564L445.98 152.493L446.23 152.226L446.284 152.173C446.282 152.152 446.282 152.131 446.284 152.11L446.426 151.905L446.48 151.816V151.772L446.56 151.585L446.613 151.478L446.667 151.3C446.667 151.3 446.667 151.229 446.667 151.184C446.671 151.122 446.671 151.059 446.667 150.997C446.671 150.956 446.671 150.914 446.667 150.872V148.904C446.765 148.963 446.853 149.038 446.925 149.127Z" fill="url(#paint35_linear_468_9)"/>
<path d="M445.196 146.526C447.504 147.862 447.522 150.017 445.196 151.353L411.438 170.944C410.148 171.603 408.719 171.946 407.271 171.946C405.822 171.946 404.394 171.603 403.103 170.944L369.123 151.353C366.823 150.017 366.805 147.862 369.123 146.526L402.88 126.935C404.171 126.277 405.599 125.934 407.048 125.934C408.497 125.934 409.925 126.277 411.215 126.935L445.196 146.526Z" fill="url(#paint36_linear_468_9)"/>
<path d="M442.54 141.869C442.545 141.925 442.545 141.982 442.54 142.038C442.545 142.082 442.545 142.127 442.54 142.171C442.546 142.222 442.546 142.272 442.54 142.323C442.527 142.369 442.509 142.413 442.487 142.456C442.467 142.511 442.443 142.565 442.416 142.617L442.344 142.732C442.344 142.795 442.264 142.857 442.22 142.919L442.139 143.017C442.07 143.102 441.995 143.182 441.917 143.258L441.827 143.347L441.667 143.48L441.515 143.596L441.328 143.721L441.132 143.846L411.1 161.282C410.94 161.371 410.78 161.451 410.601 161.531L410.459 161.594L410.04 161.754L409.888 161.798C409.801 161.83 409.711 161.857 409.621 161.879L409.416 161.932L409.122 161.994H408.925C408.729 161.994 408.533 162.057 408.328 162.074H408.15H407.793H407.036H406.768H406.528H406.269H406.028L405.752 162.021L405.538 161.977C405.426 161.959 405.316 161.932 405.208 161.896L405.03 161.852C404.843 161.798 404.647 161.736 404.468 161.665H404.397C404.152 161.568 403.914 161.455 403.684 161.326L373.456 143.89C373.032 143.697 372.666 143.397 372.394 143.019C372.122 142.641 371.953 142.198 371.905 141.735V143.374C371.944 143.839 372.107 144.286 372.379 144.667C372.65 145.048 373.019 145.349 373.447 145.538L403.577 162.965C403.807 163.094 404.045 163.207 404.29 163.303L404.861 163.499H404.905H405.039L405.36 163.579H405.449H405.583H405.859H405.966H406.091H406.349H406.474H407.615H407.972H408.114L408.711 163.49H408.881L409.166 163.428L409.38 163.375L409.648 163.294H409.701H409.799L410.209 163.143L410.361 163.081C410.53 163.001 410.699 162.92 410.851 162.831L440.891 145.395L440.954 145.351L441.087 145.262L441.275 145.137L441.417 145.021L441.578 144.888L441.631 144.834L441.854 144.594L441.899 144.54C441.901 144.522 441.901 144.504 441.899 144.487C441.943 144.43 441.985 144.37 442.023 144.309L442.077 144.229L442.157 144.059V143.97C442.157 143.97 442.157 143.863 442.157 143.81V143.712C442.157 143.659 442.157 143.605 442.157 143.552C442.157 143.498 442.157 143.48 442.157 143.445V141.664C442.3 141.699 442.432 141.77 442.54 141.869Z" fill="url(#paint37_linear_468_9)"/>
<path d="M441.007 139.553C443.057 140.738 443.075 142.661 441.007 143.846L410.975 161.282C409.827 161.866 408.556 162.171 407.267 162.171C405.978 162.171 404.707 161.866 403.559 161.282L373.331 143.846C371.272 142.661 371.263 140.738 373.331 139.553L403.372 122.117C404.519 121.533 405.788 121.229 407.075 121.229C408.363 121.229 409.632 121.533 410.779 122.117L441.007 139.553Z" fill="url(#paint38_linear_468_9)"/>
<path d="M438.643 136.134C438.643 136.134 438.643 136.232 438.643 136.276C438.647 136.318 438.647 136.36 438.643 136.401C438.647 136.446 438.647 136.49 438.643 136.535C438.641 136.573 438.641 136.612 438.643 136.65L438.572 136.793L438.51 136.9L438.403 137.06L438.322 137.158L438.126 137.372L438.046 137.443L437.903 137.559L437.779 137.666L437.609 137.773C437.553 137.816 437.494 137.855 437.431 137.888L410.689 153.401C410.546 153.481 410.394 153.552 410.243 153.624L410.109 153.677L409.744 153.82H409.61L409.369 153.891L409.191 153.935L408.933 153.998H408.754L408.219 154.069H408.059H407.738H406.847H406.633H406.401H406.196L405.946 154.024H405.75L405.465 153.953L405.305 153.909C405.135 153.862 404.968 153.805 404.805 153.74H404.734C404.516 153.653 404.305 153.552 404.101 153.437L377.207 137.924C376.828 137.757 376.501 137.491 376.259 137.154C376.018 136.817 375.871 136.422 375.835 136.009V137.523C375.874 137.937 376.023 138.333 376.265 138.671C376.508 139.009 376.836 139.277 377.216 139.447L403.994 154.951C404.199 155.064 404.41 155.165 404.627 155.253L405.126 155.423H405.242L405.536 155.494H405.608H405.732L405.973 155.538H406.071H406.187H406.419H407.542H407.854H408.023C408.2 155.524 408.375 155.5 408.549 155.467H408.701L408.959 155.414L409.147 155.36L409.387 155.298H409.432H409.521L409.886 155.155L410.02 155.102L410.457 154.879L437.199 139.367H437.253L437.377 139.286L437.538 139.171C437.586 139.143 437.631 139.11 437.672 139.073L437.814 138.957L437.868 138.903L438.064 138.69C438.064 138.69 438.064 138.69 438.064 138.645C438.108 138.594 438.144 138.537 438.171 138.476L438.224 138.414C438.224 138.414 438.278 138.316 438.296 138.271C438.291 138.242 438.291 138.212 438.296 138.182C438.299 138.135 438.299 138.087 438.296 138.04V137.951C438.3 137.9 438.3 137.85 438.296 137.799C438.3 137.77 438.3 137.74 438.296 137.71V136.143C438.652 136.045 438.643 136.089 438.643 136.134Z" fill="url(#paint39_linear_468_9)"/>
<path d="M437.27 134.077C439.053 135.128 439.115 136.837 437.27 137.888L410.527 153.401C409.505 153.923 408.373 154.195 407.225 154.195C406.076 154.195 404.945 153.923 403.922 153.401L377.028 137.888C375.201 136.837 375.192 135.128 377.028 134.077L403.771 118.564C404.79 118.041 405.919 117.769 407.064 117.769C408.21 117.769 409.339 118.041 410.358 118.564L437.27 134.077Z" fill="url(#paint40_linear_468_9)"/>
<path d="M431.048 132.91C432.501 133.747 432.51 135.101 431.048 135.938L409.877 148.245C409.067 148.657 408.17 148.873 407.261 148.873C406.351 148.873 405.455 148.657 404.645 148.245L383.313 135.938C381.869 135.109 381.86 133.747 383.313 132.91L404.511 120.612C405.319 120.199 406.215 119.984 407.123 119.984C408.031 119.984 408.926 120.199 409.734 120.612L431.048 132.91Z" fill="#37862D"/>
<path d="M383.295 134.602L404.493 122.295C405.302 121.882 406.197 121.667 407.105 121.667C408.013 121.667 408.908 121.882 409.717 122.295L431.048 134.602C431.357 134.77 431.627 135 431.841 135.279C432.421 134.495 432.162 133.551 431.048 132.91L409.717 120.612C408.908 120.199 408.013 119.984 407.105 119.984C406.197 119.984 405.302 120.199 404.493 120.612L383.295 132.91C382.208 133.551 381.949 134.486 382.529 135.261C382.736 134.991 382.997 134.767 383.295 134.602Z" fill="#0C8502"/>
<path style="mix-blend-mode:screen" d="M432.145 134.362V94.3953C432.102 94.0798 431.98 93.7802 431.79 93.5248C431.599 93.2693 431.347 93.0663 431.057 92.9349L409.717 80.6279C408.908 80.2152 408.013 80 407.105 80C406.197 80 405.302 80.2152 404.493 80.6279L383.295 92.9349C383.007 93.0666 382.757 93.27 382.57 93.5257C382.383 93.7814 382.264 94.0808 382.226 94.3953V134.389C382.244 134.726 382.355 135.051 382.547 135.33C382.739 135.608 383.004 135.827 383.313 135.965L404.645 148.272C405.455 148.685 406.351 148.9 407.261 148.9C408.17 148.9 409.067 148.685 409.877 148.272L431.075 135.965C431.383 135.829 431.646 135.609 431.833 135.33C432.021 135.051 432.126 134.724 432.136 134.389L432.145 134.362Z" fill="url(#paint41_linear_468_9)"/>
<mask id="mask2_468_9" style="mask-type:luminance" maskUnits="userSpaceOnUse" x="388" y="100" width="38" height="33">
<path d="M425.405 100.336H388.733V132.199H425.405V100.336Z" fill="white"/>
</mask>
<g mask="url(#mask2_468_9)">
<path d="M416.473 110.042C416.121 109.854 415.728 109.755 415.328 109.755C414.928 109.755 414.535 109.854 414.183 110.042L408.834 113.177L405.206 115.172L399.947 118.315C399.594 118.504 399.201 118.603 398.801 118.603C398.402 118.603 398.008 118.504 397.656 118.315L393.546 115.84C393.199 115.635 392.911 115.343 392.711 114.993C392.511 114.644 392.405 114.248 392.405 113.845V109.089C392.408 108.687 392.514 108.292 392.714 107.943C392.914 107.593 393.201 107.301 393.546 107.095L397.656 104.717C398.008 104.528 398.402 104.43 398.801 104.43C399.201 104.43 399.594 104.528 399.947 104.717L404.056 107.184C404.406 107.389 404.696 107.681 404.898 108.033C405.1 108.384 405.206 108.782 405.206 109.187V112.322L408.834 110.229V106.997C408.831 106.593 408.723 106.198 408.521 105.848C408.32 105.499 408.032 105.207 407.684 105.002L400.045 100.549C399.692 100.361 399.299 100.262 398.899 100.262C398.5 100.262 398.106 100.361 397.754 100.549L389.874 105.082C389.525 105.262 389.234 105.536 389.032 105.873C388.831 106.209 388.727 106.596 388.733 106.988V115.893C388.736 116.295 388.843 116.69 389.043 117.039C389.243 117.388 389.529 117.681 389.874 117.888L397.611 122.34C397.964 122.529 398.357 122.628 398.757 122.628C399.156 122.628 399.55 122.529 399.902 122.34L405.161 119.295L408.789 117.202L414.04 114.165C414.392 113.977 414.786 113.878 415.185 113.878C415.585 113.878 415.979 113.977 416.331 114.165L420.44 116.543C420.79 116.746 421.08 117.037 421.282 117.387C421.484 117.737 421.59 118.134 421.59 118.538V123.293C421.587 123.696 421.479 124.092 421.277 124.441C421.076 124.791 420.788 125.082 420.44 125.288L416.429 127.666C416.077 127.854 415.683 127.953 415.283 127.953C414.884 127.953 414.49 127.854 414.138 127.666L410.029 125.288C409.681 125.083 409.393 124.792 409.193 124.442C408.993 124.092 408.888 123.696 408.888 123.293V120.31L405.251 122.403V125.564C405.255 125.967 405.363 126.362 405.564 126.712C405.766 127.061 406.054 127.353 406.401 127.559L414.138 132.011C414.49 132.2 414.884 132.299 415.283 132.299C415.683 132.299 416.077 132.2 416.429 132.011L424.166 127.559C424.514 127.354 424.802 127.063 425.002 126.713C425.202 126.363 425.307 125.967 425.307 125.564V116.507C425.306 116.105 425.2 115.71 425 115.36C424.8 115.01 424.513 114.719 424.166 114.513L416.473 110.042Z" fill="#CAE2BF"/>
</g>
<path opacity="0.3" d="M467.801 308.514C470.761 310.224 470.779 312.967 467.801 314.703L424.497 339.843C422.84 340.686 421.007 341.125 419.148 341.125C417.289 341.125 415.456 340.686 413.8 339.843L370.21 314.703C367.25 312.993 367.233 310.251 370.21 308.514L413.514 283.375C415.171 282.531 417.004 282.09 418.863 282.09C420.722 282.09 422.555 282.531 424.211 283.375L467.801 308.514Z" stroke="white" stroke-width="0.813981" stroke-miterlimit="10"/>
<path d="M459.565 310.945C459.565 311.007 459.565 311.069 459.565 311.132C459.565 311.194 459.565 311.238 459.52 311.292C459.476 311.345 459.52 311.408 459.467 311.47C459.45 311.519 459.429 311.567 459.404 311.612C459.378 311.679 459.349 311.745 459.315 311.808C459.295 311.857 459.268 311.902 459.235 311.942C459.191 312.013 459.144 312.081 459.092 312.147L459.003 312.271L458.745 312.547L458.647 312.645L458.46 312.797L458.29 312.93L458.076 313.073L457.844 313.224L423.213 333.323C423.029 333.432 422.838 333.53 422.643 333.617L422.473 333.688L421.992 333.866L421.823 333.929L421.511 334.018L421.27 334.08L420.94 334.151L420.708 334.196C420.485 334.196 420.254 334.267 420.022 334.294H419.808H419.398H418.507H418.203H417.927H417.624H417.348L417.027 334.232L416.777 334.187L416.403 334.089L416.198 334.036C415.986 333.942 415.781 333.835 415.583 333.715H415.502C415.218 333.608 414.944 333.477 414.682 333.323L379.784 313.233C379.293 313.012 378.869 312.665 378.556 312.227C378.242 311.789 378.051 311.276 378.001 310.74V312.708C378.046 313.245 378.236 313.76 378.55 314.199C378.863 314.638 379.29 314.984 379.784 315.201L414.638 335.3C414.901 335.45 415.175 335.581 415.458 335.692H415.511C415.72 335.781 415.934 335.855 416.153 335.915H416.207H416.367L416.742 336.013H416.84C416.89 336.018 416.941 336.018 416.991 336.013L417.312 336.075H417.437H417.579H417.883H418.159H418.471H419.362H419.772H420.04C420.272 336.075 420.503 336.022 420.726 335.977L420.922 335.932L421.261 335.861L421.493 335.799L421.805 335.71H421.876L421.983 335.665L422.456 335.487L422.625 335.416C422.82 335.329 423.011 335.231 423.195 335.122L457.827 315.023L457.907 314.979L458.058 314.872L458.272 314.729L458.442 314.596C458.504 314.542 458.575 314.498 458.629 314.444L458.691 314.382C458.782 314.294 458.868 314.202 458.95 314.106L459.003 314.044V313.981L459.146 313.776C459.146 313.776 459.146 313.714 459.199 313.687V313.634C459.233 313.573 459.263 313.511 459.289 313.447C459.307 313.413 459.322 313.377 459.333 313.34L459.387 313.153C459.391 313.115 459.391 313.076 459.387 313.037C459.391 312.975 459.391 312.913 459.387 312.85C459.391 312.809 459.391 312.767 459.387 312.726V310.704C459.456 310.777 459.516 310.857 459.565 310.945Z" fill="url(#paint42_linear_468_9)"/>
<path d="M457.791 308.273C460.162 309.645 460.171 311.835 457.791 313.225L423.159 333.324C421.836 334 420.371 334.352 418.885 334.352C417.399 334.352 415.934 334 414.611 333.324L379.783 313.234C377.421 311.862 377.412 309.671 379.783 308.282L414.424 288.174C415.746 287.503 417.209 287.152 418.693 287.152C420.177 287.152 421.64 287.503 422.963 288.174L457.791 308.273Z" fill="url(#paint43_linear_468_9)"/>
<path d="M455.062 303.492C455.067 303.551 455.067 303.611 455.062 303.67C455.066 303.715 455.066 303.759 455.062 303.804C455.052 303.858 455.037 303.912 455.018 303.964L454.964 304.098C454.964 304.151 454.964 304.204 454.884 304.267L454.813 304.383L454.688 304.57L454.599 304.676C454.528 304.757 454.456 304.846 454.376 304.926L454.287 305.006L454.118 305.148L453.966 305.264C453.907 305.311 453.844 305.352 453.779 305.389L453.574 305.522L422.713 323.413C422.553 323.502 422.383 323.591 422.205 323.671L422.054 323.733L421.635 323.894L421.483 323.947L421.198 324.027L420.993 324.081L420.69 324.143L420.494 324.188L419.878 324.268H419.691H419.326H418.55H418.274H418.024H417.757H417.516L417.231 324.214H417.008L416.678 324.134L416.491 324.081C416.295 324.027 416.099 323.965 415.912 323.894H415.84C415.589 323.794 415.345 323.678 415.109 323.546L384.097 305.656C383.658 305.463 383.279 305.155 383 304.765C382.72 304.374 382.552 303.916 382.511 303.439V305.22C382.552 305.697 382.72 306.155 383 306.546C383.279 306.936 383.658 307.244 384.097 307.437L415.109 325.319C415.345 325.453 415.589 325.572 415.84 325.675H415.885C416.072 325.746 416.259 325.817 416.455 325.871H416.509H416.643L416.981 325.951H417.071H417.204L417.49 325.995H417.596H417.73H417.998H418.256H418.524H419.299H419.665H419.852C420.066 325.995 420.262 325.942 420.467 325.906H420.645L420.939 325.844L421.153 325.782C421.242 325.782 421.34 325.737 421.43 325.702H421.492H421.581C421.727 325.657 421.87 325.604 422.009 325.541L422.16 325.479C422.335 325.404 422.505 325.317 422.669 325.221L453.476 307.339L453.547 307.294L453.681 307.205L453.913 307.001L454.064 306.885L454.224 306.751L454.278 306.689L454.51 306.449V306.395V306.342C454.617 306.277 454.716 306.199 454.804 306.11C454.806 306.086 454.806 306.063 454.804 306.039V305.994C454.833 305.94 454.857 305.884 454.875 305.825L454.929 305.727C454.929 305.674 454.929 305.62 454.973 305.567C454.976 305.528 454.976 305.49 454.973 305.451C454.973 305.451 454.973 305.335 454.973 305.282C454.973 305.229 454.973 305.211 454.973 305.175V303.394C455.006 303.424 455.036 303.457 455.062 303.492Z" fill="url(#paint44_linear_468_9)"/>
<path d="M453.494 301.123C455.597 302.334 455.606 304.311 453.494 305.522L422.713 323.413C421.535 324.01 420.232 324.321 418.911 324.321C417.59 324.321 416.288 324.01 415.109 323.413L384.097 305.522C381.994 304.311 381.985 302.334 384.097 301.123L414.913 283.233C416.092 282.636 417.394 282.325 418.715 282.325C420.036 282.325 421.339 282.636 422.517 283.233L453.494 301.123Z" fill="url(#paint45_linear_468_9)"/>
<path d="M451.071 297.605C451.071 297.659 451.071 297.712 451.071 297.757C451.071 297.801 451.071 297.846 451.071 297.881V298.024L451.017 298.14C450.997 298.192 450.973 298.242 450.946 298.291C450.928 298.328 450.908 298.364 450.883 298.398L450.768 298.567L450.696 298.656C450.633 298.734 450.564 298.809 450.491 298.879L450.349 298.986L450.206 299.101L450.072 299.208L449.903 299.324L449.716 299.44L422.305 315.353C422.162 315.433 422.011 315.514 421.85 315.585L421.717 315.638L421.342 315.781L421.2 315.825L420.932 315.905L420.745 315.959L420.478 316.012H420.299C420.121 316.012 419.934 316.075 419.755 316.092H419.586H419.256H418.365H418.142H417.901H417.687H417.429H417.233L416.939 316.012H416.778L416.261 315.834H416.19C415.968 315.747 415.754 315.642 415.548 315.523L387.914 299.609C387.526 299.435 387.192 299.16 386.944 298.815C386.697 298.469 386.546 298.064 386.506 297.641V298.986C386.546 299.41 386.698 299.816 386.947 300.162C387.196 300.508 387.533 300.781 387.923 300.954L415.512 316.867C415.721 316.987 415.939 317.091 416.163 317.179L416.68 317.357H416.725H416.841L417.144 317.437H417.224H417.34H417.589H417.696H417.812C417.889 317.446 417.967 317.446 418.044 317.437H418.16H419.203H419.524H419.693C419.876 317.42 420.057 317.393 420.237 317.357H420.397L420.656 317.304L420.843 317.25L421.093 317.179H421.146H421.226C421.354 317.138 421.479 317.091 421.601 317.036L421.743 316.983L422.189 316.751L449.609 300.838H449.662L449.787 300.758L449.956 300.642L450.09 300.535L450.242 300.41L450.295 300.357C450.365 300.287 450.431 300.213 450.491 300.134C450.491 300.134 450.491 300.134 450.536 300.09V300.045L450.652 299.876C450.649 299.852 450.649 299.829 450.652 299.805L450.723 299.653C450.725 299.624 450.725 299.594 450.723 299.564C450.723 299.52 450.723 299.466 450.723 299.422V299.324C450.728 299.274 450.728 299.223 450.723 299.173C450.723 299.173 450.723 299.11 450.723 299.075V297.472C451.08 297.516 451.071 297.561 451.071 297.605Z" fill="url(#paint46_linear_468_9)"/>
<path d="M449.662 295.495C451.543 296.581 451.552 298.335 449.662 299.413L422.251 315.326C421.203 315.858 420.044 316.134 418.868 316.134C417.693 316.134 416.534 315.858 415.485 315.326L387.852 299.413C385.98 298.335 385.971 296.581 387.852 295.495L415.263 279.581C416.311 279.05 417.47 278.773 418.645 278.773C419.821 278.773 420.98 279.05 422.028 279.581L449.662 295.495Z" fill="url(#paint47_linear_468_9)"/>
<path d="M443.28 294.31C444.768 295.201 444.777 296.555 443.28 297.41L421.538 310.037C420.709 310.454 419.793 310.672 418.864 310.672C417.935 310.672 417.019 310.454 416.19 310.037L394.306 297.41C392.826 296.519 392.817 295.165 394.306 294.31L416.047 281.683C416.876 281.263 417.792 281.044 418.721 281.044C419.651 281.044 420.567 281.263 421.396 281.683L443.28 294.31Z" fill="#37862D"/>
<path d="M394.297 296.038L416.038 283.411C416.867 282.99 417.783 282.772 418.712 282.772C419.642 282.772 420.558 282.99 421.387 283.411L443.271 296.038C443.587 296.21 443.864 296.446 444.082 296.733C444.679 295.931 444.412 294.952 443.271 294.31L421.387 281.683C420.558 281.263 419.642 281.044 418.712 281.044C417.783 281.044 416.867 281.263 416.038 281.683L394.297 294.31C393.165 294.961 392.906 295.922 393.503 296.724C393.715 296.441 393.986 296.207 394.297 296.038Z" fill="#0C8502"/>
<path style="mix-blend-mode:screen" d="M444.403 295.798V254.772C444.361 254.447 444.236 254.138 444.041 253.874C443.846 253.611 443.587 253.402 443.289 253.267L421.396 240.639C420.567 240.219 419.651 240 418.721 240C417.792 240 416.876 240.219 416.047 240.639L394.297 253.267C394.001 253.404 393.746 253.614 393.554 253.878C393.362 254.141 393.241 254.448 393.2 254.772V295.798C393.221 296.142 393.335 296.475 393.532 296.759C393.728 297.043 393.999 297.268 394.315 297.41L416.199 310.037C417.028 310.454 417.944 310.672 418.873 310.672C419.802 310.672 420.718 310.454 421.547 310.037L443.289 297.41C443.607 297.275 443.879 297.051 444.072 296.765C444.265 296.479 444.371 296.143 444.376 295.798H444.403Z" fill="url(#paint48_linear_468_9)"/>
<mask id="mask3_468_9" style="mask-type:luminance" maskUnits="userSpaceOnUse" x="402" y="257" width="34" height="35">
<path d="M435.744 257.808H402.405V291.113H435.744V257.808Z" fill="white"/>
</mask>
<g mask="url(#mask3_468_9)">
<path d="M412.594 271.807L419.075 265.341L425.546 271.807L429.317 268.049L419.075 257.808L408.832 268.04L412.594 271.807ZM402.405 274.478L406.167 270.72L409.938 274.478L406.167 278.245L402.405 274.478ZM412.594 277.15L419.075 283.615L425.546 277.141L429.317 280.908L419.075 291.14L408.832 280.908L412.603 277.15M428.212 274.478L431.982 270.72L435.753 274.478L431.982 278.245L428.212 274.478Z" fill="#CAE2BF"/>
<path d="M422.89 274.46L419.075 270.64L416.258 273.463L415.928 273.792L415.259 274.46L419.084 278.272L422.908 274.46" fill="#CAE2BF"/>
</g>
<defs>
<filter id="filter0_f_468_9" x="222.477" y="69" width="57" height="74" filterUnits="userSpaceOnUse" color-interpolation-filters="sRGB">
<feFlood flood-opacity="0" result="BackgroundImageFix"/>
<feBlend mode="normal" in="SourceGraphic" in2="BackgroundImageFix" result="shape"/>
<feGaussianBlur stdDeviation="3" result="effect1_foregroundBlur_468_9"/>
</filter>
<linearGradient id="paint0_linear_468_9" x1="169.134" y1="259.661" x2="336.728" y2="259.661" gradientUnits="userSpaceOnUse">
<stop stop-color="#1A5424"/>
<stop offset="0.51" stop-color="#014E30"/>
<stop offset="1" stop-color="#12713C"/>
</linearGradient>
<linearGradient id="paint1_linear_468_9" x1="169.17" y1="228.591" x2="336.728" y2="228.591" gradientUnits="userSpaceOnUse">
<stop offset="0.01" stop-color="#00541B"/>
<stop offset="1" stop-color="#12842C"/>
</linearGradient>
<linearGradient id="paint2_linear_468_9" x1="193.683" y1="238.93" x2="312.187" y2="238.93" gradientUnits="userSpaceOnUse">
<stop stop-color="#1A5424"/>
<stop offset="0.51" stop-color="#014E30"/>
<stop offset="1" stop-color="#12713C"/>
</linearGradient>
<linearGradient id="paint3_linear_468_9" x1="193.711" y1="216.97" x2="312.188" y2="216.97" gradientUnits="userSpaceOnUse">
<stop offset="0.01" stop-color="#00541B"/>
<stop offset="1" stop-color="#12842C"/>
</linearGradient>
<linearGradient id="paint4_linear_468_9" x1="252.936" y1="213.826" x2="252.936" y2="55.6434" gradientUnits="userSpaceOnUse">
<stop stop-color="#1C8900"/>
<stop offset="1" stop-opacity="0"/>
</linearGradient>
<linearGradient id="paint5_linear_468_9" x1="252.937" y1="213.826" x2="252.937" y2="55.6434" gradientUnits="userSpaceOnUse">
<stop stop-color="#1C8900"/>
<stop offset="1" stop-opacity="0"/>
</linearGradient>
<radialGradient id="paint6_radial_468_9" cx="0" cy="0" r="1" gradientUnits="userSpaceOnUse" gradientTransform="translate(271.228 173.219) scale(5.71394 5.70822)">
<stop offset="0.05" stop-color="#1C8900"/>
<stop offset="0.18" stop-color="#125A00" stop-opacity="0.66"/>
<stop offset="0.31" stop-color="#0B3300" stop-opacity="0.38"/>
<stop offset="0.44" stop-color="#051700" stop-opacity="0.17"/>
<stop offset="0.54" stop-color="#010600" stop-opacity="0.04"/>
<stop offset="0.62" stop-opacity="0"/>
</radialGradient>
<radialGradient id="paint7_radial_468_9" cx="0" cy="0" r="1" gradientUnits="userSpaceOnUse" gradientTransform="translate(236.144 139.975) scale(5.71393 5.70822)">
<stop offset="0.05" stop-color="#1C8900"/>
<stop offset="0.18" stop-color="#125A00" stop-opacity="0.66"/>
<stop offset="0.31" stop-color="#0B3300" stop-opacity="0.38"/>
<stop offset="0.44" stop-color="#051700" stop-opacity="0.17"/>
<stop offset="0.54" stop-color="#010600" stop-opacity="0.04"/>
<stop offset="0.62" stop-opacity="0"/>
</radialGradient>
<radialGradient id="paint8_radial_468_9" cx="0" cy="0" r="1" gradientUnits="userSpaceOnUse" gradientTransform="translate(273.617 154.135) scale(5.71394 5.70822)">
<stop offset="0.05" stop-color="#1C8900"/>
<stop offset="0.18" stop-color="#125A00" stop-opacity="0.66"/>
<stop offset="0.31" stop-color="#0B3300" stop-opacity="0.38"/>
<stop offset="0.44" stop-color="#051700" stop-opacity="0.17"/>
<stop offset="0.54" stop-color="#010600" stop-opacity="0.04"/>
<stop offset="0.62" stop-opacity="0"/>
</radialGradient>
<radialGradient id="paint9_radial_468_9" cx="0" cy="0" r="1" gradientUnits="userSpaceOnUse" gradientTransform="translate(242.98 121.533) scale(1.80956 1.80775)">
<stop offset="0.05" stop-color="#1C8900"/>
<stop offset="0.18" stop-color="#125A00" stop-opacity="0.66"/>
<stop offset="0.31" stop-color="#0B3300" stop-opacity="0.38"/>
<stop offset="0.44" stop-color="#051700" stop-opacity="0.17"/>
<stop offset="0.54" stop-color="#010600" stop-opacity="0.04"/>
<stop offset="0.62" stop-opacity="0"/>
</radialGradient>
<radialGradient id="paint10_radial_468_9" cx="0" cy="0" r="1" gradientUnits="userSpaceOnUse" gradientTransform="translate(267.396 102.965) scale(1.80956 1.80775)">
<stop offset="0.05" stop-color="#1C8900"/>
<stop offset="0.18" stop-color="#125A00" stop-opacity="0.66"/>
<stop offset="0.31" stop-color="#0B3300" stop-opacity="0.38"/>
<stop offset="0.44" stop-color="#051700" stop-opacity="0.17"/>
<stop offset="0.54" stop-color="#010600" stop-opacity="0.04"/>
<stop offset="0.62" stop-opacity="0"/>
</radialGradient>
<radialGradient id="paint11_radial_468_9" cx="0" cy="0" r="1" gradientUnits="userSpaceOnUse" gradientTransform="translate(259.605 188.509) scale(1.80956 1.80776)">
<stop offset="0.05" stop-color="#1C8900"/>
<stop offset="0.18" stop-color="#125A00" stop-opacity="0.66"/>
<stop offset="0.31" stop-color="#0B3300" stop-opacity="0.38"/>
<stop offset="0.44" stop-color="#051700" stop-opacity="0.17"/>
<stop offset="0.54" stop-color="#010600" stop-opacity="0.04"/>
<stop offset="0.62" stop-opacity="0"/>
</radialGradient>
<radialGradient id="paint12_radial_468_9" cx="0" cy="0" r="1" gradientUnits="userSpaceOnUse" gradientTransform="translate(267.396 139.976) scale(3.33386 3.33053)">
<stop offset="0.05" stop-color="#1C8900"/>
<stop offset="0.18" stop-color="#125A00" stop-opacity="0.66"/>
<stop offset="0.31" stop-color="#0B3300" stop-opacity="0.38"/>
<stop offset="0.44" stop-color="#051700" stop-opacity="0.17"/>
<stop offset="0.54" stop-color="#010600" stop-opacity="0.04"/>
<stop offset="0.62" stop-opacity="0"/>
</radialGradient>
<radialGradient id="paint13_radial_468_9" cx="0" cy="0" r="1" gradientUnits="userSpaceOnUse" gradientTransform="translate(257.794 151.134) scale(3.84197 3.83813)">
<stop offset="0.05" stop-color="#1C8900"/>
<stop offset="0.18" stop-color="#125A00" stop-opacity="0.66"/>
<stop offset="0.31" stop-color="#0B3300" stop-opacity="0.38"/>
<stop offset="0.44" stop-color="#051700" stop-opacity="0.17"/>
<stop offset="0.54" stop-color="#010600" stop-opacity="0.04"/>
<stop offset="0.62" stop-opacity="0"/>
</radialGradient>
<radialGradient id="paint14_radial_468_9" cx="0" cy="0" r="1" gradientUnits="userSpaceOnUse" gradientTransform="translate(251.082 206.649) scale(5.71393 5.70822)">
<stop offset="0.05" stop-color="#1C8900"/>
<stop offset="0.18" stop-color="#125A00" stop-opacity="0.66"/>
<stop offset="0.31" stop-color="#0B3300" stop-opacity="0.38"/>
<stop offset="0.44" stop-color="#051700" stop-opacity="0.17"/>
<stop offset="0.54" stop-color="#010600" stop-opacity="0.04"/>
<stop offset="0.62" stop-opacity="0"/>
</radialGradient>
<radialGradient id="paint15_radial_468_9" cx="0" cy="0" r="1" gradientUnits="userSpaceOnUse" gradientTransform="translate(242.026 186.701) scale(2.38898 2.38659)">
<stop offset="0.05" stop-color="#1C8900"/>
<stop offset="0.18" stop-color="#125A00" stop-opacity="0.66"/>
<stop offset="0.31" stop-color="#0B3300" stop-opacity="0.38"/>
<stop offset="0.44" stop-color="#051700" stop-opacity="0.17"/>
<stop offset="0.54" stop-color="#010600" stop-opacity="0.04"/>
<stop offset="0.62" stop-opacity="0"/>
</radialGradient>
<radialGradient id="paint16_radial_468_9" cx="0" cy="0" r="1" gradientUnits="userSpaceOnUse" gradientTransform="translate(232.248 106.884) scale(2.38898 2.38659)">
<stop offset="0.05" stop-color="#1C8900"/>
<stop offset="0.18" stop-color="#125A00" stop-opacity="0.66"/>
<stop offset="0.31" stop-color="#0B3300" stop-opacity="0.38"/>
<stop offset="0.44" stop-color="#051700" stop-opacity="0.17"/>
<stop offset="0.54" stop-color="#010600" stop-opacity="0.04"/>
<stop offset="0.62" stop-opacity="0"/>
</radialGradient>
<radialGradient id="paint17_radial_468_9" cx="0" cy="0" r="1" gradientUnits="userSpaceOnUse" gradientTransform="translate(230.429 191.902) scale(1.81847 1.81666)">
<stop offset="0.05" stop-color="#1C8900"/>
<stop offset="0.18" stop-color="#125A00" stop-opacity="0.66"/>
<stop offset="0.31" stop-color="#0B3300" stop-opacity="0.38"/>
<stop offset="0.44" stop-color="#051700" stop-opacity="0.17"/>
<stop offset="0.54" stop-color="#010600" stop-opacity="0.04"/>
<stop offset="0.62" stop-opacity="0"/>
</radialGradient>
<radialGradient id="paint18_radial_468_9" cx="0" cy="0" r="1" gradientUnits="userSpaceOnUse" gradientTransform="translate(271.228 190.895) scale(2.38898 2.38659)">
<stop offset="0.05" stop-color="#1C8900"/>
<stop offset="0.18" stop-color="#125A00" stop-opacity="0.66"/>
<stop offset="0.31" stop-color="#0B3300" stop-opacity="0.38"/>
<stop offset="0.44" stop-color="#051700" stop-opacity="0.17"/>
<stop offset="0.54" stop-color="#010600" stop-opacity="0.04"/>
<stop offset="0.62" stop-opacity="0"/>
</radialGradient>
<radialGradient id="paint19_radial_468_9" cx="0" cy="0" r="1" gradientUnits="userSpaceOnUse" gradientTransform="translate(232.988 167.51) scale(2.38898 2.38659)">
<stop offset="0.05" stop-color="#1C8900"/>
<stop offset="0.18" stop-color="#125A00" stop-opacity="0.66"/>
<stop offset="0.31" stop-color="#0B3300" stop-opacity="0.38"/>
<stop offset="0.44" stop-color="#051700" stop-opacity="0.17"/>
<stop offset="0.54" stop-color="#010600" stop-opacity="0.04"/>
<stop offset="0.62" stop-opacity="0"/>
</radialGradient>
<radialGradient id="paint20_radial_468_9" cx="0" cy="0" r="1" gradientUnits="userSpaceOnUse" gradientTransform="translate(257.794 85.3866) scale(2.38898 2.38659)">
<stop offset="0.05" stop-color="#1C8900"/>
<stop offset="0.18" stop-color="#125A00" stop-opacity="0.66"/>
<stop offset="0.31" stop-color="#0B3300" stop-opacity="0.38"/>
<stop offset="0.44" stop-color="#051700" stop-opacity="0.17"/>
<stop offset="0.54" stop-color="#010600" stop-opacity="0.04"/>
<stop offset="0.62" stop-opacity="0"/>
</radialGradient>
<linearGradient id="paint21_linear_468_9" x1="53.865" y1="330.082" x2="151.644" y2="330.082" gradientUnits="userSpaceOnUse">
<stop stop-color="#1A5424"/>
<stop offset="0.51" stop-color="#014E30"/>
<stop offset="1" stop-color="#12713C"/>
</linearGradient>
<linearGradient id="paint22_linear_468_9" x1="53.8737" y1="314.774" x2="151.643" y2="314.774" gradientUnits="userSpaceOnUse">
<stop offset="0.01" stop-color="#00541B"/>
<stop offset="1" stop-color="#12842C"/>
</linearGradient>
<linearGradient id="paint23_linear_468_9" x1="59.2587" y1="319.494" x2="146.251" y2="319.494" gradientUnits="userSpaceOnUse">
<stop stop-color="#1A5424"/>
<stop offset="0.51" stop-color="#014E30"/>
<stop offset="1" stop-color="#12713C"/>
</linearGradient>
<linearGradient id="paint24_linear_468_9" x1="59.2678" y1="305.869" x2="146.252" y2="305.869" gradientUnits="userSpaceOnUse">
<stop offset="0.01" stop-color="#00541B"/>
<stop offset="1" stop-color="#12842C"/>
</linearGradient>
<linearGradient id="paint25_linear_468_9" x1="64.0547" y1="310.954" x2="141.456" y2="310.954" gradientUnits="userSpaceOnUse">
<stop stop-color="#1A5424"/>
<stop offset="0.51" stop-color="#014E30"/>
<stop offset="1" stop-color="#12713C"/>
</linearGradient>
<linearGradient id="paint26_linear_468_9" x1="64.0632" y1="298.834" x2="141.455" y2="298.834" gradientUnits="userSpaceOnUse">
<stop offset="0.01" stop-color="#00541B"/>
<stop offset="1" stop-color="#12842C"/>
</linearGradient>
<linearGradient id="paint27_linear_468_9" x1="101.547" y1="315.656" x2="101.547" y2="241.44" gradientUnits="userSpaceOnUse">
<stop stop-color="#1C8900"/>
<stop offset="1" stop-opacity="0"/>
</linearGradient>
<linearGradient id="paint28_linear_468_9" x1="56.7715" y1="162.526" x2="138.353" y2="162.526" gradientUnits="userSpaceOnUse">
<stop stop-color="#1A5424"/>
<stop offset="0.51" stop-color="#014E30"/>
<stop offset="1" stop-color="#12713C"/>
</linearGradient>
<linearGradient id="paint29_linear_468_9" x1="56.7804" y1="149.747" x2="138.353" y2="149.747" gradientUnits="userSpaceOnUse">
<stop offset="0.01" stop-color="#00541B"/>
<stop offset="1" stop-color="#12842C"/>
</linearGradient>
<linearGradient id="paint30_linear_468_9" x1="61.2747" y1="153.684" x2="133.853" y2="153.684" gradientUnits="userSpaceOnUse">
<stop stop-color="#1A5424"/>
<stop offset="0.51" stop-color="#014E30"/>
<stop offset="1" stop-color="#12713C"/>
</linearGradient>
<linearGradient id="paint31_linear_468_9" x1="61.2742" y1="142.321" x2="133.853" y2="142.321" gradientUnits="userSpaceOnUse">
<stop offset="0.01" stop-color="#00541B"/>
<stop offset="1" stop-color="#12842C"/>
</linearGradient>
<linearGradient id="paint32_linear_468_9" x1="65.2764" y1="146.568" x2="129.85" y2="146.568" gradientUnits="userSpaceOnUse">
<stop stop-color="#1A5424"/>
<stop offset="0.51" stop-color="#014E30"/>
<stop offset="1" stop-color="#12713C"/>
</linearGradient>
<linearGradient id="paint33_linear_468_9" x1="65.277" y1="136.452" x2="129.851" y2="136.452" gradientUnits="userSpaceOnUse">
<stop offset="0.01" stop-color="#00541B"/>
<stop offset="1" stop-color="#12842C"/>
</linearGradient>
<linearGradient id="paint34_linear_468_9" x1="97.5715" y1="150.486" x2="97.5715" y2="88.5509" gradientUnits="userSpaceOnUse">
<stop stop-color="#1C8900"/>
<stop offset="1" stop-opacity="0"/>
</linearGradient>
<linearGradient id="paint35_linear_468_9" x1="367.421" y1="161.389" x2="446.943" y2="161.389" gradientUnits="userSpaceOnUse">
<stop stop-color="#1A5424"/>
<stop offset="0.51" stop-color="#014E30"/>
<stop offset="1" stop-color="#12713C"/>
</linearGradient>
<linearGradient id="paint36_linear_468_9" x1="367.42" y1="148.94" x2="446.943" y2="148.94" gradientUnits="userSpaceOnUse">
<stop offset="0.01" stop-color="#00541B"/>
<stop offset="1" stop-color="#12842C"/>
</linearGradient>
<linearGradient id="paint37_linear_468_9" x1="371.807" y1="152.777" x2="442.558" y2="152.777" gradientUnits="userSpaceOnUse">
<stop stop-color="#1A5424"/>
<stop offset="0.51" stop-color="#014E30"/>
<stop offset="1" stop-color="#12713C"/>
</linearGradient>
<linearGradient id="paint38_linear_468_9" x1="371.807" y1="141.7" x2="442.558" y2="141.7" gradientUnits="userSpaceOnUse">
<stop offset="0.01" stop-color="#00541B"/>
<stop offset="1" stop-color="#12842C"/>
</linearGradient>
<linearGradient id="paint39_linear_468_9" x1="375.701" y1="145.841" x2="438.652" y2="145.841" gradientUnits="userSpaceOnUse">
<stop stop-color="#1A5424"/>
<stop offset="0.51" stop-color="#014E30"/>
<stop offset="1" stop-color="#12713C"/>
</linearGradient>
<linearGradient id="paint40_linear_468_9" x1="375.709" y1="135.982" x2="438.651" y2="135.982" gradientUnits="userSpaceOnUse">
<stop offset="0.01" stop-color="#00541B"/>
<stop offset="1" stop-color="#12842C"/>
</linearGradient>
<linearGradient id="paint41_linear_468_9" x1="407.185" y1="149.661" x2="407.185" y2="89.2838" gradientUnits="userSpaceOnUse">
<stop stop-color="#1C8900"/>
<stop offset="1" stop-opacity="0"/>
</linearGradient>
<linearGradient id="paint42_linear_468_9" x1="378.001" y1="323.528" x2="459.583" y2="323.528" gradientUnits="userSpaceOnUse">
<stop stop-color="#1A5424"/>
<stop offset="0.51" stop-color="#014E30"/>
<stop offset="1" stop-color="#12713C"/>
</linearGradient>
<linearGradient id="paint43_linear_468_9" x1="378.001" y1="310.749" x2="459.582" y2="310.749" gradientUnits="userSpaceOnUse">
<stop offset="0.01" stop-color="#00541B"/>
<stop offset="1" stop-color="#12842C"/>
</linearGradient>
<linearGradient id="paint44_linear_468_9" x1="382.493" y1="314.686" x2="455.08" y2="314.686" gradientUnits="userSpaceOnUse">
<stop stop-color="#1A5424"/>
<stop offset="0.51" stop-color="#014E30"/>
<stop offset="1" stop-color="#12713C"/>
</linearGradient>
<linearGradient id="paint45_linear_468_9" x1="382.502" y1="303.323" x2="455.08" y2="303.323" gradientUnits="userSpaceOnUse">
<stop offset="0.01" stop-color="#00541B"/>
<stop offset="1" stop-color="#12842C"/>
</linearGradient>
<linearGradient id="paint46_linear_468_9" x1="386.497" y1="307.57" x2="451.08" y2="307.57" gradientUnits="userSpaceOnUse">
<stop stop-color="#1A5424"/>
<stop offset="0.51" stop-color="#014E30"/>
<stop offset="1" stop-color="#12713C"/>
</linearGradient>
<linearGradient id="paint47_linear_468_9" x1="386.506" y1="297.454" x2="451.079" y2="297.454" gradientUnits="userSpaceOnUse">
<stop offset="0.01" stop-color="#00541B"/>
<stop offset="1" stop-color="#12842C"/>
</linearGradient>
<linearGradient id="paint48_linear_468_9" x1="418.793" y1="311.489" x2="418.793" y2="249.553" gradientUnits="userSpaceOnUse">
<stop stop-color="#1C8900"/>
<stop offset="1" stop-opacity="0"/>
</linearGradient>
</defs>
</svg>
