<svg width="737" height="114" viewBox="0 0 737 114" fill="none" xmlns="http://www.w3.org/2000/svg">
<g opacity="0.08">
<mask id="path-1-outside-1_171_972" maskUnits="userSpaceOnUse" x="-2" y="-3" width="741" height="120" fill="black">
<rect fill="white" x="-2" y="-3" width="741" height="120"/>
<path d="M15.6865 50.0756V73.8892H76.5582V87H0.435144V0.308039H76.4244V13.4189H15.6865V37.5H65.4541V50.0756H15.6865ZM163.024 61.1797C162.489 66.8878 160.661 71.7932 157.539 75.8959C154.418 79.9986 150.226 83.1203 144.964 85.2608C139.791 87.4014 133.815 88.4716 127.037 88.4716C119.723 88.4716 113.078 87.1338 107.103 84.4581C101.216 81.7824 96.5338 77.8581 93.0554 72.6851C89.577 67.5121 87.8378 61.2243 87.8378 53.8216C87.8378 46.4189 89.577 40.131 93.0554 34.9581C96.5338 29.7851 101.216 25.8162 107.103 23.0513C113.078 20.2864 119.723 18.904 127.037 18.904C133.815 18.904 139.791 20.0189 144.964 22.2486C150.137 24.3891 154.284 27.4662 157.405 31.4797C160.527 35.4932 162.355 40.354 162.891 46.0621H149.245C147.728 41.3351 144.964 37.6783 140.95 35.0918C137.026 32.4162 132.388 31.0783 127.037 31.0783C122.666 31.0783 118.653 31.9702 114.996 33.754C111.339 35.4486 108.396 37.9905 106.166 41.3797C104.026 44.6797 102.955 48.827 102.955 53.8216C102.955 58.727 104.026 62.8743 106.166 66.2635C108.396 69.6527 111.339 72.1946 114.996 73.8892C118.653 75.4946 122.666 76.2973 127.037 76.2973C132.923 76.2973 137.739 75.004 141.485 72.4176C145.32 69.7419 147.951 65.9959 149.378 61.1797H163.024ZM211.56 88.4716C204.157 88.4716 197.512 87.1338 191.626 84.4581C185.739 81.7824 181.102 77.8581 177.712 72.6851C174.323 67.5121 172.629 61.2243 172.629 53.8216C172.629 46.5081 174.323 40.2648 177.712 35.0918C181.102 29.8297 185.739 25.8162 191.626 23.0513C197.512 20.2864 204.157 18.904 211.56 18.904C218.962 18.904 225.562 20.2864 231.36 23.0513C237.157 25.8162 241.706 29.8297 245.006 35.0918C248.395 40.2648 250.089 46.5081 250.089 53.8216C250.089 61.2243 248.395 67.5121 245.006 72.6851C241.706 77.8581 237.157 81.7824 231.36 84.4581C225.562 87.1338 218.962 88.4716 211.56 88.4716ZM211.56 76.2973C215.841 76.2973 219.765 75.45 223.333 73.7554C226.9 72.0608 229.71 69.5189 231.761 66.1297C233.902 62.7405 234.972 58.6378 234.972 53.8216C234.972 49.0054 233.902 44.9027 231.761 41.5135C229.71 38.1243 226.9 35.5378 223.333 33.754C219.854 31.881 215.93 30.9445 211.56 30.9445C207.189 30.9445 203.221 31.8364 199.653 33.6202C196.085 35.404 193.187 37.9905 190.957 41.3797C188.816 44.7689 187.746 48.9162 187.746 53.8216C187.746 58.6378 188.816 62.7405 190.957 66.1297C193.098 69.5189 195.952 72.0608 199.519 73.7554C203.176 75.45 207.189 76.2973 211.56 76.2973ZM260.437 65.0594H274.217C274.93 68.4486 276.758 71.2135 279.702 73.354C282.645 75.4054 286.614 76.4311 291.608 76.4311C294.819 76.4311 297.317 76.0743 299.1 75.3608C300.973 74.6473 302.267 73.6662 302.98 72.4176C303.783 71.1689 304.184 69.7419 304.184 68.1365C304.184 66.1743 303.604 64.6581 302.445 63.5878C301.375 62.5175 299.769 61.6257 297.629 60.9121C295.488 60.1986 292.813 59.5743 289.602 59.0392C286.302 58.2365 283.046 57.3446 279.835 56.3635C276.625 55.3824 273.726 54.1784 271.14 52.7513C268.553 51.2351 266.502 49.3621 264.985 47.1324C263.558 44.8135 262.845 42.004 262.845 38.704C262.845 35.6716 263.514 32.9513 264.852 30.5432C266.279 28.0459 268.241 25.9499 270.738 24.2554C273.235 22.5608 276.179 21.2675 279.568 20.3756C282.957 19.3945 286.658 18.904 290.672 18.904C296.469 18.904 301.285 19.8405 305.121 21.7135C309.045 23.5864 311.988 26.2175 313.95 29.6067C316.002 32.9959 317.027 36.8756 317.027 41.2459H303.917C303.203 37.6783 301.821 35.0918 299.769 33.4864C297.718 31.881 294.641 31.0783 290.538 31.0783C286.435 31.0783 283.314 31.7918 281.173 33.2189C279.033 34.6459 277.962 36.6081 277.962 39.1054C277.962 40.9783 278.631 42.4946 279.969 43.654C281.396 44.7243 283.403 45.6608 285.99 46.4635C288.576 47.2662 291.608 48.0689 295.087 48.8716C298.298 49.7635 301.33 50.7 304.184 51.6811C307.038 52.5729 309.58 53.7324 311.81 55.1594C314.129 56.4973 315.957 58.2811 317.295 60.5108C318.633 62.7405 319.302 65.5054 319.302 68.8054C319.302 72.9081 318.187 76.4311 315.957 79.3743C313.817 82.3176 310.695 84.5919 306.592 86.1973C302.49 87.7135 297.54 88.4716 291.742 88.4716C286.658 88.4716 282.244 87.8919 278.498 86.7324C274.841 85.573 271.764 84.0568 269.267 82.1838C266.858 80.3108 264.985 78.304 263.648 76.1635C262.31 74.023 261.373 71.9716 260.838 70.0094C260.392 68.0473 260.258 66.3973 260.437 65.0594ZM324.644 20.3756H340.564L367.455 84.3243L354.611 87L324.644 20.3756ZM398.894 20.3756L356.083 113.757H340.43L358.759 77.2338L382.973 20.3756H398.894ZM404.542 65.0594H418.322C419.035 68.4486 420.864 71.2135 423.807 73.354C426.75 75.4054 430.719 76.4311 435.714 76.4311C438.924 76.4311 441.422 76.0743 443.205 75.3608C445.078 74.6473 446.372 73.6662 447.085 72.4176C447.888 71.1689 448.289 69.7419 448.289 68.1365C448.289 66.1743 447.71 64.6581 446.55 63.5878C445.48 62.5175 443.874 61.6257 441.734 60.9121C439.593 60.1986 436.918 59.5743 433.707 59.0392C430.407 58.2365 427.151 57.3446 423.941 56.3635C420.73 55.3824 417.831 54.1784 415.245 52.7513C412.658 51.2351 410.607 49.3621 409.091 47.1324C407.664 44.8135 406.95 42.004 406.95 38.704C406.95 35.6716 407.619 32.9513 408.957 30.5432C410.384 28.0459 412.346 25.9499 414.843 24.2554C417.341 22.5608 420.284 21.2675 423.673 20.3756C427.062 19.3945 430.764 18.904 434.777 18.904C440.574 18.904 445.391 19.8405 449.226 21.7135C453.15 23.5864 456.093 26.2175 458.055 29.6067C460.107 32.9959 461.133 36.8756 461.133 41.2459H448.022C447.308 37.6783 445.926 35.0918 443.874 33.4864C441.823 31.881 438.746 31.0783 434.643 31.0783C430.541 31.0783 427.419 31.7918 425.278 33.2189C423.138 34.6459 422.068 36.6081 422.068 39.1054C422.068 40.9783 422.737 42.4946 424.074 43.654C425.501 44.7243 427.508 45.6608 430.095 46.4635C432.681 47.2662 435.714 48.0689 439.192 48.8716C442.403 49.7635 445.435 50.7 448.289 51.6811C451.143 52.5729 453.685 53.7324 455.915 55.1594C458.234 56.4973 460.062 58.2811 461.4 60.5108C462.738 62.7405 463.407 65.5054 463.407 68.8054C463.407 72.9081 462.292 76.4311 460.062 79.3743C457.922 82.3176 454.8 84.5919 450.697 86.1973C446.595 87.7135 441.645 88.4716 435.847 88.4716C430.764 88.4716 426.349 87.8919 422.603 86.7324C418.946 85.573 415.869 84.0568 413.372 82.1838C410.964 80.3108 409.091 78.304 407.753 76.1635C406.415 74.023 405.478 71.9716 404.943 70.0094C404.497 68.0473 404.364 66.3973 404.542 65.0594ZM472.177 20.3756H519.269V32.55H472.177V20.3756ZM488.231 2.44858H503.215V87H488.231V2.44858ZM585.557 65.0594H599.872C599.158 69.6081 597.374 73.6662 594.52 77.2338C591.755 80.7122 587.965 83.477 583.149 85.5284C578.332 87.4905 572.58 88.4716 565.891 88.4716C558.309 88.4716 551.531 87.0892 545.555 84.3243C539.58 81.4703 534.897 77.4567 531.508 72.2838C528.119 67.1108 526.424 60.9567 526.424 53.8216C526.424 46.7756 528.074 40.6216 531.374 35.3594C534.674 30.0972 539.223 26.0391 545.02 23.1851C550.907 20.331 557.685 18.904 565.355 18.904C573.293 18.904 579.893 20.331 585.155 23.1851C590.507 25.9499 594.476 30.1418 597.062 35.7608C599.649 41.2905 600.719 48.2919 600.273 56.7648H541.542C541.988 60.5108 543.192 63.9 545.154 66.9324C547.205 69.8757 549.97 72.1946 553.449 73.8892C556.927 75.4946 560.985 76.2973 565.623 76.2973C570.796 76.2973 575.122 75.2716 578.6 73.2203C582.168 71.1689 584.486 68.4486 585.557 65.0594ZM564.954 30.9445C558.889 30.9445 553.895 32.4608 549.97 35.4932C546.046 38.4364 543.504 42.227 542.345 46.8648H585.289C584.932 41.8702 582.926 37.9905 579.269 35.2256C575.612 32.3716 570.841 30.9445 564.954 30.9445ZM613.518 20.3756H628.368V87H613.518V20.3756ZM656.462 18.904C660.297 18.904 663.82 19.4391 667.031 20.5094C670.331 21.5797 673.141 23.2297 675.46 25.4594C677.868 27.6 679.696 30.2756 680.945 33.4864C682.282 36.6973 682.951 40.4878 682.951 44.8581V87H668.101V47.8013C668.101 42.3608 666.764 38.3473 664.088 35.7608C661.501 33.0851 657.399 31.7473 651.78 31.7473C647.499 31.7473 643.574 32.6837 640.007 34.5567C636.528 36.3405 633.674 38.704 631.445 41.6473C629.215 44.5013 627.922 47.6675 627.565 51.1459L627.431 43.9216C627.877 40.6216 628.858 37.5 630.374 34.5567C631.891 31.5243 633.897 28.8486 636.395 26.5297C638.892 24.1216 641.835 22.2486 645.224 20.9108C648.614 19.5729 652.359 18.904 656.462 18.904ZM709.574 18.904C713.499 18.904 717.066 19.4391 720.277 20.5094C723.488 21.5797 726.253 23.2297 728.572 25.4594C730.98 27.6 732.853 30.2756 734.191 33.4864C735.528 36.6973 736.197 40.4878 736.197 44.8581V87H721.214V47.8013C721.214 42.3608 719.876 38.3473 717.2 35.7608C714.614 33.0851 710.511 31.7473 704.892 31.7473C700.611 31.7473 696.687 32.6837 693.119 34.5567C689.641 36.3405 686.787 38.704 684.557 41.6473C682.416 44.5013 681.168 47.6675 680.811 51.1459L680.543 43.654C680.989 40.4432 682.015 37.3662 683.62 34.4229C685.226 31.3905 687.277 28.7148 689.774 26.3959C692.272 24.077 695.17 22.2486 698.47 20.9108C701.86 19.5729 705.561 18.904 709.574 18.904Z"/>
</mask>
<path d="M15.6865 50.0756V47.6866H13.2975V50.0756H15.6865ZM15.6865 73.8892H13.2975V76.2782H15.6865V73.8892ZM76.5582 73.8892H78.9472V71.5002H76.5582V73.8892ZM76.5582 87V89.389H78.9472V87H76.5582ZM0.435143 87H-1.95385V89.389H0.435143V87ZM0.435143 0.308041V-2.08096H-1.95385V0.308041H0.435143ZM76.4244 0.308041H78.8134V-2.08096H76.4244V0.308041ZM76.4244 13.4189V15.8079H78.8134V13.4189H76.4244ZM15.6865 13.4189V11.0299H13.2975V13.4189H15.6865ZM15.6865 37.5H13.2975V39.889H15.6865V37.5ZM65.4541 37.5H67.8431V35.111H65.4541V37.5ZM65.4541 50.0756V52.4646H67.8431V50.0756H65.4541ZM13.2975 50.0756V73.8892H18.0755V50.0756H13.2975ZM15.6865 76.2782H76.5582V71.5002H15.6865V76.2782ZM74.1692 73.8892V87H78.9472V73.8892H74.1692ZM76.5582 84.611H0.435143V89.389H76.5582V84.611ZM2.82414 87V0.308041H-1.95385V87H2.82414ZM0.435143 2.69704H76.4244V-2.08096H0.435143V2.69704ZM74.0354 0.308041V13.4189H78.8134V0.308041H74.0354ZM76.4244 11.0299H15.6865V15.8079H76.4244V11.0299ZM13.2975 13.4189V37.5H18.0755V13.4189H13.2975ZM15.6865 39.889H65.4541V35.111H15.6865V39.889ZM63.0651 37.5V50.0756H67.8431V37.5H63.0651ZM65.4541 47.6866H15.6865V52.4646H65.4541V47.6866ZM163.024 61.1797L165.403 61.4027L165.648 58.7907H163.024V61.1797ZM157.539 75.8959L159.44 77.3425L157.539 75.8959ZM144.964 85.2608L144.063 83.0479L144.057 83.0506L144.05 83.0533L144.964 85.2608ZM107.103 84.4581L106.114 86.633L106.126 86.6385L107.103 84.4581ZM93.0554 72.6851L95.0379 71.3521L93.0554 72.6851ZM93.0554 34.9581L91.0729 33.625L93.0554 34.9581ZM107.103 23.0513L106.1 20.8831L106.087 20.8889L107.103 23.0513ZM144.964 22.2486L144.018 24.4425L144.034 24.4494L144.05 24.4561L144.964 22.2486ZM157.405 31.4797L159.291 30.013L157.405 31.4797ZM162.891 46.0621V48.4511H165.514L165.269 45.8391L162.891 46.0621ZM149.245 46.0621L146.97 46.7918L147.502 48.4511H149.245V46.0621ZM140.95 35.0919L139.604 37.0657L139.63 37.0832L139.656 37.1L140.95 35.0919ZM114.996 33.754L116 35.9216L116.022 35.9116L116.043 35.9012L114.996 33.754ZM106.166 41.3797L104.17 40.0667L104.166 40.0731L104.162 40.0796L106.166 41.3797ZM106.166 66.2635L104.146 67.5392L104.158 67.558L104.17 67.5765L106.166 66.2635ZM114.996 73.8892L113.991 76.0567L114.013 76.0669L114.036 76.0767L114.996 73.8892ZM141.485 72.4176L142.843 74.3835L142.852 74.3768L141.485 72.4176ZM149.378 61.1797V58.7907H147.595L147.088 60.501L149.378 61.1797ZM160.646 60.9567C160.148 66.2718 158.46 70.7408 155.638 74.4493L159.44 77.3425C162.862 72.8456 164.831 67.5039 165.403 61.4027L160.646 60.9567ZM155.638 74.4493C152.801 78.1776 148.971 81.0516 144.063 83.0479L145.864 87.4737C151.481 85.1889 156.034 81.8197 159.44 77.3425L155.638 74.4493ZM144.05 83.0533C139.221 85.0516 133.566 86.0826 127.037 86.0826V90.8606C134.064 90.8606 140.36 89.7511 145.877 87.4683L144.05 83.0533ZM127.037 86.0826C120.02 86.0826 113.713 84.8006 108.079 82.2777L106.126 86.6385C112.443 89.467 119.426 90.8606 127.037 90.8606V86.0826ZM108.091 82.2832C102.592 79.7835 98.2598 76.1437 95.0379 71.3521L91.0729 74.0182C94.8077 79.5725 99.8405 83.7813 106.114 86.633L108.091 82.2832ZM95.0379 71.3521C91.871 66.6423 90.2268 60.8402 90.2268 53.8216H85.4488C85.4488 61.6084 87.2831 68.382 91.0729 74.0182L95.0379 71.3521ZM90.2268 53.8216C90.2268 46.803 91.871 41.0009 95.0379 36.2911L91.0729 33.625C87.2831 39.2612 85.4488 46.0348 85.4488 53.8216H90.2268ZM95.0379 36.2911C98.2643 31.4929 102.606 27.803 108.118 25.2137L106.087 20.8889C99.8269 23.8293 94.8033 28.0773 91.0729 33.625L95.0379 36.2911ZM108.106 25.2195C113.734 22.6155 120.031 21.293 127.037 21.293V16.515C119.415 16.515 112.423 17.9574 106.1 20.8831L108.106 25.2195ZM127.037 21.293C133.554 21.293 139.198 22.3648 144.018 24.4425L145.909 20.0547C140.383 17.6729 134.075 16.515 127.037 16.515V21.293ZM144.05 24.4561C148.88 26.4546 152.678 29.2922 155.52 32.9464L159.291 30.013C155.89 25.6401 151.393 22.3237 145.877 20.0411L144.05 24.4561ZM155.52 32.9464C158.327 36.5563 160.014 40.9706 160.512 46.2851L165.269 45.8391C164.697 39.7375 162.727 34.4301 159.291 30.013L155.52 32.9464ZM162.891 43.6731H149.245V48.4511H162.891V43.6731ZM151.519 45.3325C149.842 40.1012 146.742 35.9826 142.244 33.0837L139.656 37.1C143.185 39.3741 145.615 42.569 146.97 46.7918L151.519 45.3325ZM142.296 33.118C137.926 30.1384 132.805 28.6893 127.037 28.6893V33.4673C131.971 33.4673 136.126 34.694 139.604 37.0657L142.296 33.118ZM127.037 28.6893C122.331 28.6893 117.955 29.6523 113.949 31.6068L116.043 35.9012C119.35 34.2881 123.002 33.4673 127.037 33.4673V28.6893ZM113.991 31.5864C109.928 33.4694 106.643 36.3085 104.17 40.0667L108.162 42.6927C110.149 39.6725 112.75 37.4279 116 35.9216L113.991 31.5864ZM104.162 40.0796C101.711 43.8589 100.566 48.4893 100.566 53.8216H105.344C105.344 49.1647 106.341 45.5005 108.171 42.6798L104.162 40.0796ZM100.566 53.8216C100.566 59.0772 101.716 63.6907 104.146 67.5392L108.186 64.9878C106.336 62.0579 105.344 58.3768 105.344 53.8216H100.566ZM104.17 67.5765C106.643 71.3347 109.928 74.1738 113.991 76.0567L116 71.7216C112.75 70.2153 110.149 67.9707 108.162 64.9505L104.17 67.5765ZM114.036 76.0767C118.023 77.827 122.367 78.6863 127.037 78.6863V73.9083C122.965 73.9083 119.283 73.1621 115.956 71.7017L114.036 76.0767ZM127.037 78.6863C133.267 78.6863 138.595 77.3161 142.843 74.3835L140.128 70.4517C136.883 72.692 132.579 73.9083 127.037 73.9083V78.6863ZM142.852 74.3768C147.165 71.3676 150.1 67.1526 151.669 61.8584L147.088 60.501C145.802 64.8393 143.475 68.1162 140.118 70.4583L142.852 74.3768ZM149.378 63.5687H163.024V58.7907H149.378V63.5687ZM191.626 84.4581L190.637 86.633L191.626 84.4581ZM177.712 72.6851L179.711 71.3759L177.712 72.6851ZM177.712 35.0919L179.711 36.4011L179.716 36.3933L179.721 36.3854L177.712 35.0919ZM191.626 23.0513L190.61 20.8889L191.626 23.0513ZM245.006 35.0919L242.982 36.3611L242.994 36.3812L243.007 36.4011L245.006 35.0919ZM245.006 72.6851L243.007 71.3759L242.999 71.388L242.992 71.4003L245.006 72.6851ZM231.36 84.4581L230.359 82.289L231.36 84.4581ZM231.761 66.1297L229.741 64.854L229.729 64.8732L229.717 64.8927L231.761 66.1297ZM231.761 41.5135L229.717 42.7505L229.729 42.77L229.741 42.7892L231.761 41.5135ZM223.333 33.754L222.2 35.8575L222.232 35.8746L222.264 35.8908L223.333 33.754ZM199.653 33.6202L198.585 31.4834L199.653 33.6202ZM190.957 41.3797L188.961 40.0667L188.949 40.0852L188.937 40.104L190.957 41.3797ZM190.957 66.1297L188.937 67.4054L190.957 66.1297ZM199.519 73.7554L198.494 75.9133L198.504 75.9182L198.515 75.923L199.519 73.7554ZM211.56 86.0826C204.449 86.0826 198.149 84.7987 192.614 82.2832L190.637 86.633C196.876 89.4688 203.865 90.8606 211.56 90.8606V86.0826ZM192.614 82.2832C187.12 79.7858 182.84 76.1529 179.711 71.3759L175.714 73.9944C179.363 79.5633 184.359 83.7791 190.637 86.633L192.614 82.2832ZM179.711 71.3759C176.623 66.663 175.018 60.8521 175.018 53.8216H170.24C170.24 61.5965 172.023 68.3613 175.714 73.9944L179.711 71.3759ZM175.018 53.8216C175.018 46.8868 176.62 41.1185 179.711 36.4011L175.714 33.7826C172.026 39.4112 170.24 46.1294 170.24 53.8216H175.018ZM179.721 36.3854C182.857 31.5155 187.144 27.7957 192.642 25.2137L190.61 20.8889C184.335 23.8367 179.346 28.1439 175.704 33.7983L179.721 36.3854ZM192.642 25.2137C198.169 22.6174 204.459 21.293 211.56 21.293V16.515C203.855 16.515 196.856 17.9554 190.61 20.8889L192.642 25.2137ZM211.56 21.293C218.661 21.293 224.901 22.6177 230.331 25.2076L232.388 20.895C226.224 17.9552 219.264 16.515 211.56 16.515V21.293ZM230.331 25.2076C235.734 27.7843 239.931 31.4967 242.982 36.3611L247.03 33.8226C243.48 28.1627 238.58 23.848 232.388 20.895L230.331 25.2076ZM243.007 36.4011C246.098 41.1185 247.7 46.8868 247.7 53.8216H252.478C252.478 46.1294 250.692 39.4112 247.004 33.7826L243.007 36.4011ZM247.7 53.8216C247.7 60.8521 246.095 66.663 243.007 71.3759L247.004 73.9944C250.695 68.3613 252.478 61.5965 252.478 53.8216H247.7ZM242.992 71.4003C239.948 76.1714 235.758 79.7968 230.359 82.289L232.361 86.6272C238.556 83.768 243.463 79.5448 247.02 73.97L242.992 71.4003ZM230.359 82.289C224.921 84.7985 218.672 86.0826 211.56 86.0826V90.8606C219.253 90.8606 226.203 89.4691 232.361 86.6272L230.359 82.289ZM211.56 78.6863C216.165 78.6863 220.444 77.7725 224.358 75.9133L222.308 71.5975C219.087 73.1275 215.516 73.9083 211.56 73.9083V78.6863ZM224.358 75.9133C228.349 74.0174 231.512 71.1547 233.805 67.3667L229.717 64.8927C227.907 67.8831 225.451 70.1042 222.308 71.5975L224.358 75.9133ZM233.781 67.4054C236.207 63.5636 237.361 58.9976 237.361 53.8216H232.583C232.583 58.278 231.596 61.9174 229.741 64.854L233.781 67.4054ZM237.361 53.8216C237.361 48.6456 236.207 44.0796 233.781 40.2378L229.741 42.7892C231.596 45.7257 232.583 49.3652 232.583 53.8216H237.361ZM233.805 40.2765C231.518 36.4985 228.369 33.6013 224.401 31.6172L222.264 35.8908C225.431 37.4743 227.901 39.7501 229.717 42.7505L233.805 40.2765ZM224.465 31.6506C220.603 29.5708 216.283 28.5555 211.56 28.5555V33.3335C215.577 33.3335 219.106 34.1912 222.2 35.8575L224.465 31.6506ZM211.56 28.5555C206.855 28.5555 202.515 29.5184 198.585 31.4834L200.721 35.757C203.926 34.1545 207.524 33.3335 211.56 33.3335V28.5555ZM198.585 31.4834C194.634 33.4587 191.418 36.3323 188.961 40.0667L192.953 42.6927C194.955 39.6487 197.537 37.3493 200.721 35.757L198.585 31.4834ZM188.937 40.104C186.507 43.9525 185.357 48.566 185.357 53.8216H190.135C190.135 49.2664 191.126 45.5853 192.977 42.6554L188.937 40.104ZM185.357 53.8216C185.357 58.9976 186.511 63.5636 188.937 67.4054L192.977 64.854C191.122 61.9174 190.135 58.278 190.135 53.8216H185.357ZM188.937 67.4054C191.315 71.1709 194.512 74.0217 198.494 75.9133L200.544 71.5975C197.391 70.0999 194.88 67.8669 192.977 64.854L188.937 67.4054ZM198.515 75.923C202.512 77.7754 206.872 78.6863 211.56 78.6863V73.9083C207.507 73.9083 203.84 73.1246 200.524 71.5878L198.515 75.923ZM260.437 65.0594V62.6704H258.345L258.069 64.7437L260.437 65.0594ZM274.217 65.0594L276.554 64.5673L276.155 62.6704H274.217V65.0594ZM279.702 73.354L278.297 75.2861L278.316 75.3002L278.336 75.314L279.702 73.354ZM299.1 75.3608L298.25 73.1283L298.231 73.1353L298.213 73.1427L299.1 75.3608ZM302.98 72.4176L300.971 71.1257L300.937 71.1781L300.906 71.2323L302.98 72.4176ZM302.445 63.5878L300.756 65.2771L300.789 65.3109L300.825 65.3433L302.445 63.5878ZM297.629 60.9121L298.384 58.6457L297.629 60.9121ZM289.602 59.0392L289.037 61.3605L289.122 61.3812L289.209 61.3957L289.602 59.0392ZM279.835 56.3635L280.534 54.0788L279.835 56.3635ZM271.14 52.7513L269.931 54.8123L269.958 54.828L269.985 54.8431L271.14 52.7513ZM264.985 47.1324L262.951 48.3845L262.979 48.4308L263.01 48.4758L264.985 47.1324ZM264.852 30.5432L262.777 29.3579L262.77 29.3704L262.763 29.383L264.852 30.5432ZM270.738 24.2554L272.08 26.2322L270.738 24.2554ZM279.568 20.3756L280.176 22.686L280.204 22.6785L280.232 22.6704L279.568 20.3756ZM305.121 21.7135L304.072 23.8601L304.082 23.8649L304.092 23.8695L305.121 21.7135ZM313.95 29.6067L311.883 30.8037L311.895 30.8238L311.907 30.8437L313.95 29.6067ZM317.027 41.2459V43.6349H319.416V41.2459H317.027ZM303.917 41.2459L301.574 41.7144L301.958 43.6349H303.917V41.2459ZM299.769 33.4864L298.297 35.3678L299.769 33.4864ZM279.969 43.654L278.405 45.4594L278.468 45.5146L278.536 45.5652L279.969 43.654ZM285.99 46.4635L285.281 48.7451L285.99 46.4635ZM295.087 48.8716L295.726 46.5697L295.675 46.5556L295.624 46.5438L295.087 48.8716ZM304.184 51.6811L303.408 53.9403L303.439 53.9513L303.472 53.9613L304.184 51.6811ZM311.81 55.1594L310.522 57.1716L310.568 57.2013L310.616 57.2288L311.81 55.1594ZM317.295 60.5108L319.344 59.2817V59.2817L317.295 60.5108ZM315.957 79.3743L314.053 77.9317L314.039 77.9503L314.025 77.9692L315.957 79.3743ZM306.592 86.1973L307.42 88.4382L307.442 88.4303L307.463 88.422L306.592 86.1973ZM278.498 86.7324L277.776 89.0097L277.783 89.0122L277.791 89.0146L278.498 86.7324ZM269.267 82.1838L267.8 84.0695L267.816 84.0824L267.833 84.095L269.267 82.1838ZM263.648 76.1635L261.622 77.4297L263.648 76.1635ZM260.838 70.0094L258.509 70.5389L258.52 70.5887L258.533 70.638L260.838 70.0094ZM260.437 67.4484H274.217V62.6704H260.437V67.4484ZM271.879 65.5516C272.721 69.5511 274.901 72.817 278.297 75.2861L281.107 71.422C278.615 69.61 277.139 67.3462 276.554 64.5673L271.879 65.5516ZM278.336 75.314C281.809 77.7348 286.311 78.8201 291.608 78.8201V74.0421C286.917 74.0421 283.481 73.076 281.068 71.3941L278.336 75.314ZM291.608 78.8201C294.947 78.8201 297.794 78.4562 299.988 77.5789L298.213 73.1427C296.839 73.6924 294.692 74.0421 291.608 74.0421V78.8201ZM299.951 77.5933C302.139 76.7595 303.976 75.4902 305.054 73.6028L300.906 71.2323C300.557 71.8422 299.807 72.5351 298.25 73.1283L299.951 77.5933ZM304.99 73.7094C306.06 72.0439 306.573 70.161 306.573 68.1365H301.795C301.795 69.3227 301.505 70.2939 300.971 71.1257L304.99 73.7094ZM306.573 68.1365C306.573 65.6816 305.829 63.4608 304.065 61.8324L300.825 65.3433C301.379 65.8554 301.795 66.6671 301.795 68.1365H306.573ZM304.134 61.8985C302.705 60.4691 300.718 59.4237 298.384 58.6457L296.873 63.1785C298.82 63.8276 300.045 64.566 300.756 65.2771L304.134 61.8985ZM298.384 58.6457C296.086 57.8797 293.279 57.2302 289.994 56.6827L289.209 61.3957C292.346 61.9184 294.89 62.5175 296.873 63.1785L298.384 58.6457ZM290.166 56.7179C286.911 55.9259 283.7 55.0462 280.534 54.0788L279.137 58.6482C282.393 59.6429 285.693 60.547 289.037 61.3605L290.166 56.7179ZM280.534 54.0788C277.46 53.1396 274.717 51.9967 272.294 50.6596L269.985 54.8431C272.735 56.36 275.789 57.6252 279.137 58.6482L280.534 54.0788ZM272.348 50.6903C270.033 49.3332 268.257 47.6942 266.961 45.789L263.01 48.4758C264.747 51.0301 267.074 53.137 269.931 54.8123L272.348 50.6903ZM267.02 45.8803C265.87 44.0107 265.234 41.656 265.234 38.704H260.456C260.456 42.3521 261.247 45.6162 262.951 48.3845L267.02 45.8803ZM265.234 38.704C265.234 36.0357 265.819 33.7217 266.94 31.7034L262.763 29.383C261.209 32.1809 260.456 35.3075 260.456 38.704H265.234ZM266.926 31.7285C268.163 29.5631 269.868 27.7326 272.08 26.2322L269.397 22.2785C266.613 24.1673 264.394 26.5287 262.777 29.3579L266.926 31.7285ZM272.08 26.2322C274.32 24.7118 277.007 23.5199 280.176 22.686L278.96 18.0653C275.35 19.0151 272.151 20.4097 269.397 22.2785L272.08 26.2322ZM280.232 22.6704C283.378 21.7597 286.853 21.293 290.672 21.293V16.515C286.464 16.515 282.536 17.0294 278.904 18.0808L280.232 22.6704ZM290.672 21.293C296.229 21.293 300.659 22.1931 304.072 23.8601L306.169 19.5668C301.912 17.4878 296.709 16.515 290.672 16.515V21.293ZM304.092 23.8695C307.631 25.5587 310.189 27.8771 311.883 30.8037L316.018 28.4097C313.788 24.5579 310.459 21.6141 306.15 19.5574L304.092 23.8695ZM311.907 30.8437C313.709 33.8221 314.638 37.2654 314.638 41.2459H319.416C319.416 36.4859 318.294 32.1697 315.994 28.3697L311.907 30.8437ZM317.027 38.8569H303.917V43.6349H317.027V38.8569ZM306.259 40.7774C305.478 36.8707 303.893 33.6798 301.242 31.6051L298.297 35.3678C299.749 36.5039 300.928 38.486 301.574 41.7144L306.259 40.7774ZM301.242 31.6051C298.589 29.5291 294.887 28.6893 290.538 28.6893V33.4673C294.395 33.4673 296.847 34.2329 298.297 35.3678L301.242 31.6051ZM290.538 28.6893C286.221 28.6893 282.551 29.4293 279.848 31.2311L282.498 35.2066C284.077 34.1544 286.65 33.4673 290.538 33.4673V28.6893ZM279.848 31.2311C277.067 33.0852 275.573 35.7808 275.573 39.1054H280.352C280.352 37.4353 280.998 36.2066 282.498 35.2066L279.848 31.2311ZM275.573 39.1054C275.573 41.6255 276.51 43.8171 278.405 45.4594L281.534 41.8487C280.753 41.1721 280.352 40.3312 280.352 39.1054H275.573ZM278.536 45.5652C280.264 46.8615 282.555 47.899 285.281 48.7451L286.698 44.1818C284.251 43.4226 282.528 42.5871 281.403 41.7428L278.536 45.5652ZM285.281 48.7451C287.939 49.5698 291.031 50.3873 294.55 51.1994L295.624 46.5438C292.186 45.7504 289.213 44.9626 286.698 44.1818L285.281 48.7451ZM294.447 51.1734C297.617 52.0538 300.603 52.9763 303.408 53.9403L304.961 49.4218C302.057 48.4237 298.979 47.4732 295.726 46.5697L294.447 51.1734ZM303.472 53.9613C306.149 54.7979 308.493 55.8728 310.522 57.1716L313.098 53.1472C310.668 51.592 307.928 50.348 304.897 49.4008L303.472 53.9613ZM310.616 57.2288C312.594 58.37 314.124 59.8689 315.246 61.7399L319.344 59.2817C317.79 56.6932 315.663 54.6246 313.004 53.0901L310.616 57.2288ZM315.246 61.7399C316.309 63.5108 316.913 65.8234 316.913 68.8054H321.691C321.691 65.1873 320.957 61.9702 319.344 59.2817L315.246 61.7399ZM316.913 68.8054C316.913 72.4482 315.933 75.4497 314.053 77.9317L317.861 80.8169C320.441 77.4124 321.691 73.368 321.691 68.8054H316.913ZM314.025 77.9692C312.205 80.4723 309.49 82.4981 305.722 83.9726L307.463 88.422C311.9 86.6857 315.429 84.1628 317.889 80.7795L314.025 77.9692ZM305.764 83.9564C301.997 85.3486 297.344 86.0826 291.742 86.0826V90.8606C297.736 90.8606 302.982 90.0785 307.42 88.4382L305.764 83.9564ZM291.742 86.0826C286.831 86.0826 282.665 85.5215 279.204 84.4503L277.791 89.0146C281.822 90.2623 286.486 90.8606 291.742 90.8606V86.0826ZM279.22 84.4552C275.762 83.359 272.94 81.9523 270.7 80.2726L267.833 84.095C270.588 86.1612 273.919 87.787 277.776 89.0097L279.22 84.4552ZM270.733 80.298C268.502 78.5623 266.835 76.7564 265.673 74.8973L261.622 77.4297C263.136 79.8517 265.215 82.0593 267.8 84.0695L270.733 80.298ZM265.673 74.8973C264.431 72.909 263.604 71.0715 263.143 69.3809L258.533 70.638C259.143 72.8717 260.189 75.1369 261.622 77.4297L265.673 74.8973ZM263.168 69.48C262.757 67.6722 262.678 66.3288 262.805 65.3752L258.069 64.7437C257.839 66.4658 258.028 68.4224 258.509 70.5389L263.168 69.48ZM324.644 20.3756V17.9866H320.95L322.465 21.3556L324.644 20.3756ZM340.564 20.3756L342.766 19.4496L342.151 17.9866H340.564V20.3756ZM367.455 84.3243L367.942 86.6631L370.781 86.0716L369.657 83.3983L367.455 84.3243ZM354.611 87L352.433 87.98L353.22 89.7302L355.099 89.3388L354.611 87ZM398.894 20.3756L401.065 21.3712L402.617 17.9866H398.894V20.3756ZM356.083 113.757V116.146H357.616L358.255 114.752L356.083 113.757ZM340.43 113.757L338.295 112.685L336.558 116.146H340.43V113.757ZM358.759 77.2338L360.894 78.3053L360.927 78.2386L360.957 78.1699L358.759 77.2338ZM382.973 20.3756V17.9866H381.394L380.775 19.4395L382.973 20.3756ZM324.644 22.7646H340.564V17.9866H324.644V22.7646ZM338.362 21.3017L365.252 85.2504L369.657 83.3983L342.766 19.4496L338.362 21.3017ZM366.967 81.9855L354.124 84.6612L355.099 89.3388L367.942 86.6631L366.967 81.9855ZM356.79 86.02L326.822 19.3956L322.465 21.3556L352.433 87.98L356.79 86.02ZM396.722 19.38L353.911 112.761L358.255 114.752L401.065 21.3712L396.722 19.38ZM356.083 111.368H340.43V116.146H356.083V111.368ZM342.565 114.828L360.894 78.3053L356.623 76.1623L338.295 112.685L342.565 114.828ZM360.957 78.1699L385.171 21.3117L380.775 19.4395L356.561 76.2977L360.957 78.1699ZM382.973 22.7646H398.894V17.9866H382.973V22.7646ZM404.542 65.0594V62.6704H402.45L402.174 64.7437L404.542 65.0594ZM418.322 65.0594L420.659 64.5673L420.26 62.6704H418.322V65.0594ZM423.807 73.354L422.402 75.2861L422.421 75.3002L422.441 75.314L423.807 73.354ZM443.205 75.3608L442.355 73.1283L442.337 73.1353L442.318 73.1427L443.205 75.3608ZM447.085 72.4176L445.076 71.1257L445.042 71.1781L445.011 71.2323L447.085 72.4176ZM446.55 63.5878L444.861 65.2771L444.895 65.3109L444.93 65.3433L446.55 63.5878ZM441.734 60.9121L442.489 58.6457L441.734 60.9121ZM433.707 59.0392L433.142 61.3605L433.227 61.3812L433.314 61.3957L433.707 59.0392ZM423.941 56.3635L424.639 54.0788L423.941 56.3635ZM415.245 52.7513L414.036 54.8123L414.063 54.828L414.091 54.8431L415.245 52.7513ZM409.091 47.1324L407.056 48.3845L407.084 48.4308L407.115 48.4758L409.091 47.1324ZM408.957 30.5432L406.883 29.3579L406.875 29.3704L406.868 29.383L408.957 30.5432ZM414.843 24.2554L416.185 26.2322L414.843 24.2554ZM423.673 20.3756L424.281 22.686L424.309 22.6785L424.337 22.6704L423.673 20.3756ZM449.226 21.7135L448.177 23.8601L448.187 23.8649L448.197 23.8695L449.226 21.7135ZM458.056 29.6067L455.988 30.8037L456 30.8238L456.012 30.8437L458.056 29.6067ZM461.133 41.2459V43.6349H463.522V41.2459H461.133ZM448.022 41.2459L445.679 41.7144L446.063 43.6349H448.022V41.2459ZM443.874 33.4864L442.402 35.3678L443.874 33.4864ZM424.074 43.654L422.51 45.4594L422.574 45.5146L422.641 45.5652L424.074 43.654ZM430.095 46.4635L429.387 48.7451L430.095 46.4635ZM439.192 48.8716L439.831 46.5697L439.781 46.5556L439.729 46.5438L439.192 48.8716ZM448.289 51.6811L447.513 53.9403L447.545 53.9513L447.577 53.9613L448.289 51.6811ZM455.915 55.1594L454.627 57.1716L454.673 57.2013L454.721 57.2288L455.915 55.1594ZM461.4 60.5108L463.449 59.2817V59.2817L461.4 60.5108ZM460.062 79.3743L458.158 77.9317L458.144 77.9503L458.13 77.9692L460.062 79.3743ZM450.697 86.1973L451.526 88.4382L451.547 88.4303L451.568 88.422L450.697 86.1973ZM422.603 86.7324L421.881 89.0097L421.889 89.0122L421.896 89.0146L422.603 86.7324ZM413.372 82.1838L411.905 84.0695L411.922 84.0824L411.938 84.095L413.372 82.1838ZM407.753 76.1635L405.727 77.4297L407.753 76.1635ZM404.943 70.0094L402.614 70.5389L402.625 70.5887L402.638 70.638L404.943 70.0094ZM404.542 67.4484H418.322V62.6704H404.542V67.4484ZM415.984 65.5516C416.826 69.5511 419.007 72.817 422.402 75.2861L425.212 71.422C422.721 69.61 421.244 67.3462 420.659 64.5673L415.984 65.5516ZM422.441 75.314C425.914 77.7348 430.416 78.8201 435.714 78.8201V74.0421C431.022 74.0421 427.586 73.076 425.173 71.3941L422.441 75.314ZM435.714 78.8201C439.052 78.8201 441.899 78.4562 444.093 77.5789L442.318 73.1427C440.944 73.6924 438.797 74.0421 435.714 74.0421V78.8201ZM444.056 77.5933C446.245 76.7595 448.081 75.4902 449.159 73.6028L445.011 71.2323C444.662 71.8422 443.912 72.5351 442.355 73.1283L444.056 77.5933ZM449.095 73.7094C450.165 72.0439 450.678 70.161 450.678 68.1365H445.9C445.9 69.3227 445.61 70.2939 445.076 71.1257L449.095 73.7094ZM450.678 68.1365C450.678 65.6816 449.935 63.4608 448.171 61.8324L444.93 65.3433C445.484 65.8554 445.9 66.6671 445.9 68.1365H450.678ZM448.239 61.8985C446.81 60.4691 444.823 59.4237 442.489 58.6457L440.978 63.1785C442.926 63.8276 444.15 64.566 444.861 65.2771L448.239 61.8985ZM442.489 58.6457C440.191 57.8797 437.385 57.2302 434.1 56.6827L433.314 61.3957C436.451 61.9184 438.995 62.5175 440.978 63.1785L442.489 58.6457ZM434.271 56.7179C431.016 55.9259 427.805 55.0462 424.639 54.0788L423.242 58.6482C426.498 59.6429 429.798 60.547 433.142 61.3605L434.271 56.7179ZM424.639 54.0788C421.565 53.1396 418.822 51.9967 416.399 50.6596L414.091 54.8431C416.84 56.36 419.894 57.6252 423.242 58.6482L424.639 54.0788ZM416.453 50.6903C414.138 49.3332 412.362 47.6942 411.066 45.789L407.115 48.4758C408.852 51.0301 411.179 53.137 414.036 54.8123L416.453 50.6903ZM411.125 45.8803C409.975 44.0107 409.339 41.656 409.339 38.704H404.561C404.561 42.3521 405.352 45.6162 407.056 48.3845L411.125 45.8803ZM409.339 38.704C409.339 36.0357 409.924 33.7217 411.045 31.7034L406.868 29.383C405.314 32.1809 404.561 35.3075 404.561 38.704H409.339ZM411.031 31.7285C412.268 29.5631 413.974 27.7326 416.185 26.2322L413.502 22.2785C410.718 24.1673 408.499 26.5287 406.883 29.3579L411.031 31.7285ZM416.185 26.2322C418.425 24.7118 421.112 23.5199 424.281 22.686L423.065 18.0653C419.456 19.0151 416.256 20.4097 413.502 22.2785L416.185 26.2322ZM424.337 22.6704C427.483 21.7597 430.958 21.293 434.777 21.293V16.515C430.569 16.515 426.641 17.0294 423.009 18.0808L424.337 22.6704ZM434.777 21.293C440.335 21.293 444.764 22.1931 448.177 23.8601L450.274 19.5668C446.017 17.4878 440.814 16.515 434.777 16.515V21.293ZM448.197 23.8695C451.736 25.5587 454.294 27.8771 455.988 30.8037L460.123 28.4097C457.893 24.5579 454.564 21.6141 450.255 19.5574L448.197 23.8695ZM456.012 30.8437C457.814 33.8221 458.744 37.2654 458.744 41.2459H463.522C463.522 36.4859 462.399 32.1697 460.099 28.3697L456.012 30.8437ZM461.133 38.8569H448.022V43.6349H461.133V38.8569ZM450.364 40.7774C449.583 36.8707 447.998 33.6798 445.347 31.6051L442.402 35.3678C443.854 36.5039 445.033 38.486 445.679 41.7144L450.364 40.7774ZM445.347 31.6051C442.694 29.5291 438.992 28.6893 434.643 28.6893V33.4673C438.5 33.4673 440.952 34.2329 442.402 35.3678L445.347 31.6051ZM434.643 28.6893C430.326 28.6893 426.656 29.4293 423.953 31.2311L426.604 35.2066C428.182 34.1544 430.755 33.4673 434.643 33.4673V28.6893ZM423.953 31.2311C421.172 33.0852 419.679 35.7808 419.679 39.1054H424.457C424.457 37.4353 425.104 36.2066 426.604 35.2066L423.953 31.2311ZM419.679 39.1054C419.679 41.6255 420.615 43.8171 422.51 45.4594L425.639 41.8487C424.858 41.1721 424.457 40.3312 424.457 39.1054H419.679ZM422.641 45.5652C424.369 46.8615 426.66 47.899 429.387 48.7451L430.803 44.1818C428.356 43.4226 426.633 42.5871 425.508 41.7428L422.641 45.5652ZM429.387 48.7451C432.044 49.5698 435.136 50.3873 438.655 51.1994L439.729 46.5438C436.291 45.7504 433.318 44.9626 430.803 44.1818L429.387 48.7451ZM438.553 51.1734C441.722 52.0538 444.708 52.9763 447.513 53.9403L449.066 49.4218C446.162 48.4237 443.084 47.4732 439.831 46.5697L438.553 51.1734ZM447.577 53.9613C450.254 54.7979 452.598 55.8728 454.627 57.1716L457.203 53.1472C454.773 51.592 452.033 50.348 449.002 49.4008L447.577 53.9613ZM454.721 57.2288C456.699 58.37 458.229 59.8689 459.352 61.7399L463.449 59.2817C461.896 56.6932 459.769 54.6246 457.109 53.0901L454.721 57.2288ZM459.352 61.7399C460.414 63.5108 461.018 65.8234 461.018 68.8054H465.796C465.796 65.1873 465.062 61.9702 463.449 59.2817L459.352 61.7399ZM461.018 68.8054C461.018 72.4482 460.038 75.4497 458.158 77.9317L461.966 80.8169C464.546 77.4124 465.796 73.368 465.796 68.8054H461.018ZM458.13 77.9692C456.31 80.4723 453.595 82.4981 449.827 83.9726L451.568 88.422C456.005 86.6857 459.534 84.1628 461.994 80.7795L458.13 77.9692ZM449.869 83.9564C446.102 85.3486 441.449 86.0826 435.847 86.0826V90.8606C441.841 90.8606 447.087 90.0785 451.526 88.4382L449.869 83.9564ZM435.847 86.0826C430.936 86.0826 426.77 85.5215 423.309 84.4503L421.896 89.0146C425.927 90.2623 430.591 90.8606 435.847 90.8606V86.0826ZM423.325 84.4552C419.868 83.359 417.045 81.9523 414.805 80.2726L411.938 84.095C414.693 86.1612 418.024 87.787 421.881 89.0097L423.325 84.4552ZM414.838 80.298C412.607 78.5623 410.94 76.7564 409.779 74.8973L405.727 77.4297C407.241 79.8517 409.32 82.0593 411.905 84.0695L414.838 80.298ZM409.779 74.8973C408.536 72.909 407.709 71.0715 407.248 69.3809L402.638 70.638C403.248 72.8717 404.294 75.1369 405.727 77.4297L409.779 74.8973ZM407.273 69.48C406.862 67.6722 406.783 66.3288 406.91 65.3752L402.174 64.7437C401.944 66.4658 402.133 68.4224 402.614 70.5389L407.273 69.48ZM472.177 20.3756V17.9866H469.788V20.3756H472.177ZM519.269 20.3756H521.658V17.9866H519.269V20.3756ZM519.269 32.55V34.939H521.658V32.55H519.269ZM472.177 32.55H469.788V34.939H472.177V32.55ZM488.231 2.44858V0.0595779H485.842V2.44858H488.231ZM503.215 2.44858H505.604V0.0595779H503.215V2.44858ZM503.215 87V89.389H505.604V87H503.215ZM488.231 87H485.842V89.389H488.231V87ZM472.177 22.7646H519.269V17.9866H472.177V22.7646ZM516.88 20.3756V32.55H521.658V20.3756H516.88ZM519.269 30.161H472.177V34.939H519.269V30.161ZM474.566 32.55V20.3756H469.788V32.55H474.566ZM488.231 4.83757H503.215V0.0595779H488.231V4.83757ZM500.826 2.44858V87H505.604V2.44858H500.826ZM503.215 84.611H488.231V89.389H503.215V84.611ZM490.62 87V2.44858H485.842V87H490.62ZM585.557 65.0594V62.6704H583.806L583.279 64.34L585.557 65.0594ZM599.872 65.0594L602.232 65.4297L602.665 62.6704H599.872V65.0594ZM594.52 77.2338L592.655 75.7414L592.65 75.7472L594.52 77.2338ZM583.149 85.5284L584.05 87.7408L584.067 87.7337L584.085 87.7263L583.149 85.5284ZM545.555 84.3243L544.526 86.4801L544.539 86.4864L544.552 86.4925L545.555 84.3243ZM531.508 72.2838L529.51 73.593L531.508 72.2838ZM531.374 35.3594L533.398 36.6287V36.6287L531.374 35.3594ZM545.02 23.1851L543.978 21.0354L543.971 21.0386L543.965 21.0417L545.02 23.1851ZM585.155 23.1851L584.016 25.2851L584.037 25.2965L584.059 25.3075L585.155 23.1851ZM597.062 35.7608L594.892 36.7597L594.895 36.7663L594.898 36.7729L597.062 35.7608ZM600.273 56.7648V59.1538H602.54L602.659 56.8904L600.273 56.7648ZM541.542 56.7648V54.3758H538.852L539.17 57.0472L541.542 56.7648ZM545.154 66.9324L543.148 68.2302L543.171 68.2647L543.194 68.2984L545.154 66.9324ZM553.449 73.8892L552.402 76.0369L552.425 76.0478L552.447 76.0583L553.449 73.8892ZM578.6 73.2203L577.409 71.1492L577.398 71.1558L577.386 71.1625L578.6 73.2203ZM549.97 35.4932L551.404 37.4044L551.417 37.3941L551.431 37.3836L549.97 35.4932ZM542.345 46.8648L540.027 46.2854L539.285 49.2538H542.345V46.8648ZM585.289 46.8648V49.2538H587.855L587.672 46.6946L585.289 46.8648ZM579.269 35.2256L577.799 37.1089L577.813 37.1202L577.828 37.1312L579.269 35.2256ZM585.557 67.4484H599.872V62.6704H585.557V67.4484ZM597.511 64.6892C596.862 68.8305 595.247 72.5011 592.655 75.7414L596.386 78.7262C599.502 74.8313 601.454 70.3857 602.232 65.4297L597.511 64.6892ZM592.65 75.7472C590.173 78.8633 586.728 81.4071 582.212 83.3304L584.085 87.7263C589.201 85.547 593.338 82.561 596.39 78.7203L592.65 75.7472ZM582.247 83.3159C577.786 85.1334 572.355 86.0826 565.891 86.0826V90.8606C572.804 90.8606 578.878 89.8477 584.05 87.7408L582.247 83.3159ZM565.891 86.0826C558.604 86.0826 552.176 84.7551 546.559 82.1562L544.552 86.4925C550.887 89.4233 558.015 90.8606 565.891 90.8606V86.0826ZM546.585 82.1686C540.974 79.489 536.639 75.7561 533.506 70.9745L529.51 73.593C533.155 79.1574 538.185 83.4516 544.526 86.4801L546.585 82.1686ZM533.506 70.9745C530.409 66.2477 528.813 60.5649 528.813 53.8216H524.035C524.035 61.3486 525.828 67.9739 529.51 73.593L533.506 70.9745ZM528.813 53.8216C528.813 47.1627 530.368 41.4612 533.398 36.6287L529.35 34.0902C525.781 39.7819 524.035 46.3886 524.035 53.8216H528.813ZM533.398 36.6287C536.453 31.7577 540.659 27.9949 546.075 25.3284L543.965 21.0417C537.787 24.0833 532.896 28.4368 529.35 34.0902L533.398 36.6287ZM546.062 25.3347C551.573 22.6632 557.984 21.293 565.355 21.293V16.515C557.386 16.515 550.241 17.9989 543.978 21.0354L546.062 25.3347ZM565.355 21.293C573.02 21.293 579.199 22.6725 584.016 25.2851L586.294 21.0851C580.587 17.9896 573.566 16.515 565.355 16.515V21.293ZM584.059 25.3075C588.924 27.821 592.522 31.6104 594.892 36.7597L599.232 34.7618C596.43 28.6733 592.09 24.0789 586.252 21.0626L584.059 25.3075ZM594.898 36.7729C597.266 41.836 598.32 48.4135 597.887 56.6393L602.659 56.8904C603.118 48.1703 602.031 40.745 599.226 34.7486L594.898 36.7729ZM600.273 54.3758H541.542V59.1538H600.273V54.3758ZM539.17 57.0472C539.657 61.1387 540.979 64.878 543.148 68.2302L547.16 65.6346C545.404 62.9219 544.319 59.8829 543.914 56.4824L539.17 57.0472ZM543.194 68.2984C545.496 71.6019 548.587 74.1783 552.402 76.0369L554.495 71.7415C551.353 70.2109 548.914 68.1494 547.114 65.5664L543.194 68.2984ZM552.447 76.0583C556.299 77.8358 560.711 78.6863 565.623 78.6863V73.9083C561.259 73.9083 557.555 73.1534 554.45 71.7201L552.447 76.0583ZM565.623 78.6863C571.105 78.6863 575.878 77.5991 579.814 75.2781L577.386 71.1625C574.365 72.9441 570.487 73.9083 565.623 73.9083V78.6863ZM579.791 75.2913C583.79 72.9919 586.556 69.8284 587.835 65.7788L583.279 64.34C582.417 67.0689 580.545 69.3459 577.409 71.1492L579.791 75.2913ZM564.954 28.5555C558.481 28.5555 552.939 30.1803 548.509 33.6028L551.431 37.3836C554.85 34.7413 559.297 33.3335 564.954 33.3335V28.5555ZM548.537 33.582C544.186 36.8451 541.323 41.1004 540.027 46.2854L544.662 47.4443C545.685 43.3536 547.906 40.0278 551.404 37.4044L548.537 33.582ZM542.345 49.2538H585.289V44.4758H542.345V49.2538ZM587.672 46.6946C587.271 41.0841 584.971 36.5417 580.71 33.32L577.828 37.1312C580.881 39.4393 582.594 42.6563 582.906 47.035L587.672 46.6946ZM580.739 33.3423C576.56 30.0811 571.228 28.5555 564.954 28.5555V33.3335C570.453 33.3335 574.664 34.662 577.799 37.1089L580.739 33.3423ZM613.518 20.3756V17.9866H611.129V20.3756H613.518ZM628.368 20.3756H630.757V17.9866H628.368V20.3756ZM628.368 87V89.389H630.757V87H628.368ZM613.518 87H611.129V89.389H613.518V87ZM667.031 20.5094L666.276 22.7758L666.285 22.7789L666.294 22.7819L667.031 20.5094ZM675.46 25.4594L673.804 27.1815L673.837 27.2139L673.872 27.245L675.46 25.4594ZM680.945 33.4864L678.718 34.3523L678.728 34.3789L678.739 34.4053L680.945 33.4864ZM682.951 87V89.389H685.34V87H682.951ZM668.101 87H665.712V89.389H668.101V87ZM664.088 35.7608L662.37 37.4212L662.398 37.4503L662.427 37.4784L664.088 35.7608ZM640.007 34.5567L641.097 36.6825L641.107 36.6773L641.117 36.6719L640.007 34.5567ZM631.445 41.6473L633.327 43.118L633.338 43.104L633.349 43.0899L631.445 41.6473ZM627.565 51.1459L625.176 51.1901L629.941 51.3897L627.565 51.1459ZM627.431 43.9216L625.064 43.6017L625.039 43.7829L625.042 43.9658L627.431 43.9216ZM630.374 34.5567L632.498 35.6508L632.505 35.638L632.511 35.6251L630.374 34.5567ZM636.395 26.5297L638.02 28.2803L638.037 28.265L638.053 28.2494L636.395 26.5297ZM645.224 20.9108L646.102 23.1329L645.224 20.9108ZM720.277 20.5094L719.522 22.7758L720.277 20.5094ZM728.572 25.4594L726.916 27.1815L726.95 27.2139L726.985 27.245L728.572 25.4594ZM734.191 33.4864L731.985 34.4053L734.191 33.4864ZM736.197 87V89.389H738.586V87H736.197ZM721.214 87H718.825V89.389H721.214V87ZM717.2 35.7608L715.482 37.4212L715.511 37.4503L715.54 37.4784L717.2 35.7608ZM693.119 34.5567L694.209 36.6825L694.219 36.6773L694.229 36.6719L693.119 34.5567ZM684.557 41.6473L682.653 40.2046L682.646 40.2139L684.557 41.6473ZM680.811 51.1459L678.423 51.2312L683.187 51.3897L680.811 51.1459ZM680.543 43.654L678.177 43.3254L678.148 43.5314L678.156 43.7393L680.543 43.654ZM683.62 34.4229L685.718 35.5669L685.725 35.5539L685.732 35.5407L683.62 34.4229ZM689.774 26.3959L691.4 28.1465L689.774 26.3959ZM698.47 20.9108L697.593 18.6886L697.583 18.6926L697.573 18.6968L698.47 20.9108ZM613.518 22.7646H628.368V17.9866H613.518V22.7646ZM625.979 20.3756V87H630.757V20.3756H625.979ZM628.368 84.611H613.518V89.389H628.368V84.611ZM615.907 87V20.3756H611.129V87H615.907ZM656.462 21.293C660.074 21.293 663.339 21.7967 666.276 22.7758L667.787 18.243C664.302 17.0815 660.52 16.515 656.462 16.515V21.293ZM666.294 22.7819C669.278 23.7495 671.766 25.2217 673.804 27.1815L677.115 23.7373C674.516 21.2377 671.385 19.4099 667.768 18.2369L666.294 22.7819ZM673.872 27.245C675.978 29.1167 677.597 31.4694 678.718 34.3523L683.171 32.6206C681.795 29.0819 679.757 26.0832 677.047 23.6739L673.872 27.245ZM678.739 34.4053C679.929 37.2607 680.562 40.7252 680.562 44.8581H685.34C685.34 40.2504 684.636 36.1338 683.15 32.5676L678.739 34.4053ZM680.562 44.8581V87H685.34V44.8581H680.562ZM682.951 84.611H668.101V89.389H682.951V84.611ZM670.49 87V47.8013H665.712V87H670.49ZM670.49 47.8013C670.49 42.0134 669.068 37.2526 665.748 34.0431L662.427 37.4784C664.459 39.4419 665.712 42.7082 665.712 47.8013H670.49ZM665.806 34.1004C662.583 30.7671 657.719 29.3583 651.78 29.3583V34.1362C657.078 34.1362 660.419 35.4031 662.37 37.4212L665.806 34.1004ZM651.78 29.3583C647.137 29.3583 642.828 30.3775 638.896 32.4415L641.117 36.6719C644.321 34.99 647.861 34.1362 651.78 34.1362V29.3583ZM638.917 32.4309C635.138 34.3686 631.999 36.9588 629.54 40.2046L633.349 43.0899C635.349 40.4493 637.919 38.3124 641.097 36.6825L638.917 32.4309ZM629.562 40.1765C627.066 43.3716 625.593 46.9599 625.188 50.9022L629.941 51.3897C630.251 48.3752 631.364 45.6311 633.327 43.118L629.562 40.1765ZM629.953 51.1017L629.82 43.8773L625.042 43.9658L625.176 51.1901L629.953 51.1017ZM629.799 44.2415C630.208 41.21 631.107 38.3503 632.498 35.6508L628.251 33.4627C626.609 36.6496 625.546 40.0332 625.064 43.6017L629.799 44.2415ZM632.511 35.6251C633.899 32.8503 635.732 30.4053 638.02 28.2803L634.769 24.779C632.063 27.2919 629.883 30.1983 628.238 33.4883L632.511 35.6251ZM638.053 28.2494C640.314 26.0691 642.988 24.3618 646.102 23.1329L644.347 18.6886C640.682 20.1354 637.47 22.1741 634.736 24.81L638.053 28.2494ZM646.102 23.1329C649.178 21.9183 652.622 21.293 656.462 21.293V16.515C652.097 16.515 648.049 17.2275 644.347 18.6886L646.102 23.1329ZM709.574 21.293C713.282 21.293 716.59 21.7985 719.522 22.7758L721.033 18.243C717.543 17.0798 713.715 16.515 709.574 16.515V21.293ZM719.522 22.7758C722.414 23.7398 724.866 25.2106 726.916 27.1815L730.228 23.7373C727.639 21.2487 724.562 19.4196 721.033 18.243L719.522 22.7758ZM726.985 27.245C729.103 29.1281 730.775 31.4993 731.985 34.4053L736.396 32.5676C734.931 29.052 732.857 26.0718 730.159 23.6739L726.985 27.245ZM731.985 34.4053C733.175 37.2607 733.808 40.7252 733.808 44.8581H738.586C738.586 40.2504 737.882 36.1338 736.396 32.5676L731.985 34.4053ZM733.808 44.8581V87H738.586V44.8581H733.808ZM736.197 84.611H721.214V89.389H736.197V84.611ZM723.603 87V47.8013H718.825V87H723.603ZM723.603 47.8013C723.603 42.0134 722.181 37.2526 718.86 34.0431L715.54 37.4784C717.571 39.4419 718.825 42.7082 718.825 47.8013H723.603ZM718.918 34.1004C715.696 30.7671 710.831 29.3583 704.892 29.3583V34.1362C710.19 34.1362 713.532 35.4031 715.482 37.4212L718.918 34.1004ZM704.892 29.3583C700.249 29.3583 695.94 30.3775 692.008 32.4415L694.229 36.6719C697.433 34.99 700.973 34.1362 704.892 34.1362V29.3583ZM692.029 32.4309C688.25 34.3686 685.112 36.9588 682.653 40.2046L686.461 43.0899C688.462 40.4493 691.031 38.3124 694.209 36.6825L692.029 32.4309ZM682.646 40.2139C680.25 43.4075 678.836 46.9832 678.434 50.9022L683.187 51.3897C683.499 48.3518 684.582 45.5952 686.468 43.0807L682.646 40.2139ZM683.198 51.0607L682.931 43.5688L678.156 43.7393L678.423 51.2312L683.198 51.0607ZM682.91 43.9827C683.314 41.0674 684.246 38.2657 685.718 35.5669L681.523 33.279C679.784 36.4667 678.664 39.819 678.177 43.3254L682.91 43.9827ZM685.732 35.5407C687.213 32.7433 689.1 30.282 691.4 28.1465L688.149 24.6453C685.454 27.1477 683.239 30.0377 681.509 33.3051L685.732 35.5407ZM691.4 28.1465C693.675 26.0338 696.324 24.3586 699.368 23.1247L697.573 18.6968C694.016 20.1386 690.868 22.1202 688.149 24.6453L691.4 28.1465ZM699.347 23.1329C702.43 21.916 705.831 21.293 709.574 21.293V16.515C705.291 16.515 701.289 17.2299 697.593 18.6886L699.347 23.1329Z" fill="url(#paint0_linear_171_972)" mask="url(#path-1-outside-1_171_972)"/>
</g>
<defs>
<linearGradient id="paint0_linear_171_972" x1="-10" y1="-40" x2="60.4322" y2="278.421" gradientUnits="userSpaceOnUse">
<stop stop-color="white"/>
<stop offset="0.5" stop-color="white"/>
<stop offset="1" stop-color="#52525B"/>
</linearGradient>
</defs>
</svg>
